<?xml version="1.0" encoding="UTF-8" standalone="no"?>
<svg
   width="458mm"
   height="588mm"
   viewBox="-229 -239 458 588"
   version="1.1"
   id="svg1"
   sodipodi:docname="CompactCreativityCube_Walls.svg"
   inkscape:version="1.3.2 (091e20e, 2023-11-25)"
   xmlns:inkscape="http://www.inkscape.org/namespaces/inkscape"
   xmlns:sodipodi="http://sodipodi.sourceforge.net/DTD/sodipodi-0.dtd"
   xmlns="http://www.w3.org/2000/svg"
   xmlns:svg="http://www.w3.org/2000/svg">
  <defs
     id="defs1" />
  <sodipodi:namedview
     id="namedview1"
     pagecolor="#ffffff"
     bordercolor="#666666"
     borderopacity="1.0"
     inkscape:showpageshadow="2"
     inkscape:pageopacity="0.0"
     inkscape:pagecheckerboard="0"
     inkscape:deskcolor="#d1d1d1"
     inkscape:document-units="mm"
     inkscape:zoom="0.1958755"
     inkscape:cx="648.37103"
     inkscape:cy="490.10724"
     inkscape:window-width="1280"
     inkscape:window-height="755"
     inkscape:window-x="0"
     inkscape:window-y="23"
     inkscape:window-maximized="1"
     inkscape:current-layer="svg1" />
  <title
     id="title1">OpenSCAD Model</title>
  <path
     d="M 229,-239 H 79 v 150 h 150 z"
     id="path10"
     style="opacity:0.27472527" />
  <g
     id="g87"
     transform="translate(0,-167)">
    <path
       d="M 72,92 H -72 V 236 H 72 Z"
       id="path67"
       style="opacity:0.274725" />
    <path
       d="m -52.013,233.91 -0.4512,-0.261 -0.3348,-0.399 -0.1782,-0.49 v -0.52 l 0.1782,-0.49 0.3348,-0.399 0.4512,-0.261 0.513,-0.09 0.513,0.09 0.4512,0.261 0.3348,0.399 0.1782,0.49 v 0.52 l -0.1782,0.49 -0.3348,0.399 -0.4512,0.261 -0.513,0.09 z"
       id="path84"
       style="opacity:0.274725" />
    <path
       d="m 50.987,233.91 -0.4512,-0.261 -0.3348,-0.399 -0.1782,-0.49 v -0.52 l 0.1782,-0.49 0.3348,-0.399 0.4512,-0.261 0.513,-0.09 0.513,0.09 0.4512,0.261 0.3348,0.399 0.1782,0.49 v 0.52 l -0.1782,0.49 -0.3348,0.399 L 52.013,233.91 51.5,234 Z"
       id="path83"
       style="opacity:0.274725" />
    <path
       d="m -43.2952,232.174 -0.2862,-0.077 -0.2686,-0.125 -0.2427,-0.17 -0.2096,-0.209 -0.1699,-0.243 -0.1253,-0.269 -0.0767,-0.286 -0.0258,-0.295 0.0258,-0.295 0.0767,-0.286 0.1253,-0.269 0.1699,-0.243 0.2096,-0.209 0.2427,-0.17 0.2686,-0.125 0.2862,-0.077 0.2952,-0.026 0.2952,0.026 0.2862,0.077 0.2686,0.125 0.2427,0.17 0.2096,0.209 0.1699,0.243 0.1253,0.269 0.0767,0.286 0.0258,0.295 -0.0258,0.295 -0.0767,0.286 -0.1253,0.269 -0.1699,0.243 -0.2096,0.209 -0.2427,0.17 -0.2686,0.125 -0.2862,0.077 L -43,232.2 Z"
       id="path82"
       style="opacity:0.274725" />
    <path
       d="m 18.7048,232.174 -0.2862,-0.077 -0.2686,-0.125 -0.2427,-0.17 -0.2096,-0.209 -0.1699,-0.243 -0.1253,-0.269 -0.0767,-0.286 -0.0258,-0.295 0.0258,-0.295 0.0767,-0.286 0.1253,-0.269 0.1699,-0.243 0.2096,-0.209 0.2427,-0.17 0.2686,-0.125 0.2862,-0.077 L 19,228.8 l 0.2952,0.026 0.2862,0.077 0.2686,0.125 0.2427,0.17 0.2096,0.209 0.1699,0.243 0.1253,0.269 0.0767,0.286 0.0258,0.295 -0.0258,0.295 -0.0767,0.286 -0.1253,0.269 -0.1699,0.243 -0.2096,0.209 -0.2427,0.17 -0.2686,0.125 -0.2862,0.077 L 19,232.2 Z"
       id="path81"
       style="opacity:0.274725" />
    <path
       d="m -19.2952,213.174 -0.2862,-0.077 -0.2686,-0.125 -0.2427,-0.17 -0.2096,-0.209 -0.1699,-0.243 -0.1253,-0.269 -0.0767,-0.286 -0.0258,-0.295 0.0258,-0.295 0.0767,-0.286 0.1253,-0.269 0.1699,-0.243 0.2096,-0.209 0.2427,-0.17 0.2686,-0.125 0.2862,-0.077 0.2952,-0.026 0.2952,0.026 0.2862,0.077 0.2686,0.125 0.2427,0.17 0.2096,0.209 0.1699,0.243 0.1253,0.269 0.0767,0.286 0.0258,0.295 -0.0258,0.295 -0.0767,0.286 -0.1253,0.269 -0.1699,0.243 -0.2096,0.209 -0.2427,0.17 -0.2686,0.125 -0.2862,0.077 L -19,213.2 Z"
       id="path80"
       style="opacity:0.274725" />
    <path
       d="m 42.7048,213.174 -0.2862,-0.077 -0.2686,-0.125 -0.2427,-0.17 -0.2096,-0.209 -0.1699,-0.243 -0.1253,-0.269 -0.0767,-0.286 -0.0258,-0.295 0.0258,-0.295 0.0767,-0.286 0.1253,-0.269 0.1699,-0.243 0.2096,-0.209 0.2427,-0.17 0.2686,-0.125 0.2862,-0.077 L 43,209.8 l 0.2952,0.026 0.2862,0.077 0.2686,0.125 0.2427,0.17 0.2096,0.209 0.1699,0.243 0.1253,0.269 0.0767,0.286 0.0258,0.295 -0.0258,0.295 -0.0767,0.286 -0.1253,0.269 -0.1699,0.243 -0.2096,0.209 -0.2427,0.17 -0.2686,0.125 -0.2862,0.077 L 43,213.2 Z"
       id="path79"
       style="opacity:0.274725" />
    <path
       d="m 29.7718,232.686 -2.4028,-0.511 -2.244,-0.999 -1.9873,-1.444 -1.6437,-1.826 -1.2282,-2.127 -0.759,-2.336 L 19.25,221 l 0.2568,-2.443 0.759,-2.336 1.2282,-2.127 1.6437,-1.826 1.9873,-1.444 2.244,-0.999 2.4028,-0.511 h 2.4564 l 2.4028,0.511 2.244,0.999 1.9873,1.444 1.6437,1.826 1.2281,2.127 0.7591,2.336 0.2568,2.443 -0.2568,2.443 -0.7591,2.336 -1.2281,2.127 -1.6437,1.826 -1.9873,1.444 -2.244,0.999 -2.4028,0.511 z"
       id="path78"
       style="opacity:0.274725" />
    <path
       d="m -33.0404,232.571 -1.9783,-0.53 -1.8563,-0.865 -1.6777,-1.175 -1.4483,-1.448 -1.1748,-1.678 -0.8656,-1.856 -0.5301,-1.979 -0.1785,-2.04 0.1785,-2.04 0.5301,-1.979 0.8656,-1.856 1.1748,-1.678 1.4483,-1.448 1.6777,-1.175 1.8563,-0.865 1.9783,-0.53 2.0404,-0.179 2.0404,0.179 1.9783,0.53 1.8563,0.865 1.6778,1.175 1.4482,1.448 1.1748,1.678 0.8656,1.856 0.5301,1.979 0.1785,2.04 -0.1785,2.04 -0.5301,1.979 -0.8656,1.856 -1.1748,1.678 -1.4482,1.448 -1.6778,1.175 -1.8563,0.865 -1.9783,0.53 L -31,232.75 Z"
       id="path77"
       style="opacity:0.274725" />
    <path
       d="m -52.013,210.91 -0.4512,-0.261 -0.3348,-0.399 -0.1782,-0.49 v -0.52 l 0.1782,-0.49 0.3348,-0.399 0.4512,-0.261 0.513,-0.09 0.513,0.09 0.4512,0.261 0.3348,0.399 0.1782,0.49 v 0.52 l -0.1782,0.49 -0.3348,0.399 -0.4512,0.261 -0.513,0.09 z"
       id="path76"
       style="opacity:0.274725" />
    <path
       d="m 50.987,210.91 -0.4512,-0.261 -0.3348,-0.399 -0.1782,-0.49 v -0.52 l 0.1782,-0.49 0.3348,-0.399 0.4512,-0.261 0.513,-0.09 0.513,0.09 0.4512,0.261 0.3348,0.399 0.1782,0.49 v 0.52 l -0.1782,0.49 -0.3348,0.399 L 52.013,210.91 51.5,211 Z"
       id="path75"
       style="opacity:0.274725" />
    <path
       d="m -31.8371,205.996 -0.0865,-0.011 -0.0852,-0.019 -0.0832,-0.026 -0.0806,-0.034 -0.0774,-0.04 -0.0736,-0.047 -0.0692,-0.053 -0.0643,-0.059 -0.0589,-0.064 -0.0532,-0.069 -0.0468,-0.074 -0.0403,-0.077 -0.0334,-0.081 -0.0262,-0.083 -0.0189,-0.085 -0.0114,-0.087 -0.0038,-0.087 0.0038,-0.087 0.0114,-0.087 0.0189,-0.085 0.0262,-0.083 0.0334,-0.081 0.0403,-0.077 0.0468,-0.074 0.0532,-0.069 0.0589,-0.064 0.0643,-0.059 0.0692,-0.053 0.0736,-0.047 0.0774,-0.04 0.0806,-0.034 0.0832,-0.026 0.0852,-0.019 0.0865,-0.011 0.0871,-0.004 0.0872,0.004 0.0865,0.011 0.0851,0.019 0.0832,0.026 0.0806,0.034 0.0774,0.04 0.0736,0.047 0.0692,0.053 0.0643,0.059 0.059,0.064 0.0531,0.069 0.0468,0.074 0.0403,0.077 0.0334,0.081 0.0262,0.083 0.0189,0.085 0.0114,0.087 0.0038,0.087 -0.0038,0.087 -0.0114,0.087 -0.0189,0.085 -0.0262,0.083 -0.0334,0.081 -0.0403,0.077 -0.0468,0.074 -0.0531,0.069 -0.059,0.064 -0.0643,0.059 -0.0692,0.053 -0.0736,0.047 -0.0774,0.04 -0.0806,0.034 -0.0832,0.026 -0.0851,0.019 -0.0865,0.011 L -31.75,206 Z"
       id="path74"
       style="opacity:0.274725" />
    <path
       d="m 36.1628,205.996 -0.0865,-0.011 -0.0851,-0.019 -0.0832,-0.026 -0.0806,-0.034 -0.0774,-0.04 -0.0736,-0.047 -0.0692,-0.053 -0.0643,-0.059 -0.059,-0.064 -0.0531,-0.069 -0.0468,-0.074 -0.0403,-0.077 -0.0334,-0.081 -0.0262,-0.083 -0.0189,-0.085 -0.0114,-0.087 L 35.25,205 l 0.0038,-0.087 0.0114,-0.087 0.0189,-0.085 0.0262,-0.083 0.0334,-0.081 0.0403,-0.077 0.0468,-0.074 0.0531,-0.069 0.059,-0.064 0.0643,-0.059 0.0692,-0.053 0.0736,-0.047 0.0774,-0.04 0.0806,-0.034 0.0832,-0.026 0.0851,-0.019 0.0865,-0.011 0.0872,-0.004 0.0871,0.004 0.0865,0.011 0.0852,0.019 0.0832,0.026 0.0806,0.034 0.0774,0.04 0.0736,0.047 0.0692,0.053 0.0643,0.059 0.0589,0.064 0.0532,0.069 0.0468,0.074 0.0403,0.077 0.0334,0.081 0.0262,0.083 0.0189,0.085 0.0114,0.087 0.0038,0.087 -0.0038,0.087 -0.0114,0.087 -0.0189,0.085 -0.0262,0.083 -0.0334,0.081 -0.0403,0.077 -0.0468,0.074 -0.0532,0.069 -0.0589,0.064 -0.0643,0.059 -0.0692,0.053 -0.0736,0.047 -0.0774,0.04 -0.0806,0.034 -0.0832,0.026 -0.0852,0.019 -0.0865,0.011 L 36.25,206 Z"
       id="path73"
       style="opacity:0.274725" />
    <path
       d="m 31.6628,205.996 -0.0865,-0.011 -0.0851,-0.019 -0.0832,-0.026 -0.0806,-0.034 -0.0774,-0.04 -0.0736,-0.047 -0.0692,-0.053 -0.0643,-0.059 -0.059,-0.064 -0.0531,-0.069 -0.0468,-0.074 -0.0403,-0.077 -0.0334,-0.081 -0.0262,-0.083 -0.0189,-0.085 -0.0114,-0.087 L 30.75,205 l 0.0038,-0.087 0.0114,-0.087 0.0189,-0.085 0.0262,-0.083 0.0334,-0.081 0.0403,-0.077 0.0468,-0.074 0.0531,-0.069 0.059,-0.064 0.0643,-0.059 0.0692,-0.053 0.0736,-0.047 0.0774,-0.04 0.0806,-0.034 0.0832,-0.026 0.0851,-0.019 0.0865,-0.011 0.0872,-0.004 0.0871,0.004 0.0865,0.011 0.0852,0.019 0.0832,0.026 0.0806,0.034 0.0774,0.04 0.0736,0.047 0.0692,0.053 0.0643,0.059 0.0589,0.064 0.0532,0.069 0.0468,0.074 0.0403,0.077 0.0334,0.081 0.0262,0.083 0.0189,0.085 0.0114,0.087 0.0038,0.087 -0.0038,0.087 -0.0114,0.087 -0.0189,0.085 -0.0262,0.083 -0.0334,0.081 -0.0403,0.077 -0.0468,0.074 -0.0532,0.069 -0.0589,0.064 -0.0643,0.059 -0.0692,0.053 -0.0736,0.047 -0.0774,0.04 -0.0806,0.034 -0.0832,0.026 -0.0852,0.019 -0.0865,0.011 L 31.75,206 Z"
       id="path72"
       style="opacity:0.274725" />
    <path
       d="m -36.3371,205.996 -0.0865,-0.011 -0.0852,-0.019 -0.0832,-0.026 -0.0806,-0.034 -0.0774,-0.04 -0.0736,-0.047 -0.0692,-0.053 -0.0643,-0.059 -0.0589,-0.064 -0.0532,-0.069 -0.0468,-0.074 -0.0403,-0.077 -0.0334,-0.081 -0.0262,-0.083 -0.0189,-0.085 -0.0114,-0.087 -0.0038,-0.087 0.0038,-0.087 0.0114,-0.087 0.0189,-0.085 0.0262,-0.083 0.0334,-0.081 0.0403,-0.077 0.0468,-0.074 0.0532,-0.069 0.0589,-0.064 0.0643,-0.059 0.0692,-0.053 0.0736,-0.047 0.0774,-0.04 0.0806,-0.034 0.0832,-0.026 0.0852,-0.019 0.0865,-0.011 0.0871,-0.004 0.0872,0.004 0.0865,0.011 0.0851,0.019 0.0832,0.026 0.0806,0.034 0.0774,0.04 0.0736,0.047 0.0692,0.053 0.0643,0.059 0.059,0.064 0.0531,0.069 0.0468,0.074 0.0403,0.077 0.0334,0.081 0.0262,0.083 0.0189,0.085 0.0114,0.087 0.0038,0.087 -0.0038,0.087 -0.0114,0.087 -0.0189,0.085 -0.0262,0.083 -0.0334,0.081 -0.0403,0.077 -0.0468,0.074 -0.0531,0.069 -0.059,0.064 -0.0643,0.059 -0.0692,0.053 -0.0736,0.047 -0.0774,0.04 -0.0806,0.034 -0.0832,0.026 -0.0851,0.019 -0.0865,0.011 L -36.25,206 Z"
       id="path71"
       style="opacity:0.274725" />
    <path
       d="M 50.987,96.9095 50.5358,96.6491 50.201,96.25 50.0228,95.7605 v -0.521 L 50.201,94.75 50.5358,94.3509 50.987,94.0905 51.5,94 l 0.513,0.0905 0.4512,0.2604 0.3348,0.3991 0.1782,0.4895 v 0.521 L 52.799,96.25 52.4642,96.6491 52.013,96.9095 51.5,97 Z"
       id="path69"
       style="opacity:0.274725" />
    <path
       d="m -50.5358,94.3509 0.3348,0.3991 0.1782,0.4895 v 0.521 L -50.201,96.25 -50.5358,96.6491 -50.987,96.9095 -51.5,97 -52.013,96.9095 -52.4642,96.6491 -52.799,96.25 -52.9772,95.7605 v -0.521 L -52.799,94.75 -52.4642,94.3509 -52.013,94.0905 -51.5,94 l 0.513,0.0905 z"
       id="path68"
       style="opacity:0.274725" />
    <g
       id="g86"
       transform="rotate(180,0,89)">
      <path
         d="M 53.7365,71.8481 55.4202,71.3969 57,70.6602 58.4279,69.6604 59.6604,68.4279 60.6602,67 61.3969,65.4202 61.8481,63.7365 62,62 V -14 L 61.8481,-15.7365 61.3969,-17.4202 60.6602,-19 59.6604,-20.4279 58.4279,-21.6604 57,-22.6602 55.4202,-23.3969 53.7365,-23.8481 52,-24 H -52 l -1.7365,0.1519 -1.6837,0.4512 -1.5798,0.7367 -1.4279,0.9998 -1.2325,1.2325 -0.9998,1.4279 -0.7367,1.5798 -0.4512,1.6837 L -62,-14 v 76 l 0.1519,1.7365 0.4512,1.6837 0.7367,1.5798 0.9998,1.4279 1.2325,1.2325 1.4279,0.9998 1.5798,0.7367 1.6837,0.4512 L -52,72 H 52 Z"
         id="path58"
         style="opacity:0.274725" />
      <path
         d="M 9.73952,66.4772 9.48697,66.4095 9.25,66.299 9.03581,66.1491 8.85092,65.9642 8.70096,65.75 8.59045,65.513 8.52278,65.2605 8.5,65 8.52278,64.7395 8.59045,64.487 8.70096,64.25 8.85092,64.0358 9.03581,63.8509 9.25,63.701 9.48697,63.5905 9.73952,63.5228 10,63.5 l 0.2605,0.0228 0.2525,0.0677 0.237,0.1105 0.2142,0.1499 0.1849,0.1849 0.1499,0.2142 0.1105,0.237 0.0677,0.2525 L 11.5,65 11.4772,65.2605 11.4095,65.513 11.299,65.75 11.1491,65.9642 10.9642,66.1491 10.75,66.299 10.513,66.4095 10.2605,66.4772 10,66.5 Z"
         id="path66"
         style="opacity:0.274725" />
      <path
         d="M -10.2605,66.4772 -10.513,66.4095 -10.75,66.299 -10.9642,66.1491 -11.1491,65.9642 -11.299,65.75 -11.4095,65.513 -11.4772,65.2605 -11.5,65 l 0.0228,-0.2605 0.0677,-0.2525 0.1105,-0.237 0.1499,-0.2142 0.1849,-0.1849 0.2142,-0.1499 0.237,-0.1105 0.2525,-0.0677 L -10,63.5 l 0.26048,0.0228 0.25255,0.0677 0.23697,0.1105 0.21419,0.1499 0.18489,0.1849 0.14996,0.2142 0.11051,0.237 0.06767,0.2525 L -8.5,65 -8.52278,65.2605 -8.59045,65.513 -8.70096,65.75 -8.85092,65.9642 -9.03581,66.1491 -9.25,66.299 -9.48697,66.4095 -9.73952,66.4772 -10,66.5 Z"
         id="path65"
         style="opacity:0.274725" />
      <path
         d="m -56.5209,68.9544 -0.5052,-0.1353 -0.4739,-0.221 -0.4284,-0.3 -0.3697,-0.3697 -0.3,-0.4284 -0.221,-0.4739 -0.1353,-0.5052 L -59,66 l 0.0456,-0.521 0.1353,-0.5051 0.221,-0.4739 0.3,-0.4284 0.3697,-0.3697 0.4284,-0.3 0.4739,-0.221 0.5052,-0.1353 L -56,63 l 0.521,0.0456 0.5051,0.1353 0.4739,0.221 0.4284,0.3 0.3697,0.3697 0.3,0.4284 0.221,0.4739 0.1353,0.5051 L -53,66 l -0.0456,0.5209 -0.1353,0.5052 -0.221,0.4739 -0.3,0.4284 -0.3697,0.3697 -0.4284,0.3 -0.4739,0.221 -0.5051,0.1353 L -56,69 Z"
         id="path64"
         style="opacity:0.274725;fill:#00ff00;fill-opacity:1" />
      <path
         d="M 55.479,68.9544 54.9739,68.8191 54.5,68.5981 54.0716,68.2981 53.7019,67.9284 53.4019,67.5 53.1809,67.0261 53.0456,66.5209 53,66 l 0.0456,-0.521 0.1353,-0.5051 0.221,-0.4739 0.3,-0.4284 0.3697,-0.3697 0.4284,-0.3 0.4739,-0.221 L 55.479,63.0456 56,63 l 0.5209,0.0456 0.5052,0.1353 0.4739,0.221 0.4284,0.3 0.3697,0.3697 0.3,0.4284 0.221,0.4739 0.1353,0.5051 L 59,66 l -0.0456,0.5209 -0.1353,0.5052 -0.221,0.4739 -0.3,0.4284 -0.3697,0.3697 -0.4284,0.3 -0.4739,0.221 -0.5052,0.1353 L 56,69 Z"
         id="path63"
         style="opacity:0.274725;fill:#00ff00;fill-opacity:1" />
      <path
         d="m -36.3371,-20.0038 -0.0865,-0.0114 -0.0852,-0.0189 -0.0832,-0.0262 -0.0806,-0.0334 -0.0774,-0.0403 -0.0736,-0.0468 -0.0692,-0.0531 -0.0643,-0.059 -0.0589,-0.0643 -0.0532,-0.0692 -0.0468,-0.0736 -0.0403,-0.0774 -0.0334,-0.0806 -0.0262,-0.0832 -0.0189,-0.0851 -0.0114,-0.0865 L -37.25,-21 l 0.0038,-0.0871 0.0114,-0.0865 0.0189,-0.0852 0.0262,-0.0832 0.0334,-0.0806 0.0403,-0.0774 0.0468,-0.0736 0.0532,-0.0692 0.0589,-0.0643 0.0643,-0.0589 0.0692,-0.0532 0.0736,-0.0468 0.0774,-0.0403 0.0806,-0.0334 0.0832,-0.0262 0.0852,-0.0189 0.0865,-0.0114 0.0871,-0.0038 0.0872,0.0038 0.0865,0.0114 0.0851,0.0189 0.0832,0.0262 0.0806,0.0334 0.0774,0.0403 0.0736,0.0468 0.0692,0.0532 0.0643,0.0589 0.059,0.0643 0.0531,0.0692 0.0468,0.0736 0.0403,0.0774 0.0334,0.0806 0.0262,0.0832 0.0189,0.0852 0.0114,0.0865 0.0038,0.0871 -0.0038,0.0872 -0.0114,0.0865 -0.0189,0.0851 -0.0262,0.0832 -0.0334,0.0806 -0.0403,0.0774 -0.0468,0.0736 -0.0531,0.0692 -0.059,0.0643 -0.0643,0.059 -0.0692,0.0531 -0.0736,0.0468 -0.0774,0.0403 -0.0806,0.0334 -0.0832,0.0262 -0.0851,0.0189 -0.0865,0.0114 L -36.25,-20 Z"
         id="path62"
         style="opacity:0.274725" />
      <path
         d="m 31.6628,-20.0038 -0.0865,-0.0114 -0.0851,-0.0189 -0.0832,-0.0262 -0.0806,-0.0334 -0.0774,-0.0403 -0.0736,-0.0468 -0.0692,-0.0531 -0.0643,-0.059 -0.059,-0.0643 -0.0531,-0.0692 -0.0468,-0.0736 -0.0403,-0.0774 -0.0334,-0.0806 -0.0262,-0.0832 -0.0189,-0.0851 -0.0114,-0.0865 L 30.75,-21 l 0.0038,-0.0871 0.0114,-0.0865 0.0189,-0.0852 0.0262,-0.0832 0.0334,-0.0806 0.0403,-0.0774 0.0468,-0.0736 0.0531,-0.0692 0.059,-0.0643 0.0643,-0.0589 0.0692,-0.0532 0.0736,-0.0468 0.0774,-0.0403 0.0806,-0.0334 0.0832,-0.0262 0.0851,-0.0189 0.0865,-0.0114 L 31.75,-22 l 0.0871,0.0038 0.0865,0.0114 0.0852,0.0189 0.0832,0.0262 0.0806,0.0334 0.0774,0.0403 0.0736,0.0468 0.0692,0.0532 0.0643,0.0589 0.0589,0.0643 0.0532,0.0692 0.0468,0.0736 0.0403,0.0774 0.0334,0.0806 0.0262,0.0832 0.0189,0.0852 0.0114,0.0865 0.0038,0.0871 -0.0038,0.0872 -0.0114,0.0865 -0.0189,0.0851 -0.0262,0.0832 -0.0334,0.0806 -0.0403,0.0774 -0.0468,0.0736 -0.0532,0.0692 -0.0589,0.0643 -0.0643,0.059 -0.0692,0.0531 -0.0736,0.0468 -0.0774,0.0403 -0.0806,0.0334 -0.0832,0.0262 -0.0852,0.0189 -0.0865,0.0114 L 31.75,-20 Z"
         id="path61"
         style="opacity:0.274725" />
      <path
         d="m 36.1628,-20.0038 -0.0865,-0.0114 -0.0851,-0.0189 -0.0832,-0.0262 -0.0806,-0.0334 -0.0774,-0.0403 -0.0736,-0.0468 -0.0692,-0.0531 -0.0643,-0.059 -0.059,-0.0643 -0.0531,-0.0692 -0.0468,-0.0736 -0.0403,-0.0774 -0.0334,-0.0806 -0.0262,-0.0832 -0.0189,-0.0851 -0.0114,-0.0865 L 35.25,-21 l 0.0038,-0.0871 0.0114,-0.0865 0.0189,-0.0852 0.0262,-0.0832 0.0334,-0.0806 0.0403,-0.0774 0.0468,-0.0736 0.0531,-0.0692 0.059,-0.0643 0.0643,-0.0589 0.0692,-0.0532 0.0736,-0.0468 0.0774,-0.0403 0.0806,-0.0334 0.0832,-0.0262 0.0851,-0.0189 0.0865,-0.0114 L 36.25,-22 l 0.0871,0.0038 0.0865,0.0114 0.0852,0.0189 0.0832,0.0262 0.0806,0.0334 0.0774,0.0403 0.0736,0.0468 0.0692,0.0532 0.0643,0.0589 0.0589,0.0643 0.0532,0.0692 0.0468,0.0736 0.0403,0.0774 0.0334,0.0806 0.0262,0.0832 0.0189,0.0852 0.0114,0.0865 0.0038,0.0871 -0.0038,0.0872 -0.0114,0.0865 -0.0189,0.0851 -0.0262,0.0832 -0.0334,0.0806 -0.0403,0.0774 -0.0468,0.0736 -0.0532,0.0692 -0.0589,0.0643 -0.0643,0.059 -0.0692,0.0531 -0.0736,0.0468 -0.0774,0.0403 -0.0806,0.0334 -0.0832,0.0262 -0.0852,0.0189 -0.0865,0.0114 L 36.25,-20 Z"
         id="path60"
         style="opacity:0.274725" />
      <path
         d="m -31.8371,-20.0038 -0.0865,-0.0114 -0.0852,-0.0189 -0.0832,-0.0262 -0.0806,-0.0334 -0.0774,-0.0403 -0.0736,-0.0468 -0.0692,-0.0531 -0.0643,-0.059 -0.0589,-0.0643 -0.0532,-0.0692 -0.0468,-0.0736 -0.0403,-0.0774 -0.0334,-0.0806 -0.0262,-0.0832 -0.0189,-0.0851 -0.0114,-0.0865 L -32.75,-21 l 0.0038,-0.0871 0.0114,-0.0865 0.0189,-0.0852 0.0262,-0.0832 0.0334,-0.0806 0.0403,-0.0774 0.0468,-0.0736 0.0532,-0.0692 0.0589,-0.0643 0.0643,-0.0589 0.0692,-0.0532 0.0736,-0.0468 0.0774,-0.0403 0.0806,-0.0334 0.0832,-0.0262 0.0852,-0.0189 0.0865,-0.0114 0.0871,-0.0038 0.0872,0.0038 0.0865,0.0114 0.0851,0.0189 0.0832,0.0262 0.0806,0.0334 0.0774,0.0403 0.0736,0.0468 0.0692,0.0532 0.0643,0.0589 0.059,0.0643 0.0531,0.0692 0.0468,0.0736 0.0403,0.0774 0.0334,0.0806 0.0262,0.0832 0.0189,0.0852 0.0114,0.0865 0.0038,0.0871 -0.0038,0.0872 -0.0114,0.0865 -0.0189,0.0851 -0.0262,0.0832 -0.0334,0.0806 -0.0403,0.0774 -0.0468,0.0736 -0.0531,0.0692 -0.059,0.0643 -0.0643,0.059 -0.0692,0.0531 -0.0736,0.0468 -0.0774,0.0403 -0.0806,0.0334 -0.0832,0.0262 -0.0851,0.0189 -0.0865,0.0114 L -31.75,-20 Z"
         id="path59"
         style="opacity:0.274725" />
    </g>
  </g>
  <path
     d="M -83.2605,52.9772 -83.75,52.799 -84.1491,52.4642 -84.4095,52.013 -84.5,51.5 l 0.0905,-0.513 0.2604,-0.4512 0.3991,-0.3348 0.4895,-0.1782 h 0.521 l 0.4895,0.1782 0.3991,0.3348 0.2604,0.4512 0.0905,0.513 -0.0905,0.513 -0.2604,0.4512 -0.3991,0.3348 -0.4895,0.1782 z"
     id="path57"
     style="opacity:0.27472527" />
  <path
     d="m -220.26,52.9772 -0.49,-0.1782 -0.399,-0.3348 -0.261,-0.4512 -0.09,-0.513 0.09,-0.513 0.261,-0.4512 0.399,-0.3348 0.49,-0.1782 h 0.52 l 0.49,0.1782 0.399,0.3348 0.261,0.4512 0.09,0.513 -0.09,0.513 -0.261,0.4512 -0.399,0.3348 -0.49,0.1782 z"
     id="path56"
     style="opacity:0.27472527" />
  <path
     d="m -106.26,52.9772 -0.49,-0.1782 -0.399,-0.3348 -0.261,-0.4512 -0.09,-0.513 0.09,-0.513 0.261,-0.4512 0.399,-0.3348 0.49,-0.1782 h 0.52 l 0.49,0.1782 0.399,0.3348 0.261,0.4512 0.09,0.513 -0.09,0.513 -0.261,0.4512 -0.399,0.3348 -0.49,0.1782 z"
     id="path55"
     style="opacity:0.27472527" />
  <path
     d="m -187.513,-44.0905 -0.451,-0.2604 -0.335,-0.3991 -0.178,-0.4895 v -0.521 l 0.178,-0.4895 0.335,-0.3991 0.451,-0.2604 L -187,-47 l 0.513,0.0905 0.451,0.2604 0.335,0.3991 0.178,0.4895 v 0.521 l -0.178,0.4895 -0.335,0.3991 -0.451,0.2604 L -187,-44 Z"
     id="path54"
     style="opacity:0.27472527" />
  <path
     d="m -153.513,-44.0905 -0.451,-0.2604 -0.335,-0.3991 -0.178,-0.4895 v -0.521 l 0.178,-0.4895 0.335,-0.3991 0.451,-0.2604 L -153,-47 l 0.513,0.0905 0.451,0.2604 0.335,0.3991 0.178,0.4895 v 0.521 l -0.178,0.4895 -0.335,0.3991 -0.451,0.2604 L -153,-44 Z"
     id="path53"
     style="opacity:0.27472527" />
  <path
     d="m -220.26,-50.0228 -0.49,-0.1782 -0.399,-0.3348 -0.261,-0.4512 -0.09,-0.513 0.09,-0.513 0.261,-0.4512 0.399,-0.3348 0.49,-0.1782 h 0.52 l 0.49,0.1782 0.399,0.3348 0.261,0.4512 0.09,0.513 -0.09,0.513 -0.261,0.4512 -0.399,0.3348 -0.49,0.1782 z"
     id="path52"
     style="opacity:0.27472527" />
  <path
     d="m -106.26,-50.0228 -0.49,-0.1782 -0.399,-0.3348 -0.261,-0.4512 -0.09,-0.513 0.09,-0.513 0.261,-0.4512 0.399,-0.3348 0.49,-0.1782 h 0.52 l 0.49,0.1782 0.399,0.3348 0.261,0.4512 0.09,0.513 -0.09,0.513 -0.261,0.4512 -0.399,0.3348 -0.49,0.1782 z"
     id="path51"
     style="opacity:0.27472527" />
  <path
     d="m -83.2605,-50.0228 -0.4895,-0.1782 -0.3991,-0.3348 -0.2604,-0.4512 -0.0905,-0.513 0.0905,-0.513 0.2604,-0.4512 0.3991,-0.3348 0.4895,-0.1782 h 0.521 l 0.4895,0.1782 0.3991,0.3348 0.2604,0.4512 0.0905,0.513 -0.0905,0.513 -0.2604,0.4512 -0.3991,0.3348 -0.4895,0.1782 z"
     id="path50"
     style="opacity:0.27472527" />
  <path
     d="m -79.5,-75 h -144 V 75 h 144 z"
     id="path49"
     style="opacity:0.27472527" />
  <path
     d="m 219.74,52.9772 -0.49,-0.1782 -0.399,-0.3348 -0.261,-0.4512 -0.09,-0.513 0.09,-0.513 0.261,-0.4512 0.399,-0.3348 0.49,-0.1782 h 0.52 l 0.49,0.1782 0.399,0.3348 0.261,0.4512 0.09,0.513 -0.09,0.513 -0.261,0.4512 -0.399,0.3348 -0.49,0.1782 z"
     id="path48"
     style="opacity:0.27472527" />
  <path
     d="m 105.74,52.9772 -0.49,-0.1782 -0.399,-0.3348 -0.261,-0.4512 -0.09,-0.513 0.09,-0.513 0.261,-0.4512 0.399,-0.3348 0.49,-0.1782 h 0.52 l 0.49,0.1782 0.399,0.3348 0.261,0.4512 0.09,0.513 -0.09,0.513 -0.261,0.4512 -0.399,0.3348 -0.49,0.1782 z"
     id="path47"
     style="opacity:0.27472527" />
  <path
     d="M 82.7395,52.9772 82.25,52.799 81.8509,52.4642 81.5905,52.013 81.5,51.5 81.5905,50.987 81.8509,50.5358 82.25,50.201 82.7395,50.0228 h 0.521 l 0.4895,0.1782 0.3991,0.3348 0.2604,0.4512 0.0905,0.513 -0.0905,0.513 -0.2604,0.4512 -0.3991,0.3348 -0.4895,0.1782 z"
     id="path46"
     style="opacity:0.27472527" />
  <path
     d="m 186.487,-44.0905 -0.451,-0.2604 -0.335,-0.3991 -0.178,-0.4895 v -0.521 l 0.178,-0.4895 0.335,-0.3991 0.451,-0.2604 L 187,-47 l 0.513,0.0905 0.451,0.2604 0.335,0.3991 0.178,0.4895 v 0.521 l -0.178,0.4895 -0.335,0.3991 -0.451,0.2604 L 187,-44 Z"
     id="path45"
     style="opacity:0.27472527" />
  <path
     d="m 152.487,-44.0905 -0.451,-0.2604 -0.335,-0.3991 -0.178,-0.4895 v -0.521 l 0.178,-0.4895 0.335,-0.3991 0.451,-0.2604 L 153,-47 l 0.513,0.0905 0.451,0.2604 0.335,0.3991 0.178,0.4895 v 0.521 l -0.178,0.4895 -0.335,0.3991 -0.451,0.2604 L 153,-44 Z"
     id="path44"
     style="opacity:0.27472527" />
  <path
     d="m 219.74,-50.0228 -0.49,-0.1782 -0.399,-0.3348 -0.261,-0.4512 -0.09,-0.513 0.09,-0.513 0.261,-0.4512 0.399,-0.3348 0.49,-0.1782 h 0.52 l 0.49,0.1782 0.399,0.3348 0.261,0.4512 0.09,0.513 -0.09,0.513 -0.261,0.4512 -0.399,0.3348 -0.49,0.1782 z"
     id="path43"
     style="opacity:0.27472527" />
  <path
     d="M 82.7395,-50.0228 82.25,-50.201 81.8509,-50.5358 81.5905,-50.987 81.5,-51.5 l 0.0905,-0.513 0.2604,-0.4512 0.3991,-0.3348 0.4895,-0.1782 h 0.521 l 0.4895,0.1782 0.3991,0.3348 0.2604,0.4512 0.0905,0.513 -0.0905,0.513 -0.2604,0.4512 -0.3991,0.3348 -0.4895,0.1782 z"
     id="path42"
     style="opacity:0.27472527" />
  <path
     d="m 105.74,-50.0228 -0.49,-0.1782 -0.399,-0.3348 -0.261,-0.4512 -0.09,-0.513 0.09,-0.513 0.261,-0.4512 0.399,-0.3348 0.49,-0.1782 h 0.52 l 0.49,0.1782 0.399,0.3348 0.261,0.4512 0.09,0.513 -0.09,0.513 -0.261,0.4512 -0.399,0.3348 -0.49,0.1782 z"
     id="path41"
     style="opacity:0.27472527" />
  <path
     d="M 223.5,-75 H 79.5 V 75 h 144 z"
     id="path40"
     style="opacity:0.27472527" />
  <path
     d="m -52.013,-94.0905 -0.4512,-0.2604 -0.3348,-0.3991 -0.1782,-0.4895 v -0.521 l 0.1782,-0.4895 0.3348,-0.3991 0.4512,-0.2604 0.513,-0.0905 0.513,0.0905 0.4512,0.2604 0.3348,0.3991 0.1782,0.4895 v 0.521 l -0.1782,0.4895 -0.3348,0.3991 -0.4512,0.2604 L -51.5,-94 Z"
     id="path39"
     style="opacity:0.27472527" />
  <path
     d="m 50.987,-94.0905 -0.4512,-0.2604 -0.3348,-0.3991 -0.1782,-0.4895 v -0.521 L 50.201,-96.25 50.5358,-96.6491 50.987,-96.9095 51.5,-97 l 0.513,0.0905 0.4512,0.2604 0.3348,0.3991 0.1782,0.4895 v 0.521 L 52.799,-94.75 52.4642,-94.3509 52.013,-94.0905 51.5,-94 Z"
     id="path38"
     style="opacity:0.27472527" />
  <path
     d="m 50.987,-208.09 -0.4512,-0.261 -0.3348,-0.399 -0.1782,-0.49 v -0.52 l 0.1782,-0.49 0.3348,-0.399 0.4512,-0.261 0.513,-0.09 0.513,0.09 0.4512,0.261 0.3348,0.399 0.1782,0.49 v 0.52 l -0.1782,0.49 -0.3348,0.399 -0.4512,0.261 -0.513,0.09 z"
     id="path37"
     style="opacity:0.27472527" />
  <path
     d="m -52.013,-208.09 -0.4512,-0.261 -0.3348,-0.399 -0.1782,-0.49 v -0.52 l 0.1782,-0.49 0.3348,-0.399 0.4512,-0.261 0.513,-0.09 0.513,0.09 0.4512,0.261 0.3348,0.399 0.1782,0.49 v 0.52 l -0.1782,0.49 -0.3348,0.399 -0.4512,0.261 -0.513,0.09 z"
     id="path36"
     style="opacity:0.27472527" />
  <path
     d="m -43.2952,-209.826 -0.2862,-0.077 -0.2686,-0.125 -0.2427,-0.17 -0.2096,-0.209 -0.1699,-0.243 -0.1253,-0.269 -0.0767,-0.286 -0.0258,-0.295 0.0258,-0.295 0.0767,-0.286 0.1253,-0.269 0.1699,-0.243 0.2096,-0.209 0.2427,-0.17 0.2686,-0.125 0.2862,-0.077 0.2952,-0.026 0.2952,0.026 0.2862,0.077 0.2686,0.125 0.2427,0.17 0.2096,0.209 0.1699,0.243 0.1253,0.269 0.0767,0.286 0.0258,0.295 -0.0258,0.295 -0.0767,0.286 -0.1253,0.269 -0.1699,0.243 -0.2096,0.209 -0.2427,0.17 -0.2686,0.125 -0.2862,0.077 L -43,-209.8 Z"
     id="path35"
     style="opacity:0.27472527" />
  <path
     d="m 18.7048,-209.826 -0.2862,-0.077 -0.2686,-0.125 -0.2427,-0.17 -0.2096,-0.209 -0.1699,-0.243 -0.1253,-0.269 -0.0767,-0.286 -0.0258,-0.295 0.0258,-0.295 0.0767,-0.286 0.1253,-0.269 0.1699,-0.243 0.2096,-0.209 0.2427,-0.17 0.2686,-0.125 0.2862,-0.077 0.2952,-0.026 0.2952,0.026 0.2862,0.077 0.2686,0.125 0.2427,0.17 0.2096,0.209 0.1699,0.243 0.1253,0.269 0.0767,0.286 0.0258,0.295 -0.0258,0.295 -0.0767,0.286 -0.1253,0.269 -0.1699,0.243 -0.2096,0.209 -0.2427,0.17 -0.2686,0.125 -0.2862,0.077 L 19,-209.8 Z"
     id="path34"
     style="opacity:0.27472527" />
  <path
     d="m -19.2952,-228.826 -0.2862,-0.077 -0.2686,-0.125 -0.2427,-0.17 -0.2096,-0.209 -0.1699,-0.243 -0.1253,-0.269 -0.0767,-0.286 -0.0258,-0.295 0.0258,-0.295 0.0767,-0.286 0.1253,-0.269 0.1699,-0.243 0.2096,-0.209 0.2427,-0.17 0.2686,-0.125 0.2862,-0.077 0.2952,-0.026 0.2952,0.026 0.2862,0.077 0.2686,0.125 0.2427,0.17 0.2096,0.209 0.1699,0.243 0.1253,0.269 0.0767,0.286 0.0258,0.295 -0.0258,0.295 -0.0767,0.286 -0.1253,0.269 -0.1699,0.243 -0.2096,0.209 -0.2427,0.17 -0.2686,0.125 -0.2862,0.077 L -19,-228.8 Z"
     id="path33"
     style="opacity:0.27472527" />
  <path
     d="m 42.7048,-228.826 -0.2862,-0.077 -0.2686,-0.125 -0.2427,-0.17 -0.2096,-0.209 -0.1699,-0.243 -0.1253,-0.269 -0.0767,-0.286 -0.0258,-0.295 0.0258,-0.295 0.0767,-0.286 0.1253,-0.269 0.1699,-0.243 0.2096,-0.209 0.2427,-0.17 0.2686,-0.125 0.2862,-0.077 0.2952,-0.026 0.2952,0.026 0.2862,0.077 0.2686,0.125 0.2427,0.17 0.2096,0.209 0.1699,0.243 0.1253,0.269 0.0767,0.286 0.0258,0.295 -0.0258,0.295 -0.0767,0.286 -0.1253,0.269 -0.1699,0.243 -0.2096,0.209 -0.2427,0.17 -0.2686,0.125 -0.2862,0.077 L 43,-228.8 Z"
     id="path32"
     style="opacity:0.27472527" />
  <path
     d="m -32.2282,-209.314 -2.4028,-0.511 -2.244,-0.999 -1.9873,-1.444 -1.6437,-1.826 -1.2281,-2.127 -0.7591,-2.336 -0.2568,-2.443 0.2568,-2.443 0.7591,-2.336 1.2281,-2.127 1.6437,-1.826 1.9873,-1.444 2.244,-0.999 2.4028,-0.511 h 2.4564 l 2.4028,0.511 2.244,0.999 1.9873,1.444 1.6437,1.826 1.2282,2.127 0.759,2.336 0.2568,2.443 -0.2568,2.443 -0.759,2.336 -1.2282,2.127 -1.6437,1.826 -1.9873,1.444 -2.244,0.999 -2.4028,0.511 z"
     id="path31"
     style="opacity:0.27472527" />
  <path
     d="m 29.7718,-209.314 -2.4028,-0.511 -2.244,-0.999 -1.9873,-1.444 -1.6437,-1.826 -1.2282,-2.127 -0.759,-2.336 -0.2568,-2.443 0.2568,-2.443 0.759,-2.336 1.2282,-2.127 1.6437,-1.826 1.9873,-1.444 2.244,-0.999 2.4028,-0.511 h 2.4564 l 2.4028,0.511 2.244,0.999 1.9873,1.444 1.6437,1.826 1.2281,2.127 0.7591,2.336 0.2568,2.443 -0.2568,2.443 -0.7591,2.336 -1.2281,2.127 -1.6437,1.826 -1.9873,1.444 -2.244,0.999 -2.4028,0.511 z"
     id="path30"
     style="opacity:0.27472527" />
  <path
     d="m 50.987,-231.09 -0.4512,-0.261 -0.3348,-0.399 -0.1782,-0.49 v -0.52 l 0.1782,-0.49 0.3348,-0.399 0.4512,-0.261 0.513,-0.09 0.513,0.09 0.4512,0.261 0.3348,0.399 0.1782,0.49 v 0.52 l -0.1782,0.49 -0.3348,0.399 -0.4512,0.261 -0.513,0.09 z"
     id="path29"
     style="opacity:0.27472527" />
  <path
     d="m -52.013,-231.09 -0.4512,-0.261 -0.3348,-0.399 -0.1782,-0.49 v -0.52 l 0.1782,-0.49 0.3348,-0.399 0.4512,-0.261 0.513,-0.09 0.513,0.09 0.4512,0.261 0.3348,0.399 0.1782,0.49 v 0.52 l -0.1782,0.49 -0.3348,0.399 -0.4512,0.261 -0.513,0.09 z"
     id="path28"
     style="opacity:0.27472527" />
  <path
     d="M 72,-236 H -72 V -92 H 72 Z"
     id="path27"
     style="opacity:0.27472527" />
  <path
     d="m 216.987,-94.5905 -0.451,-0.2604 -0.335,-0.3991 -0.178,-0.4895 v -0.521 l 0.178,-0.4895 0.335,-0.3991 0.451,-0.2604 0.513,-0.0905 0.513,0.0905 0.451,0.2604 0.335,0.3991 0.178,0.4895 v 0.521 l -0.178,0.4895 -0.335,0.3991 -0.451,0.2604 -0.513,0.0905 z"
     id="path26"
     style="opacity:0.27472527" />
  <path
     d="m 89.987,-94.5905 -0.4512,-0.2604 -0.3348,-0.3991 -0.1782,-0.4895 v -0.521 l 0.1782,-0.4895 0.3348,-0.3991 0.4512,-0.2604 0.513,-0.0905 0.513,0.0905 0.4512,0.2604 0.3348,0.3991 0.1782,0.4895 v 0.521 L 91.799,-95.25 91.4642,-94.8509 91.013,-94.5905 90.5,-94.5 Z"
     id="path25"
     style="opacity:0.27472527" />
  <path
     d="M 85.7395,-99.0228 85.25,-99.201 84.8509,-99.5358 84.5905,-99.987 84.5,-100.5 l 0.0905,-0.513 0.2604,-0.451 0.3991,-0.335 0.4895,-0.178 h 0.521 l 0.4895,0.178 0.3991,0.335 0.2604,0.451 0.0905,0.513 -0.0905,0.513 -0.2604,0.4512 -0.3991,0.3348 -0.4895,0.1782 z"
     id="path24"
     style="opacity:0.27472527" />
  <path
     d="m 221.74,-99.0228 -0.49,-0.1782 -0.399,-0.3348 -0.261,-0.4512 -0.09,-0.513 0.09,-0.513 0.261,-0.451 0.399,-0.335 0.49,-0.178 h 0.52 l 0.49,0.178 0.399,0.335 0.261,0.451 0.09,0.513 -0.09,0.513 -0.261,0.4512 -0.399,0.3348 -0.49,0.1782 z"
     id="path23"
     style="opacity:0.27472527" />
  <path
     d="m 106.653,-102.03 -0.337,-0.091 -0.316,-0.147 -0.286,-0.2 -0.246,-0.246 -0.2,-0.286 -0.147,-0.316 -0.091,-0.337 -0.03,-0.347 0.03,-0.347 0.091,-0.337 0.147,-0.316 0.2,-0.286 0.246,-0.246 0.286,-0.2 0.316,-0.147 0.337,-0.091 0.347,-0.03 0.347,0.03 0.337,0.091 0.316,0.147 0.286,0.2 0.246,0.246 0.2,0.286 0.147,0.316 0.091,0.337 0.03,0.347 -0.03,0.347 -0.091,0.337 -0.147,0.316 -0.2,0.286 -0.246,0.246 -0.286,0.2 -0.316,0.147 -0.337,0.091 L 107,-102 Z"
     id="path22"
     style="opacity:0.27472527" />
  <path
     d="m 200.653,-102.03 -0.337,-0.091 -0.316,-0.147 -0.286,-0.2 -0.246,-0.246 -0.2,-0.286 -0.147,-0.316 -0.091,-0.337 -0.03,-0.347 0.03,-0.347 0.091,-0.337 0.147,-0.316 0.2,-0.286 0.246,-0.246 0.286,-0.2 0.316,-0.147 0.337,-0.091 0.347,-0.03 0.347,0.03 0.337,0.091 0.316,0.147 0.286,0.2 0.246,0.246 0.2,0.286 0.147,0.316 0.091,0.337 0.03,0.347 -0.03,0.347 -0.091,0.337 -0.147,0.316 -0.2,0.286 -0.246,0.246 -0.286,0.2 -0.316,0.147 -0.337,0.091 L 201,-102 Z"
     id="path21"
     style="opacity:0.27472527" />
  <path
     d="m 104.5,-108 v -9 h 6 v 9 z"
     id="path20"
     style="opacity:0.27472527" />
  <path
     d="m 104.5,-139 v -9 h 6 v 9 z"
     id="path19"
     style="opacity:0.27472527" />
  <path
     d="m 106.653,-150.03 -0.337,-0.091 -0.316,-0.147 -0.286,-0.2 -0.246,-0.246 -0.2,-0.286 -0.147,-0.316 -0.091,-0.337 -0.03,-0.347 0.03,-0.347 0.091,-0.337 0.147,-0.316 0.2,-0.286 0.246,-0.246 0.286,-0.2 0.316,-0.147 0.337,-0.091 0.347,-0.03 0.347,0.03 0.337,0.091 0.316,0.147 0.286,0.2 0.246,0.246 0.2,0.286 0.147,0.316 0.091,0.337 0.03,0.347 -0.03,0.347 -0.091,0.337 -0.147,0.316 -0.2,0.286 -0.246,0.246 -0.286,0.2 -0.316,0.147 -0.337,0.091 L 107,-150 Z"
     id="path18"
     style="opacity:0.27472527" />
  <path
     d="m 200.653,-150.03 -0.337,-0.091 -0.316,-0.147 -0.286,-0.2 -0.246,-0.246 -0.2,-0.286 -0.147,-0.316 -0.091,-0.337 -0.03,-0.347 0.03,-0.347 0.091,-0.337 0.147,-0.316 0.2,-0.286 0.246,-0.246 0.286,-0.2 0.316,-0.147 0.337,-0.091 0.347,-0.03 0.347,0.03 0.337,0.091 0.316,0.147 0.286,0.2 0.246,0.246 0.2,0.286 0.147,0.316 0.091,0.337 0.03,0.347 -0.03,0.347 -0.091,0.337 -0.147,0.316 -0.2,0.286 -0.246,0.246 -0.286,0.2 -0.316,0.147 -0.337,0.091 L 201,-150 Z"
     id="path17"
     style="opacity:0.27472527" />
  <path
     d="m 111,-100.5 v -55 h 86 v 55 z"
     id="path16"
     style="opacity:0.27472527" />
  <path
     d="m 118,-157 -1.216,-0.106 -1.178,-0.316 -1.106,-0.516 -1,-0.7 -0.862,-0.862 -0.7,-1 -0.516,-1.106 -0.316,-1.178 L 111,-164 l 0.106,-1.216 0.316,-1.178 0.516,-1.106 0.7,-1 0.862,-0.862 1,-0.7 1.106,-0.516 1.178,-0.316 L 118,-171 h 72 l 1.216,0.106 1.178,0.316 1.106,0.516 1,0.7 0.862,0.862 0.7,1 0.516,1.106 0.316,1.178 0.106,1.216 -0.106,1.216 -0.316,1.178 -0.516,1.106 -0.7,1 -0.862,0.862 -1,0.7 -1.106,0.516 -1.178,0.316 L 190,-157 Z"
     id="path15"
     style="opacity:0.27472527;fill:#bf0000;fill-opacity:1" />
  <path
     d="m 85.7395,-226.023 -0.4895,-0.178 -0.3991,-0.335 -0.2604,-0.451 -0.0905,-0.513 0.0905,-0.513 0.2604,-0.451 0.3991,-0.335 0.4895,-0.178 h 0.521 l 0.4895,0.178 0.3991,0.335 0.2604,0.451 0.0905,0.513 -0.0905,0.513 -0.2604,0.451 -0.3991,0.335 -0.4895,0.178 z"
     id="path14"
     style="opacity:0.27472527" />
  <path
     d="m 221.74,-226.023 -0.49,-0.178 -0.399,-0.335 -0.261,-0.451 -0.09,-0.513 0.09,-0.513 0.261,-0.451 0.399,-0.335 0.49,-0.178 h 0.52 l 0.49,0.178 0.399,0.335 0.261,0.451 0.09,0.513 -0.09,0.513 -0.261,0.451 -0.399,0.335 -0.49,0.178 z"
     id="path13"
     style="opacity:0.27472527" />
  <path
     d="m 89.987,-230.59 -0.4512,-0.261 -0.3348,-0.399 -0.1782,-0.49 v -0.52 l 0.1782,-0.49 0.3348,-0.399 0.4512,-0.261 0.513,-0.09 0.513,0.09 0.4512,0.261 0.3348,0.399 0.1782,0.49 v 0.52 l -0.1782,0.49 -0.3348,0.399 -0.4512,0.261 -0.513,0.09 z"
     id="path12"
     style="opacity:0.27472527" />
  <path
     d="m 216.987,-230.59 -0.451,-0.261 -0.335,-0.399 -0.178,-0.49 v -0.52 l 0.178,-0.49 0.335,-0.399 0.451,-0.261 0.513,-0.09 0.513,0.09 0.451,0.261 0.335,0.399 0.178,0.49 v 0.52 l -0.178,0.49 -0.335,0.399 -0.451,0.261 -0.513,0.09 z"
     id="path11"
     style="opacity:0.27472527" />
  <path
     d="m -91.013,-94.5905 -0.4512,-0.2604 -0.3348,-0.3991 -0.1782,-0.4895 v -0.521 l 0.1782,-0.4895 0.3348,-0.3991 0.4512,-0.2604 0.513,-0.0905 0.513,0.0905 0.4512,0.2604 0.3348,0.3991 0.1782,0.4895 v 0.521 l -0.1782,0.4895 -0.3348,0.3991 -0.4512,0.2604 -0.513,0.0905 z"
     id="path9"
     style="opacity:0.27472527" />
  <path
     d="m -218.013,-94.5905 -0.451,-0.2604 -0.335,-0.3991 -0.178,-0.4895 v -0.521 l 0.178,-0.4895 0.335,-0.3991 0.451,-0.2604 0.513,-0.0905 0.513,0.0905 0.451,0.2604 0.335,0.3991 0.178,0.4895 v 0.521 l -0.178,0.4895 -0.335,0.3991 -0.451,0.2604 -0.513,0.0905 z"
     id="path8"
     style="opacity:0.27472527" />
  <path
     d="m -86.2605,-99.0228 -0.4895,-0.1782 -0.3991,-0.3348 -0.2604,-0.4512 -0.0905,-0.513 0.0905,-0.513 0.2604,-0.451 0.3991,-0.335 0.4895,-0.178 h 0.521 l 0.4895,0.178 0.3991,0.335 0.2604,0.451 0.0905,0.513 -0.0905,0.513 -0.2604,0.4512 -0.3991,0.3348 -0.4895,0.1782 z"
     id="path7"
     style="opacity:0.27472527" />
  <path
     d="m -222.26,-99.0228 -0.49,-0.1782 -0.399,-0.3348 -0.261,-0.4512 -0.09,-0.513 0.09,-0.513 0.261,-0.451 0.399,-0.335 0.49,-0.178 h 0.52 l 0.49,0.178 0.399,0.335 0.261,0.451 0.09,0.513 -0.09,0.513 -0.261,0.4512 -0.399,0.3348 -0.49,0.1782 z"
     id="path6"
     style="opacity:0.27472527" />
  <path
     d="m -222.26,-226.023 -0.49,-0.178 -0.399,-0.335 -0.261,-0.451 -0.09,-0.513 0.09,-0.513 0.261,-0.451 0.399,-0.335 0.49,-0.178 h 0.52 l 0.49,0.178 0.399,0.335 0.261,0.451 0.09,0.513 -0.09,0.513 -0.261,0.451 -0.399,0.335 -0.49,0.178 z"
     id="path5"
     style="opacity:0.27472527" />
  <path
     d="m -86.2605,-226.023 -0.4895,-0.178 -0.3991,-0.335 -0.2604,-0.451 -0.0905,-0.513 0.0905,-0.513 0.2604,-0.451 0.3991,-0.335 0.4895,-0.178 h 0.521 l 0.4895,0.178 0.3991,0.335 0.2604,0.451 0.0905,0.513 -0.0905,0.513 -0.2604,0.451 -0.3991,0.335 -0.4895,0.178 z"
     id="path4"
     style="opacity:0.27472527" />
  <path
     d="m -91.013,-230.59 -0.4512,-0.261 -0.3348,-0.399 -0.1782,-0.49 v -0.52 l 0.1782,-0.49 0.3348,-0.399 0.4512,-0.261 0.513,-0.09 0.513,0.09 0.4512,0.261 0.3348,0.399 0.1782,0.49 v 0.52 l -0.1782,0.49 -0.3348,0.399 -0.4512,0.261 -0.513,0.09 z"
     id="path3"
     style="opacity:0.27472527" />
  <path
     d="m -218.013,-230.59 -0.451,-0.261 -0.335,-0.399 -0.178,-0.49 v -0.52 l 0.178,-0.49 0.335,-0.399 0.451,-0.261 0.513,-0.09 0.513,0.09 0.451,0.261 0.335,0.399 0.178,0.49 v 0.52 l -0.178,0.49 -0.335,0.399 -0.451,0.261 -0.513,0.09 z"
     id="path2"
     style="opacity:0.27472527" />
  <path
     d="M -79,-239 H -229 V -89 H -79 Z"
     id="path1"
     style="opacity:0.27472527" />
</svg>
