<?xml version="1.0" encoding="UTF-8" standalone="no"?>
<svg
   width="362mm"
   height="359mm"
   viewBox="-180 -108 362 359"
   version="1.1"
   id="svg1"
   sodipodi:docname="CompactCreativityCube_Mechanics.svg"
   inkscape:version="1.3.2 (091e20e, 2023-11-25)"
   xmlns:inkscape="http://www.inkscape.org/namespaces/inkscape"
   xmlns:sodipodi="http://sodipodi.sourceforge.net/DTD/sodipodi-0.dtd"
   xmlns="http://www.w3.org/2000/svg"
   xmlns:svg="http://www.w3.org/2000/svg">
  <defs
     id="defs1" />
  <sodipodi:namedview
     id="namedview1"
     pagecolor="#ffffff"
     bordercolor="#666666"
     borderopacity="1.0"
     inkscape:showpageshadow="2"
     inkscape:pageopacity="0.0"
     inkscape:pagecheckerboard="0"
     inkscape:deskcolor="#d1d1d1"
     inkscape:document-units="mm"
     inkscape:zoom="0.27228589"
     inkscape:cx="536.20113"
     inkscape:cy="345.22538"
     inkscape:window-width="1280"
     inkscape:window-height="755"
     inkscape:window-x="0"
     inkscape:window-y="23"
     inkscape:window-maximized="1"
     inkscape:current-layer="svg1" />
  <title
     id="title1">OpenSCAD Model</title>
  <path
     d="m -127.26,243.397 -0.253,-0.067 -0.237,-0.111 -0.214,-0.15 -0.185,-0.185 -0.15,-0.214 -0.111,-0.237 -0.067,-0.253 -0.023,-0.26 0.023,-0.26 0.067,-0.253 0.111,-0.237 0.15,-0.214 0.185,-0.185 0.214,-0.15 0.237,-0.111 0.253,-0.067 0.26,-0.023 0.26,0.023 0.253,0.067 0.237,0.111 0.214,0.15 0.185,0.185 0.15,0.214 0.111,0.237 0.067,0.253 0.023,0.26 -0.023,0.26 -0.067,0.253 -0.111,0.237 -0.15,0.214 -0.185,0.185 -0.214,0.15 -0.237,0.111 -0.253,0.067 -0.26,0.023 z"
     id="path162"
     style="opacity:0.16483516" />
  <path
     d="m -144.26,243.397 -0.253,-0.067 -0.237,-0.111 -0.214,-0.15 -0.185,-0.185 -0.15,-0.214 -0.111,-0.237 -0.067,-0.253 -0.023,-0.26 0.023,-0.26 0.067,-0.253 0.111,-0.237 0.15,-0.214 0.185,-0.185 0.214,-0.15 0.237,-0.111 0.253,-0.067 0.26,-0.023 0.26,0.023 0.253,0.067 0.237,0.111 0.214,0.15 0.185,0.185 0.15,0.214 0.111,0.237 0.067,0.253 0.023,0.26 -0.023,0.26 -0.067,0.253 -0.111,0.237 -0.15,0.214 -0.185,0.185 -0.214,0.15 -0.237,0.111 -0.253,0.067 -0.26,0.023 z"
     id="path161"
     style="opacity:0.16483516" />
  <path
     d="m -161.26,243.397 -0.253,-0.067 -0.237,-0.111 -0.214,-0.15 -0.185,-0.185 -0.15,-0.214 -0.111,-0.237 -0.067,-0.253 -0.023,-0.26 0.023,-0.26 0.067,-0.253 0.111,-0.237 0.15,-0.214 0.185,-0.185 0.214,-0.15 0.237,-0.111 0.253,-0.067 0.26,-0.023 0.26,0.023 0.253,0.067 0.237,0.111 0.214,0.15 0.185,0.185 0.15,0.214 0.111,0.237 0.067,0.253 0.023,0.26 -0.023,0.26 -0.067,0.253 -0.111,0.237 -0.15,0.214 -0.185,0.185 -0.214,0.15 -0.237,0.111 -0.253,0.067 -0.26,0.023 z"
     id="path160"
     style="opacity:0.16483516" />
  <path
     d="m -122,238.415 -0.708,-1.945 h -0.801 l -0.749,2.058 h -0.685 l -0.75,-2.058 h -0.8 l -0.749,2.058 h -0.686 l -0.749,-2.058 h -0.801 l -0.749,2.058 h -0.685 l -0.75,-2.058 h -0.8 l -0.749,2.058 h -0.686 l -0.749,-2.058 h -0.801 l -0.749,2.058 h -0.685 l -0.75,-2.058 h -0.8 l -0.75,2.058 h -0.685 l -0.749,-2.058 h -0.801 l -0.749,2.058 h -0.685 l -0.75,-2.058 h -0.8 l -0.75,2.058 h -0.685 l -0.749,-2.058 h -0.801 l -0.749,2.058 h -0.685 l -0.75,-2.058 h -0.8 l -0.75,2.058 h -0.685 l -0.749,-2.058 h -0.801 l -0.749,2.058 h -0.686 l -0.749,-2.058 h -0.8 l -0.75,2.058 h -0.685 l -0.749,-2.058 h -0.801 l -0.749,2.058 h -0.686 l -0.749,-2.058 h -0.8 l -0.75,2.058 h -0.685 l -0.749,-2.058 h -0.801 l -0.708,1.945 v 6.505 h 23 v 6 h 21 z"
     id="path159"
     style="opacity:0.16483516" />
  <path
     d="m -31.2605,243.397 -0.2525,-0.067 -0.237,-0.111 -0.2142,-0.15 -0.1849,-0.185 -0.1499,-0.214 -0.1105,-0.237 -0.0677,-0.253 -0.0228,-0.26 0.0228,-0.26 0.0677,-0.253 0.1105,-0.237 0.1499,-0.214 0.1849,-0.185 0.2142,-0.15 0.237,-0.111 0.2525,-0.067 0.2605,-0.023 0.2605,0.023 0.2525,0.067 0.237,0.111 0.2142,0.15 0.1849,0.185 0.1499,0.214 0.1105,0.237 0.0677,0.253 0.0228,0.26 -0.0228,0.26 -0.0677,0.253 -0.1105,0.237 -0.1499,0.214 -0.1849,0.185 -0.2142,0.15 -0.237,0.111 -0.2525,0.067 L -31,243.42 Z"
     id="path158"
     style="opacity:0.16483516" />
  <path
     d="m 30.7395,243.397 -0.2525,-0.067 -0.237,-0.111 -0.2142,-0.15 -0.1849,-0.185 -0.1499,-0.214 -0.1105,-0.237 -0.0677,-0.253 -0.0228,-0.26 0.0228,-0.26 0.0677,-0.253 0.1105,-0.237 0.1499,-0.214 0.1849,-0.185 0.2142,-0.15 0.237,-0.111 0.2525,-0.067 0.2605,-0.023 0.2605,0.023 0.2525,0.067 0.237,0.111 0.2142,0.15 0.1849,0.185 0.1499,0.214 0.1105,0.237 0.0677,0.253 0.0228,0.26 -0.0228,0.26 -0.0677,0.253 -0.1105,0.237 -0.1499,0.214 -0.1849,0.185 -0.2142,0.15 -0.237,0.111 -0.2525,0.067 L 31,243.42 Z"
     id="path157"
     style="opacity:0.16483516" />
  <path
     d="M -0.260468,243.397 -0.513016,243.33 -0.75,243.219 l -0.214172,-0.15 -0.184888,-0.185 -0.14997,-0.214 -0.1105,-0.237 -0.06767,-0.253 -0.0228,-0.26 0.0228,-0.26 0.06767,-0.253 0.1105,-0.237 0.14997,-0.214 0.184888,-0.185 0.214172,-0.15 0.236984,-0.111 0.252548,-0.067 L 0,240.42 l 0.260468,0.023 0.252548,0.067 0.236984,0.111 0.214172,0.15 0.184888,0.185 0.14997,0.214 0.1105,0.237 0.06767,0.253 0.0228,0.26 -0.0228,0.26 -0.06767,0.253 -0.1105,0.237 -0.14997,0.214 -0.184888,0.185 L 0.75,243.219 0.513016,243.33 0.260468,243.397 0,243.42 Z"
     id="path156"
     style="opacity:0.16483516" />
  <path
     d="m 36,238.528 h -0.5286 l -0.7492,-2.058 h -0.8007 l -0.7492,2.058 H 32.4869 L 31.7377,236.47 H 30.937 l -0.7492,2.058 h -0.6854 l -0.7492,-2.058 h -0.8007 l -0.7492,2.058 H 26.5179 L 25.7687,236.47 H 24.968 l -0.7492,2.058 h -0.6854 l -0.7492,-2.058 h -0.8007 l -0.7492,2.058 H 20.5488 L 19.7997,236.47 H 18.999 l -0.7492,2.058 h -0.6855 l -0.7491,-2.058 h -0.8007 l -0.7492,2.058 h -0.6855 l -0.7492,-2.058 h -0.8007 l -0.7491,2.058 h -0.6855 l -0.7492,-2.058 h -0.8007 l -0.74915,2.058 H 8.61079 L 7.86162,236.47 H 7.06091 l -0.74917,2.058 H 5.62628 L 4.87712,236.47 H 4.0764 l -0.74918,2.058 H 2.64177 L 1.89261,236.47 H 1.09189 l -0.749178,2.058 h -0.68544 L -1.09189,236.47 h -0.80072 l -0.74916,2.058 H -3.32722 L -4.0764,236.47 h -0.80072 l -0.74916,2.058 h -0.68546 l -0.74917,-2.058 h -0.80071 l -0.74917,2.058 h -0.68546 l -0.74915,-2.058 h -0.8007 l -0.7492,2.058 h -0.6855 l -0.7491,-2.058 h -0.8007 l -0.7492,2.058 h -0.6855 l -0.7492,-2.058 h -0.8007 l -0.7491,2.058 h -0.6855 l -0.7492,-2.058 h -0.8007 l -0.7491,2.058 h -0.6855 l -0.7492,-2.058 h -0.8007 l -0.7492,2.058 h -0.6854 l -0.7492,-2.058 h -0.8007 l -0.7492,2.058 h -0.6854 l -0.7492,-2.058 h -0.8007 l -0.7492,2.058 h -0.6854 l -0.7492,-2.058 h -0.8007 l -0.7492,2.058 h -0.6854 l -0.7492,-2.058 h -0.8007 l -0.7492,2.058 H -36 v 6.392 h 19 v 6 h 53 z"
     id="path155"
     style="opacity:0.16483516" />
  <path
     d="m 112.74,243.397 -0.253,-0.067 -0.237,-0.111 -0.214,-0.15 -0.185,-0.185 -0.15,-0.214 -0.111,-0.237 -0.067,-0.253 -0.023,-0.26 0.023,-0.26 0.067,-0.253 0.111,-0.237 0.15,-0.214 0.185,-0.185 0.214,-0.15 0.237,-0.111 0.253,-0.067 0.26,-0.023 0.26,0.023 0.253,0.067 0.237,0.111 0.214,0.15 0.185,0.185 0.15,0.214 0.111,0.237 0.067,0.253 0.023,0.26 -0.023,0.26 -0.067,0.253 -0.111,0.237 -0.15,0.214 -0.185,0.185 -0.214,0.15 -0.237,0.111 -0.253,0.067 -0.26,0.023 z"
     id="path154"
     style="opacity:0.16483516" />
  <path
     d="m 174.74,243.397 -0.253,-0.067 -0.237,-0.111 -0.214,-0.15 -0.185,-0.185 -0.15,-0.214 -0.111,-0.237 -0.067,-0.253 -0.023,-0.26 0.023,-0.26 0.067,-0.253 0.111,-0.237 0.15,-0.214 0.185,-0.185 0.214,-0.15 0.237,-0.111 0.253,-0.067 0.26,-0.023 0.26,0.023 0.253,0.067 0.237,0.111 0.214,0.15 0.185,0.185 0.15,0.214 0.111,0.237 0.067,0.253 0.023,0.26 -0.023,0.26 -0.067,0.253 -0.111,0.237 -0.15,0.214 -0.185,0.185 -0.214,0.15 -0.237,0.111 -0.253,0.067 -0.26,0.023 z"
     id="path153"
     style="opacity:0.16483516" />
  <path
     d="m 143.74,243.397 -0.253,-0.067 -0.237,-0.111 -0.214,-0.15 -0.185,-0.185 -0.15,-0.214 -0.111,-0.237 -0.067,-0.253 -0.023,-0.26 0.023,-0.26 0.067,-0.253 0.111,-0.237 0.15,-0.214 0.185,-0.185 0.214,-0.15 0.237,-0.111 0.253,-0.067 0.26,-0.023 0.26,0.023 0.253,0.067 0.237,0.111 0.214,0.15 0.185,0.185 0.15,0.214 0.111,0.237 0.067,0.253 0.023,0.26 -0.023,0.26 -0.067,0.253 -0.111,0.237 -0.15,0.214 -0.185,0.185 -0.214,0.15 -0.237,0.111 -0.253,0.067 -0.26,0.023 z"
     id="path152"
     style="opacity:0.16483516" />
  <path
     d="m 180,238.528 h -0.529 l -0.749,-2.058 h -0.8 l -0.75,2.058 h -0.685 l -0.749,-2.058 h -0.801 l -0.749,2.058 h -0.686 l -0.749,-2.058 h -0.801 l -0.749,2.058 h -0.685 l -0.749,-2.058 h -0.801 l -0.749,2.058 h -0.686 l -0.749,-2.058 h -0.801 l -0.749,2.058 h -0.685 L 163.8,236.47 h -0.801 l -0.749,2.058 h -0.686 l -0.749,-2.058 h -0.801 l -0.749,2.058 h -0.685 l -0.749,-2.058 h -0.801 l -0.749,2.058 h -0.686 l -0.749,-2.058 h -0.801 l -0.749,2.058 h -0.685 l -0.749,-2.058 h -0.801 l -0.749,2.058 h -0.686 l -0.749,-2.058 h -0.801 l -0.749,2.058 h -0.685 l -0.749,-2.058 h -0.801 l -0.749,2.058 h -0.686 l -0.749,-2.058 h -0.801 l -0.749,2.058 h -0.685 l -0.749,-2.058 h -0.801 l -0.749,2.058 h -0.686 l -0.749,-2.058 h -0.801 l -0.749,2.058 h -0.685 l -0.749,-2.058 h -0.801 l -0.749,2.058 h -0.686 l -0.749,-2.058 h -0.801 l -0.749,2.058 h -0.685 l -0.749,-2.058 h -0.801 l -0.749,2.058 h -0.686 l -0.749,-2.058 H 124.2 l -0.749,2.058 h -0.685 l -0.749,-2.058 h -0.801 l -0.749,2.058 h -0.686 l -0.749,-2.058 h -0.801 l -0.749,2.058 h -0.685 l -0.749,-2.058 h -0.801 l -0.749,2.058 h -0.686 l -0.749,-2.058 h -0.801 l -0.749,2.058 h -0.685 l -0.75,-2.058 h -0.8 l -0.749,2.058 H 108 v 6.392 h 19 v 6 h 53 z"
     id="path151"
     style="opacity:0.16483516" />
  <path
     d="m 112.74,203.077 -0.253,-0.067 -0.237,-0.111 -0.214,-0.15 -0.185,-0.185 -0.15,-0.214 -0.111,-0.237 -0.067,-0.253 -0.023,-0.26 0.023,-0.26 0.067,-0.253 0.111,-0.237 0.15,-0.214 0.185,-0.185 0.214,-0.15 0.237,-0.111 0.253,-0.067 0.26,-0.023 0.26,0.023 0.253,0.067 0.237,0.111 0.214,0.15 0.185,0.185 0.15,0.214 0.111,0.237 0.067,0.253 0.023,0.26 -0.023,0.26 -0.067,0.253 -0.111,0.237 -0.15,0.214 -0.185,0.185 -0.214,0.15 -0.237,0.111 -0.253,0.067 -0.26,0.023 z"
     id="path150"
     style="opacity:0.16483516" />
  <path
     d="m 174.74,203.077 -0.253,-0.067 -0.237,-0.111 -0.214,-0.15 -0.185,-0.185 -0.15,-0.214 -0.111,-0.237 -0.067,-0.253 -0.023,-0.26 0.023,-0.26 0.067,-0.253 0.111,-0.237 0.15,-0.214 0.185,-0.185 0.214,-0.15 0.237,-0.111 0.253,-0.067 0.26,-0.023 0.26,0.023 0.253,0.067 0.237,0.111 0.214,0.15 0.185,0.185 0.15,0.214 0.111,0.237 0.067,0.253 0.023,0.26 -0.023,0.26 -0.067,0.253 -0.111,0.237 -0.15,0.214 -0.185,0.185 -0.214,0.15 -0.237,0.111 -0.253,0.067 -0.26,0.023 z"
     id="path149"
     style="opacity:0.16483516" />
  <path
     d="m 143.74,203.077 -0.253,-0.067 -0.237,-0.111 -0.214,-0.15 -0.185,-0.185 -0.15,-0.214 -0.111,-0.237 -0.067,-0.253 -0.023,-0.26 0.023,-0.26 0.067,-0.253 0.111,-0.237 0.15,-0.214 0.185,-0.185 0.214,-0.15 0.237,-0.111 0.253,-0.067 0.26,-0.023 0.26,0.023 0.253,0.067 0.237,0.111 0.214,0.15 0.185,0.185 0.15,0.214 0.111,0.237 0.067,0.253 0.023,0.26 -0.023,0.26 -0.067,0.253 -0.111,0.237 -0.15,0.214 -0.185,0.185 -0.214,0.15 -0.237,0.111 -0.253,0.067 -0.26,0.023 z"
     id="path148"
     style="opacity:0.16483516" />
  <path
     d="m 180,198.208 h -0.529 l -0.749,-2.058 h -0.8 l -0.75,2.058 h -0.685 l -0.749,-2.058 h -0.801 l -0.749,2.058 h -0.686 l -0.749,-2.058 h -0.801 l -0.749,2.058 h -0.685 l -0.749,-2.058 h -0.801 l -0.749,2.058 h -0.686 l -0.749,-2.058 h -0.801 l -0.749,2.058 h -0.685 L 163.8,196.15 h -0.801 l -0.749,2.058 h -0.686 l -0.749,-2.058 h -0.801 l -0.749,2.058 h -0.685 l -0.749,-2.058 h -0.801 l -0.749,2.058 h -0.686 l -0.749,-2.058 h -0.801 l -0.749,2.058 h -0.685 l -0.749,-2.058 h -0.801 l -0.749,2.058 h -0.686 l -0.749,-2.058 h -0.801 l -0.749,2.058 h -0.685 l -0.749,-2.058 h -0.801 l -0.749,2.058 h -0.686 l -0.749,-2.058 h -0.801 l -0.749,2.058 h -0.685 l -0.749,-2.058 h -0.801 l -0.749,2.058 h -0.686 l -0.749,-2.058 h -0.801 l -0.749,2.058 h -0.685 l -0.749,-2.058 h -0.801 l -0.749,2.058 h -0.686 l -0.749,-2.058 h -0.801 l -0.749,2.058 h -0.685 l -0.749,-2.058 h -0.801 l -0.749,2.058 h -0.686 l -0.749,-2.058 H 124.2 l -0.749,2.058 h -0.685 l -0.749,-2.058 h -0.801 l -0.749,2.058 h -0.686 l -0.749,-2.058 h -0.801 l -0.749,2.058 h -0.685 l -0.749,-2.058 h -0.801 l -0.749,2.058 h -0.686 l -0.749,-2.058 h -0.801 l -0.749,2.058 h -0.685 l -0.75,-2.058 h -0.8 l -0.749,2.058 H 108 v 6.392 h 19 v 6 h 53 z"
     id="path147"
     style="opacity:0.16483516" />
  <path
     d="m -161.26,203.077 -0.253,-0.067 -0.237,-0.111 -0.214,-0.15 -0.185,-0.185 -0.15,-0.214 -0.111,-0.237 -0.067,-0.253 -0.023,-0.26 0.023,-0.26 0.067,-0.253 0.111,-0.237 0.15,-0.214 0.185,-0.185 0.214,-0.15 0.237,-0.111 0.253,-0.067 0.26,-0.023 0.26,0.023 0.253,0.067 0.237,0.111 0.214,0.15 0.185,0.185 0.15,0.214 0.111,0.237 0.067,0.253 0.023,0.26 -0.023,0.26 -0.067,0.253 -0.111,0.237 -0.15,0.214 -0.185,0.185 -0.214,0.15 -0.237,0.111 -0.253,0.067 -0.26,0.023 z"
     id="path146"
     style="opacity:0.16483516" />
  <path
     d="m -127.26,203.077 -0.253,-0.067 -0.237,-0.111 -0.214,-0.15 -0.185,-0.185 -0.15,-0.214 -0.111,-0.237 -0.067,-0.253 -0.023,-0.26 0.023,-0.26 0.067,-0.253 0.111,-0.237 0.15,-0.214 0.185,-0.185 0.214,-0.15 0.237,-0.111 0.253,-0.067 0.26,-0.023 0.26,0.023 0.253,0.067 0.237,0.111 0.214,0.15 0.185,0.185 0.15,0.214 0.111,0.237 0.067,0.253 0.023,0.26 -0.023,0.26 -0.067,0.253 -0.111,0.237 -0.15,0.214 -0.185,0.185 -0.214,0.15 -0.237,0.111 -0.253,0.067 -0.26,0.023 z"
     id="path145"
     style="opacity:0.16483516" />
  <path
     d="m -144.26,203.077 -0.253,-0.067 -0.237,-0.111 -0.214,-0.15 -0.185,-0.185 -0.15,-0.214 -0.111,-0.237 -0.067,-0.253 -0.023,-0.26 0.023,-0.26 0.067,-0.253 0.111,-0.237 0.15,-0.214 0.185,-0.185 0.214,-0.15 0.237,-0.111 0.253,-0.067 0.26,-0.023 0.26,0.023 0.253,0.067 0.237,0.111 0.214,0.15 0.185,0.185 0.15,0.214 0.111,0.237 0.067,0.253 0.023,0.26 -0.023,0.26 -0.067,0.253 -0.111,0.237 -0.15,0.214 -0.185,0.185 -0.214,0.15 -0.237,0.111 -0.253,0.067 -0.26,0.023 z"
     id="path144"
     style="opacity:0.16483516" />
  <path
     d="m -122,198.095 -0.708,-1.945 h -0.801 l -0.749,2.058 h -0.685 l -0.75,-2.058 h -0.8 l -0.749,2.058 h -0.686 l -0.749,-2.058 h -0.801 l -0.749,2.058 h -0.685 l -0.75,-2.058 h -0.8 l -0.749,2.058 h -0.686 l -0.749,-2.058 h -0.801 l -0.749,2.058 h -0.685 l -0.75,-2.058 h -0.8 l -0.75,2.058 h -0.685 l -0.749,-2.058 h -0.801 l -0.749,2.058 h -0.685 l -0.75,-2.058 h -0.8 l -0.75,2.058 h -0.685 l -0.749,-2.058 h -0.801 l -0.749,2.058 h -0.685 l -0.75,-2.058 h -0.8 l -0.75,2.058 h -0.685 l -0.749,-2.058 h -0.801 l -0.749,2.058 h -0.686 l -0.749,-2.058 h -0.8 l -0.75,2.058 h -0.685 l -0.749,-2.058 h -0.801 l -0.749,2.058 h -0.686 l -0.749,-2.058 h -0.8 l -0.75,2.058 h -0.685 l -0.749,-2.058 h -0.801 l -0.708,1.945 v 6.505 h 23 v 6 h 21 z"
     id="path143"
     style="opacity:0.16483516" />
  <path
     d="m -31.2605,203.077 -0.2525,-0.067 -0.237,-0.111 -0.2142,-0.15 -0.1849,-0.185 -0.1499,-0.214 -0.1105,-0.237 -0.0677,-0.253 -0.0228,-0.26 0.0228,-0.26 0.0677,-0.253 0.1105,-0.237 0.1499,-0.214 0.1849,-0.185 0.2142,-0.15 0.237,-0.111 0.2525,-0.067 0.2605,-0.023 0.2605,0.023 0.2525,0.067 0.237,0.111 0.2142,0.15 0.1849,0.185 0.1499,0.214 0.1105,0.237 0.0677,0.253 0.0228,0.26 -0.0228,0.26 -0.0677,0.253 -0.1105,0.237 -0.1499,0.214 -0.1849,0.185 -0.2142,0.15 -0.237,0.111 -0.2525,0.067 L -31,203.1 Z"
     id="path142"
     style="opacity:0.16483516" />
  <path
     d="m 30.7395,203.077 -0.2525,-0.067 -0.237,-0.111 -0.2142,-0.15 -0.1849,-0.185 -0.1499,-0.214 -0.1105,-0.237 -0.0677,-0.253 -0.0228,-0.26 0.0228,-0.26 0.0677,-0.253 0.1105,-0.237 0.1499,-0.214 0.1849,-0.185 0.2142,-0.15 0.237,-0.111 0.2525,-0.067 L 31,200.1 l 0.2605,0.023 0.2525,0.067 0.237,0.111 0.2142,0.15 0.1849,0.185 0.1499,0.214 0.1105,0.237 0.0677,0.253 0.0228,0.26 -0.0228,0.26 -0.0677,0.253 -0.1105,0.237 -0.1499,0.214 -0.1849,0.185 -0.2142,0.15 -0.237,0.111 -0.2525,0.067 L 31,203.1 Z"
     id="path141"
     style="opacity:0.16483516" />
  <path
     d="M -0.260468,203.077 -0.513016,203.01 -0.75,202.899 l -0.214172,-0.15 -0.184888,-0.185 -0.14997,-0.214 -0.1105,-0.237 -0.06767,-0.253 -0.0228,-0.26 0.0228,-0.26 0.06767,-0.253 0.1105,-0.237 0.14997,-0.214 0.184888,-0.185 0.214172,-0.15 0.236984,-0.111 0.252548,-0.067 L 0,200.1 l 0.260468,0.023 0.252548,0.067 0.236984,0.111 0.214172,0.15 0.184888,0.185 0.14997,0.214 0.1105,0.237 0.06767,0.253 0.0228,0.26 -0.0228,0.26 -0.06767,0.253 -0.1105,0.237 -0.14997,0.214 -0.184888,0.185 L 0.75,202.899 0.513016,203.01 0.260468,203.077 0,203.1 Z"
     id="path140"
     style="opacity:0.16483516" />
  <path
     d="m 36,198.208 h -0.5286 l -0.7492,-2.058 h -0.8007 l -0.7492,2.058 H 32.4869 L 31.7377,196.15 H 30.937 l -0.7492,2.058 h -0.6854 l -0.7492,-2.058 h -0.8007 l -0.7492,2.058 H 26.5179 L 25.7687,196.15 H 24.968 l -0.7492,2.058 h -0.6854 l -0.7492,-2.058 h -0.8007 l -0.7492,2.058 H 20.5488 L 19.7997,196.15 H 18.999 l -0.7492,2.058 h -0.6855 l -0.7491,-2.058 h -0.8007 l -0.7492,2.058 h -0.6855 l -0.7492,-2.058 h -0.8007 l -0.7491,2.058 h -0.6855 l -0.7492,-2.058 h -0.8007 l -0.74915,2.058 H 8.61079 L 7.86162,196.15 H 7.06091 l -0.74917,2.058 H 5.62628 L 4.87712,196.15 H 4.0764 l -0.74918,2.058 H 2.64177 L 1.89261,196.15 H 1.09189 l -0.749178,2.058 h -0.68544 L -1.09189,196.15 h -0.80072 l -0.74916,2.058 H -3.32722 L -4.0764,196.15 h -0.80072 l -0.74916,2.058 h -0.68546 l -0.74917,-2.058 h -0.80071 l -0.74917,2.058 h -0.68546 l -0.74915,-2.058 h -0.8007 l -0.7492,2.058 h -0.6855 l -0.7491,-2.058 h -0.8007 l -0.7492,2.058 h -0.6855 l -0.7492,-2.058 h -0.8007 l -0.7491,2.058 h -0.6855 l -0.7492,-2.058 h -0.8007 l -0.7491,2.058 h -0.6855 l -0.7492,-2.058 h -0.8007 l -0.7492,2.058 h -0.6854 l -0.7492,-2.058 h -0.8007 l -0.7492,2.058 h -0.6854 l -0.7492,-2.058 h -0.8007 l -0.7492,2.058 h -0.6854 l -0.7492,-2.058 h -0.8007 l -0.7492,2.058 h -0.6854 l -0.7492,-2.058 h -0.8007 l -0.7492,2.058 H -36 v 6.392 h 19 v 6 h 53 z"
     id="path139"
     style="opacity:0.16483516" />
  <path
     d="m -158.26,162.477 -0.253,-0.067 -0.237,-0.111 -0.214,-0.15 -0.185,-0.185 -0.15,-0.214 -0.111,-0.237 -0.067,-0.253 -0.023,-0.26 0.023,-0.26 0.067,-0.253 0.111,-0.237 0.15,-0.214 0.185,-0.185 0.214,-0.15 0.237,-0.111 0.253,-0.067 0.26,-0.023 0.26,0.023 0.253,0.067 0.237,0.111 0.214,0.15 0.185,0.185 0.15,0.214 0.111,0.237 0.067,0.253 0.023,0.26 -0.023,0.26 -0.067,0.253 -0.111,0.237 -0.15,0.214 -0.185,0.185 -0.214,0.15 -0.237,0.111 -0.253,0.067 -0.26,0.023 z"
     id="path138"
     style="opacity:0.16483516" />
  <path
     d="m -130.26,162.477 -0.253,-0.067 -0.237,-0.111 -0.214,-0.15 -0.185,-0.185 -0.15,-0.214 -0.111,-0.237 -0.067,-0.253 -0.023,-0.26 0.023,-0.26 0.067,-0.253 0.111,-0.237 0.15,-0.214 0.185,-0.185 0.214,-0.15 0.237,-0.111 0.253,-0.067 0.26,-0.023 0.26,0.023 0.253,0.067 0.237,0.111 0.214,0.15 0.185,0.185 0.15,0.214 0.111,0.237 0.067,0.253 0.023,0.26 -0.023,0.26 -0.067,0.253 -0.111,0.237 -0.15,0.214 -0.185,0.185 -0.214,0.15 -0.237,0.111 -0.253,0.067 -0.26,0.023 z"
     id="path137"
     style="opacity:0.16483516" />
  <path
     d="m -144.26,162.477 -0.253,-0.067 -0.237,-0.111 -0.214,-0.15 -0.185,-0.185 -0.15,-0.214 -0.111,-0.237 -0.067,-0.253 -0.023,-0.26 0.023,-0.26 0.067,-0.253 0.111,-0.237 0.15,-0.214 0.185,-0.185 0.214,-0.15 0.237,-0.111 0.253,-0.067 0.26,-0.023 0.26,0.023 0.253,0.067 0.237,0.111 0.214,0.15 0.185,0.185 0.15,0.214 0.111,0.237 0.067,0.253 0.023,0.26 -0.023,0.26 -0.067,0.253 -0.111,0.237 -0.15,0.214 -0.185,0.185 -0.214,0.15 -0.237,0.111 -0.253,0.067 -0.26,0.023 z"
     id="path136"
     style="opacity:0.16483516" />
  <path
     d="m -170.513,159.41 -0.451,-0.261 -0.335,-0.399 -0.178,-0.49 v -0.52 l 0.178,-0.49 0.335,-0.399 0.451,-0.261 0.513,-0.09 0.513,0.09 0.451,0.261 0.335,0.399 0.178,0.49 v 0.52 l -0.178,0.49 -0.335,0.399 -0.451,0.261 -0.513,0.09 z"
     id="path135"
     style="opacity:0.16483516" />
  <path
     d="m -118.513,159.41 -0.451,-0.261 -0.335,-0.399 -0.178,-0.49 v -0.52 l 0.178,-0.49 0.335,-0.399 0.451,-0.261 0.513,-0.09 0.513,0.09 0.451,0.261 0.335,0.399 0.178,0.49 v 0.52 l -0.178,0.49 -0.335,0.399 -0.451,0.261 -0.513,0.09 z"
     id="path134"
     style="opacity:0.16483516" />
  <path
     d="m -174.76,154.977 -0.49,-0.178 -0.399,-0.335 -0.261,-0.451 -0.09,-0.513 0.09,-0.513 0.261,-0.451 0.399,-0.335 0.49,-0.178 h 0.52 l 0.49,0.178 0.399,0.335 0.261,0.451 0.09,0.513 -0.09,0.513 -0.261,0.451 -0.399,0.335 -0.49,0.178 z"
     id="path133"
     style="opacity:0.16483516" />
  <path
     d="m -113.76,154.977 -0.49,-0.178 -0.399,-0.335 -0.261,-0.451 -0.09,-0.513 0.09,-0.513 0.261,-0.451 0.399,-0.335 0.49,-0.178 h 0.52 l 0.49,0.178 0.399,0.335 0.261,0.451 0.09,0.513 -0.09,0.513 -0.261,0.451 -0.399,0.335 -0.49,0.178 z"
     id="path132"
     style="opacity:0.16483516" />
  <path
     d="m -118.5,152 v -4 h 2 v 4 z"
     id="path131"
     style="opacity:0.16483516" />
  <path
     d="m -128.5,152 v -4 h 2 v 4 z"
     id="path130"
     style="opacity:0.16483516" />
  <path
     d="m -161.5,152 v -4 h 2 v 4 z"
     id="path129"
     style="opacity:0.16483516" />
  <path
     d="m -171.5,152 v -4 h 2 v 4 z"
     id="path128"
     style="opacity:0.16483516" />
  <path
     d="m -168.15,154 v -8 h 5.3 v 8 z"
     id="path127"
     style="opacity:0.16483516" />
  <path
     d="m -125.15,154 v -8 h 5.3 v 8 z"
     id="path126"
     style="opacity:0.16483516" />
  <path
     d="m -171.5,140 v -4 h 2 v 4 z"
     id="path125"
     style="opacity:0.16483516" />
  <path
     d="m -128.5,140 v -4 h 2 v 4 z"
     id="path124"
     style="opacity:0.16483516" />
  <path
     d="m -118.5,140 v -4 h 2 v 4 z"
     id="path123"
     style="opacity:0.16483516" />
  <path
     d="m -161.5,140 v -4 h 2 v 4 z"
     id="path122"
     style="opacity:0.16483516" />
  <path
     d="m -125.15,142 v -8 h 5.3 v 8 z"
     id="path121"
     style="opacity:0.16483516" />
  <path
     d="m -168.15,142 v -8 h 5.3 v 8 z"
     id="path120"
     style="opacity:0.16483516" />
  <path
     d="m -113.76,135.977 -0.49,-0.178 -0.399,-0.335 -0.261,-0.451 -0.09,-0.513 0.09,-0.513 0.261,-0.451 0.399,-0.335 0.49,-0.178 h 0.52 l 0.49,0.178 0.399,0.335 0.261,0.451 0.09,0.513 -0.09,0.513 -0.261,0.451 -0.399,0.335 -0.49,0.178 z"
     id="path119"
     style="opacity:0.16483516" />
  <path
     d="m -174.76,135.977 -0.49,-0.178 -0.399,-0.335 -0.261,-0.451 -0.09,-0.513 0.09,-0.513 0.261,-0.451 0.399,-0.335 0.49,-0.178 h 0.52 l 0.49,0.178 0.399,0.335 0.261,0.451 0.09,0.513 -0.09,0.513 -0.261,0.451 -0.399,0.335 -0.49,0.178 z"
     id="path118"
     style="opacity:0.16483516" />
  <path
     d="m -150,151.5 v -21 h 12 v 21 z"
     id="path117"
     style="opacity:0.16483516" />
  <path
     d="m -118.513,131.41 -0.451,-0.261 -0.335,-0.399 -0.178,-0.49 v -0.52 l 0.178,-0.49 0.335,-0.399 0.451,-0.261 0.513,-0.09 0.513,0.09 0.451,0.261 0.335,0.399 0.178,0.49 v 0.52 l -0.178,0.49 -0.335,0.399 -0.451,0.261 -0.513,0.09 z"
     id="path116"
     style="opacity:0.16483516" />
  <path
     d="m -170.513,131.41 -0.451,-0.261 -0.335,-0.399 -0.178,-0.49 v -0.52 l 0.178,-0.49 0.335,-0.399 0.451,-0.261 0.513,-0.09 0.513,0.09 0.451,0.261 0.335,0.399 0.178,0.49 v 0.52 l -0.178,0.49 -0.335,0.399 -0.451,0.261 -0.513,0.09 z"
     id="path115"
     style="opacity:0.16483516" />
  <path
     d="m -144.26,128.477 -0.253,-0.067 -0.237,-0.111 -0.214,-0.15 -0.185,-0.185 -0.15,-0.214 -0.111,-0.237 -0.067,-0.253 -0.023,-0.26 0.023,-0.26 0.067,-0.253 0.111,-0.237 0.15,-0.214 0.185,-0.185 0.214,-0.15 0.237,-0.111 0.253,-0.067 0.26,-0.023 0.26,0.023 0.253,0.067 0.237,0.111 0.214,0.15 0.185,0.185 0.15,0.214 0.111,0.237 0.067,0.253 0.023,0.26 -0.023,0.26 -0.067,0.253 -0.111,0.237 -0.15,0.214 -0.185,0.185 -0.214,0.15 -0.237,0.111 -0.253,0.067 -0.26,0.023 z"
     id="path114"
     style="opacity:0.16483516" />
  <path
     d="m -130.26,128.477 -0.253,-0.067 -0.237,-0.111 -0.214,-0.15 -0.185,-0.185 -0.15,-0.214 -0.111,-0.237 -0.067,-0.253 -0.023,-0.26 0.023,-0.26 0.067,-0.253 0.111,-0.237 0.15,-0.214 0.185,-0.185 0.214,-0.15 0.237,-0.111 0.253,-0.067 0.26,-0.023 0.26,0.023 0.253,0.067 0.237,0.111 0.214,0.15 0.185,0.185 0.15,0.214 0.111,0.237 0.067,0.253 0.023,0.26 -0.023,0.26 -0.067,0.253 -0.111,0.237 -0.15,0.214 -0.185,0.185 -0.214,0.15 -0.237,0.111 -0.253,0.067 -0.26,0.023 z"
     id="path113"
     style="opacity:0.16483516" />
  <path
     d="m -158.26,128.477 -0.253,-0.067 -0.237,-0.111 -0.214,-0.15 -0.185,-0.185 -0.15,-0.214 -0.111,-0.237 -0.067,-0.253 -0.023,-0.26 0.023,-0.26 0.067,-0.253 0.111,-0.237 0.15,-0.214 0.185,-0.185 0.214,-0.15 0.237,-0.111 0.253,-0.067 0.26,-0.023 0.26,0.023 0.253,0.067 0.237,0.111 0.214,0.15 0.185,0.185 0.15,0.214 0.111,0.237 0.067,0.253 0.023,0.26 -0.023,0.26 -0.067,0.253 -0.111,0.237 -0.15,0.214 -0.185,0.185 -0.214,0.15 -0.237,0.111 -0.253,0.067 -0.26,0.023 z"
     id="path112"
     style="opacity:0.16483516" />
  <path
     d="m -109.5,158 v -28 l -8,-8 h -53 l -8,8 v 28 l 8,8 h 53 z"
     id="path111"
     style="opacity:0.16483516" />
  <path
     d="m 61.487,177.41 -0.4512,-0.261 -0.3348,-0.399 -0.1782,-0.49 v -0.52 l 0.1782,-0.49 0.3348,-0.399 0.4512,-0.261 0.513,-0.09 0.513,0.09 0.4512,0.261 0.3348,0.399 0.1782,0.49 v 0.52 l -0.1782,0.49 -0.3348,0.399 L 62.513,177.41 62,177.5 Z"
     id="path110"
     style="opacity:0.16483516" />
  <path
     d="m -62.513,177.41 -0.4512,-0.261 -0.3348,-0.399 -0.1782,-0.49 v -0.52 l 0.1782,-0.49 0.3348,-0.399 0.4512,-0.261 0.513,-0.09 0.513,0.09 0.4512,0.261 0.3348,0.399 0.1782,0.49 v 0.52 l -0.1782,0.49 -0.3348,0.399 -0.4512,0.261 -0.513,0.09 z"
     id="path109"
     style="opacity:0.16483516" />
  <path
     d="M -0.260468,176.477 -0.513016,176.41 -0.75,176.299 -0.964172,176.149 -1.14906,175.964 -1.29903,175.75 -1.40953,175.513 -1.4772,175.26 -1.5,175 l 0.0228,-0.26 0.06767,-0.253 0.1105,-0.237 0.14997,-0.214 0.184888,-0.185 0.214172,-0.15 0.236984,-0.111 0.252548,-0.067 L 0,173.5 l 0.260468,0.023 0.252548,0.067 0.236984,0.111 0.214172,0.15 0.184888,0.185 0.14997,0.214 0.1105,0.237 0.06767,0.253 0.0228,0.26 -0.0228,0.26 -0.06767,0.253 -0.1105,0.237 -0.14997,0.214 -0.184888,0.185 L 0.75,176.299 0.513016,176.41 0.260468,176.477 0,176.5 Z"
     id="path108"
     style="opacity:0.16483516" />
  <path
     d="M 66.2395,172.977 65.75,172.799 65.3509,172.464 65.0905,172.013 65,171.5 l 0.0905,-0.513 0.2604,-0.451 0.3991,-0.335 0.4895,-0.178 h 0.521 l 0.4895,0.178 0.3991,0.335 0.2604,0.451 0.0905,0.513 -0.0905,0.513 -0.2604,0.451 -0.3991,0.335 -0.4895,0.178 z"
     id="path107"
     style="opacity:0.16483516" />
  <path
     d="m -66.7605,172.977 -0.4895,-0.178 -0.3991,-0.335 -0.2604,-0.451 L -68,171.5 l 0.0905,-0.513 0.2604,-0.451 0.3991,-0.335 0.4895,-0.178 h 0.521 l 0.4895,0.178 0.3991,0.335 0.2604,0.451 0.0905,0.513 -0.0905,0.513 -0.2604,0.451 -0.3991,0.335 -0.4895,0.178 z"
     id="path106"
     style="opacity:0.16483516" />
  <path
     d="m -63.5,170 v -4 h 2 v 4 z"
     id="path105"
     style="opacity:0.16483516" />
  <path
     d="m -53.5,170 v -4 h 2 v 4 z"
     id="path104"
     style="opacity:0.16483516" />
  <path
     d="m 51.5,170 v -4 h 2 v 4 z"
     id="path103"
     style="opacity:0.16483516" />
  <path
     d="m 61.5,170 v -4 h 2 v 4 z"
     id="path102"
     style="opacity:0.16483516" />
  <path
     d="m 54.85,172 v -8 h 5.3 v 8 z"
     id="path101"
     style="opacity:0.16483516" />
  <path
     d="m -60.15,172 v -8 h 5.3 v 8 z"
     id="path100"
     style="opacity:0.16483516" />
  <path
     d="M -0.260468,145.477 -0.513016,145.41 -0.75,145.299 -0.964172,145.149 -1.14906,144.964 -1.29903,144.75 -1.40953,144.513 -1.4772,144.26 -1.5,144 l 0.0228,-0.26 0.06767,-0.253 0.1105,-0.237 0.14997,-0.214 0.184888,-0.185 0.214172,-0.15 0.236984,-0.111 0.252548,-0.067 L 0,142.5 l 0.260468,0.023 0.252548,0.067 0.236984,0.111 0.214172,0.15 0.184888,0.185 0.14997,0.214 0.1105,0.237 0.06767,0.253 0.0228,0.26 -0.0228,0.26 -0.06767,0.253 -0.1105,0.237 -0.14997,0.214 -0.184888,0.185 L 0.75,145.299 0.513016,145.41 0.260468,145.477 0,145.5 Z"
     id="path99"
     style="opacity:0.16483516" />
  <path
     d="m -53.5,122 v -4 h 2 v 4 z"
     id="path98"
     style="opacity:0.16483516" />
  <path
     d="m 51.5,122 v -4 h 2 v 4 z"
     id="path97"
     style="opacity:0.16483516" />
  <path
     d="m 61.5,122 v -4 h 2 v 4 z"
     id="path96"
     style="opacity:0.16483516" />
  <path
     d="m -63.5,122 v -4 h 2 v 4 z"
     id="path95"
     style="opacity:0.16483516" />
  <path
     d="m 54.85,124 v -8 h 5.3 v 8 z"
     id="path94"
     style="opacity:0.16483516" />
  <path
     d="m -60.15,124 v -8 h 5.3 v 8 z"
     id="path93"
     style="opacity:0.16483516" />
  <path
     d="m -66.7605,117.977 -0.4895,-0.178 -0.3991,-0.335 -0.2604,-0.451 L -68,116.5 l 0.0905,-0.513 0.2604,-0.451 0.3991,-0.335 0.4895,-0.178 h 0.521 l 0.4895,0.178 0.3991,0.335 0.2604,0.451 0.0905,0.513 -0.0905,0.513 -0.2604,0.451 -0.3991,0.335 -0.4895,0.178 z"
     id="path92"
     style="opacity:0.16483516" />
  <path
     d="M 66.2395,117.977 65.75,117.799 65.3509,117.464 65.0905,117.013 65,116.5 l 0.0905,-0.513 0.2604,-0.451 0.3991,-0.335 0.4895,-0.178 h 0.521 l 0.4895,0.178 0.3991,0.335 0.2604,0.451 0.0905,0.513 -0.0905,0.513 -0.2604,0.451 -0.3991,0.335 -0.4895,0.178 z"
     id="path91"
     style="opacity:0.16483516" />
  <path
     d="M -0.260468,114.477 -0.513016,114.41 -0.75,114.299 -0.964172,114.149 -1.14906,113.964 -1.29903,113.75 -1.40953,113.513 -1.4772,113.26 -1.5,113 l 0.0228,-0.26 0.06767,-0.253 0.1105,-0.237 0.14997,-0.214 0.184888,-0.185 0.214172,-0.15 0.236984,-0.111 0.252548,-0.067 L 0,111.5 l 0.260468,0.023 0.252548,0.067 0.236984,0.111 0.214172,0.15 0.184888,0.185 0.14997,0.214 0.1105,0.237 0.06767,0.253 0.0228,0.26 -0.0228,0.26 -0.06767,0.253 -0.1105,0.237 -0.14997,0.214 -0.184888,0.185 L 0.75,114.299 0.513016,114.41 0.260468,114.477 0,114.5 Z"
     id="path90"
     style="opacity:0.16483516" />
  <path
     d="m -62.513,113.41 -0.4512,-0.261 -0.3348,-0.399 -0.1782,-0.49 v -0.52 l 0.1782,-0.49 0.3348,-0.399 0.4512,-0.261 0.513,-0.09 0.513,0.09 0.4512,0.261 0.3348,0.399 0.1782,0.49 v 0.52 l -0.1782,0.49 -0.3348,0.399 -0.4512,0.261 -0.513,0.09 z"
     id="path89"
     style="opacity:0.16483516" />
  <path
     d="m 61.487,113.41 -0.4512,-0.261 -0.3348,-0.399 -0.1782,-0.49 v -0.52 l 0.1782,-0.49 0.3348,-0.399 0.4512,-0.261 0.513,-0.09 0.513,0.09 0.4512,0.261 0.3348,0.399 0.1782,0.49 v 0.52 l -0.1782,0.49 -0.3348,0.399 L 62.513,113.41 62,113.5 Z"
     id="path88"
     style="opacity:0.16483516" />
  <path
     d="m 70.5,172 v -56 l -8,-8 h -125 l -8,8 v 56 l 8,8 h 125 z"
     id="path87"
     style="opacity:0.16483516" />
  <path
     d="m 170.987,177.41 -0.451,-0.261 -0.335,-0.399 -0.178,-0.49 v -0.52 l 0.178,-0.49 0.335,-0.399 0.451,-0.261 0.513,-0.09 0.513,0.09 0.451,0.261 0.335,0.399 0.178,0.49 v 0.52 l -0.178,0.49 -0.335,0.399 -0.451,0.261 -0.513,0.09 z"
     id="path86"
     style="opacity:0.16483516" />
  <path
     d="m 115.987,177.41 -0.451,-0.261 -0.335,-0.399 -0.178,-0.49 v -0.52 l 0.178,-0.49 0.335,-0.399 0.451,-0.261 0.513,-0.09 0.513,0.09 0.451,0.261 0.335,0.399 0.178,0.49 v 0.52 l -0.178,0.49 -0.335,0.399 -0.451,0.261 -0.513,0.09 z"
     id="path85"
     style="opacity:0.16483516" />
  <path
     d="m 143.74,176.477 -0.253,-0.067 -0.237,-0.111 -0.214,-0.15 -0.185,-0.185 -0.15,-0.214 -0.111,-0.237 -0.067,-0.253 -0.023,-0.26 0.023,-0.26 0.067,-0.253 0.111,-0.237 0.15,-0.214 0.185,-0.185 0.214,-0.15 0.237,-0.111 0.253,-0.067 0.26,-0.023 0.26,0.023 0.253,0.067 0.237,0.111 0.214,0.15 0.185,0.185 0.15,0.214 0.111,0.237 0.067,0.253 0.023,0.26 -0.023,0.26 -0.067,0.253 -0.111,0.237 -0.15,0.214 -0.185,0.185 -0.214,0.15 -0.237,0.111 -0.253,0.067 -0.26,0.023 z"
     id="path84"
     style="opacity:0.16483516" />
  <path
     d="m 111.74,172.977 -0.49,-0.178 -0.399,-0.335 -0.261,-0.451 -0.09,-0.513 0.09,-0.513 0.261,-0.451 0.399,-0.335 0.49,-0.178 h 0.52 l 0.49,0.178 0.399,0.335 0.261,0.451 0.09,0.513 -0.09,0.513 -0.261,0.451 -0.399,0.335 -0.49,0.178 z"
     id="path83"
     style="opacity:0.16483516" />
  <path
     d="m 175.74,172.977 -0.49,-0.178 -0.399,-0.335 -0.261,-0.451 -0.09,-0.513 0.09,-0.513 0.261,-0.451 0.399,-0.335 0.49,-0.178 h 0.52 l 0.49,0.178 0.399,0.335 0.261,0.451 0.09,0.513 -0.09,0.513 -0.261,0.451 -0.399,0.335 -0.49,0.178 z"
     id="path82"
     style="opacity:0.16483516" />
  <path
     d="m 115,170 v -4 h 2 v 4 z"
     id="path81"
     style="opacity:0.16483516" />
  <path
     d="m 161,170 v -4 h 2 v 4 z"
     id="path80"
     style="opacity:0.16483516" />
  <path
     d="m 125,170 v -4 h 2 v 4 z"
     id="path79"
     style="opacity:0.16483516" />
  <path
     d="m 171,170 v -4 h 2 v 4 z"
     id="path78"
     style="opacity:0.16483516" />
  <path
     d="m 118.35,172 v -8 h 5.3 v 8 z"
     id="path77"
     style="opacity:0.16483516" />
  <path
     d="m 164.35,172 v -8 h 5.3 v 8 z"
     id="path76"
     style="opacity:0.16483516" />
  <path
     d="m 160.5,147.732 -0.879,-1.048 v -1.368 l 0.879,-1.048 1.347,-0.238 1.185,0.684 0.468,1.286 -0.468,1.286 -1.185,0.684 z"
     id="path75"
     style="opacity:0.16483516" />
  <path
     d="m 125.5,147.732 -0.879,-1.048 v -1.368 l 0.879,-1.048 1.347,-0.238 1.185,0.684 0.468,1.286 -0.468,1.286 -1.185,0.684 z"
     id="path74"
     style="opacity:0.16483516" />
  <path
     d="M 141.569,159.787 139.212,159.156 137,158.124 135.394,157 H 135 v -0.276 l -1.725,-1.725 -1.399,-1.999 -1.032,-2.212 -0.631,-2.357 L 130,146 l 0.213,-2.431 0.631,-2.357 1.032,-2.212 1.399,-1.999 1.725,-1.725 V 127 h 18 v 8.276 l 1.725,1.725 1.399,1.999 1.032,2.212 0.631,2.357 0.213,2.431 -0.213,2.431 -0.631,2.357 -1.032,2.212 -1.399,1.999 -1.725,1.725 V 157 h -0.394 l -1.606,1.124 -2.212,1.032 -2.357,0.631 L 144,160 Z"
     id="path73"
     style="opacity:0.16483516" />
  <path
     d="m 171,122 v -4 h 2 v 4 z"
     id="path72"
     style="opacity:0.16483516" />
  <path
     d="m 115,122 v -4 h 2 v 4 z"
     id="path71"
     style="opacity:0.16483516" />
  <path
     d="m 161,122 v -4 h 2 v 4 z"
     id="path70"
     style="opacity:0.16483516" />
  <path
     d="m 125,122 v -4 h 2 v 4 z"
     id="path69"
     style="opacity:0.16483516" />
  <path
     d="m 118.35,124 v -8 h 5.3 v 8 z"
     id="path68"
     style="opacity:0.16483516" />
  <path
     d="m 164.35,124 v -8 h 5.3 v 8 z"
     id="path67"
     style="opacity:0.16483516" />
  <path
     d="m 175.74,117.977 -0.49,-0.178 -0.399,-0.335 -0.261,-0.451 -0.09,-0.513 0.09,-0.513 0.261,-0.451 0.399,-0.335 0.49,-0.178 h 0.52 l 0.49,0.178 0.399,0.335 0.261,0.451 0.09,0.513 -0.09,0.513 -0.261,0.451 -0.399,0.335 -0.49,0.178 z"
     id="path66"
     style="opacity:0.16483516" />
  <path
     d="m 111.74,117.977 -0.49,-0.178 -0.399,-0.335 -0.261,-0.451 -0.09,-0.513 0.09,-0.513 0.261,-0.451 0.399,-0.335 0.49,-0.178 h 0.52 l 0.49,0.178 0.399,0.335 0.261,0.451 0.09,0.513 -0.09,0.513 -0.261,0.451 -0.399,0.335 -0.49,0.178 z"
     id="path65"
     style="opacity:0.16483516" />
  <path
     d="m 143.74,114.477 -0.253,-0.067 -0.237,-0.111 -0.214,-0.15 -0.185,-0.185 -0.15,-0.214 -0.111,-0.237 -0.067,-0.253 -0.023,-0.26 0.023,-0.26 0.067,-0.253 0.111,-0.237 0.15,-0.214 0.185,-0.185 0.214,-0.15 0.237,-0.111 0.253,-0.067 0.26,-0.023 0.26,0.023 0.253,0.067 0.237,0.111 0.214,0.15 0.185,0.185 0.15,0.214 0.111,0.237 0.067,0.253 0.023,0.26 -0.023,0.26 -0.067,0.253 -0.111,0.237 -0.15,0.214 -0.185,0.185 -0.214,0.15 -0.237,0.111 -0.253,0.067 -0.26,0.023 z"
     id="path64"
     style="opacity:0.16483516" />
  <path
     d="m 115.987,113.41 -0.451,-0.261 -0.335,-0.399 -0.178,-0.49 v -0.52 l 0.178,-0.49 0.335,-0.399 0.451,-0.261 0.513,-0.09 0.513,0.09 0.451,0.261 0.335,0.399 0.178,0.49 v 0.52 l -0.178,0.49 -0.335,0.399 -0.451,0.261 -0.513,0.09 z"
     id="path63"
     style="opacity:0.16483516" />
  <path
     d="m 170.987,113.41 -0.451,-0.261 -0.335,-0.399 -0.178,-0.49 v -0.52 l 0.178,-0.49 0.335,-0.399 0.451,-0.261 0.513,-0.09 0.513,0.09 0.451,0.261 0.335,0.399 0.178,0.49 v 0.52 l -0.178,0.49 -0.335,0.399 -0.451,0.261 -0.513,0.09 z"
     id="path62"
     style="opacity:0.16483516" />
  <path
     d="m 180,172 v -56 l -8,-8 h -56 l -8,8 v 56 l 8,8 h 56 z"
     id="path61"
     style="opacity:0.16483516" />
  <path
     d="m -172.013,33.4095 -0.451,-0.2604 -0.335,-0.3991 -0.178,-0.4895 v -0.521 l 0.178,-0.4895 0.335,-0.3991 0.451,-0.2604 0.513,-0.0905 0.513,0.0905 0.451,0.2604 0.335,0.3991 0.178,0.4895 v 0.521 l -0.178,0.4895 -0.335,0.3991 -0.451,0.2604 -0.513,0.0905 z"
     id="path60"
     style="opacity:0.16483516" />
  <path
     d="m -117.013,33.4095 -0.451,-0.2604 -0.335,-0.3991 -0.178,-0.4895 v -0.521 l 0.178,-0.4895 0.335,-0.3991 0.451,-0.2604 0.513,-0.0905 0.513,0.0905 0.451,0.2604 0.335,0.3991 0.178,0.4895 v 0.521 l -0.178,0.4895 -0.335,0.3991 -0.451,0.2604 -0.513,0.0905 z"
     id="path59"
     style="opacity:0.16483516" />
  <path
     d="m -176.26,28.9772 -0.49,-0.1782 -0.399,-0.3348 -0.261,-0.4512 -0.09,-0.513 0.09,-0.513 0.261,-0.4512 0.399,-0.3348 0.49,-0.1782 h 0.52 l 0.49,0.1782 0.399,0.3348 0.261,0.4512 0.09,0.513 -0.09,0.513 -0.261,0.4512 -0.399,0.3348 -0.49,0.1782 z"
     id="path58"
     style="opacity:0.16483516" />
  <path
     d="m -112.26,28.9772 -0.49,-0.1782 -0.399,-0.3348 -0.261,-0.4512 -0.09,-0.513 0.09,-0.513 0.261,-0.4512 0.399,-0.3348 0.49,-0.1782 h 0.52 l 0.49,0.1782 0.399,0.3348 0.261,0.4512 0.09,0.513 -0.09,0.513 -0.261,0.4512 -0.399,0.3348 -0.49,0.1782 z"
     id="path57"
     style="opacity:0.16483516" />
  <path
     d="m -142.684,19.3794 -1.048,-0.8794 -0.238,-1.3473 0.684,-1.1848 1.286,-0.4679 1.286,0.4679 0.684,1.1848 -0.238,1.3473 -1.048,0.8794 z"
     id="path56"
     style="opacity:0.16483516" />
  <path
     d="m -152.876,8.53012 -0.968,-0.96738 -0.119,-1.36287 0.785,-1.12066 1.321,-0.3541 1.24,0.57819 0.578,1.2399 -0.354,1.32145 -1.121,0.7847 z"
     id="path55"
     style="opacity:0.16483516" />
  <path
     d="m -175.26,1.4772 -0.253,-0.06767 -0.237,-0.1105 -0.214,-0.14997 -0.185,-0.184888 L -176.299,0.75 -176.41,0.513016 -176.477,0.260468 -176.5,0 l 0.023,-0.260468 0.067,-0.252548 0.111,-0.236984 0.15,-0.214172 0.185,-0.184888 0.214,-0.14997 0.237,-0.1105 0.253,-0.06767 0.26,-0.0228 0.26,0.0228 0.253,0.06767 0.237,0.1105 0.214,0.14997 0.185,0.184888 0.15,0.214172 0.111,0.236984 0.067,0.252548 L -173.5,0 l -0.023,0.260468 -0.067,0.252548 -0.111,0.236984 -0.15,0.214172 -0.185,0.184888 -0.214,0.14997 -0.237,0.1105 L -174.74,1.4772 -175,1.5 Z"
     id="path54"
     style="opacity:0.16483516" />
  <path
     d="m -113.26,1.4772 -0.253,-0.06767 -0.237,-0.1105 -0.214,-0.14997 -0.185,-0.184888 L -114.299,0.75 -114.41,0.513016 -114.477,0.260468 -114.5,0 l 0.023,-0.260468 0.067,-0.252548 0.111,-0.236984 0.15,-0.214172 0.185,-0.184888 0.214,-0.14997 0.237,-0.1105 0.253,-0.06767 0.26,-0.0228 0.26,0.0228 0.253,0.06767 0.237,0.1105 0.214,0.14997 0.185,0.184888 0.15,0.214172 0.111,0.236984 0.067,0.252548 L -111.5,0 l -0.023,0.260468 -0.067,0.252548 -0.111,0.236984 -0.15,0.214172 -0.185,0.184888 -0.214,0.14997 -0.237,0.1105 L -112.74,1.4772 -113,1.5 Z"
     id="path53"
     style="opacity:0.16483516" />
  <path
     d="m -134.207,4.73192 h -0.207 l -0.204,-0.03601 -0.207,-0.01808 -0.2,-0.05368 -0.204,-0.03602 -0.195,-0.07092 -0.201,-0.05368 -0.188,-0.08764 -0.194,-0.07094 -0.18,-0.10369 -0.188,-0.08764 -0.17,-0.11896 -0.179,-0.1037 -0.159,-0.1333 -0.17,-0.11896 -0.147,-0.14665 -0.159,-0.1333 -0.133,-0.15886 -0.147,-0.14665 -0.119,-0.16989 -0.133,-0.15886 -0.104,-0.17961 -0.119,-0.16988 -0.087,-0.18797 -0.104,-0.1796 -0.071,-0.19488 -0.088,-0.18796 -0.053,-0.20033 -0.071,-0.19487 -0.036,-0.20424 -0.054,-0.200336 -0.018,-0.206604 -0.036,-0.204224 V 0.206589 L -138.75,0 l 0.018,-0.206589 v -0.207397 l 0.036,-0.204239 0.018,-0.206589 0.054,-0.200336 0.036,-0.20424 0.071,-0.19488 0.053,-0.20032 0.088,-0.18796 0.071,-0.19488 0.104,-0.17961 0.087,-0.18796 0.119,-0.16988 0.104,-0.17961 0.133,-0.15886 0.119,-0.16989 0.147,-0.14663 0.133,-0.15888 0.159,-0.1333 0.147,-0.14665 0.17,-0.11896 0.159,-0.1333 0.179,-0.1037 0.17,-0.11896 0.188,-0.08763 0.18,-0.10371 0.194,-0.07093 0.188,-0.08764 0.201,-0.05368 0.195,-0.07092 0.204,-0.03603 0.2,-0.05367 0.207,-0.01808 0.204,-0.03601 h 0.207 L -134,-4.75 l 0.207,0.01808 h 0.207 l 0.204,0.03601 0.207,0.01808 0.2,0.05368 0.204,0.03602 0.195,0.07092 0.201,0.05368 0.188,0.08764 0.194,0.07093 0.18,0.1037 0.188,0.08764 0.17,0.11896 0.179,0.1037 0.159,0.1333 0.17,0.11896 0.147,0.14663 0.159,0.13332 0.133,0.15888 0.147,0.14663 0.119,0.16989 0.133,0.15886 0.104,0.17961 0.119,0.16988 0.087,0.18797 0.104,0.1796 0.071,0.19488 0.088,0.18796 0.053,0.20032 0.071,0.19488 0.036,0.20424 0.054,0.200336 0.018,0.206589 0.036,0.204239 v 0.207397 L -129.25,0 l -0.018,0.206589 v 0.207397 l -0.036,0.204239 -0.018,0.206589 -0.054,0.200336 -0.036,0.20424 -0.071,0.19488 -0.053,0.20032 -0.088,0.18796 -0.071,0.19488 -0.104,0.1796 -0.087,0.18797 -0.119,0.16988 -0.104,0.17961 -0.133,0.15886 -0.119,0.16989 -0.147,0.14663 -0.133,0.15888 -0.159,0.13332 -0.147,0.14663 -0.17,0.11896 -0.159,0.1333 -0.179,0.1037 -0.17,0.11896 -0.188,0.08764 -0.18,0.10369 -0.194,0.07094 -0.188,0.08764 -0.201,0.05368 -0.195,0.07092 -0.204,0.03602 -0.2,0.05368 -0.207,0.01808 -0.204,0.03601 h -0.207 L -134,4.75 Z"
     id="path52"
     style="opacity:0.16483516" />
  <path
     d="m -142.684,-15.6206 -1.048,-0.8794 -0.238,-1.3473 0.684,-1.1848 1.286,-0.4679 1.286,0.4679 0.684,1.1848 -0.238,1.3473 -1.048,0.8794 z"
     id="path51"
     style="opacity:0.16483516" />
  <path
     d="m -128.128,-16.2186 -0.967,-0.9674 -0.119,-1.3629 0.784,-1.1206 1.322,-0.3541 1.24,0.5782 0.578,1.2399 -0.354,1.3214 -1.121,0.7847 z"
     id="path50"
     style="opacity:0.16483516" />
  <path
     d="m -157.592,-20.1603 -0.301,-0.1737 -0.223,-0.266 -0.119,-0.3263 v -0.3473 l 0.119,-0.3264 0.223,-0.266 0.301,-0.1737 0.342,-0.0603 0.342,0.0603 0.301,0.1737 0.223,0.266 0.119,0.3264 v 0.3473 l -0.119,0.3263 -0.223,0.266 -0.301,0.1737 -0.342,0.0603 z"
     id="path49"
     style="opacity:0.16483516" />
  <path
     d="m -151.092,-20.1603 -0.301,-0.1737 -0.223,-0.266 -0.119,-0.3263 v -0.3473 l 0.119,-0.3264 0.223,-0.266 0.301,-0.1737 0.342,-0.0603 0.342,0.0603 0.301,0.1737 0.223,0.266 0.119,0.3264 v 0.3473 l -0.119,0.3263 -0.223,0.266 -0.301,0.1737 -0.342,0.0603 z"
     id="path48"
     style="opacity:0.16483516" />
  <path
     d="m -151.007,-23.5452 -0.225,-0.1303 -0.168,-0.1995 -0.089,-0.2448 v -0.2604 l 0.089,-0.2448 0.168,-0.1995 0.225,-0.1303 0.257,-0.0452 0.257,0.0452 0.225,0.1303 0.168,0.1995 0.089,0.2448 v 0.2604 l -0.089,0.2448 -0.168,0.1995 -0.225,0.1303 -0.257,0.0452 z"
     id="path47"
     style="opacity:0.16483516" />
  <path
     d="m -157.507,-23.5452 -0.225,-0.1303 -0.168,-0.1995 -0.089,-0.2448 v -0.2604 l 0.089,-0.2448 0.168,-0.1995 0.225,-0.1303 0.257,-0.0452 0.257,0.0452 0.225,0.1303 0.168,0.1995 0.089,0.2448 v 0.2604 l -0.089,0.2448 -0.168,0.1995 -0.225,0.1303 -0.257,0.0452 z"
     id="path46"
     style="opacity:0.16483516" />
  <path
     d="m -176.26,-26.0228 -0.49,-0.1782 -0.399,-0.3348 -0.261,-0.4512 -0.09,-0.513 0.09,-0.513 0.261,-0.4512 0.399,-0.3348 0.49,-0.1782 h 0.52 l 0.49,0.1782 0.399,0.3348 0.261,0.4512 0.09,0.513 -0.09,0.513 -0.261,0.4512 -0.399,0.3348 -0.49,0.1782 z"
     id="path45"
     style="opacity:0.16483516" />
  <path
     d="m -112.26,-26.0228 -0.49,-0.1782 -0.399,-0.3348 -0.261,-0.4512 -0.09,-0.513 0.09,-0.513 0.261,-0.4512 0.399,-0.3348 0.49,-0.1782 h 0.52 l 0.49,0.1782 0.399,0.3348 0.261,0.4512 0.09,0.513 -0.09,0.513 -0.261,0.4512 -0.399,0.3348 -0.49,0.1782 z"
     id="path44"
     style="opacity:0.16483516" />
  <path
     d="m -172.013,-30.5905 -0.451,-0.2604 -0.335,-0.3991 -0.178,-0.4895 v -0.521 l 0.178,-0.4895 0.335,-0.3991 0.451,-0.2604 0.513,-0.0905 0.513,0.0905 0.451,0.2604 0.335,0.3991 0.178,0.4895 v 0.521 l -0.178,0.4895 -0.335,0.3991 -0.451,0.2604 -0.513,0.0905 z"
     id="path43"
     style="opacity:0.16483516" />
  <path
     d="m -117.013,-30.5905 -0.451,-0.2604 -0.335,-0.3991 -0.178,-0.4895 v -0.521 l 0.178,-0.4895 0.335,-0.3991 0.451,-0.2604 0.513,-0.0905 0.513,0.0905 0.451,0.2604 0.335,0.3991 0.178,0.4895 v 0.521 l -0.178,0.4895 -0.335,0.3991 -0.451,0.2604 -0.513,0.0905 z"
     id="path42"
     style="opacity:0.16483516" />
  <path
     d="m -108,28 v -56 l -8,-8 h -56 l -8,8 v 56 l 8,8 h 56 z"
     id="path41"
     style="opacity:0.16483516" />
  <path
     d="M 62.987,69.4095 62.5358,69.1491 62.201,68.75 62.0228,68.2605 v -0.521 L 62.201,67.25 62.5358,66.8509 62.987,66.5905 63.5,66.5 l 0.513,0.0905 0.4512,0.2604 0.3348,0.3991 0.1782,0.4895 v 0.521 L 64.799,68.75 64.4642,69.1491 64.013,69.4095 63.5,69.5 Z"
     id="path40"
     style="opacity:0.16483516" />
  <path
     d="m -64.013,69.4095 -0.4512,-0.2604 -0.3348,-0.3991 -0.1782,-0.4895 v -0.521 l 0.1782,-0.4895 0.3348,-0.3991 0.4512,-0.2604 0.513,-0.0905 0.513,0.0905 0.4512,0.2604 0.3348,0.3991 0.1782,0.4895 v 0.521 L -62.201,68.75 -62.5358,69.1491 -62.987,69.4095 -63.5,69.5 Z"
     id="path39"
     style="opacity:0.16483516" />
  <path
     d="M 67.7395,64.9772 67.25,64.799 66.8509,64.4642 66.5905,64.013 66.5,63.5 66.5905,62.987 66.8509,62.5358 67.25,62.201 67.7395,62.0228 h 0.521 l 0.4895,0.1782 0.3991,0.3348 0.2604,0.4512 0.0905,0.513 -0.0905,0.513 -0.2604,0.4512 -0.3991,0.3348 -0.4895,0.1782 z"
     id="path38"
     style="opacity:0.16483516" />
  <path
     d="M -68.2605,64.9772 -68.75,64.799 -69.1491,64.4642 -69.4095,64.013 -69.5,63.5 l 0.0905,-0.513 0.2604,-0.4512 0.3991,-0.3348 0.4895,-0.1782 h 0.521 l 0.4895,0.1782 0.3991,0.3348 0.2604,0.4512 0.0905,0.513 -0.0905,0.513 -0.2604,0.4512 -0.3991,0.3348 -0.4895,0.1782 z"
     id="path37"
     style="opacity:0.16483516" />
  <path
     d="M 1.31595,19.3794 0.267944,18.5 0.0303802,17.1527 0.714417,15.9679 2,15.5 3.28557,15.9679 3.9696,17.1527 3.73204,18.5 l -1.048,0.8794 z"
     id="path36"
     style="opacity:0.16483516" />
  <path
     d="M -8.87645,8.53012 -9.84383,7.56274 -9.96307,6.19987 -9.17838,5.07921 -7.8569,4.72511 -6.617,5.3033 l 0.57817,1.2399 -0.35408,1.32145 -1.12067,0.7847 z"
     id="path35"
     style="opacity:0.16483516" />
  <path
     d="M 9.7934,4.73192 H 9.586 L 9.38176,4.69591 9.17517,4.67783 8.97484,4.62415 8.7706,4.58813 8.57573,4.51721 8.3754,4.46353 8.18744,4.37589 7.99255,4.30495 7.81296,4.20126 7.625,4.11362 7.45511,3.99466 7.2755,3.89096 7.11664,3.75766 6.94675,3.6387 6.80009,3.49205 6.64124,3.35875 6.50793,3.19989 6.36128,3.05324 6.24232,2.88335 6.10902,2.72449 6.00533,2.54488 5.88637,2.375 5.79872,2.18703 5.69504,2.00743 5.6241,1.81255 5.53645,1.62459 5.48277,1.42426 5.41185,1.22939 5.37584,1.02515 5.32216,0.824814 5.30408,0.61821 5.26807,0.413986 V 0.206589 L 5.25,0 5.26807,-0.206589 V -0.413986 L 5.30408,-0.618225 5.32216,-0.824814 5.37584,-1.02515 5.41185,-1.22939 5.48277,-1.42427 5.53645,-1.62459 5.6241,-1.81255 5.69504,-2.00743 5.79872,-2.18704 5.88637,-2.375 6.00533,-2.54488 6.10902,-2.72449 6.24232,-2.88335 6.36128,-3.05324 6.50793,-3.19987 6.64124,-3.35875 6.80011,-3.49205 6.94675,-3.6387 7.11664,-3.75766 7.2755,-3.89096 7.45512,-3.99466 7.625,-4.11362 7.81294,-4.20125 7.99255,-4.30496 8.18744,-4.37589 8.3754,-4.46353 8.57571,-4.51721 8.7706,-4.58813 8.97485,-4.62416 9.17517,-4.67783 9.38176,-4.69591 9.586,-4.73192 H 9.7934 L 10,-4.75 l 0.2066,0.01808 h 0.2074 l 0.2042,0.03601 0.2066,0.01808 0.2003,0.05368 0.2043,0.03602 0.1949,0.07092 0.2003,0.05368 0.1879,0.08764 0.1949,0.07093 0.1796,0.1037 0.188,0.08764 0.1699,0.11896 0.1796,0.1037 0.1588,0.1333 0.1699,0.11896 0.1467,0.14663 0.1588,0.13332 0.1334,0.15888 0.1466,0.14663 0.119,0.16989 0.1333,0.15886 0.1037,0.17961 0.1189,0.16988 0.0877,0.18797 0.1036,0.1796 0.071,0.19488 0.0876,0.18796 0.0537,0.20032 0.0709,0.19488 0.036,0.20424 0.0537,0.200336 0.0181,0.206589 0.036,0.204239 v 0.207397 L 14.75,0 14.7319,0.206589 v 0.207397 l -0.036,0.204239 -0.0181,0.206589 -0.0537,0.200336 -0.036,0.20424 -0.0709,0.19488 -0.0537,0.20032 -0.0876,0.18796 -0.071,0.19488 -0.1036,0.1796 L 14.1136,2.375 13.9947,2.54488 13.891,2.72449 13.7577,2.88335 13.6387,3.05324 13.4921,3.19987 13.3587,3.35875 13.1999,3.49207 13.0532,3.6387 12.8833,3.75766 12.7245,3.89096 12.5449,3.99466 12.375,4.11362 12.187,4.20126 12.0074,4.30495 11.8125,4.37589 11.6246,4.46353 11.4243,4.51721 11.2294,4.58813 11.0251,4.62415 10.8248,4.67783 10.6182,4.69591 10.414,4.73192 H 10.2066 L 10,4.75 Z"
     id="path34"
     style="opacity:0.16483516" />
  <path
     d="M 1.31595,-15.6206 0.267944,-16.5 0.0303802,-17.8473 0.714417,-19.0321 2,-19.5 l 1.28557,0.4679 0.68403,1.1848 -0.23756,1.3473 -1.048,0.8794 z"
     id="path33"
     style="opacity:0.16483516" />
  <path
     d="m 15.8723,-16.2186 -0.9674,-0.9674 -0.1192,-1.3629 0.7847,-1.1206 1.3214,-0.3541 1.2399,0.5782 0.5782,1.2399 -0.3541,1.3214 -1.1207,0.7847 z"
     id="path32"
     style="opacity:0.16483516" />
  <path
     d="m -13.592,-56.1603 -0.3008,-0.1737 -0.2232,-0.266 -0.1188,-0.3263 v -0.3473 l 0.1188,-0.3264 0.2232,-0.266 0.3008,-0.1737 0.342,-0.0603 0.342,0.0603 0.3008,0.1737 0.2232,0.266 0.1188,0.3264 v 0.3473 l -0.1188,0.3263 -0.2232,0.266 -0.3008,0.1737 -0.342,0.0603 z"
     id="path31"
     style="opacity:0.16483516" />
  <path
     d="M -7.09201,-56.1603 -7.39278,-56.334 -7.61601,-56.6 -7.7348,-56.9263 v -0.3473 l 0.11879,-0.3264 0.22323,-0.266 0.30077,-0.1737 0.34201,-0.0603 0.34203,0.0603 0.30076,0.1737 0.22324,0.266 0.11879,0.3264 v 0.3473 l -0.11879,0.3263 -0.22324,0.266 -0.30076,0.1737 L -6.75,-56.1 Z"
     id="path30"
     style="opacity:0.16483516" />
  <path
     d="M 67.7395,-62.0228 67.25,-62.201 66.8509,-62.5358 66.5905,-62.987 66.5,-63.5 l 0.0905,-0.513 0.2604,-0.4512 0.3991,-0.3348 0.4895,-0.1782 h 0.521 l 0.4895,0.1782 0.3991,0.3348 0.2604,0.4512 0.0905,0.513 -0.0905,0.513 -0.2604,0.4512 -0.3991,0.3348 -0.4895,0.1782 z"
     id="path29"
     style="opacity:0.16483516" />
  <path
     d="m -68.2605,-62.0228 -0.4895,-0.1782 -0.3991,-0.3348 -0.2604,-0.4512 -0.0905,-0.513 0.0905,-0.513 0.2604,-0.4512 0.3991,-0.3348 0.4895,-0.1782 h 0.521 l 0.4895,0.1782 0.3991,0.3348 0.2604,0.4512 0.0905,0.513 -0.0905,0.513 -0.2604,0.4512 -0.3991,0.3348 -0.4895,0.1782 z"
     id="path28"
     style="opacity:0.16483516" />
  <path
     d="m 62.987,-66.5905 -0.4512,-0.2604 -0.3348,-0.3991 -0.1782,-0.4895 v -0.521 l 0.1782,-0.4895 0.3348,-0.3991 0.4512,-0.2604 0.513,-0.0905 0.513,0.0905 0.4512,0.2604 0.3348,0.3991 0.1782,0.4895 v 0.521 L 64.799,-67.25 64.4642,-66.8509 64.013,-66.5905 63.5,-66.5 Z"
     id="path27"
     style="opacity:0.16483516" />
  <path
     d="m -64.013,-66.5905 -0.4512,-0.2604 -0.3348,-0.3991 -0.1782,-0.4895 v -0.521 l 0.1782,-0.4895 0.3348,-0.3991 0.4512,-0.2604 0.513,-0.0905 0.513,0.0905 0.4512,0.2604 0.3348,0.3991 0.1782,0.4895 v 0.521 l -0.1782,0.4895 -0.3348,0.3991 -0.4512,0.2604 -0.513,0.0905 z"
     id="path26"
     style="opacity:0.16483516" />
  <path
     d="m -47,47 h 94 v 25 h 17 l 8,-8 V -64 l -8,-8 H 47 v 13.5 H -47 V -72 h -17 l -8,8 V 64 l 8,8 h 17 z"
     id="path25"
     style="opacity:0.16483516" />
  <path
     d="m 172.487,69.4095 -0.451,-0.2604 -0.335,-0.3991 -0.178,-0.4895 v -0.521 l 0.178,-0.4895 0.335,-0.3991 0.451,-0.2604 L 173,66.5 l 0.513,0.0905 0.451,0.2604 0.335,0.3991 0.178,0.4895 v 0.521 l -0.178,0.4895 -0.335,0.3991 -0.451,0.2604 L 173,69.5 Z"
     id="path24"
     style="opacity:0.16483516" />
  <path
     d="m 114.487,69.4095 -0.451,-0.2604 -0.335,-0.3991 -0.178,-0.4895 v -0.521 l 0.178,-0.4895 0.335,-0.3991 0.451,-0.2604 L 115,66.5 l 0.513,0.0905 0.451,0.2604 0.335,0.3991 0.178,0.4895 v 0.521 l -0.178,0.4895 -0.335,0.3991 -0.451,0.2604 L 115,69.5 Z"
     id="path23"
     style="opacity:0.16483516" />
  <path
     d="M 177.24,64.9772 176.75,64.799 176.351,64.4642 176.09,64.013 176,63.5 l 0.09,-0.513 0.261,-0.4512 0.399,-0.3348 0.49,-0.1782 h 0.52 l 0.49,0.1782 0.399,0.3348 0.261,0.4512 0.09,0.513 -0.09,0.513 -0.261,0.4512 -0.399,0.3348 -0.49,0.1782 z"
     id="path22"
     style="opacity:0.16483516" />
  <path
     d="M 110.24,64.9772 109.75,64.799 109.351,64.4642 109.09,64.013 109,63.5 l 0.09,-0.513 0.261,-0.4512 0.399,-0.3348 0.49,-0.1782 h 0.52 l 0.49,0.1782 0.399,0.3348 0.261,0.4512 0.09,0.513 -0.09,0.513 -0.261,0.4512 -0.399,0.3348 -0.49,0.1782 z"
     id="path21"
     style="opacity:0.16483516" />
  <path
     d="M 145.316,19.3794 144.268,18.5 144.03,17.1527 144.714,15.9679 146,15.5 l 1.286,0.4679 0.684,1.1848 -0.238,1.3473 -1.048,0.8794 z"
     id="path20"
     style="opacity:0.16483516" />
  <path
     d="m 135.124,8.53012 -0.968,-0.96738 -0.119,-1.36287 0.785,-1.12066 1.321,-0.3541 1.24,0.57819 0.578,1.2399 -0.354,1.32145 -1.121,0.7847 z"
     id="path19"
     style="opacity:0.16483516" />
  <path
     d="m 153.793,4.73192 h -0.207 l -0.204,-0.03601 -0.207,-0.01808 -0.2,-0.05368 -0.204,-0.03602 -0.195,-0.07092 -0.201,-0.05368 -0.188,-0.08764 -0.194,-0.07094 -0.18,-0.10369 -0.188,-0.08764 -0.17,-0.11896 -0.179,-0.1037 -0.159,-0.1333 L 150.947,3.6387 150.8,3.49205 150.641,3.35875 150.508,3.19989 150.361,3.05324 150.242,2.88335 150.109,2.72449 150.005,2.54488 149.886,2.375 149.799,2.18703 149.695,2.00743 149.624,1.81255 149.536,1.62459 149.483,1.42426 149.412,1.22939 149.376,1.02515 149.322,0.824814 149.304,0.61821 149.268,0.413986 V 0.206589 L 149.25,0 l 0.018,-0.206589 v -0.207397 l 0.036,-0.204239 0.018,-0.206589 0.054,-0.200336 0.036,-0.20424 0.071,-0.19488 0.053,-0.20032 0.088,-0.18796 0.071,-0.19488 0.104,-0.17961 0.087,-0.18796 0.119,-0.16988 0.104,-0.17961 0.133,-0.15886 0.119,-0.16989 0.147,-0.14663 0.133,-0.15888 0.159,-0.1333 0.147,-0.14665 0.17,-0.11896 0.159,-0.1333 0.179,-0.1037 0.17,-0.11896 0.188,-0.08763 0.18,-0.10371 0.194,-0.07093 0.188,-0.08764 0.201,-0.05368 0.195,-0.07092 0.204,-0.03603 0.2,-0.05367 0.207,-0.01808 0.204,-0.03601 h 0.207 L 154,-4.75 l 0.207,0.01808 h 0.207 l 0.204,0.03601 0.207,0.01808 0.2,0.05368 0.204,0.03602 0.195,0.07092 0.201,0.05368 0.188,0.08764 0.194,0.07093 0.18,0.1037 0.188,0.08764 0.17,0.11896 0.179,0.1037 0.159,0.1333 0.17,0.11896 0.147,0.14663 0.159,0.13332 0.133,0.15888 0.147,0.14663 0.119,0.16989 0.133,0.15886 0.104,0.17961 0.119,0.16988 0.087,0.18797 0.104,0.1796 0.071,0.19488 0.088,0.18796 0.053,0.20032 0.071,0.19488 0.036,0.20424 0.054,0.200336 0.018,0.206589 0.036,0.204239 v 0.207397 L 158.75,0 158.732,0.206589 v 0.207397 l -0.036,0.204239 -0.018,0.206589 -0.054,0.200336 -0.036,0.20424 -0.071,0.19488 -0.053,0.20032 -0.088,0.18796 -0.071,0.19488 -0.104,0.1796 -0.087,0.18797 -0.119,0.16988 -0.104,0.17961 -0.133,0.15886 -0.119,0.16989 -0.147,0.14663 -0.133,0.15888 -0.159,0.13332 -0.147,0.14663 -0.17,0.11896 -0.159,0.1333 -0.179,0.1037 -0.17,0.11896 -0.188,0.08764 -0.18,0.10369 -0.194,0.07094 -0.188,0.08764 -0.201,0.05368 -0.195,0.07092 -0.204,0.03602 -0.2,0.05368 -0.207,0.01808 -0.204,0.03601 h -0.207 L 154,4.75 Z"
     id="path18"
     style="opacity:0.16483516" />
  <path
     d="m 145.316,-15.6206 -1.048,-0.8794 -0.238,-1.3473 0.684,-1.1848 1.286,-0.4679 1.286,0.4679 0.684,1.1848 -0.238,1.3473 -1.048,0.8794 z"
     id="path17"
     style="opacity:0.16483516" />
  <path
     d="m 159.872,-16.2186 -0.967,-0.9674 -0.119,-1.3629 0.784,-1.1206 1.322,-0.3541 1.24,0.5782 0.578,1.2399 -0.354,1.3214 -1.121,0.7847 z"
     id="path16"
     style="opacity:0.16483516" />
  <path
     d="m 136.908,-56.1603 -0.301,-0.1737 -0.223,-0.266 -0.119,-0.3263 v -0.3473 l 0.119,-0.3264 0.223,-0.266 0.301,-0.1737 0.342,-0.0603 0.342,0.0603 0.301,0.1737 0.223,0.266 0.119,0.3264 v 0.3473 l -0.119,0.3263 -0.223,0.266 -0.301,0.1737 -0.342,0.0603 z"
     id="path15"
     style="opacity:0.16483516" />
  <path
     d="m 130.408,-56.1603 -0.301,-0.1737 -0.223,-0.266 -0.119,-0.3263 v -0.3473 l 0.119,-0.3264 0.223,-0.266 0.301,-0.1737 0.342,-0.0603 0.342,0.0603 0.301,0.1737 0.223,0.266 0.119,0.3264 v 0.3473 l -0.119,0.3263 -0.223,0.266 -0.301,0.1737 -0.342,0.0603 z"
     id="path14"
     style="opacity:0.16483516" />
  <path
     d="m 136.993,-59.5452 -0.225,-0.1303 -0.168,-0.1995 -0.089,-0.2448 v -0.2604 l 0.089,-0.2448 0.168,-0.1995 0.225,-0.1303 0.257,-0.0452 0.257,0.0452 0.225,0.1303 0.168,0.1995 0.089,0.2448 v 0.2604 l -0.089,0.2448 -0.168,0.1995 -0.225,0.1303 -0.257,0.0452 z"
     id="path13"
     style="opacity:0.16483516" />
  <path
     d="m 130.493,-59.5452 -0.225,-0.1303 -0.168,-0.1995 -0.089,-0.2448 v -0.2604 l 0.089,-0.2448 0.168,-0.1995 0.225,-0.1303 0.257,-0.0452 0.257,0.0452 0.225,0.1303 0.168,0.1995 0.089,0.2448 v 0.2604 l -0.089,0.2448 -0.168,0.1995 -0.225,0.1303 -0.257,0.0452 z"
     id="path12"
     style="opacity:0.16483516" />
  <path
     d="m 177.24,-62.0228 -0.49,-0.1782 -0.399,-0.3348 -0.261,-0.4512 -0.09,-0.513 0.09,-0.513 0.261,-0.4512 0.399,-0.3348 0.49,-0.1782 h 0.52 l 0.49,0.1782 0.399,0.3348 0.261,0.4512 0.09,0.513 -0.09,0.513 -0.261,0.4512 -0.399,0.3348 -0.49,0.1782 z"
     id="path11"
     style="opacity:0.16483516" />
  <path
     d="m 110.24,-62.0228 -0.49,-0.1782 -0.399,-0.3348 -0.261,-0.4512 -0.09,-0.513 0.09,-0.513 0.261,-0.4512 0.399,-0.3348 0.49,-0.1782 h 0.52 l 0.49,0.1782 0.399,0.3348 0.261,0.4512 0.09,0.513 -0.09,0.513 -0.261,0.4512 -0.399,0.3348 -0.49,0.1782 z"
     id="path10"
     style="opacity:0.16483516" />
  <path
     d="m 114.487,-66.5905 -0.451,-0.2604 -0.335,-0.3991 -0.178,-0.4895 v -0.521 l 0.178,-0.4895 0.335,-0.3991 0.451,-0.2604 0.513,-0.0905 0.513,0.0905 0.451,0.2604 0.335,0.3991 0.178,0.4895 v 0.521 l -0.178,0.4895 -0.335,0.3991 -0.451,0.2604 L 115,-66.5 Z"
     id="path9"
     style="opacity:0.16483516" />
  <path
     d="m 172.487,-66.5905 -0.451,-0.2604 -0.335,-0.3991 -0.178,-0.4895 v -0.521 l 0.178,-0.4895 0.335,-0.3991 0.451,-0.2604 0.513,-0.0905 0.513,0.0905 0.451,0.2604 0.335,0.3991 0.178,0.4895 v 0.521 l -0.178,0.4895 -0.335,0.3991 -0.451,0.2604 L 173,-66.5 Z"
     id="path8"
     style="opacity:0.16483516" />
  <path
     d="M 181.5,64 V -64 l -8,-8 h -59 l -8,8 V 64 l 8,8 h 59 z"
     id="path7"
     style="opacity:0.16483516" />
  <path
     d="m -41.9758,-99.41 -0.1243,-0.1775 -0.1786,-0.3831 -0.1095,-0.4084 -0.0368,-0.421 0.0368,-0.421 0.1095,-0.408 0.1786,-0.383 0.1243,-0.178 h 3.9516 l 0.1243,0.178 0.1787,0.383 0.1094,0.408 0.0368,0.421 -0.0368,0.421 -0.1094,0.4084 -0.1787,0.3831 -0.1243,0.1775 z"
     id="path6"
     style="opacity:0.16483516" />
  <path
     d="m -39.7354,-93.805 0.127,-0.1995 0.1004,-0.1796 0.0787,-0.1611 0.0611,-0.1438 0.0469,-0.1277 0.0354,-0.1129 0.026,-0.0989 0.0184,-0.086 0.0126,-0.0739 0.0078,-0.0626 0.0043,-0.0518 0.0018,-0.0416 v -0.0319 l -8e-4,-0.0224 -0.0011,-0.0133 -0.1126,-0.8034 0.2328,-0.0364 0.3086,-0.0693 0.3034,-0.0892 0.2969,-0.109 0.3018,0.7461 0.0018,0.0041 0.0057,0.012 0.0105,0.0199 0.016,0.0276 0.0223,0.0351 0.0296,0.0427 0.0381,0.0503 0.0478,0.0577 0.059,0.0653 0.072,0.0727 0.087,0.08 0.1045,0.0872 0.1249,0.094 0.1487,0.1001 0.1767,0.1054 0.2098,0.1092 0.4582,-0.2646 0.0103,-0.2362 -0.0029,-0.2058 -0.0124,-0.1788 -0.0189,-0.1551 -0.0233,-0.1341 -0.0258,-0.1154 -0.027,-0.0987 -0.027,-0.0837 -0.0261,-0.0703 -0.0244,-0.0581 -0.0222,-0.047 -0.0193,-0.0369 -0.0159,-0.0276 -0.0119,-0.019 -0.0076,-0.011 -0.4992,-0.6395 0.1833,-0.1479 0.2327,-0.2143 0.2181,-0.229 0.2027,-0.2428 0.6344,0.4953 0.0036,0.0026 0.011,0.0076 0.019,0.0119 0.0276,0.0159 0.0369,0.0193 0.047,0.0222 0.0581,0.0244 0.0703,0.0262 0.0837,0.0269 0.0987,0.027 0.1154,0.0258 0.1341,0.0233 0.1551,0.0189 0.1789,0.0124 0.2057,0.003 0.2363,-0.0104 0.2645,-0.4582 -0.1092,-0.2098 -0.1054,-0.1767 -0.1001,-0.1487 -0.094,-0.1249 -0.0872,-0.1045 -0.08,-0.087 -0.0727,-0.072 -0.0653,-0.059 -0.0577,-0.0478 -0.0503,-0.0381 -0.0427,-0.0296 -0.0351,-0.0223 -0.0276,-0.016 -0.0199,-0.0105 -0.012,-0.0057 -0.752,-0.3042 0.0848,-0.2198 0.0943,-0.3019 0.0744,-0.3074 0.0541,-0.3115 0.7971,0.112 h 0.0044 l 0.0133,10e-4 0.0224,0.001 h 0.0319 l 0.0416,-0.002 0.0518,-0.004 0.0626,-0.008 0.0739,-0.012 0.086,-0.019 0.0989,-0.026 0.1129,-0.035 0.1277,-0.047 0.1438,-0.061 0.1611,-0.079 0.1796,-0.1 0.1995,-0.127 v -0.53 l -0.1995,-0.127 -0.1796,-0.1 -0.1611,-0.079 -0.1438,-0.061 -0.1277,-0.047 -0.1129,-0.035 -0.0989,-0.026 -0.086,-0.019 -0.0739,-0.012 -0.0626,-0.008 -0.0518,-0.004 -0.0416,-0.002 h -0.0319 l -0.0224,10e-4 -0.0133,0.001 -0.8034,0.112 -0.0364,-0.232 -0.0693,-0.309 -0.0892,-0.303 -0.109,-0.297 0.7461,-0.302 0.0041,-0.002 0.012,-0.006 0.0199,-0.01 0.0276,-0.016 0.0351,-0.022 0.0427,-0.03 0.0503,-0.038 0.0577,-0.048 0.0653,-0.059 0.0727,-0.072 0.08,-0.087 0.0872,-0.104 0.094,-0.125 0.1001,-0.149 0.1054,-0.177 0.1092,-0.209 -0.2645,-0.459 -0.2363,-0.01 -0.2058,0.003 -0.1788,0.012 -0.1551,0.019 -0.1341,0.024 -0.1154,0.025 -0.0987,0.027 -0.0837,0.027 -0.0703,0.026 -0.0581,0.025 -0.047,0.022 -0.0369,0.019 -0.0276,0.016 -0.019,0.012 -0.011,0.008 -0.6395,0.499 -0.1479,-0.183 -0.2143,-0.233 -0.229,-0.218 -0.2428,-0.203 0.4953,-0.634 0.0026,-0.004 0.0076,-0.011 0.0119,-0.019 0.0159,-0.027 0.0193,-0.037 0.0222,-0.047 0.0244,-0.058 0.0262,-0.071 0.0269,-0.083 0.027,-0.099 0.0258,-0.115 0.0233,-0.135 0.0189,-0.155 0.0124,-0.179 0.003,-0.205 -0.0104,-0.237 -0.4582,-0.264 -0.2098,0.109 -0.1767,0.106 -0.1487,0.1 -0.1249,0.094 -0.1045,0.087 -0.087,0.08 -0.072,0.073 -0.059,0.065 -0.0478,0.058 -0.0381,0.05 -0.0296,0.042 -0.0223,0.036 -0.016,0.027 -0.0105,0.02 -0.0057,0.012 -0.3042,0.752 -0.2198,-0.085 -0.3019,-0.094 -0.3074,-0.074 -0.3116,-0.055 0.1117,-0.797 5e-4,-0.004 0.0011,-0.013 8e-4,-0.023 v -0.032 l -0.0018,-0.041 -0.0043,-0.052 -0.0078,-0.063 -0.0125,-0.073 -0.0185,-0.086 -0.026,-0.099 -0.0354,-0.113 -0.0468,-0.128 -0.0612,-0.144 -0.0787,-0.161 -0.1003,-0.18 -0.1271,-0.199 h -0.5292 l -0.127,0.199 -0.1004,0.18 -0.0787,0.161 -0.0611,0.144 -0.0469,0.128 -0.0354,0.113 -0.0259,0.099 -0.0185,0.086 -0.0125,0.073 -0.0079,0.063 -0.0043,0.052 -0.0018,0.041 v 0.032 l 9e-4,0.023 0.001,0.013 0.1126,0.803 -0.2328,0.037 -0.3086,0.069 -0.3034,0.089 -0.2969,0.109 -0.3018,-0.746 -0.0018,-0.004 -0.0057,-0.012 -0.0105,-0.02 -0.016,-0.027 -0.0223,-0.036 -0.0296,-0.042 -0.0381,-0.05 -0.0478,-0.058 -0.059,-0.065 -0.072,-0.073 -0.087,-0.08 -0.1045,-0.087 -0.1248,-0.094 -0.1488,-0.101 -0.1767,-0.105 -0.2098,-0.109 -0.4582,0.264 -0.0103,0.237 0.0029,0.205 0.0124,0.179 0.0189,0.155 0.0233,0.135 0.0258,0.115 0.027,0.099 0.027,0.083 0.0261,0.071 0.0245,0.058 0.0221,0.047 0.0193,0.037 0.0159,0.027 0.012,0.019 0.0075,0.011 0.4992,0.64 -0.1833,0.148 -0.2327,0.214 -0.2181,0.229 -0.2027,0.243 -0.6344,-0.496 -0.0035,-0.002 -0.0111,-0.008 -0.019,-0.012 -0.0276,-0.016 -0.0369,-0.019 -0.047,-0.022 -0.0581,-0.025 -0.0703,-0.026 -0.0837,-0.027 -0.0987,-0.027 -0.1154,-0.025 -0.1341,-0.024 -0.155,-0.019 -0.1789,-0.012 -0.2058,-0.003 -0.2362,0.01 -0.2646,0.459 0.1092,0.209 0.1054,0.177 0.1001,0.149 0.094,0.125 0.0872,0.104 0.08,0.087 0.0727,0.072 0.0653,0.059 0.0577,0.048 0.0503,0.038 0.0427,0.03 0.0351,0.022 0.0276,0.016 0.0199,0.01 0.012,0.006 0.752,0.304 -0.0848,0.22 -0.0943,0.302 -0.0744,0.307 -0.0541,0.312 -0.7971,-0.112 h -0.0044 l -0.0133,-0.001 -0.0224,-10e-4 h -0.0319 l -0.0416,0.002 -0.0518,0.004 -0.0625,0.008 -0.074,0.012 -0.086,0.019 -0.0989,0.026 -0.1129,0.035 -0.1277,0.047 -0.1438,0.061 -0.1611,0.079 -0.1796,0.1 -0.1995,0.127 v 0.53 l 0.1995,0.127 0.1796,0.1 0.1611,0.079 0.1438,0.061 0.1277,0.047 0.1129,0.035 0.0989,0.026 0.086,0.019 0.074,0.012 0.0625,0.008 0.0518,0.004 0.0416,0.002 h 0.0319 l 0.0224,-0.001 0.0133,-10e-4 0.8034,-0.112 0.0364,0.2323 0.0693,0.3086 0.0893,0.3034 0.1089,0.2969 -0.7461,0.3018 -0.0041,0.0018 -0.012,0.0057 -0.0199,0.0105 -0.0276,0.016 -0.0351,0.0223 -0.0427,0.0296 -0.0503,0.0381 -0.0577,0.0478 -0.0653,0.059 -0.0727,0.072 -0.08,0.087 -0.0872,0.1045 -0.094,0.1249 -0.1001,0.1487 -0.1054,0.1767 -0.1092,0.2098 0.2646,0.4582 0.2362,0.0103 0.2058,-0.0029 0.1788,-0.0124 0.1551,-0.0189 0.1341,-0.0233 0.1154,-0.0258 0.0987,-0.027 0.0837,-0.027 0.0703,-0.0261 0.0581,-0.0244 0.047,-0.0222 0.0369,-0.0193 0.0276,-0.0159 0.019,-0.012 0.011,-0.0075 0.6395,-0.4992 0.1479,0.1833 0.2143,0.2327 0.229,0.2181 0.2428,0.2027 -0.4953,0.6344 -0.0026,0.0036 -0.0076,0.011 -0.0119,0.019 -0.0159,0.0276 -0.0193,0.0369 -0.0222,0.047 -0.0244,0.0581 -0.0261,0.0703 -0.027,0.0837 -0.027,0.0987 -0.0258,0.1154 -0.0233,0.1341 -0.0189,0.1551 -0.0124,0.1788 -0.0029,0.2058 0.0103,0.2362 0.4582,0.2646 0.2098,-0.1092 0.1767,-0.1054 0.1487,-0.1001 0.1249,-0.094 0.1045,-0.0872 0.087,-0.08 0.072,-0.0727 0.059,-0.0653 0.0478,-0.0577 0.0381,-0.0503 0.0296,-0.0427 0.0223,-0.0351 0.016,-0.0276 0.0105,-0.0199 0.0057,-0.012 0.3042,-0.752 0.2198,0.0848 0.3019,0.0943 0.3074,0.0744 0.3116,0.0541 -0.1117,0.7971 -5e-4,0.0044 -0.0011,0.0133 -8e-4,0.0224 v 0.0319 l 0.0018,0.0416 0.0043,0.0518 0.0078,0.0626 0.0126,0.0739 0.0184,0.086 0.026,0.0989 0.0354,0.1129 0.0469,0.1277 0.0611,0.1438 0.0787,0.1611 0.1004,0.1796 0.127,0.1995 z"
     id="path5"
     style="opacity:0.16483516" />
  <path
     d="m -1.97581,-99.41 -0.12429,-0.1775 -0.17865,-0.3831 -0.1094,-0.4084 -0.03684,-0.421 0.03684,-0.421 0.1094,-0.408 0.17865,-0.383 0.12429,-0.178 h 3.95162 l 0.12429,0.178 0.17865,0.383 0.1094,0.408 0.03684,0.421 -0.03684,0.421 -0.1094,0.4084 -0.17865,0.3831 -0.12429,0.1775 z"
     id="path4"
     style="opacity:0.16483516" />
  <path
     d="m 0.264557,-93.805 0.127075,-0.1995 0.100342,-0.1796 0.078705,-0.1611 0.061142,-0.1438 0.04689,-0.1277 0.035339,-0.1129 0.025986,-0.0989 0.018494,-0.086 0.012512,-0.0739 0.007873,-0.0626 0.004303,-0.0518 0.001755,-0.0416 3.1e-5,-0.0319 -8.55e-4,-0.0224 -0.001037,-0.0133 -0.11258,-0.8034 0.232727,-0.0364 0.308611,-0.0693 0.30343,-0.0892 0.29693,-0.109 0.30177,0.7461 0.00175,0.0041 0.00576,0.012 0.01048,0.0199 0.01597,0.0276 0.02231,0.0351 0.02964,0.0427 0.03808,0.0503 0.04781,0.0577 0.05902,0.0653 0.07199,0.0727 0.08702,0.08 0.10448,0.0872 0.12483,0.094 0.14871,0.1001 0.17673,0.1054 0.20978,0.1092 0.45823,-0.2646 0.01033,-0.2362 -0.00293,-0.2058 -0.01237,-0.1788 -0.01895,-0.1551 -0.02327,-0.1341 -0.02581,-0.1154 -0.02696,-0.0987 -0.02701,-0.0837 -0.02612,-0.0703 -0.02446,-0.0581 -0.02217,-0.047 -0.01929,-0.0369 -0.01588,-0.0276 -0.01196,-0.019 -0.00756,-0.011 -0.49919,-0.6395 0.18334,-0.1479 0.23265,-0.2143 0.21814,-0.229 0.20266,-0.2428 0.6344,0.4953 0.00356,0.0026 0.01102,0.0076 0.01901,0.0119 0.0276,0.0159 0.03691,0.0193 0.04701,0.0222 0.05811,0.0244 0.07028,0.0262 0.08374,0.0269 0.09868,0.027 0.11539,0.0258 0.13406,0.0233 0.15509,0.0189 0.1789,0.0124 0.20573,0.003 0.23627,-0.0104 0.26455,-0.4582 -0.10919,-0.2098 -0.10541,-0.1767 -0.10012,-0.1487 -0.09398,-0.1249 -0.08718,-0.1045 -0.08004,-0.087 -0.0727,-0.072 -0.06524,-0.059 -0.05777,-0.0478 -0.05023,-0.0381 -0.04273,-0.0296 -0.03514,-0.0223 -0.02756,-0.016 -0.01988,-0.0105 -0.01204,-0.0057 -0.75203,-0.3042 0.08481,-0.2198 0.09434,-0.3019 0.07441,-0.3074 0.05412,-0.3115 0.79703,0.112 h 0.00441 l 0.01332,10e-4 0.02244,0.001 h 0.03185 l 0.04161,-0.002 0.0518,-0.004 0.06255,-0.008 0.07393,-0.012 0.08601,-0.019 0.09895,-0.026 0.11283,-0.035 0.12774,-0.047 0.14379,-0.061 0.1611,-0.079 0.17964,-0.1 0.19947,-0.127 -2e-5,-0.53 -0.19945,-0.127 -0.17965,-0.1 -0.16109,-0.079 -0.1438,-0.061 -0.12773,-0.047 -0.11283,-0.035 -0.09895,-0.026 -0.08601,-0.019 -0.07393,-0.012 -0.06255,-0.008 -0.05182,-0.004 -0.04159,-0.002 H 5.62373 l -0.02244,10e-4 -0.01332,0.001 -0.80338,0.112 -0.03642,-0.232 -0.06926,-0.309 -0.08926,-0.303 -0.10895,-0.297 0.74612,-0.302 0.00405,-0.002 0.01205,-0.006 0.01988,-0.01 0.02756,-0.016 0.03516,-0.022 0.04271,-0.03 0.05023,-0.038 0.05777,-0.048 0.06524,-0.059 0.0727,-0.072 0.08004,-0.087 0.08718,-0.104 0.09396,-0.125 0.10017,-0.149 0.1054,-0.177 0.10919,-0.209 -0.26457,-0.459 -0.23627,-0.01 -0.20575,0.003 -0.17885,0.012 -0.15512,0.019 -0.13406,0.024 -0.11539,0.025 -0.09868,0.027 -0.08372,0.027 -0.0703,0.026 -0.05811,0.025 -0.04702,0.022 -0.03688,0.019 -0.02761,0.016 -0.01901,0.012 -0.01102,0.008 -0.63945,0.499 -0.14791,-0.183 -0.21427,-0.233 -0.22903,-0.218 -0.24282,-0.203 0.49529,-0.634 0.00262,-0.004 0.00757,-0.011 0.01196,-0.019 0.01587,-0.027 0.01931,-0.037 0.02217,-0.047 0.02446,-0.058 0.02612,-0.071 0.02699,-0.083 0.02698,-0.099 0.0258,-0.115 0.02326,-0.135 0.01895,-0.155 0.01239,-0.179 0.00293,-0.205 -0.01032,-0.237 -0.45825,-0.264 -0.20979,0.109 -0.17671,0.106 -0.14872,0.1 -0.12484,0.094 -0.10448,0.087 -0.08702,0.08 -0.07198,0.073 -0.05902,0.065 -0.0478,0.058 -0.03809,0.05 -0.02963,0.042 -0.02233,0.036 -0.01596,0.027 -0.01046,0.02 -0.00579,0.012 -0.30417,0.752 -0.21977,-0.085 -0.30188,-0.094 -0.307417,-0.074 -0.311615,-0.055 0.111725,-0.797 5.04e-4,-0.004 0.001037,-0.013 8.7e-4,-0.023 -6.1e-5,-0.032 -0.001739,-0.041 -0.004319,-0.052 -0.007858,-0.063 -0.012512,-0.073 -0.018494,-0.086 -0.026001,-0.099 -0.035339,-0.113 -0.046875,-0.128 -0.061142,-0.144 -0.078705,-0.161 -0.100342,-0.18 -0.127075,-0.199 h -0.529129 l -0.127075,0.199 -0.100342,0.18 -0.078705,0.161 -0.061142,0.144 -0.04689,0.128 -0.035339,0.113 -0.025986,0.099 -0.018494,0.086 -0.012512,0.073 -0.007873,0.063 -0.004303,0.052 -0.001755,0.041 -3.1e-5,0.032 8.55e-4,0.023 0.001037,0.013 0.11258,0.803 -0.232727,0.037 -0.308611,0.069 -0.30343,0.089 -0.29693,0.109 -0.30177,-0.746 -0.00175,-0.004 -0.00576,-0.012 -0.01048,-0.02 -0.01597,-0.027 -0.02231,-0.036 -0.02964,-0.042 -0.03808,-0.05 -0.04781,-0.058 -0.05902,-0.065 -0.07199,-0.073 -0.08702,-0.08 -0.10448,-0.087 -0.12483,-0.094 -0.14871,-0.101 -0.17673,-0.105 -0.20978,-0.109 -0.45823,0.264 -0.01033,0.237 0.00293,0.205 0.01237,0.179 0.01895,0.155 0.02327,0.135 0.02581,0.115 0.02696,0.099 0.02701,0.083 0.02612,0.071 0.02446,0.058 0.02217,0.047 0.01929,0.037 0.01588,0.027 0.01196,0.019 0.00756,0.011 0.49919,0.64 -0.18334,0.148 -0.23265,0.214 -0.21814,0.229 -0.20266,0.243 -0.6344,-0.496 -0.00356,-0.002 -0.01102,-0.008 -0.01901,-0.012 -0.0276,-0.016 -0.03691,-0.019 -0.04701,-0.022 -0.05811,-0.025 -0.07028,-0.026 -0.08374,-0.027 -0.09868,-0.027 -0.11539,-0.025 -0.13406,-0.024 -0.15509,-0.019 -0.1789,-0.012 -0.20573,-0.003 -0.23627,0.01 -0.26455,0.459 0.10919,0.209 0.10541,0.177 0.10012,0.149 0.09398,0.125 0.08718,0.104 0.08004,0.087 0.0727,0.072 0.06524,0.059 0.05777,0.048 0.05023,0.038 0.04273,0.03 0.03514,0.022 0.02756,0.016 0.01988,0.01 0.01204,0.006 0.75203,0.304 -0.08481,0.22 -0.09434,0.302 -0.07441,0.307 -0.05412,0.312 -0.79703,-0.112 h -0.00441 l -0.01332,-0.001 -0.02244,-10e-4 h -0.03185 l -0.04161,0.002 -0.0518,0.004 -0.06255,0.008 -0.07393,0.012 -0.08601,0.019 -0.09895,0.026 -0.11283,0.035 -0.12774,0.047 -0.14379,0.061 -0.1611,0.079 -0.17964,0.1 -0.19947,0.127 2e-5,0.53 0.19945,0.127 0.17965,0.1 0.16109,0.079 0.1438,0.061 0.12773,0.047 0.11283,0.035 0.09895,0.026 0.08601,0.019 0.07393,0.012 0.06255,0.008 0.05182,0.004 0.04159,0.002 h 0.03185 l 0.02244,-0.001 0.01332,-10e-4 0.80338,-0.112 0.03642,0.2323 0.06926,0.3086 0.08926,0.3034 0.10895,0.2969 -0.74612,0.3018 -0.00405,0.0018 -0.01205,0.0057 -0.01988,0.0105 -0.02756,0.016 -0.03516,0.0223 -0.04271,0.0296 -0.05023,0.0381 -0.05777,0.0478 -0.06524,0.059 -0.0727,0.072 -0.08004,0.087 -0.08718,0.1045 -0.09396,0.1249 -0.10017,0.1487 -0.1054,0.1767 -0.10919,0.2098 0.26457,0.4582 0.23627,0.0103 0.20575,-0.0029 0.17885,-0.0124 0.15512,-0.0189 0.13406,-0.0233 0.11539,-0.0258 0.09868,-0.027 0.08372,-0.027 0.0703,-0.0261 0.05811,-0.0244 0.04702,-0.0222 0.03688,-0.0193 0.02761,-0.0159 0.01901,-0.012 0.01102,-0.0075 0.63945,-0.4992 0.14791,0.1833 0.21427,0.2327 0.22903,0.2181 0.24282,0.2027 -0.49529,0.6344 -0.00262,0.0036 -0.00757,0.011 -0.01196,0.019 -0.01587,0.0276 -0.01931,0.0369 -0.02217,0.047 -0.02446,0.0581 -0.02612,0.0703 -0.02699,0.0837 -0.02698,0.0987 -0.0258,0.1154 -0.02326,0.1341 -0.01895,0.1551 -0.01239,0.1788 -0.00293,0.2058 0.01032,0.2362 0.45825,0.2646 0.20979,-0.1092 0.17671,-0.1054 0.14872,-0.1001 0.12484,-0.094 0.10448,-0.0872 0.08702,-0.08 0.07198,-0.0727 0.05902,-0.0653 0.0478,-0.0577 0.03809,-0.0503 0.02963,-0.0427 0.02233,-0.0351 0.01596,-0.0276 0.01046,-0.0199 0.00579,-0.012 0.30417,-0.752 0.21977,0.0848 0.30188,0.0943 0.307417,0.0744 0.311615,0.0541 -0.111725,0.7971 -5.04e-4,0.0044 -0.001037,0.0133 -8.7e-4,0.0224 6.1e-5,0.0319 0.001739,0.0416 0.004319,0.0518 0.007858,0.0626 0.012512,0.0739 0.018494,0.086 0.026001,0.0989 0.035339,0.1129 0.046875,0.1277 0.061142,0.1438 0.078705,0.1611 0.100342,0.1796 0.127075,0.1995 z"
     id="path3"
     style="opacity:0.16483516" />
  <path
     d="m 38.0242,-99.41 -0.1243,-0.1775 -0.1787,-0.3831 -0.1094,-0.4084 -0.0368,-0.421 0.0368,-0.421 0.1094,-0.408 0.1787,-0.383 0.1243,-0.178 h 3.9516 l 0.1243,0.178 0.1786,0.383 0.1095,0.408 0.0368,0.421 -0.0368,0.421 -0.1095,0.4084 -0.1786,0.3831 -0.1243,0.1775 z"
     id="path2"
     style="opacity:0.16483516" />
  <path
     d="m 40.2646,-93.805 0.127,-0.1995 0.1004,-0.1796 0.0787,-0.1611 0.0611,-0.1438 0.0469,-0.1277 0.0354,-0.1129 0.0259,-0.0989 0.0185,-0.086 0.0125,-0.0739 0.0079,-0.0626 0.0043,-0.0518 0.0018,-0.0416 v -0.0319 l -9e-4,-0.0224 -0.001,-0.0133 -0.1126,-0.8034 0.2328,-0.0364 0.3086,-0.0693 0.3034,-0.0892 0.2969,-0.109 0.3018,0.7461 0.0018,0.0041 0.0057,0.012 0.0105,0.0199 0.016,0.0276 0.0223,0.0351 0.0296,0.0427 0.0381,0.0503 0.0478,0.0577 0.059,0.0653 0.072,0.0727 0.087,0.08 0.1045,0.0872 0.1248,0.094 0.1488,0.1001 0.1767,0.1054 0.2098,0.1092 0.4582,-0.2646 0.0103,-0.2362 -0.0029,-0.2058 -0.0124,-0.1788 -0.0189,-0.1551 -0.0233,-0.1341 -0.0258,-0.1154 -0.027,-0.0987 -0.027,-0.0837 -0.0261,-0.0703 -0.0245,-0.0581 -0.0221,-0.047 -0.0193,-0.0369 -0.0159,-0.0276 -0.012,-0.019 -0.0075,-0.011 -0.4992,-0.6395 0.1833,-0.1479 0.2327,-0.2143 0.2181,-0.229 0.2027,-0.2428 0.6344,0.4953 0.0035,0.0026 0.0111,0.0076 0.019,0.0119 0.0276,0.0159 0.0369,0.0193 0.047,0.0222 0.0581,0.0244 0.0703,0.0262 0.0837,0.0269 0.0987,0.027 0.1154,0.0258 0.1341,0.0233 0.155,0.0189 0.1789,0.0124 0.2058,0.003 0.2362,-0.0104 0.2646,-0.4582 -0.1092,-0.2098 -0.1054,-0.1767 -0.1001,-0.1487 -0.094,-0.1249 -0.0872,-0.1045 -0.08,-0.087 -0.0727,-0.072 -0.0653,-0.059 -0.0577,-0.0478 -0.0503,-0.0381 -0.0427,-0.0296 -0.0351,-0.0223 -0.0276,-0.016 -0.0199,-0.0105 -0.012,-0.0057 -0.752,-0.3042 0.0848,-0.2198 0.0943,-0.3019 0.0744,-0.3074 0.0541,-0.3115 0.7971,0.112 h 0.0044 l 0.0133,10e-4 0.0224,0.001 h 0.0319 l 0.0416,-0.002 0.0518,-0.004 0.0625,-0.008 0.074,-0.012 0.086,-0.019 0.0989,-0.026 0.1129,-0.035 0.1277,-0.047 0.1438,-0.061 0.1611,-0.079 0.1796,-0.1 0.1995,-0.127 v -0.53 l -0.1995,-0.127 -0.1796,-0.1 -0.1611,-0.079 -0.1438,-0.061 -0.1277,-0.047 -0.1129,-0.035 -0.0989,-0.026 -0.086,-0.019 -0.074,-0.012 -0.0625,-0.008 -0.0518,-0.004 -0.0416,-0.002 h -0.0319 l -0.0224,10e-4 -0.0133,0.001 -0.8034,0.112 -0.0364,-0.232 -0.0693,-0.309 -0.0893,-0.303 -0.1089,-0.297 0.7461,-0.302 0.0041,-0.002 0.012,-0.006 0.0199,-0.01 0.0276,-0.016 0.0351,-0.022 0.0427,-0.03 0.0503,-0.038 0.0577,-0.048 0.0653,-0.059 0.0727,-0.072 0.08,-0.087 0.0872,-0.104 0.094,-0.125 0.1001,-0.149 0.1054,-0.177 0.1092,-0.209 -0.2646,-0.459 -0.2362,-0.01 -0.2058,0.003 -0.1788,0.012 -0.1551,0.019 -0.1341,0.024 -0.1154,0.025 -0.0987,0.027 -0.0837,0.027 -0.0703,0.026 -0.0581,0.025 -0.047,0.022 -0.0369,0.019 -0.0276,0.016 -0.019,0.012 -0.011,0.008 -0.6395,0.499 -0.1479,-0.183 -0.2143,-0.233 -0.229,-0.218 -0.2428,-0.203 0.4953,-0.634 0.0026,-0.004 0.0076,-0.011 0.0119,-0.019 0.0159,-0.027 0.0193,-0.037 0.0222,-0.047 0.0244,-0.058 0.0261,-0.071 0.027,-0.083 0.027,-0.099 0.0258,-0.115 0.0233,-0.135 0.0189,-0.155 0.0124,-0.179 0.0029,-0.205 -0.0103,-0.237 -0.4582,-0.264 -0.2098,0.109 -0.1767,0.106 -0.1487,0.1 -0.1249,0.094 -0.1045,0.087 -0.087,0.08 -0.072,0.073 -0.059,0.065 -0.0478,0.058 -0.0381,0.05 -0.0296,0.042 -0.0223,0.036 -0.016,0.027 -0.0105,0.02 -0.0057,0.012 -0.3042,0.752 -0.2198,-0.085 -0.3019,-0.094 -0.3074,-0.074 -0.3116,-0.055 0.1117,-0.797 5e-4,-0.004 0.0011,-0.013 8e-4,-0.023 v -0.032 l -0.0018,-0.041 -0.0043,-0.052 -0.0078,-0.063 -0.0126,-0.073 -0.0184,-0.086 -0.026,-0.099 -0.0354,-0.113 -0.0469,-0.128 -0.0611,-0.144 -0.0787,-0.161 -0.1004,-0.18 -0.127,-0.199 h -0.5292 l -0.127,0.199 -0.1004,0.18 -0.0787,0.161 -0.0611,0.144 -0.0469,0.128 -0.0354,0.113 -0.026,0.099 -0.0184,0.086 -0.0126,0.073 -0.0078,0.063 -0.0043,0.052 -0.0018,0.041 v 0.032 l 8e-4,0.023 0.0011,0.013 0.1126,0.803 -0.2328,0.037 -0.3086,0.069 -0.3034,0.089 -0.2969,0.109 -0.3018,-0.746 -0.0018,-0.004 -0.0057,-0.012 -0.0105,-0.02 -0.016,-0.027 -0.0223,-0.036 -0.0296,-0.042 -0.0381,-0.05 -0.0478,-0.058 -0.059,-0.065 -0.072,-0.073 -0.087,-0.08 -0.1045,-0.087 -0.1249,-0.094 -0.1487,-0.101 -0.1767,-0.105 -0.2098,-0.109 -0.4582,0.264 -0.0103,0.237 0.0029,0.205 0.0124,0.179 0.0189,0.155 0.0233,0.135 0.0258,0.115 0.027,0.099 0.027,0.083 0.0261,0.071 0.0244,0.058 0.0222,0.047 0.0193,0.037 0.0159,0.027 0.0119,0.019 0.0076,0.011 0.4992,0.64 -0.1833,0.148 -0.2327,0.214 -0.2181,0.229 -0.2027,0.243 -0.6344,-0.496 -0.0036,-0.002 -0.011,-0.008 -0.019,-0.012 -0.0276,-0.016 -0.0369,-0.019 -0.047,-0.022 -0.0581,-0.025 -0.0703,-0.026 -0.0837,-0.027 -0.0987,-0.027 -0.1154,-0.025 -0.1341,-0.024 -0.1551,-0.019 -0.1789,-0.012 -0.2057,-0.003 -0.2363,0.01 -0.2645,0.459 0.1092,0.209 0.1054,0.177 0.1001,0.149 0.094,0.125 0.0872,0.104 0.08,0.087 0.0727,0.072 0.0653,0.059 0.0577,0.048 0.0503,0.038 0.0427,0.03 0.0351,0.022 0.0276,0.016 0.0199,0.01 0.012,0.006 0.752,0.304 -0.0848,0.22 -0.0943,0.302 -0.0744,0.307 -0.0541,0.312 -0.7971,-0.112 H 34.412 l -0.0133,-0.001 -0.0224,-10e-4 h -0.0319 l -0.0416,0.002 -0.0518,0.004 -0.0626,0.008 -0.0739,0.012 -0.086,0.019 -0.0989,0.026 -0.1129,0.035 -0.1277,0.047 -0.1438,0.061 -0.1611,0.079 -0.1796,0.1 -0.1995,0.127 v 0.53 l 0.1995,0.127 0.1796,0.1 0.1611,0.079 0.1438,0.061 0.1277,0.047 0.1129,0.035 0.0989,0.026 0.086,0.019 0.0739,0.012 0.0626,0.008 0.0518,0.004 0.0416,0.002 h 0.0319 l 0.0224,-0.001 0.0133,-10e-4 0.8034,-0.112 0.0364,0.2323 0.0693,0.3086 0.0892,0.3034 0.109,0.2969 -0.7461,0.3018 -0.0041,0.0018 -0.012,0.0057 -0.0199,0.0105 -0.0276,0.016 -0.0351,0.0223 -0.0427,0.0296 -0.0503,0.0381 -0.0577,0.0478 -0.0653,0.059 -0.0727,0.072 -0.08,0.087 -0.0872,0.1045 -0.094,0.1249 -0.1001,0.1487 -0.1054,0.1767 -0.1092,0.2098 0.2645,0.4582 0.2363,0.0103 0.2058,-0.0029 0.1788,-0.0124 0.1551,-0.0189 0.1341,-0.0233 0.1154,-0.0258 0.0987,-0.027 0.0837,-0.027 0.0703,-0.0261 0.0581,-0.0244 0.047,-0.0222 0.0369,-0.0193 0.0276,-0.0159 0.019,-0.012 0.011,-0.0075 0.6395,-0.4992 0.1479,0.1833 0.2143,0.2327 0.229,0.2181 0.2428,0.2027 -0.4953,0.6344 -0.0026,0.0036 -0.0076,0.011 -0.0119,0.019 -0.0159,0.0276 -0.0193,0.0369 -0.0222,0.047 -0.0244,0.0581 -0.0262,0.0703 -0.0269,0.0837 -0.027,0.0987 -0.0258,0.1154 -0.0233,0.1341 -0.0189,0.1551 -0.0124,0.1788 -0.003,0.2058 0.0104,0.2362 0.4582,0.2646 0.2098,-0.1092 0.1767,-0.1054 0.1487,-0.1001 0.1249,-0.094 0.1045,-0.0872 0.087,-0.08 0.072,-0.0727 0.059,-0.0653 0.0478,-0.0577 0.0381,-0.0503 0.0296,-0.0427 0.0223,-0.0351 0.016,-0.0276 0.0105,-0.0199 0.0057,-0.012 0.3042,-0.752 0.2198,0.0848 0.3019,0.0943 0.3074,0.0744 0.3116,0.0541 -0.1117,0.7971 -5e-4,0.0044 -0.0011,0.0133 -8e-4,0.0224 v 0.0319 l 0.0018,0.0416 0.0043,0.0518 0.0078,0.0626 0.0125,0.0739 0.0185,0.086 0.026,0.0989 0.0354,0.1129 0.0468,0.1277 0.0612,0.1438 0.0787,0.1611 0.1003,0.1796 0.1271,0.1995 z"
     id="path1"
     style="opacity:0.16483516" />
  <path
     d="m -41.9758,-81.41 -0.1243,-0.1775 -0.1786,-0.3831 -0.1095,-0.4084 -0.0368,-0.421 0.0368,-0.421 0.1095,-0.408 0.1786,-0.383 0.1243,-0.178 h 3.9516 l 0.1243,0.178 0.1787,0.383 0.1094,0.408 0.0368,0.421 -0.0368,0.421 -0.1094,0.4084 -0.1787,0.3831 -0.1243,0.1775 z"
     id="path163"
     style="opacity:0.164835" />
  <path
     d="m -39.7354,-75.805 0.127,-0.1995 0.1004,-0.1796 0.0787,-0.1611 0.0611,-0.1438 0.0469,-0.1277 0.0354,-0.1129 0.026,-0.0989 0.0184,-0.086 0.0126,-0.0739 0.0078,-0.0626 0.0043,-0.0518 0.0018,-0.0416 v -0.0319 l -8e-4,-0.0224 -0.0011,-0.0133 -0.1126,-0.8034 0.2328,-0.0364 0.3086,-0.0693 0.3034,-0.0892 0.2969,-0.109 0.3018,0.7461 0.0018,0.0041 0.0057,0.012 0.0105,0.0199 0.016,0.0276 0.0223,0.0351 0.0296,0.0427 0.0381,0.0503 0.0478,0.0577 0.059,0.0653 0.072,0.0727 0.087,0.08 0.1045,0.0872 0.1249,0.094 0.1487,0.1001 0.1767,0.1054 0.2098,0.1092 0.4582,-0.2646 0.0103,-0.2362 -0.0029,-0.2058 -0.0124,-0.1788 -0.0189,-0.1551 -0.0233,-0.1341 -0.0258,-0.1154 -0.027,-0.0987 -0.027,-0.0837 -0.0261,-0.0703 -0.0244,-0.0581 -0.0222,-0.047 -0.0193,-0.0369 -0.0159,-0.0276 -0.0119,-0.019 -0.0076,-0.011 -0.4992,-0.6395 0.1833,-0.1479 0.2327,-0.2143 0.2181,-0.229 0.2027,-0.2428 0.6344,0.4953 0.0036,0.0026 0.011,0.0076 0.019,0.0119 0.0276,0.0159 0.0369,0.0193 0.047,0.0222 0.0581,0.0244 0.0703,0.0262 0.0837,0.0269 0.0987,0.027 0.1154,0.0258 0.1341,0.0233 0.1551,0.0189 0.1789,0.0124 0.2057,0.003 0.2363,-0.0104 0.2645,-0.4582 -0.1092,-0.2098 -0.1054,-0.1767 -0.1001,-0.1487 -0.094,-0.1249 -0.0872,-0.1045 -0.08,-0.087 -0.0727,-0.072 -0.0653,-0.059 -0.0577,-0.0478 -0.0503,-0.0381 -0.0427,-0.0296 -0.0351,-0.0223 -0.0276,-0.016 -0.0199,-0.0105 -0.012,-0.0057 -0.752,-0.3042 0.0848,-0.2198 0.0943,-0.3019 0.0744,-0.3074 0.0541,-0.3115 0.7971,0.112 h 0.0044 l 0.0133,10e-4 0.0224,0.001 h 0.0319 l 0.0416,-0.002 0.0518,-0.004 0.0626,-0.008 0.0739,-0.012 0.086,-0.019 0.0989,-0.026 0.1129,-0.035 0.1277,-0.047 0.1438,-0.061 0.1611,-0.079 0.1796,-0.1 0.1995,-0.127 v -0.53 l -0.1995,-0.127 -0.1796,-0.1 -0.1611,-0.079 -0.1438,-0.061 -0.1277,-0.047 -0.1129,-0.035 -0.0989,-0.026 -0.086,-0.019 -0.0739,-0.012 -0.0626,-0.008 -0.0518,-0.004 -0.0416,-0.002 h -0.0319 l -0.0224,10e-4 -0.0133,0.001 -0.8034,0.112 -0.0364,-0.232 -0.0693,-0.309 -0.0892,-0.303 -0.109,-0.297 0.7461,-0.302 0.0041,-0.002 0.012,-0.006 0.0199,-0.01 0.0276,-0.016 0.0351,-0.022 0.0427,-0.03 0.0503,-0.038 0.0577,-0.048 0.0653,-0.059 0.0727,-0.072 0.08,-0.087 0.0872,-0.104 0.094,-0.125 0.1001,-0.149 0.1054,-0.177 0.1092,-0.209 -0.2645,-0.459 -0.2363,-0.01 -0.2058,0.003 -0.1788,0.012 -0.1551,0.019 -0.1341,0.024 -0.1154,0.025 -0.0987,0.027 -0.0837,0.027 -0.0703,0.026 -0.0581,0.025 -0.047,0.022 -0.0369,0.019 -0.0276,0.016 -0.019,0.012 -0.011,0.008 -0.6395,0.499 -0.1479,-0.183 -0.2143,-0.233 -0.229,-0.218 -0.2428,-0.203 0.4953,-0.634 0.0026,-0.004 0.0076,-0.011 0.0119,-0.019 0.0159,-0.027 0.0193,-0.037 0.0222,-0.047 0.0244,-0.058 0.0262,-0.071 0.0269,-0.083 0.027,-0.099 0.0258,-0.115 0.0233,-0.135 0.0189,-0.155 0.0124,-0.179 0.003,-0.205 -0.0104,-0.237 -0.4582,-0.264 -0.2098,0.109 -0.1767,0.106 -0.1487,0.1 -0.1249,0.094 -0.1045,0.087 -0.087,0.08 -0.072,0.073 -0.059,0.065 -0.0478,0.058 -0.0381,0.05 -0.0296,0.042 -0.0223,0.036 -0.016,0.027 -0.0105,0.02 -0.0057,0.012 -0.3042,0.752 -0.2198,-0.085 -0.3019,-0.094 -0.3074,-0.074 -0.3116,-0.055 0.1117,-0.797 5e-4,-0.004 0.0011,-0.013 8e-4,-0.023 v -0.032 l -0.0018,-0.041 -0.0043,-0.052 -0.0078,-0.063 -0.0125,-0.073 -0.0185,-0.086 -0.026,-0.099 -0.0354,-0.113 -0.0468,-0.128 -0.0612,-0.144 -0.0787,-0.161 -0.1003,-0.18 -0.1271,-0.199 h -0.5292 l -0.127,0.199 -0.1004,0.18 -0.0787,0.161 -0.0611,0.144 -0.0469,0.128 -0.0354,0.113 -0.0259,0.099 -0.0185,0.086 -0.0125,0.073 -0.0079,0.063 -0.0043,0.052 -0.0018,0.041 v 0.032 l 9e-4,0.023 0.001,0.013 0.1126,0.803 -0.2328,0.037 -0.3086,0.069 -0.3034,0.089 -0.2969,0.109 -0.3018,-0.746 -0.0018,-0.004 -0.0057,-0.012 -0.0105,-0.02 -0.016,-0.027 -0.0223,-0.036 -0.0296,-0.042 -0.0381,-0.05 -0.0478,-0.058 -0.059,-0.065 -0.072,-0.073 -0.087,-0.08 -0.1045,-0.087 -0.1248,-0.094 -0.1488,-0.101 -0.1767,-0.105 -0.2098,-0.109 -0.4582,0.264 -0.0103,0.237 0.0029,0.205 0.0124,0.179 0.0189,0.155 0.0233,0.135 0.0258,0.115 0.027,0.099 0.027,0.083 0.0261,0.071 0.0245,0.058 0.0221,0.047 0.0193,0.037 0.0159,0.027 0.012,0.019 0.0075,0.011 0.4992,0.64 -0.1833,0.148 -0.2327,0.214 -0.2181,0.229 -0.2027,0.243 -0.6344,-0.496 -0.0035,-0.002 -0.0111,-0.008 -0.019,-0.012 -0.0276,-0.016 -0.0369,-0.019 -0.047,-0.022 -0.0581,-0.025 -0.0703,-0.026 -0.0837,-0.027 -0.0987,-0.027 -0.1154,-0.025 -0.1341,-0.024 -0.155,-0.019 -0.1789,-0.012 -0.2058,-0.003 -0.2362,0.01 -0.2646,0.459 0.1092,0.209 0.1054,0.177 0.1001,0.149 0.094,0.125 0.0872,0.104 0.08,0.087 0.0727,0.072 0.0653,0.059 0.0577,0.048 0.0503,0.038 0.0427,0.03 0.0351,0.022 0.0276,0.016 0.0199,0.01 0.012,0.006 0.752,0.304 -0.0848,0.22 -0.0943,0.302 -0.0744,0.307 -0.0541,0.312 -0.7971,-0.112 h -0.0044 l -0.0133,-0.001 -0.0224,-10e-4 h -0.0319 l -0.0416,0.002 -0.0518,0.004 -0.0625,0.008 -0.074,0.012 -0.086,0.019 -0.0989,0.026 -0.1129,0.035 -0.1277,0.047 -0.1438,0.061 -0.1611,0.079 -0.1796,0.1 -0.1995,0.127 v 0.53 l 0.1995,0.127 0.1796,0.1 0.1611,0.079 0.1438,0.061 0.1277,0.047 0.1129,0.035 0.0989,0.026 0.086,0.019 0.074,0.012 0.0625,0.008 0.0518,0.004 0.0416,0.002 h 0.0319 l 0.0224,-0.001 0.0133,-10e-4 0.8034,-0.112 0.0364,0.2323 0.0693,0.3086 0.0893,0.3034 0.1089,0.2969 -0.7461,0.3018 -0.0041,0.0018 -0.012,0.0057 -0.0199,0.0105 -0.0276,0.016 -0.0351,0.0223 -0.0427,0.0296 -0.0503,0.0381 -0.0577,0.0478 -0.0653,0.059 -0.0727,0.072 -0.08,0.087 -0.0872,0.1045 -0.094,0.1249 -0.1001,0.1487 -0.1054,0.1767 -0.1092,0.2098 0.2646,0.4582 0.2362,0.0103 0.2058,-0.0029 0.1788,-0.0124 0.1551,-0.0189 0.1341,-0.0233 0.1154,-0.0258 0.0987,-0.027 0.0837,-0.027 0.0703,-0.0261 0.0581,-0.0244 0.047,-0.0222 0.0369,-0.0193 0.0276,-0.0159 0.019,-0.012 0.011,-0.0075 0.6395,-0.4992 0.1479,0.1833 0.2143,0.2327 0.229,0.2181 0.2428,0.2027 -0.4953,0.6344 -0.0026,0.0036 -0.0076,0.011 -0.0119,0.019 -0.0159,0.0276 -0.0193,0.0369 -0.0222,0.047 -0.0244,0.0581 -0.0261,0.0703 -0.027,0.0837 -0.027,0.0987 -0.0258,0.1154 -0.0233,0.1341 -0.0189,0.1551 -0.0124,0.1788 -0.0029,0.2058 0.0103,0.2362 0.4582,0.2646 0.2098,-0.1092 0.1767,-0.1054 0.1487,-0.1001 0.1249,-0.094 0.1045,-0.0872 0.087,-0.08 0.072,-0.0727 0.059,-0.0653 0.0478,-0.0577 0.0381,-0.0503 0.0296,-0.0427 0.0223,-0.0351 0.016,-0.0276 0.0105,-0.0199 0.0057,-0.012 0.3042,-0.752 0.2198,0.0848 0.3019,0.0943 0.3074,0.0744 0.3116,0.0541 -0.1117,0.7971 -5e-4,0.0044 -0.0011,0.0133 -8e-4,0.0224 v 0.0319 l 0.0018,0.0416 0.0043,0.0518 0.0078,0.0626 0.0126,0.0739 0.0184,0.086 0.026,0.0989 0.0354,0.1129 0.0469,0.1277 0.0611,0.1438 0.0787,0.1611 0.1004,0.1796 0.127,0.1995 z"
     id="path164"
     style="opacity:0.164835" />
  <path
     d="m -1.97581,-81.41 -0.12429,-0.1775 -0.17865,-0.3831 -0.1094,-0.4084 -0.03684,-0.421 0.03684,-0.421 0.1094,-0.408 0.17865,-0.383 0.12429,-0.178 h 3.95162 l 0.12429,0.178 0.17865,0.383 0.1094,0.408 0.03684,0.421 -0.03684,0.421 -0.1094,0.4084 -0.17865,0.3831 -0.12429,0.1775 z"
     id="path165"
     style="opacity:0.164835" />
  <path
     d="m 0.264557,-75.805 0.127075,-0.1995 0.100342,-0.1796 0.078705,-0.1611 0.061142,-0.1438 0.04689,-0.1277 0.035339,-0.1129 0.025986,-0.0989 0.018494,-0.086 0.012512,-0.0739 0.007873,-0.0626 0.004303,-0.0518 0.001755,-0.0416 3.1e-5,-0.0319 -8.55e-4,-0.0224 -0.001037,-0.0133 -0.11258,-0.8034 0.232727,-0.0364 0.308611,-0.0693 0.30343,-0.0892 0.29693,-0.109 0.30177,0.7461 0.00175,0.0041 0.00576,0.012 0.01048,0.0199 0.01597,0.0276 0.02231,0.0351 0.02964,0.0427 0.03808,0.0503 0.04781,0.0577 0.05902,0.0653 0.07199,0.0727 0.08702,0.08 0.10448,0.0872 0.12483,0.094 0.14871,0.1001 0.17673,0.1054 0.20978,0.1092 0.45823,-0.2646 0.01033,-0.2362 -0.00293,-0.2058 -0.01237,-0.1788 -0.01895,-0.1551 -0.02327,-0.1341 -0.02581,-0.1154 -0.02696,-0.0987 -0.02701,-0.0837 -0.02612,-0.0703 -0.02446,-0.0581 -0.02217,-0.047 -0.01929,-0.0369 -0.01588,-0.0276 -0.01196,-0.019 -0.00756,-0.011 -0.49919,-0.6395 0.18334,-0.1479 0.23265,-0.2143 0.21814,-0.229 0.20266,-0.2428 0.6344,0.4953 0.00356,0.0026 0.01102,0.0076 0.01901,0.0119 0.0276,0.0159 0.03691,0.0193 0.04701,0.0222 0.05811,0.0244 0.07028,0.0262 0.08374,0.0269 0.09868,0.027 0.11539,0.0258 0.13406,0.0233 0.15509,0.0189 0.1789,0.0124 0.20573,0.003 0.23627,-0.0104 0.26455,-0.4582 -0.10919,-0.2098 -0.10541,-0.1767 -0.10012,-0.1487 -0.09398,-0.1249 -0.08718,-0.1045 -0.08004,-0.087 -0.0727,-0.072 -0.06524,-0.059 -0.05777,-0.0478 -0.05023,-0.0381 -0.04273,-0.0296 -0.03514,-0.0223 -0.02756,-0.016 -0.01988,-0.0105 -0.01204,-0.0057 -0.75203,-0.3042 0.08481,-0.2198 0.09434,-0.3019 0.07441,-0.3074 0.05412,-0.3115 0.79703,0.112 h 0.00441 l 0.01332,10e-4 0.02244,0.001 h 0.03185 l 0.04161,-0.002 0.0518,-0.004 0.06255,-0.008 0.07393,-0.012 0.08601,-0.019 0.09895,-0.026 0.11283,-0.035 0.12774,-0.047 0.14379,-0.061 0.1611,-0.079 0.17964,-0.1 0.19947,-0.127 -2e-5,-0.53 -0.19945,-0.127 -0.17965,-0.1 -0.16109,-0.079 -0.1438,-0.061 -0.12773,-0.047 -0.11283,-0.035 -0.09895,-0.026 -0.08601,-0.019 -0.07393,-0.012 -0.06255,-0.008 -0.05182,-0.004 -0.04159,-0.002 H 5.62373 l -0.02244,10e-4 -0.01332,0.001 -0.80338,0.112 -0.03642,-0.232 -0.06926,-0.309 -0.08926,-0.303 -0.10895,-0.297 0.74612,-0.302 0.00405,-0.002 0.01205,-0.006 0.01988,-0.01 0.02756,-0.016 0.03516,-0.022 0.04271,-0.03 0.05023,-0.038 0.05777,-0.048 0.06524,-0.059 0.0727,-0.072 0.08004,-0.087 0.08718,-0.104 0.09396,-0.125 0.10017,-0.149 0.1054,-0.177 0.10919,-0.209 -0.26457,-0.459 -0.23627,-0.01 -0.20575,0.003 -0.17885,0.012 -0.15512,0.019 -0.13406,0.024 -0.11539,0.025 -0.09868,0.027 -0.08372,0.027 -0.0703,0.026 -0.05811,0.025 -0.04702,0.022 -0.03688,0.019 -0.02761,0.016 -0.01901,0.012 -0.01102,0.008 -0.63945,0.499 -0.14791,-0.183 -0.21427,-0.233 -0.22903,-0.218 -0.24282,-0.203 0.49529,-0.634 0.00262,-0.004 0.00757,-0.011 0.01196,-0.019 0.01587,-0.027 0.01931,-0.037 0.02217,-0.047 0.02446,-0.058 0.02612,-0.071 0.02699,-0.083 0.02698,-0.099 0.0258,-0.115 0.02326,-0.135 0.01895,-0.155 0.01239,-0.179 0.00293,-0.205 -0.01032,-0.237 -0.45825,-0.264 -0.20979,0.109 -0.17671,0.106 -0.14872,0.1 -0.12484,0.094 -0.10448,0.087 -0.08702,0.08 -0.07198,0.073 -0.05902,0.065 -0.0478,0.058 -0.03809,0.05 -0.02963,0.042 -0.02233,0.036 -0.01596,0.027 -0.01046,0.02 -0.00579,0.012 -0.30417,0.752 -0.21977,-0.085 -0.30188,-0.094 -0.307417,-0.074 -0.311615,-0.055 0.111725,-0.797 5.04e-4,-0.004 0.001037,-0.013 8.7e-4,-0.023 -6.1e-5,-0.032 -0.001739,-0.041 -0.004319,-0.052 -0.007858,-0.063 -0.012512,-0.073 -0.018494,-0.086 -0.026001,-0.099 -0.035339,-0.113 -0.046875,-0.128 -0.061142,-0.144 -0.078705,-0.161 -0.100342,-0.18 -0.127075,-0.199 h -0.529129 l -0.127075,0.199 -0.100342,0.18 -0.078705,0.161 -0.061142,0.144 -0.04689,0.128 -0.035339,0.113 -0.025986,0.099 -0.018494,0.086 -0.012512,0.073 -0.007873,0.063 -0.004303,0.052 -0.001755,0.041 -3.1e-5,0.032 8.55e-4,0.023 0.001037,0.013 0.11258,0.803 -0.232727,0.037 -0.308611,0.069 -0.30343,0.089 -0.29693,0.109 -0.30177,-0.746 -0.00175,-0.004 -0.00576,-0.012 -0.01048,-0.02 -0.01597,-0.027 -0.02231,-0.036 -0.02964,-0.042 -0.03808,-0.05 -0.04781,-0.058 -0.05902,-0.065 -0.07199,-0.073 -0.08702,-0.08 -0.10448,-0.087 -0.12483,-0.094 -0.14871,-0.101 -0.17673,-0.105 -0.20978,-0.109 -0.45823,0.264 -0.01033,0.237 0.00293,0.205 0.01237,0.179 0.01895,0.155 0.02327,0.135 0.02581,0.115 0.02696,0.099 0.02701,0.083 0.02612,0.071 0.02446,0.058 0.02217,0.047 0.01929,0.037 0.01588,0.027 0.01196,0.019 0.00756,0.011 0.49919,0.64 -0.18334,0.148 -0.23265,0.214 -0.21814,0.229 -0.20266,0.243 -0.6344,-0.496 -0.00356,-0.002 -0.01102,-0.008 -0.01901,-0.012 -0.0276,-0.016 -0.03691,-0.019 -0.04701,-0.022 -0.05811,-0.025 -0.07028,-0.026 -0.08374,-0.027 -0.09868,-0.027 -0.11539,-0.025 -0.13406,-0.024 -0.15509,-0.019 -0.1789,-0.012 -0.20573,-0.003 -0.23627,0.01 -0.26455,0.459 0.10919,0.209 0.10541,0.177 0.10012,0.149 0.09398,0.125 0.08718,0.104 0.08004,0.087 0.0727,0.072 0.06524,0.059 0.05777,0.048 0.05023,0.038 0.04273,0.03 0.03514,0.022 0.02756,0.016 0.01988,0.01 0.01204,0.006 0.75203,0.304 -0.08481,0.22 -0.09434,0.302 -0.07441,0.307 -0.05412,0.312 -0.79703,-0.112 h -0.00441 l -0.01332,-0.001 -0.02244,-10e-4 h -0.03185 l -0.04161,0.002 -0.0518,0.004 -0.06255,0.008 -0.07393,0.012 -0.08601,0.019 -0.09895,0.026 -0.11283,0.035 -0.12774,0.047 -0.14379,0.061 -0.1611,0.079 -0.17964,0.1 -0.19947,0.127 2e-5,0.53 0.19945,0.127 0.17965,0.1 0.16109,0.079 0.1438,0.061 0.12773,0.047 0.11283,0.035 0.09895,0.026 0.08601,0.019 0.07393,0.012 0.06255,0.008 0.05182,0.004 0.04159,0.002 h 0.03185 l 0.02244,-0.001 0.01332,-10e-4 0.80338,-0.112 0.03642,0.2323 0.06926,0.3086 0.08926,0.3034 0.10895,0.2969 -0.74612,0.3018 -0.00405,0.0018 -0.01205,0.0057 -0.01988,0.0105 -0.02756,0.016 -0.03516,0.0223 -0.04271,0.0296 -0.05023,0.0381 -0.05777,0.0478 -0.06524,0.059 -0.0727,0.072 -0.08004,0.087 -0.08718,0.1045 -0.09396,0.1249 -0.10017,0.1487 -0.1054,0.1767 -0.10919,0.2098 0.26457,0.4582 0.23627,0.0103 0.20575,-0.0029 0.17885,-0.0124 0.15512,-0.0189 0.13406,-0.0233 0.11539,-0.0258 0.09868,-0.027 0.08372,-0.027 0.0703,-0.0261 0.05811,-0.0244 0.04702,-0.0222 0.03688,-0.0193 0.02761,-0.0159 0.01901,-0.012 0.01102,-0.0075 0.63945,-0.4992 0.14791,0.1833 0.21427,0.2327 0.22903,0.2181 0.24282,0.2027 -0.49529,0.6344 -0.00262,0.0036 -0.00757,0.011 -0.01196,0.019 -0.01587,0.0276 -0.01931,0.0369 -0.02217,0.047 -0.02446,0.0581 -0.02612,0.0703 -0.02699,0.0837 -0.02698,0.0987 -0.0258,0.1154 -0.02326,0.1341 -0.01895,0.1551 -0.01239,0.1788 -0.00293,0.2058 0.01032,0.2362 0.45825,0.2646 0.20979,-0.1092 0.17671,-0.1054 0.14872,-0.1001 0.12484,-0.094 0.10448,-0.0872 0.08702,-0.08 0.07198,-0.0727 0.05902,-0.0653 0.0478,-0.0577 0.03809,-0.0503 0.02963,-0.0427 0.02233,-0.0351 0.01596,-0.0276 0.01046,-0.0199 0.00579,-0.012 0.30417,-0.752 0.21977,0.0848 0.30188,0.0943 0.307417,0.0744 0.311615,0.0541 -0.111725,0.7971 -5.04e-4,0.0044 -0.001037,0.0133 -8.7e-4,0.0224 6.1e-5,0.0319 0.001739,0.0416 0.004319,0.0518 0.007858,0.0626 0.012512,0.0739 0.018494,0.086 0.026001,0.0989 0.035339,0.1129 0.046875,0.1277 0.061142,0.1438 0.078705,0.1611 0.100342,0.1796 0.127075,0.1995 z"
     id="path166"
     style="opacity:0.164835" />
  <path
     d="m 38.0242,-81.41 -0.1243,-0.1775 -0.1787,-0.3831 -0.1094,-0.4084 -0.0368,-0.421 0.0368,-0.421 0.1094,-0.408 0.1787,-0.383 0.1243,-0.178 h 3.9516 l 0.1243,0.178 0.1786,0.383 0.1095,0.408 0.0368,0.421 -0.0368,0.421 -0.1095,0.4084 -0.1786,0.3831 -0.1243,0.1775 z"
     id="path167"
     style="opacity:0.164835" />
  <path
     d="m 40.2646,-75.805 0.127,-0.1995 0.1004,-0.1796 0.0787,-0.1611 0.0611,-0.1438 0.0469,-0.1277 0.0354,-0.1129 0.0259,-0.0989 0.0185,-0.086 0.0125,-0.0739 0.0079,-0.0626 0.0043,-0.0518 0.0018,-0.0416 v -0.0319 l -9e-4,-0.0224 -0.001,-0.0133 -0.1126,-0.8034 0.2328,-0.0364 0.3086,-0.0693 0.3034,-0.0892 0.2969,-0.109 0.3018,0.7461 0.0018,0.0041 0.0057,0.012 0.0105,0.0199 0.016,0.0276 0.0223,0.0351 0.0296,0.0427 0.0381,0.0503 0.0478,0.0577 0.059,0.0653 0.072,0.0727 0.087,0.08 0.1045,0.0872 0.1248,0.094 0.1488,0.1001 0.1767,0.1054 0.2098,0.1092 0.4582,-0.2646 0.0103,-0.2362 -0.0029,-0.2058 -0.0124,-0.1788 -0.0189,-0.1551 -0.0233,-0.1341 -0.0258,-0.1154 -0.027,-0.0987 -0.027,-0.0837 -0.0261,-0.0703 -0.0245,-0.0581 -0.0221,-0.047 -0.0193,-0.0369 -0.0159,-0.0276 -0.012,-0.019 -0.0075,-0.011 -0.4992,-0.6395 0.1833,-0.1479 0.2327,-0.2143 0.2181,-0.229 0.2027,-0.2428 0.6344,0.4953 0.0035,0.0026 0.0111,0.0076 0.019,0.0119 0.0276,0.0159 0.0369,0.0193 0.047,0.0222 0.0581,0.0244 0.0703,0.0262 0.0837,0.0269 0.0987,0.027 0.1154,0.0258 0.1341,0.0233 0.155,0.0189 0.1789,0.0124 0.2058,0.003 0.2362,-0.0104 0.2646,-0.4582 -0.1092,-0.2098 -0.1054,-0.1767 -0.1001,-0.1487 -0.094,-0.1249 -0.0872,-0.1045 -0.08,-0.087 -0.0727,-0.072 -0.0653,-0.059 -0.0577,-0.0478 -0.0503,-0.0381 -0.0427,-0.0296 -0.0351,-0.0223 -0.0276,-0.016 -0.0199,-0.0105 -0.012,-0.0057 -0.752,-0.3042 0.0848,-0.2198 0.0943,-0.3019 0.0744,-0.3074 0.0541,-0.3115 0.7971,0.112 h 0.0044 l 0.0133,10e-4 0.0224,0.001 h 0.0319 l 0.0416,-0.002 0.0518,-0.004 0.0625,-0.008 0.074,-0.012 0.086,-0.019 0.0989,-0.026 0.1129,-0.035 0.1277,-0.047 0.1438,-0.061 0.1611,-0.079 0.1796,-0.1 0.1995,-0.127 v -0.53 l -0.1995,-0.127 -0.1796,-0.1 -0.1611,-0.079 -0.1438,-0.061 -0.1277,-0.047 -0.1129,-0.035 -0.0989,-0.026 -0.086,-0.019 -0.074,-0.012 -0.0625,-0.008 -0.0518,-0.004 -0.0416,-0.002 h -0.0319 l -0.0224,10e-4 -0.0133,0.001 -0.8034,0.112 -0.0364,-0.232 -0.0693,-0.309 -0.0893,-0.303 -0.1089,-0.297 0.7461,-0.302 0.0041,-0.002 0.012,-0.006 0.0199,-0.01 0.0276,-0.016 0.0351,-0.022 0.0427,-0.03 0.0503,-0.038 0.0577,-0.048 0.0653,-0.059 0.0727,-0.072 0.08,-0.087 0.0872,-0.104 0.094,-0.125 0.1001,-0.149 0.1054,-0.177 0.1092,-0.209 -0.2646,-0.459 -0.2362,-0.01 -0.2058,0.003 -0.1788,0.012 -0.1551,0.019 -0.1341,0.024 -0.1154,0.025 -0.0987,0.027 -0.0837,0.027 -0.0703,0.026 -0.0581,0.025 -0.047,0.022 -0.0369,0.019 -0.0276,0.016 -0.019,0.012 -0.011,0.008 -0.6395,0.499 -0.1479,-0.183 -0.2143,-0.233 -0.229,-0.218 -0.2428,-0.203 0.4953,-0.634 0.0026,-0.004 0.0076,-0.011 0.0119,-0.019 0.0159,-0.027 0.0193,-0.037 0.0222,-0.047 0.0244,-0.058 0.0261,-0.071 0.027,-0.083 0.027,-0.099 0.0258,-0.115 0.0233,-0.135 0.0189,-0.155 0.0124,-0.179 0.0029,-0.205 -0.0103,-0.237 -0.4582,-0.264 -0.2098,0.109 -0.1767,0.106 -0.1487,0.1 -0.1249,0.094 -0.1045,0.087 -0.087,0.08 -0.072,0.073 -0.059,0.065 -0.0478,0.058 -0.0381,0.05 -0.0296,0.042 -0.0223,0.036 -0.016,0.027 -0.0105,0.02 -0.0057,0.012 -0.3042,0.752 -0.2198,-0.085 -0.3019,-0.094 -0.3074,-0.074 -0.3116,-0.055 0.1117,-0.797 5e-4,-0.004 0.0011,-0.013 8e-4,-0.023 v -0.032 l -0.0018,-0.041 -0.0043,-0.052 -0.0078,-0.063 -0.0126,-0.073 -0.0184,-0.086 -0.026,-0.099 -0.0354,-0.113 -0.0469,-0.128 -0.0611,-0.144 -0.0787,-0.161 -0.1004,-0.18 -0.127,-0.199 h -0.5292 l -0.127,0.199 -0.1004,0.18 -0.0787,0.161 -0.0611,0.144 -0.0469,0.128 -0.0354,0.113 -0.026,0.099 -0.0184,0.086 -0.0126,0.073 -0.0078,0.063 -0.0043,0.052 -0.0018,0.041 v 0.032 l 8e-4,0.023 0.0011,0.013 0.1126,0.803 -0.2328,0.037 -0.3086,0.069 -0.3034,0.089 -0.2969,0.109 -0.3018,-0.746 -0.0018,-0.004 -0.0057,-0.012 -0.0105,-0.02 -0.016,-0.027 -0.0223,-0.036 -0.0296,-0.042 -0.0381,-0.05 -0.0478,-0.058 -0.059,-0.065 -0.072,-0.073 -0.087,-0.08 -0.1045,-0.087 -0.1249,-0.094 -0.1487,-0.101 -0.1767,-0.105 -0.2098,-0.109 -0.4582,0.264 -0.0103,0.237 0.0029,0.205 0.0124,0.179 0.0189,0.155 0.0233,0.135 0.0258,0.115 0.027,0.099 0.027,0.083 0.0261,0.071 0.0244,0.058 0.0222,0.047 0.0193,0.037 0.0159,0.027 0.0119,0.019 0.0076,0.011 0.4992,0.64 -0.1833,0.148 -0.2327,0.214 -0.2181,0.229 -0.2027,0.243 -0.6344,-0.496 -0.0036,-0.002 -0.011,-0.008 -0.019,-0.012 -0.0276,-0.016 -0.0369,-0.019 -0.047,-0.022 -0.0581,-0.025 -0.0703,-0.026 -0.0837,-0.027 -0.0987,-0.027 -0.1154,-0.025 -0.1341,-0.024 -0.1551,-0.019 -0.1789,-0.012 -0.2057,-0.003 -0.2363,0.01 -0.2645,0.459 0.1092,0.209 0.1054,0.177 0.1001,0.149 0.094,0.125 0.0872,0.104 0.08,0.087 0.0727,0.072 0.0653,0.059 0.0577,0.048 0.0503,0.038 0.0427,0.03 0.0351,0.022 0.0276,0.016 0.0199,0.01 0.012,0.006 0.752,0.304 -0.0848,0.22 -0.0943,0.302 -0.0744,0.307 -0.0541,0.312 -0.7971,-0.112 H 34.412 l -0.0133,-0.001 -0.0224,-10e-4 h -0.0319 l -0.0416,0.002 -0.0518,0.004 -0.0626,0.008 -0.0739,0.012 -0.086,0.019 -0.0989,0.026 -0.1129,0.035 -0.1277,0.047 -0.1438,0.061 -0.1611,0.079 -0.1796,0.1 -0.1995,0.127 v 0.53 l 0.1995,0.127 0.1796,0.1 0.1611,0.079 0.1438,0.061 0.1277,0.047 0.1129,0.035 0.0989,0.026 0.086,0.019 0.0739,0.012 0.0626,0.008 0.0518,0.004 0.0416,0.002 h 0.0319 l 0.0224,-0.001 0.0133,-10e-4 0.8034,-0.112 0.0364,0.2323 0.0693,0.3086 0.0892,0.3034 0.109,0.2969 -0.7461,0.3018 -0.0041,0.0018 -0.012,0.0057 -0.0199,0.0105 -0.0276,0.016 -0.0351,0.0223 -0.0427,0.0296 -0.0503,0.0381 -0.0577,0.0478 -0.0653,0.059 -0.0727,0.072 -0.08,0.087 -0.0872,0.1045 -0.094,0.1249 -0.1001,0.1487 -0.1054,0.1767 -0.1092,0.2098 0.2645,0.4582 0.2363,0.0103 0.2058,-0.0029 0.1788,-0.0124 0.1551,-0.0189 0.1341,-0.0233 0.1154,-0.0258 0.0987,-0.027 0.0837,-0.027 0.0703,-0.0261 0.0581,-0.0244 0.047,-0.0222 0.0369,-0.0193 0.0276,-0.0159 0.019,-0.012 0.011,-0.0075 0.6395,-0.4992 0.1479,0.1833 0.2143,0.2327 0.229,0.2181 0.2428,0.2027 -0.4953,0.6344 -0.0026,0.0036 -0.0076,0.011 -0.0119,0.019 -0.0159,0.0276 -0.0193,0.0369 -0.0222,0.047 -0.0244,0.0581 -0.0262,0.0703 -0.0269,0.0837 -0.027,0.0987 -0.0258,0.1154 -0.0233,0.1341 -0.0189,0.1551 -0.0124,0.1788 -0.003,0.2058 0.0104,0.2362 0.4582,0.2646 0.2098,-0.1092 0.1767,-0.1054 0.1487,-0.1001 0.1249,-0.094 0.1045,-0.0872 0.087,-0.08 0.072,-0.0727 0.059,-0.0653 0.0478,-0.0577 0.0381,-0.0503 0.0296,-0.0427 0.0223,-0.0351 0.016,-0.0276 0.0105,-0.0199 0.0057,-0.012 0.3042,-0.752 0.2198,0.0848 0.3019,0.0943 0.3074,0.0744 0.3116,0.0541 -0.1117,0.7971 -5e-4,0.0044 -0.0011,0.0133 -8e-4,0.0224 v 0.0319 l 0.0018,0.0416 0.0043,0.0518 0.0078,0.0626 0.0125,0.0739 0.0185,0.086 0.026,0.0989 0.0354,0.1129 0.0468,0.1277 0.0612,0.1438 0.0787,0.1611 0.1003,0.1796 0.1271,0.1995 z"
     id="path168"
     style="opacity:0.164835" />
</svg>
