solid OpenSCAD_Model
  facet normal -0.965885 -0.258972 0
    outer loop
      vertex -22.5228 -46.7395 -1
      vertex -22.5905 -46.487 -0.599999
      vertex -22.5905 -46.487 -1
    endloop
  endfacet
  facet normal -0.965885 -0.258972 0
    outer loop
      vertex -22.5905 -46.487 -0.599999
      vertex -22.5228 -46.7395 -1
      vertex -22.5228 -46.7395 -0.599999
    endloop
  endfacet
  facet normal 0.819304 -0.57336 0
    outer loop
      vertex -25.299 -46.25 -0.599999
      vertex -25.1491 -46.0358 -1
      vertex -25.1491 -46.0358 -0.599999
    endloop
  endfacet
  facet normal 0.819304 -0.57336 0
    outer loop
      vertex -25.1491 -46.0358 -1
      vertex -25.299 -46.25 -0.599999
      vertex -25.299 -46.25 -1
    endloop
  endfacet
  facet normal 0.57336 -0.819304 0
    outer loop
      vertex -24.9642 -45.8509 -1
      vertex -24.75 -45.701 -0.599999
      vertex -24.9642 -45.8509 -0.599999
    endloop
  endfacet
  facet normal 0.57336 -0.819304 0
    outer loop
      vertex -24.75 -45.701 -0.599999
      vertex -24.9642 -45.8509 -1
      vertex -24.75 -45.701 -1
    endloop
  endfacet
  facet normal 0.422571 -0.90633 0
    outer loop
      vertex -24.75 -45.701 -1
      vertex -24.513 -45.5905 -0.599999
      vertex -24.75 -45.701 -0.599999
    endloop
  endfacet
  facet normal 0.422571 -0.90633 0
    outer loop
      vertex -24.513 -45.5905 -0.599999
      vertex -24.75 -45.701 -1
      vertex -24.513 -45.5905 -1
    endloop
  endfacet
  facet normal 0.996192 -0.0871907 0
    outer loop
      vertex -25.5 -47 -0.599999
      vertex -25.4772 -46.7395 -1
      vertex -25.4772 -46.7395 -0.599999
    endloop
  endfacet
  facet normal 0.996192 -0.0871907 0
    outer loop
      vertex -25.4772 -46.7395 -1
      vertex -25.5 -47 -0.599999
      vertex -25.5 -47 -1
    endloop
  endfacet
  facet normal 0.0871907 -0.996192 0
    outer loop
      vertex -24.2605 -45.5228 -1
      vertex -24 -45.5 -0.599999
      vertex -24.2605 -45.5228 -0.599999
    endloop
  endfacet
  facet normal 0.0871907 -0.996192 0
    outer loop
      vertex -24 -45.5 -0.599999
      vertex -24.2605 -45.5228 -1
      vertex -24 -45.5 -1
    endloop
  endfacet
  facet normal 0.965885 0.258972 0
    outer loop
      vertex -25.4095 -47.513 -0.599999
      vertex -25.4772 -47.2605 -1
      vertex -25.4772 -47.2605 -0.599999
    endloop
  endfacet
  facet normal 0.965885 0.258972 0
    outer loop
      vertex -25.4772 -47.2605 -1
      vertex -25.4095 -47.513 -0.599999
      vertex -25.4095 -47.513 -1
    endloop
  endfacet
  facet normal -0.707107 -0.707107 0
    outer loop
      vertex -22.8509 -46.0358 -1
      vertex -23.0358 -45.8509 -0.599999
      vertex -23.0358 -45.8509 -1
    endloop
  endfacet
  facet normal -0.707107 -0.707107 0
    outer loop
      vertex -23.0358 -45.8509 -0.599999
      vertex -22.8509 -46.0358 -1
      vertex -22.8509 -46.0358 -0.599999
    endloop
  endfacet
  facet normal -0.90633 -0.422571 0
    outer loop
      vertex -22.5905 -46.487 -1
      vertex -22.701 -46.25 -0.599999
      vertex -22.701 -46.25 -1
    endloop
  endfacet
  facet normal -0.90633 -0.422571 0
    outer loop
      vertex -22.701 -46.25 -0.599999
      vertex -22.5905 -46.487 -1
      vertex -22.5905 -46.487 -0.599999
    endloop
  endfacet
  facet normal 0.707107 -0.707107 0
    outer loop
      vertex -25.1491 -46.0358 -0.599999
      vertex -24.9642 -45.8509 -1
      vertex -24.9642 -45.8509 -0.599999
    endloop
  endfacet
  facet normal 0.707107 -0.707107 0
    outer loop
      vertex -24.9642 -45.8509 -1
      vertex -25.1491 -46.0358 -0.599999
      vertex -25.1491 -46.0358 -1
    endloop
  endfacet
  facet normal -0.0871907 0.996192 0
    outer loop
      vertex -23.7395 -48.4772 -1
      vertex -24 -48.5 -0.599999
      vertex -23.7395 -48.4772 -0.599999
    endloop
  endfacet
  facet normal -0.0871907 0.996192 0
    outer loop
      vertex -24 -48.5 -0.599999
      vertex -23.7395 -48.4772 -1
      vertex -24 -48.5 -1
    endloop
  endfacet
  facet normal -0.996192 -0.0871907 0
    outer loop
      vertex -22.5 -47 -1
      vertex -22.5228 -46.7395 -0.599999
      vertex -22.5228 -46.7395 -1
    endloop
  endfacet
  facet normal -0.996192 -0.0871907 0
    outer loop
      vertex -22.5228 -46.7395 -0.599999
      vertex -22.5 -47 -1
      vertex -22.5 -47 -0.599999
    endloop
  endfacet
  facet normal 0.57336 0.819304 -0
    outer loop
      vertex -24.75 -48.299 -1
      vertex -24.9642 -48.1491 -0.599999
      vertex -24.75 -48.299 -0.599999
    endloop
  endfacet
  facet normal 0.57336 0.819304 0
    outer loop
      vertex -24.9642 -48.1491 -0.599999
      vertex -24.75 -48.299 -1
      vertex -24.9642 -48.1491 -1
    endloop
  endfacet
  facet normal -0.819304 0.57336 0
    outer loop
      vertex -22.8509 -47.9642 -1
      vertex -22.701 -47.75 -0.599999
      vertex -22.701 -47.75 -1
    endloop
  endfacet
  facet normal -0.819304 0.57336 0
    outer loop
      vertex -22.701 -47.75 -0.599999
      vertex -22.8509 -47.9642 -1
      vertex -22.8509 -47.9642 -0.599999
    endloop
  endfacet
  facet normal 0.965885 -0.258972 0
    outer loop
      vertex -25.4772 -46.7395 -0.599999
      vertex -25.4095 -46.487 -1
      vertex -25.4095 -46.487 -0.599999
    endloop
  endfacet
  facet normal 0.965885 -0.258972 0
    outer loop
      vertex -25.4095 -46.487 -1
      vertex -25.4772 -46.7395 -0.599999
      vertex -25.4772 -46.7395 -1
    endloop
  endfacet
  facet normal -0.258972 -0.965885 0
    outer loop
      vertex -23.7395 -45.5228 -1
      vertex -23.487 -45.5905 -0.599999
      vertex -23.7395 -45.5228 -0.599999
    endloop
  endfacet
  facet normal -0.258972 -0.965885 -0
    outer loop
      vertex -23.487 -45.5905 -0.599999
      vertex -23.7395 -45.5228 -1
      vertex -23.487 -45.5905 -1
    endloop
  endfacet
  facet normal 0.819304 0.57336 0
    outer loop
      vertex -25.1491 -47.9642 -0.599999
      vertex -25.299 -47.75 -1
      vertex -25.299 -47.75 -0.599999
    endloop
  endfacet
  facet normal 0.819304 0.57336 0
    outer loop
      vertex -25.299 -47.75 -1
      vertex -25.1491 -47.9642 -0.599999
      vertex -25.1491 -47.9642 -1
    endloop
  endfacet
  facet normal -0.258972 0.965885 0
    outer loop
      vertex -23.487 -48.4095 -1
      vertex -23.7395 -48.4772 -0.599999
      vertex -23.487 -48.4095 -0.599999
    endloop
  endfacet
  facet normal -0.258972 0.965885 0
    outer loop
      vertex -23.7395 -48.4772 -0.599999
      vertex -23.487 -48.4095 -1
      vertex -23.7395 -48.4772 -1
    endloop
  endfacet
  facet normal -0.996192 0.0871907 0
    outer loop
      vertex -22.5228 -47.2605 -1
      vertex -22.5 -47 -0.599999
      vertex -22.5 -47 -1
    endloop
  endfacet
  facet normal -0.996192 0.0871907 0
    outer loop
      vertex -22.5 -47 -0.599999
      vertex -22.5228 -47.2605 -1
      vertex -22.5228 -47.2605 -0.599999
    endloop
  endfacet
  facet normal -0.819304 -0.57336 0
    outer loop
      vertex -22.701 -46.25 -1
      vertex -22.8509 -46.0358 -0.599999
      vertex -22.8509 -46.0358 -1
    endloop
  endfacet
  facet normal -0.819304 -0.57336 0
    outer loop
      vertex -22.8509 -46.0358 -0.599999
      vertex -22.701 -46.25 -1
      vertex -22.701 -46.25 -0.599999
    endloop
  endfacet
  facet normal 0.422571 0.90633 -0
    outer loop
      vertex -24.513 -48.4095 -1
      vertex -24.75 -48.299 -0.599999
      vertex -24.513 -48.4095 -0.599999
    endloop
  endfacet
  facet normal 0.422571 0.90633 0
    outer loop
      vertex -24.75 -48.299 -0.599999
      vertex -24.513 -48.4095 -1
      vertex -24.75 -48.299 -1
    endloop
  endfacet
  facet normal 0.707107 0.707107 0
    outer loop
      vertex -24.9642 -48.1491 -0.599999
      vertex -25.1491 -47.9642 -1
      vertex -25.1491 -47.9642 -0.599999
    endloop
  endfacet
  facet normal 0.707107 0.707107 0
    outer loop
      vertex -25.1491 -47.9642 -1
      vertex -24.9642 -48.1491 -0.599999
      vertex -24.9642 -48.1491 -1
    endloop
  endfacet
  facet normal 0.258972 -0.965885 0
    outer loop
      vertex -24.513 -45.5905 -1
      vertex -24.2605 -45.5228 -0.599999
      vertex -24.513 -45.5905 -0.599999
    endloop
  endfacet
  facet normal 0.258972 -0.965885 0
    outer loop
      vertex -24.2605 -45.5228 -0.599999
      vertex -24.513 -45.5905 -1
      vertex -24.2605 -45.5228 -1
    endloop
  endfacet
  facet normal 0.996192 0.0871907 0
    outer loop
      vertex -25.4772 -47.2605 -0.599999
      vertex -25.5 -47 -1
      vertex -25.5 -47 -0.599999
    endloop
  endfacet
  facet normal 0.996192 0.0871907 0
    outer loop
      vertex -25.5 -47 -1
      vertex -25.4772 -47.2605 -0.599999
      vertex -25.4772 -47.2605 -1
    endloop
  endfacet
  facet normal -0.422571 0.90633 0
    outer loop
      vertex -23.25 -48.299 -1
      vertex -23.487 -48.4095 -0.599999
      vertex -23.25 -48.299 -0.599999
    endloop
  endfacet
  facet normal -0.422571 0.90633 0
    outer loop
      vertex -23.487 -48.4095 -0.599999
      vertex -23.25 -48.299 -1
      vertex -23.487 -48.4095 -1
    endloop
  endfacet
  facet normal -0.965885 0.258972 0
    outer loop
      vertex -22.5905 -47.513 -1
      vertex -22.5228 -47.2605 -0.599999
      vertex -22.5228 -47.2605 -1
    endloop
  endfacet
  facet normal -0.965885 0.258972 0
    outer loop
      vertex -22.5228 -47.2605 -0.599999
      vertex -22.5905 -47.513 -1
      vertex -22.5905 -47.513 -0.599999
    endloop
  endfacet
  facet normal -0.57336 0.819304 0
    outer loop
      vertex -23.0358 -48.1491 -1
      vertex -23.25 -48.299 -0.599999
      vertex -23.0358 -48.1491 -0.599999
    endloop
  endfacet
  facet normal -0.57336 0.819304 0
    outer loop
      vertex -23.25 -48.299 -0.599999
      vertex -23.0358 -48.1491 -1
      vertex -23.25 -48.299 -1
    endloop
  endfacet
  facet normal -0.422571 -0.90633 0
    outer loop
      vertex -23.487 -45.5905 -1
      vertex -23.25 -45.701 -0.599999
      vertex -23.487 -45.5905 -0.599999
    endloop
  endfacet
  facet normal -0.422571 -0.90633 -0
    outer loop
      vertex -23.25 -45.701 -0.599999
      vertex -23.487 -45.5905 -1
      vertex -23.25 -45.701 -1
    endloop
  endfacet
  facet normal 0.90633 -0.422571 0
    outer loop
      vertex -25.4095 -46.487 -0.599999
      vertex -25.299 -46.25 -1
      vertex -25.299 -46.25 -0.599999
    endloop
  endfacet
  facet normal 0.90633 -0.422571 0
    outer loop
      vertex -25.299 -46.25 -1
      vertex -25.4095 -46.487 -0.599999
      vertex -25.4095 -46.487 -1
    endloop
  endfacet
  facet normal 0.0871907 0.996192 -0
    outer loop
      vertex -24 -48.5 -1
      vertex -24.2605 -48.4772 -0.599999
      vertex -24 -48.5 -0.599999
    endloop
  endfacet
  facet normal 0.0871907 0.996192 0
    outer loop
      vertex -24.2605 -48.4772 -0.599999
      vertex -24 -48.5 -1
      vertex -24.2605 -48.4772 -1
    endloop
  endfacet
  facet normal 0.90633 0.422571 0
    outer loop
      vertex -25.299 -47.75 -0.599999
      vertex -25.4095 -47.513 -1
      vertex -25.4095 -47.513 -0.599999
    endloop
  endfacet
  facet normal 0.90633 0.422571 0
    outer loop
      vertex -25.4095 -47.513 -1
      vertex -25.299 -47.75 -0.599999
      vertex -25.299 -47.75 -1
    endloop
  endfacet
  facet normal -0.0871907 -0.996192 0
    outer loop
      vertex -24 -45.5 -1
      vertex -23.7395 -45.5228 -0.599999
      vertex -24 -45.5 -0.599999
    endloop
  endfacet
  facet normal -0.0871907 -0.996192 -0
    outer loop
      vertex -23.7395 -45.5228 -0.599999
      vertex -24 -45.5 -1
      vertex -23.7395 -45.5228 -1
    endloop
  endfacet
  facet normal -0.90633 0.422571 0
    outer loop
      vertex -22.701 -47.75 -1
      vertex -22.5905 -47.513 -0.599999
      vertex -22.5905 -47.513 -1
    endloop
  endfacet
  facet normal -0.90633 0.422571 0
    outer loop
      vertex -22.5905 -47.513 -0.599999
      vertex -22.701 -47.75 -1
      vertex -22.701 -47.75 -0.599999
    endloop
  endfacet
  facet normal -0.707107 0.707107 0
    outer loop
      vertex -23.0358 -48.1491 -1
      vertex -22.8509 -47.9642 -0.599999
      vertex -22.8509 -47.9642 -1
    endloop
  endfacet
  facet normal -0.707107 0.707107 0
    outer loop
      vertex -22.8509 -47.9642 -0.599999
      vertex -23.0358 -48.1491 -1
      vertex -23.0358 -48.1491 -0.599999
    endloop
  endfacet
  facet normal -0.57336 -0.819304 0
    outer loop
      vertex -23.25 -45.701 -1
      vertex -23.0358 -45.8509 -0.599999
      vertex -23.25 -45.701 -0.599999
    endloop
  endfacet
  facet normal -0.57336 -0.819304 -0
    outer loop
      vertex -23.0358 -45.8509 -0.599999
      vertex -23.25 -45.701 -1
      vertex -23.0358 -45.8509 -1
    endloop
  endfacet
  facet normal 0.258972 0.965885 -0
    outer loop
      vertex -24.2605 -48.4772 -1
      vertex -24.513 -48.4095 -0.599999
      vertex -24.2605 -48.4772 -0.599999
    endloop
  endfacet
  facet normal 0.258972 0.965885 0
    outer loop
      vertex -24.513 -48.4095 -0.599999
      vertex -24.2605 -48.4772 -1
      vertex -24.513 -48.4095 -1
    endloop
  endfacet
  facet normal 0.0871907 -0.996192 0
    outer loop
      vertex -24.2605 48.4772 -1
      vertex -24 48.5 -0.599999
      vertex -24.2605 48.4772 -0.599999
    endloop
  endfacet
  facet normal 0.0871907 -0.996192 0
    outer loop
      vertex -24 48.5 -0.599999
      vertex -24.2605 48.4772 -1
      vertex -24 48.5 -1
    endloop
  endfacet
  facet normal -0.965885 -0.258972 0
    outer loop
      vertex -22.5228 47.2605 -1
      vertex -22.5905 47.513 -0.599999
      vertex -22.5905 47.513 -1
    endloop
  endfacet
  facet normal -0.965885 -0.258972 0
    outer loop
      vertex -22.5905 47.513 -0.599999
      vertex -22.5228 47.2605 -1
      vertex -22.5228 47.2605 -0.599999
    endloop
  endfacet
  facet normal -0.996192 -0.0871907 0
    outer loop
      vertex -22.5 47 -1
      vertex -22.5228 47.2605 -0.599999
      vertex -22.5228 47.2605 -1
    endloop
  endfacet
  facet normal -0.996192 -0.0871907 0
    outer loop
      vertex -22.5228 47.2605 -0.599999
      vertex -22.5 47 -1
      vertex -22.5 47 -0.599999
    endloop
  endfacet
  facet normal -0.90633 -0.422571 0
    outer loop
      vertex -22.5905 47.513 -1
      vertex -22.701 47.75 -0.599999
      vertex -22.701 47.75 -1
    endloop
  endfacet
  facet normal -0.90633 -0.422571 0
    outer loop
      vertex -22.701 47.75 -0.599999
      vertex -22.5905 47.513 -1
      vertex -22.5905 47.513 -0.599999
    endloop
  endfacet
  facet normal 0.258972 0.965885 -0
    outer loop
      vertex -24.2605 45.5228 -1
      vertex -24.513 45.5905 -0.599999
      vertex -24.2605 45.5228 -0.599999
    endloop
  endfacet
  facet normal 0.258972 0.965885 0
    outer loop
      vertex -24.513 45.5905 -0.599999
      vertex -24.2605 45.5228 -1
      vertex -24.513 45.5905 -1
    endloop
  endfacet
  facet normal 0.707107 0.707107 0
    outer loop
      vertex -24.9642 45.8509 -0.599999
      vertex -25.1491 46.0358 -1
      vertex -25.1491 46.0358 -0.599999
    endloop
  endfacet
  facet normal 0.707107 0.707107 0
    outer loop
      vertex -25.1491 46.0358 -1
      vertex -24.9642 45.8509 -0.599999
      vertex -24.9642 45.8509 -1
    endloop
  endfacet
  facet normal -0.996192 0.0871907 0
    outer loop
      vertex -22.5228 46.7395 -1
      vertex -22.5 47 -0.599999
      vertex -22.5 47 -1
    endloop
  endfacet
  facet normal -0.996192 0.0871907 0
    outer loop
      vertex -22.5 47 -0.599999
      vertex -22.5228 46.7395 -1
      vertex -22.5228 46.7395 -0.599999
    endloop
  endfacet
  facet normal -0.819304 -0.57336 0
    outer loop
      vertex -22.701 47.75 -1
      vertex -22.8509 47.9642 -0.599999
      vertex -22.8509 47.9642 -1
    endloop
  endfacet
  facet normal -0.819304 -0.57336 0
    outer loop
      vertex -22.8509 47.9642 -0.599999
      vertex -22.701 47.75 -1
      vertex -22.701 47.75 -0.599999
    endloop
  endfacet
  facet normal 0.57336 -0.819304 0
    outer loop
      vertex -24.9642 48.1491 -1
      vertex -24.75 48.299 -0.599999
      vertex -24.9642 48.1491 -0.599999
    endloop
  endfacet
  facet normal 0.57336 -0.819304 0
    outer loop
      vertex -24.75 48.299 -0.599999
      vertex -24.9642 48.1491 -1
      vertex -24.75 48.299 -1
    endloop
  endfacet
  facet normal 0.90633 -0.422571 0
    outer loop
      vertex -25.4095 47.513 -0.599999
      vertex -25.299 47.75 -1
      vertex -25.299 47.75 -0.599999
    endloop
  endfacet
  facet normal 0.90633 -0.422571 0
    outer loop
      vertex -25.299 47.75 -1
      vertex -25.4095 47.513 -0.599999
      vertex -25.4095 47.513 -1
    endloop
  endfacet
  facet normal -0.965885 0.258972 0
    outer loop
      vertex -22.5905 46.487 -1
      vertex -22.5228 46.7395 -0.599999
      vertex -22.5228 46.7395 -1
    endloop
  endfacet
  facet normal -0.965885 0.258972 0
    outer loop
      vertex -22.5228 46.7395 -0.599999
      vertex -22.5905 46.487 -1
      vertex -22.5905 46.487 -0.599999
    endloop
  endfacet
  facet normal 0.422571 -0.90633 0
    outer loop
      vertex -24.75 48.299 -1
      vertex -24.513 48.4095 -0.599999
      vertex -24.75 48.299 -0.599999
    endloop
  endfacet
  facet normal 0.422571 -0.90633 0
    outer loop
      vertex -24.513 48.4095 -0.599999
      vertex -24.75 48.299 -1
      vertex -24.513 48.4095 -1
    endloop
  endfacet
  facet normal -0.90633 0.422571 0
    outer loop
      vertex -22.701 46.25 -1
      vertex -22.5905 46.487 -0.599999
      vertex -22.5905 46.487 -1
    endloop
  endfacet
  facet normal -0.90633 0.422571 0
    outer loop
      vertex -22.5905 46.487 -0.599999
      vertex -22.701 46.25 -1
      vertex -22.701 46.25 -0.599999
    endloop
  endfacet
  facet normal -0.57336 0.819304 0
    outer loop
      vertex -23.0358 45.8509 -1
      vertex -23.25 45.701 -0.599999
      vertex -23.0358 45.8509 -0.599999
    endloop
  endfacet
  facet normal -0.57336 0.819304 0
    outer loop
      vertex -23.25 45.701 -0.599999
      vertex -23.0358 45.8509 -1
      vertex -23.25 45.701 -1
    endloop
  endfacet
  facet normal 0.996192 -0.0871907 0
    outer loop
      vertex -25.5 47 -0.599999
      vertex -25.4772 47.2605 -1
      vertex -25.4772 47.2605 -0.599999
    endloop
  endfacet
  facet normal 0.996192 -0.0871907 0
    outer loop
      vertex -25.4772 47.2605 -1
      vertex -25.5 47 -0.599999
      vertex -25.5 47 -1
    endloop
  endfacet
  facet normal 0.707107 -0.707107 0
    outer loop
      vertex -25.1491 47.9642 -0.599999
      vertex -24.9642 48.1491 -1
      vertex -24.9642 48.1491 -0.599999
    endloop
  endfacet
  facet normal 0.707107 -0.707107 0
    outer loop
      vertex -24.9642 48.1491 -1
      vertex -25.1491 47.9642 -0.599999
      vertex -25.1491 47.9642 -1
    endloop
  endfacet
  facet normal 0.258972 -0.965885 0
    outer loop
      vertex -24.513 48.4095 -1
      vertex -24.2605 48.4772 -0.599999
      vertex -24.513 48.4095 -0.599999
    endloop
  endfacet
  facet normal 0.258972 -0.965885 0
    outer loop
      vertex -24.2605 48.4772 -0.599999
      vertex -24.513 48.4095 -1
      vertex -24.2605 48.4772 -1
    endloop
  endfacet
  facet normal 0.0871907 0.996192 -0
    outer loop
      vertex -24 45.5 -1
      vertex -24.2605 45.5228 -0.599999
      vertex -24 45.5 -0.599999
    endloop
  endfacet
  facet normal 0.0871907 0.996192 0
    outer loop
      vertex -24.2605 45.5228 -0.599999
      vertex -24 45.5 -1
      vertex -24.2605 45.5228 -1
    endloop
  endfacet
  facet normal 0.996192 0.0871907 0
    outer loop
      vertex -25.4772 46.7395 -0.599999
      vertex -25.5 47 -1
      vertex -25.5 47 -0.599999
    endloop
  endfacet
  facet normal 0.996192 0.0871907 0
    outer loop
      vertex -25.5 47 -1
      vertex -25.4772 46.7395 -0.599999
      vertex -25.4772 46.7395 -1
    endloop
  endfacet
  facet normal -0.422571 -0.90633 0
    outer loop
      vertex -23.487 48.4095 -1
      vertex -23.25 48.299 -0.599999
      vertex -23.487 48.4095 -0.599999
    endloop
  endfacet
  facet normal -0.422571 -0.90633 -0
    outer loop
      vertex -23.25 48.299 -0.599999
      vertex -23.487 48.4095 -1
      vertex -23.25 48.299 -1
    endloop
  endfacet
  facet normal 0.819304 0.57336 0
    outer loop
      vertex -25.1491 46.0358 -0.599999
      vertex -25.299 46.25 -1
      vertex -25.299 46.25 -0.599999
    endloop
  endfacet
  facet normal 0.819304 0.57336 0
    outer loop
      vertex -25.299 46.25 -1
      vertex -25.1491 46.0358 -0.599999
      vertex -25.1491 46.0358 -1
    endloop
  endfacet
  facet normal -0.258972 0.965885 0
    outer loop
      vertex -23.487 45.5905 -1
      vertex -23.7395 45.5228 -0.599999
      vertex -23.487 45.5905 -0.599999
    endloop
  endfacet
  facet normal -0.258972 0.965885 0
    outer loop
      vertex -23.7395 45.5228 -0.599999
      vertex -23.487 45.5905 -1
      vertex -23.7395 45.5228 -1
    endloop
  endfacet
  facet normal -0.707107 -0.707107 0
    outer loop
      vertex -22.8509 47.9642 -1
      vertex -23.0358 48.1491 -0.599999
      vertex -23.0358 48.1491 -1
    endloop
  endfacet
  facet normal -0.707107 -0.707107 0
    outer loop
      vertex -23.0358 48.1491 -0.599999
      vertex -22.8509 47.9642 -1
      vertex -22.8509 47.9642 -0.599999
    endloop
  endfacet
  facet normal -0.57336 -0.819304 0
    outer loop
      vertex -23.25 48.299 -1
      vertex -23.0358 48.1491 -0.599999
      vertex -23.25 48.299 -0.599999
    endloop
  endfacet
  facet normal -0.57336 -0.819304 -0
    outer loop
      vertex -23.0358 48.1491 -0.599999
      vertex -23.25 48.299 -1
      vertex -23.0358 48.1491 -1
    endloop
  endfacet
  facet normal 0.819304 -0.57336 0
    outer loop
      vertex -25.299 47.75 -0.599999
      vertex -25.1491 47.9642 -1
      vertex -25.1491 47.9642 -0.599999
    endloop
  endfacet
  facet normal 0.819304 -0.57336 0
    outer loop
      vertex -25.1491 47.9642 -1
      vertex -25.299 47.75 -0.599999
      vertex -25.299 47.75 -1
    endloop
  endfacet
  facet normal -0.0871907 0.996192 0
    outer loop
      vertex -23.7395 45.5228 -1
      vertex -24 45.5 -0.599999
      vertex -23.7395 45.5228 -0.599999
    endloop
  endfacet
  facet normal -0.0871907 0.996192 0
    outer loop
      vertex -24 45.5 -0.599999
      vertex -23.7395 45.5228 -1
      vertex -24 45.5 -1
    endloop
  endfacet
  facet normal 0.965885 0.258972 0
    outer loop
      vertex -25.4095 46.487 -0.599999
      vertex -25.4772 46.7395 -1
      vertex -25.4772 46.7395 -0.599999
    endloop
  endfacet
  facet normal 0.965885 0.258972 0
    outer loop
      vertex -25.4772 46.7395 -1
      vertex -25.4095 46.487 -0.599999
      vertex -25.4095 46.487 -1
    endloop
  endfacet
  facet normal -0.422571 0.90633 0
    outer loop
      vertex -23.25 45.701 -1
      vertex -23.487 45.5905 -0.599999
      vertex -23.25 45.701 -0.599999
    endloop
  endfacet
  facet normal -0.422571 0.90633 0
    outer loop
      vertex -23.487 45.5905 -0.599999
      vertex -23.25 45.701 -1
      vertex -23.487 45.5905 -1
    endloop
  endfacet
  facet normal -0.707107 0.707107 0
    outer loop
      vertex -23.0358 45.8509 -1
      vertex -22.8509 46.0358 -0.599999
      vertex -22.8509 46.0358 -1
    endloop
  endfacet
  facet normal -0.707107 0.707107 0
    outer loop
      vertex -22.8509 46.0358 -0.599999
      vertex -23.0358 45.8509 -1
      vertex -23.0358 45.8509 -0.599999
    endloop
  endfacet
  facet normal -0.258972 -0.965885 0
    outer loop
      vertex -23.7395 48.4772 -1
      vertex -23.487 48.4095 -0.599999
      vertex -23.7395 48.4772 -0.599999
    endloop
  endfacet
  facet normal -0.258972 -0.965885 -0
    outer loop
      vertex -23.487 48.4095 -0.599999
      vertex -23.7395 48.4772 -1
      vertex -23.487 48.4095 -1
    endloop
  endfacet
  facet normal -0.819304 0.57336 0
    outer loop
      vertex -22.8509 46.0358 -1
      vertex -22.701 46.25 -0.599999
      vertex -22.701 46.25 -1
    endloop
  endfacet
  facet normal -0.819304 0.57336 0
    outer loop
      vertex -22.701 46.25 -0.599999
      vertex -22.8509 46.0358 -1
      vertex -22.8509 46.0358 -0.599999
    endloop
  endfacet
  facet normal 0.90633 0.422571 0
    outer loop
      vertex -25.299 46.25 -0.599999
      vertex -25.4095 46.487 -1
      vertex -25.4095 46.487 -0.599999
    endloop
  endfacet
  facet normal 0.90633 0.422571 0
    outer loop
      vertex -25.4095 46.487 -1
      vertex -25.299 46.25 -0.599999
      vertex -25.299 46.25 -1
    endloop
  endfacet
  facet normal -0.0871907 -0.996192 0
    outer loop
      vertex -24 48.5 -1
      vertex -23.7395 48.4772 -0.599999
      vertex -24 48.5 -0.599999
    endloop
  endfacet
  facet normal -0.0871907 -0.996192 -0
    outer loop
      vertex -23.7395 48.4772 -0.599999
      vertex -24 48.5 -1
      vertex -23.7395 48.4772 -1
    endloop
  endfacet
  facet normal 0.965885 -0.258972 0
    outer loop
      vertex -25.4772 47.2605 -0.599999
      vertex -25.4095 47.513 -1
      vertex -25.4095 47.513 -0.599999
    endloop
  endfacet
  facet normal 0.965885 -0.258972 0
    outer loop
      vertex -25.4095 47.513 -1
      vertex -25.4772 47.2605 -0.599999
      vertex -25.4772 47.2605 -1
    endloop
  endfacet
  facet normal 0.422571 0.90633 -0
    outer loop
      vertex -24.513 45.5905 -1
      vertex -24.75 45.701 -0.599999
      vertex -24.513 45.5905 -0.599999
    endloop
  endfacet
  facet normal 0.422571 0.90633 0
    outer loop
      vertex -24.75 45.701 -0.599999
      vertex -24.513 45.5905 -1
      vertex -24.75 45.701 -1
    endloop
  endfacet
  facet normal 0.57336 0.819304 -0
    outer loop
      vertex -24.75 45.701 -1
      vertex -24.9642 45.8509 -0.599999
      vertex -24.75 45.701 -0.599999
    endloop
  endfacet
  facet normal 0.57336 0.819304 0
    outer loop
      vertex -24.9642 45.8509 -0.599999
      vertex -24.75 45.701 -1
      vertex -24.9642 45.8509 -1
    endloop
  endfacet
  facet normal 1 0 0
    outer loop
      vertex -8.5 48.5 1
      vertex -8.5 22.5 0.5
      vertex -8.5 48.5 0.5
    endloop
  endfacet
  facet normal 1 0 0
    outer loop
      vertex -8.5 22.5 0.5
      vertex -8.5 -22.5 0.5
      vertex -8.5 22.5 -1
    endloop
  endfacet
  facet normal 1 0 0
    outer loop
      vertex -8.5 48.5 1
      vertex -8.5 -22.5 0.5
      vertex -8.5 22.5 0.5
    endloop
  endfacet
  facet normal 1 -0 0
    outer loop
      vertex -8.5 -44.5 1
      vertex -8.5 -22.5 0.5
      vertex -8.5 48.5 1
    endloop
  endfacet
  facet normal 1 0 0
    outer loop
      vertex -8.5 -22.5 0.5
      vertex -8.5 -44.5 1
      vertex -8.5 -44.5 0.5
    endloop
  endfacet
  facet normal 1 0 0
    outer loop
      vertex -8.5 22.5 -1
      vertex -8.5 -22.5 0.5
      vertex -8.5 -22.5 -1
    endloop
  endfacet
  facet normal -1 0 0
    outer loop
      vertex -27.5 -48.5 -1
      vertex -27.5 -45.5 -0.599999
      vertex -27.5 -45.5 -1
    endloop
  endfacet
  facet normal -1 -0 0
    outer loop
      vertex -27.5 -45.5 -0.599999
      vertex -27.5 -48.5 -1
      vertex -27.5 -48.5 -0.599999
    endloop
  endfacet
  facet normal -1 0 0
    outer loop
      vertex -27.5 45.5 -1
      vertex -27.5 48.5 -0.599999
      vertex -27.5 48.5 -1
    endloop
  endfacet
  facet normal -1 -0 0
    outer loop
      vertex -27.5 48.5 -0.599999
      vertex -27.5 45.5 -1
      vertex -27.5 45.5 -0.599999
    endloop
  endfacet
  facet normal 0 -1 0
    outer loop
      vertex -25.5 -50.5 -0.599999
      vertex -25.5 -50.5 -1
      vertex -20.1 -50.5 -0.599999
    endloop
  endfacet
  facet normal 0 -1 0
    outer loop
      vertex -20.1 -50.5 -0.599999
      vertex -18.5 -50.5 -1
      vertex -18.5 -50.5 1
    endloop
  endfacet
  facet normal 0 -1 0
    outer loop
      vertex -18.5 -50.5 -1
      vertex -20.1 -50.5 -0.599999
      vertex -25.5 -50.5 -1
    endloop
  endfacet
  facet normal -0 0 1
    outer loop
      vertex -18.5 50.5 1
      vertex -8.5 48.5 1
      vertex -10.5 50.5 1
    endloop
  endfacet
  facet normal 0 0 1
    outer loop
      vertex -8.5 48.5 1
      vertex -18.5 50.5 1
      vertex -18.5 37.5 1
    endloop
  endfacet
  facet normal 0 0 1
    outer loop
      vertex -8.5 48.5 1
      vertex -18.5 37.5 1
      vertex -8.5 -44.5 1
    endloop
  endfacet
  facet normal -0 0 1
    outer loop
      vertex -18.5 -37.5 1
      vertex -8.5 -44.5 1
      vertex -18.5 37.5 1
    endloop
  endfacet
  facet normal 0 0 1
    outer loop
      vertex -8.5 -44.5 1
      vertex -18.5 -37.5 1
      vertex -18.5 -44.5 1
    endloop
  endfacet
  facet normal 0 0 -1
    outer loop
      vertex -18.5 -37.5 -1
      vertex -17.5 -44.5 -1
      vertex -18.5 -44.5 -1
    endloop
  endfacet
  facet normal 0 0 -1
    outer loop
      vertex -8.5 -22.5 -1
      vertex -11.5 22.5 -1
      vertex -8.5 22.5 -1
    endloop
  endfacet
  facet normal 0 0 -1
    outer loop
      vertex -17.5 -22.5 -1
      vertex -11.5 22.5 -1
      vertex -8.5 -22.5 -1
    endloop
  endfacet
  facet normal 0 0 -1
    outer loop
      vertex -18.5 34 -1
      vertex -11.5 22.5 -1
      vertex -17.5 -22.5 -1
    endloop
  endfacet
  facet normal 0 0 -1
    outer loop
      vertex -17.5 -44.5 -1
      vertex -18.5 -37.5 -1
      vertex -17.5 -22.5 -1
    endloop
  endfacet
  facet normal 0 0 -1
    outer loop
      vertex -11.5 22.5 -1
      vertex -18.5 34 -1
      vertex -11.5 34 -1
    endloop
  endfacet
  facet normal 0 0 -1
    outer loop
      vertex -18.5 34 -1
      vertex -17.5 -22.5 -1
      vertex -18.5 -37.5 -1
    endloop
  endfacet
  facet normal 0 0 -1
    outer loop
      vertex -22.5228 -47.2605 -1
      vertex -18.5 -44.5 -1
      vertex -18.5 -50.5 -1
    endloop
  endfacet
  facet normal 0 0 -1
    outer loop
      vertex -18.5 -44.5 -1
      vertex -22.5 -47 -1
      vertex -22.5228 -46.7395 -1
    endloop
  endfacet
  facet normal 0 0 -1
    outer loop
      vertex -18.5 -44.5 -1
      vertex -22.5228 -47.2605 -1
      vertex -22.5 -47 -1
    endloop
  endfacet
  facet normal 0 0 -1
    outer loop
      vertex -18.5 -50.5 -1
      vertex -22.5905 -47.513 -1
      vertex -22.5228 -47.2605 -1
    endloop
  endfacet
  facet normal 0 0 -1
    outer loop
      vertex -18.5 -50.5 -1
      vertex -22.701 -47.75 -1
      vertex -22.5905 -47.513 -1
    endloop
  endfacet
  facet normal 0 0 -1
    outer loop
      vertex -18.5 -50.5 -1
      vertex -22.8509 -47.9642 -1
      vertex -22.701 -47.75 -1
    endloop
  endfacet
  facet normal 0 0 -1
    outer loop
      vertex -18.5 -50.5 -1
      vertex -23.0358 -48.1491 -1
      vertex -22.8509 -47.9642 -1
    endloop
  endfacet
  facet normal 0 0 -1
    outer loop
      vertex -18.5 -50.5 -1
      vertex -23.25 -48.299 -1
      vertex -23.0358 -48.1491 -1
    endloop
  endfacet
  facet normal 0 0 -1
    outer loop
      vertex -18.5 -50.5 -1
      vertex -23.487 -48.4095 -1
      vertex -23.25 -48.299 -1
    endloop
  endfacet
  facet normal 0 0 -1
    outer loop
      vertex -25.5 -50.5 -1
      vertex -23.487 -48.4095 -1
      vertex -18.5 -50.5 -1
    endloop
  endfacet
  facet normal 0 0 -1
    outer loop
      vertex -23.487 -48.4095 -1
      vertex -25.5 -50.5 -1
      vertex -23.7395 -48.4772 -1
    endloop
  endfacet
  facet normal 0 0 -1
    outer loop
      vertex -23.7395 -48.4772 -1
      vertex -25.5 -50.5 -1
      vertex -24 -48.5 -1
    endloop
  endfacet
  facet normal -0 0 -1
    outer loop
      vertex -24 -48.5 -1
      vertex -25.5 -50.5 -1
      vertex -24.2605 -48.4772 -1
    endloop
  endfacet
  facet normal -0 0 -1
    outer loop
      vertex -24.2605 -48.4772 -1
      vertex -25.5 -50.5 -1
      vertex -24.513 -48.4095 -1
    endloop
  endfacet
  facet normal 0 0 -1
    outer loop
      vertex -25.5 -50.5 -1
      vertex -24.75 -48.299 -1
      vertex -24.513 -48.4095 -1
    endloop
  endfacet
  facet normal 0 0 -1
    outer loop
      vertex -25.5 -50.5 -1
      vertex -24.9642 -48.1491 -1
      vertex -24.75 -48.299 -1
    endloop
  endfacet
  facet normal 0 0 -1
    outer loop
      vertex -25.5 -50.5 -1
      vertex -25.1491 -47.9642 -1
      vertex -24.9642 -48.1491 -1
    endloop
  endfacet
  facet normal 0 0 -1
    outer loop
      vertex -27.5 -48.5 -1
      vertex -25.1491 -47.9642 -1
      vertex -25.5 -50.5 -1
    endloop
  endfacet
  facet normal -0 0 -1
    outer loop
      vertex -25.1491 -47.9642 -1
      vertex -27.5 -48.5 -1
      vertex -25.299 -47.75 -1
    endloop
  endfacet
  facet normal -0 0 -1
    outer loop
      vertex -25.299 -47.75 -1
      vertex -27.5 -48.5 -1
      vertex -25.4095 -47.513 -1
    endloop
  endfacet
  facet normal -0 0 -1
    outer loop
      vertex -25.4095 -47.513 -1
      vertex -27.5 -48.5 -1
      vertex -25.4772 -47.2605 -1
    endloop
  endfacet
  facet normal -0 0 -1
    outer loop
      vertex -25.4772 -47.2605 -1
      vertex -27.5 -48.5 -1
      vertex -25.5 -47 -1
    endloop
  endfacet
  facet normal 0 0 -1
    outer loop
      vertex -18.5 -44.5 -1
      vertex -22.5228 -46.7395 -1
      vertex -22.5905 -46.487 -1
    endloop
  endfacet
  facet normal 0 0 -1
    outer loop
      vertex -22.701 -46.25 -1
      vertex -18.5 -44.5 -1
      vertex -22.5905 -46.487 -1
    endloop
  endfacet
  facet normal 0 0 -1
    outer loop
      vertex -22.8509 -46.0358 -1
      vertex -18.5 -44.5 -1
      vertex -22.701 -46.25 -1
    endloop
  endfacet
  facet normal 0 0 -1
    outer loop
      vertex -23.0358 -45.8509 -1
      vertex -18.5 -44.5 -1
      vertex -22.8509 -46.0358 -1
    endloop
  endfacet
  facet normal 0 0 -1
    outer loop
      vertex -23.25 -45.701 -1
      vertex -18.5 -44.5 -1
      vertex -23.0358 -45.8509 -1
    endloop
  endfacet
  facet normal 0 0 -1
    outer loop
      vertex -23.487 -45.5905 -1
      vertex -18.5 -44.5 -1
      vertex -23.25 -45.701 -1
    endloop
  endfacet
  facet normal -0 0 -1
    outer loop
      vertex -18.5 -44.5 -1
      vertex -23.487 -45.5905 -1
      vertex -18.5 -37.5 -1
    endloop
  endfacet
  facet normal 0 0 -1
    outer loop
      vertex -23.7395 -45.5228 -1
      vertex -18.5 -37.5 -1
      vertex -23.487 -45.5905 -1
    endloop
  endfacet
  facet normal 0 0 -1
    outer loop
      vertex -24 -45.5 -1
      vertex -18.5 -37.5 -1
      vertex -23.7395 -45.5228 -1
    endloop
  endfacet
  facet normal 0 0 -1
    outer loop
      vertex -24.2605 -45.5228 -1
      vertex -18.5 -37.5 -1
      vertex -24 -45.5 -1
    endloop
  endfacet
  facet normal 0 0 -1
    outer loop
      vertex -27.5 -45.5 -1
      vertex -24.2605 -45.5228 -1
      vertex -24.513 -45.5905 -1
    endloop
  endfacet
  facet normal 0 0 -1
    outer loop
      vertex -27.5 -45.5 -1
      vertex -24.513 -45.5905 -1
      vertex -24.75 -45.701 -1
    endloop
  endfacet
  facet normal 0 0 -1
    outer loop
      vertex -27.5 -45.5 -1
      vertex -24.75 -45.701 -1
      vertex -24.9642 -45.8509 -1
    endloop
  endfacet
  facet normal 0 0 -1
    outer loop
      vertex -27.5 -45.5 -1
      vertex -24.9642 -45.8509 -1
      vertex -25.1491 -46.0358 -1
    endloop
  endfacet
  facet normal 0 0 -1
    outer loop
      vertex -27.5 -45.5 -1
      vertex -25.5 -47 -1
      vertex -27.5 -48.5 -1
    endloop
  endfacet
  facet normal 0 0 -1
    outer loop
      vertex -25.5 -47 -1
      vertex -27.5 -45.5 -1
      vertex -25.4772 -46.7395 -1
    endloop
  endfacet
  facet normal 0 0 -1
    outer loop
      vertex -25.4772 -46.7395 -1
      vertex -27.5 -45.5 -1
      vertex -25.4095 -46.487 -1
    endloop
  endfacet
  facet normal 0 0 -1
    outer loop
      vertex -25.4095 -46.487 -1
      vertex -27.5 -45.5 -1
      vertex -25.299 -46.25 -1
    endloop
  endfacet
  facet normal 0 0 -1
    outer loop
      vertex -25.299 -46.25 -1
      vertex -27.5 -45.5 -1
      vertex -25.1491 -46.0358 -1
    endloop
  endfacet
  facet normal 0 0 -1
    outer loop
      vertex -24.2605 -45.5228 -1
      vertex -27.5 -45.5 -1
      vertex -18.5 -37.5 -1
    endloop
  endfacet
  facet normal 0 0 -1
    outer loop
      vertex -11.5 50.5 -1
      vertex -22.5228 46.7395 -1
      vertex -22.5 47 -1
    endloop
  endfacet
  facet normal 0 0 -1
    outer loop
      vertex -11.5 39 -1
      vertex -22.5905 46.487 -1
      vertex -22.5228 46.7395 -1
    endloop
  endfacet
  facet normal 0 0 -1
    outer loop
      vertex -20.1875 39 -1
      vertex -22.701 46.25 -1
      vertex -22.5905 46.487 -1
    endloop
  endfacet
  facet normal 0 0 -1
    outer loop
      vertex -20.1875 39 -1
      vertex -22.8509 46.0358 -1
      vertex -22.701 46.25 -1
    endloop
  endfacet
  facet normal 0 0 -1
    outer loop
      vertex -20.1875 39 -1
      vertex -23.0358 45.8509 -1
      vertex -22.8509 46.0358 -1
    endloop
  endfacet
  facet normal 0 0 -1
    outer loop
      vertex -20.1875 39 -1
      vertex -23.25 45.701 -1
      vertex -23.0358 45.8509 -1
    endloop
  endfacet
  facet normal 0 0 -1
    outer loop
      vertex -20.1875 39 -1
      vertex -23.487 45.5905 -1
      vertex -23.25 45.701 -1
    endloop
  endfacet
  facet normal 0 0 -1
    outer loop
      vertex -20.1875 39 -1
      vertex -23.7395 45.5228 -1
      vertex -23.487 45.5905 -1
    endloop
  endfacet
  facet normal 0 0 -1
    outer loop
      vertex -20.1875 39 -1
      vertex -24 45.5 -1
      vertex -23.7395 45.5228 -1
    endloop
  endfacet
  facet normal 0 0 -1
    outer loop
      vertex -20.1875 39 -1
      vertex -24.2605 45.5228 -1
      vertex -24 45.5 -1
    endloop
  endfacet
  facet normal 0 0 -1
    outer loop
      vertex -20.1875 39 -1
      vertex -24.513 45.5905 -1
      vertex -24.2605 45.5228 -1
    endloop
  endfacet
  facet normal 0 0 -1
    outer loop
      vertex -27.5 45.5 -1
      vertex -24.513 45.5905 -1
      vertex -20.1875 39 -1
    endloop
  endfacet
  facet normal -0 0 -1
    outer loop
      vertex -24.513 45.5905 -1
      vertex -27.5 45.5 -1
      vertex -24.75 45.701 -1
    endloop
  endfacet
  facet normal -0 0 -1
    outer loop
      vertex -24.75 45.701 -1
      vertex -27.5 45.5 -1
      vertex -24.9642 45.8509 -1
    endloop
  endfacet
  facet normal -0 0 -1
    outer loop
      vertex -24.9642 45.8509 -1
      vertex -27.5 45.5 -1
      vertex -25.1491 46.0358 -1
    endloop
  endfacet
  facet normal 0 0 -1
    outer loop
      vertex -27.5 45.5 -1
      vertex -25.299 46.25 -1
      vertex -25.1491 46.0358 -1
    endloop
  endfacet
  facet normal 0 0 -1
    outer loop
      vertex -27.5 45.5 -1
      vertex -25.4095 46.487 -1
      vertex -25.299 46.25 -1
    endloop
  endfacet
  facet normal 0 0 -1
    outer loop
      vertex -27.5 45.5 -1
      vertex -25.4772 46.7395 -1
      vertex -25.4095 46.487 -1
    endloop
  endfacet
  facet normal 0 0 -1
    outer loop
      vertex -27.5 45.5 -1
      vertex -25.5 47 -1
      vertex -25.4772 46.7395 -1
    endloop
  endfacet
  facet normal 0 0 -1
    outer loop
      vertex -25.4772 47.2605 -1
      vertex -27.5 48.5 -1
      vertex -25.4095 47.513 -1
    endloop
  endfacet
  facet normal 0 0 -1
    outer loop
      vertex -25.4095 47.513 -1
      vertex -27.5 48.5 -1
      vertex -25.5 50.5 -1
    endloop
  endfacet
  facet normal 0 0 -1
    outer loop
      vertex -22.5905 46.487 -1
      vertex -11.5 39 -1
      vertex -20.1875 39 -1
    endloop
  endfacet
  facet normal 0 0 -1
    outer loop
      vertex -22.5228 46.7395 -1
      vertex -11.5 50.5 -1
      vertex -11.5 39 -1
    endloop
  endfacet
  facet normal 0 0 -1
    outer loop
      vertex -22.5228 47.2605 -1
      vertex -11.5 50.5 -1
      vertex -22.5 47 -1
    endloop
  endfacet
  facet normal 0 0 -1
    outer loop
      vertex -22.5905 47.513 -1
      vertex -11.5 50.5 -1
      vertex -22.5228 47.2605 -1
    endloop
  endfacet
  facet normal 0 0 -1
    outer loop
      vertex -22.701 47.75 -1
      vertex -11.5 50.5 -1
      vertex -22.5905 47.513 -1
    endloop
  endfacet
  facet normal 0 0 -1
    outer loop
      vertex -22.8509 47.9642 -1
      vertex -11.5 50.5 -1
      vertex -22.701 47.75 -1
    endloop
  endfacet
  facet normal 0 0 -1
    outer loop
      vertex -23.0358 48.1491 -1
      vertex -11.5 50.5 -1
      vertex -22.8509 47.9642 -1
    endloop
  endfacet
  facet normal 0 0 -1
    outer loop
      vertex -23.25 48.299 -1
      vertex -11.5 50.5 -1
      vertex -23.0358 48.1491 -1
    endloop
  endfacet
  facet normal 0 0 -1
    outer loop
      vertex -25.5 50.5 -1
      vertex -23.25 48.299 -1
      vertex -23.487 48.4095 -1
    endloop
  endfacet
  facet normal 0 0 -1
    outer loop
      vertex -25.5 50.5 -1
      vertex -23.487 48.4095 -1
      vertex -23.7395 48.4772 -1
    endloop
  endfacet
  facet normal 0 0 -1
    outer loop
      vertex -25.5 50.5 -1
      vertex -23.7395 48.4772 -1
      vertex -24 48.5 -1
    endloop
  endfacet
  facet normal 0 0 -1
    outer loop
      vertex -25.5 50.5 -1
      vertex -24 48.5 -1
      vertex -24.2605 48.4772 -1
    endloop
  endfacet
  facet normal 0 0 -1
    outer loop
      vertex -23.25 48.299 -1
      vertex -25.5 50.5 -1
      vertex -11.5 50.5 -1
    endloop
  endfacet
  facet normal 0 0 -1
    outer loop
      vertex -24.513 48.4095 -1
      vertex -25.5 50.5 -1
      vertex -24.2605 48.4772 -1
    endloop
  endfacet
  facet normal 0 0 -1
    outer loop
      vertex -24.75 48.299 -1
      vertex -25.5 50.5 -1
      vertex -24.513 48.4095 -1
    endloop
  endfacet
  facet normal 0 0 -1
    outer loop
      vertex -24.9642 48.1491 -1
      vertex -25.5 50.5 -1
      vertex -24.75 48.299 -1
    endloop
  endfacet
  facet normal 0 0 -1
    outer loop
      vertex -25.1491 47.9642 -1
      vertex -25.5 50.5 -1
      vertex -24.9642 48.1491 -1
    endloop
  endfacet
  facet normal 0 0 -1
    outer loop
      vertex -25.299 47.75 -1
      vertex -25.5 50.5 -1
      vertex -25.1491 47.9642 -1
    endloop
  endfacet
  facet normal 0 0 -1
    outer loop
      vertex -25.4095 47.513 -1
      vertex -25.5 50.5 -1
      vertex -25.299 47.75 -1
    endloop
  endfacet
  facet normal 0 0 -1
    outer loop
      vertex -25.5 47 -1
      vertex -27.5 48.5 -1
      vertex -25.4772 47.2605 -1
    endloop
  endfacet
  facet normal 0 0 -1
    outer loop
      vertex -27.5 48.5 -1
      vertex -25.5 47 -1
      vertex -27.5 45.5 -1
    endloop
  endfacet
  facet normal 0.707107 0.707107 0
    outer loop
      vertex -8.5 48.5 1
      vertex -10.5 50.5 0.5
      vertex -10.5 50.5 1
    endloop
  endfacet
  facet normal 0.707107 0.707107 0
    outer loop
      vertex -10.5 50.5 0.5
      vertex -8.5 48.5 1
      vertex -8.5 48.5 0.5
    endloop
  endfacet
  facet normal -0.707107 0.707107 0
    outer loop
      vertex -27.5 48.5 -1
      vertex -25.5 50.5 -0.599999
      vertex -25.5 50.5 -1
    endloop
  endfacet
  facet normal -0.707107 0.707107 0
    outer loop
      vertex -25.5 50.5 -0.599999
      vertex -27.5 48.5 -1
      vertex -27.5 48.5 -0.599999
    endloop
  endfacet
  facet normal -0.707107 -0.707107 0
    outer loop
      vertex -25.5 -50.5 -1
      vertex -27.5 -48.5 -0.599999
      vertex -27.5 -48.5 -1
    endloop
  endfacet
  facet normal -0.707107 -0.707107 0
    outer loop
      vertex -27.5 -48.5 -0.599999
      vertex -25.5 -50.5 -1
      vertex -25.5 -50.5 -0.599999
    endloop
  endfacet
  facet normal 0 1 0
    outer loop
      vertex -11.5 50.5 0.5
      vertex -10.5 50.5 1
      vertex -10.5 50.5 0.5
    endloop
  endfacet
  facet normal 0 1 0
    outer loop
      vertex -10.5 50.5 1
      vertex -11.5 50.5 0.5
      vertex -18.5 50.5 1
    endloop
  endfacet
  facet normal 0 1 -0
    outer loop
      vertex -11.5 50.5 -1
      vertex -18.5 50.5 1
      vertex -11.5 50.5 0.5
    endloop
  endfacet
  facet normal 0 1 0
    outer loop
      vertex -18.5 50.5 1
      vertex -11.5 50.5 -1
      vertex -20.1 50.5 -0.599999
    endloop
  endfacet
  facet normal 0 1 0
    outer loop
      vertex -25.5 50.5 -1
      vertex -20.1 50.5 -0.599999
      vertex -11.5 50.5 -1
    endloop
  endfacet
  facet normal 0 1 0
    outer loop
      vertex -20.1 50.5 -0.599999
      vertex -25.5 50.5 -1
      vertex -25.5 50.5 -0.599999
    endloop
  endfacet
  facet normal 1 -0 0
    outer loop
      vertex -18.5 -50.5 1
      vertex -18.5 -44.5 -1
      vertex -18.5 -44.5 1
    endloop
  endfacet
  facet normal 1 0 0
    outer loop
      vertex -18.5 -44.5 -1
      vertex -18.5 -50.5 1
      vertex -18.5 -50.5 -1
    endloop
  endfacet
  facet normal 0 -1 0
    outer loop
      vertex -18.5 -44.5 1
      vertex -17.5 -44.5 0.5
      vertex -8.5 -44.5 1
    endloop
  endfacet
  facet normal 0 -1 0
    outer loop
      vertex -18.5 -44.5 -1
      vertex -17.5 -44.5 0.5
      vertex -18.5 -44.5 1
    endloop
  endfacet
  facet normal 0 -1 -0
    outer loop
      vertex -17.5 -44.5 0.5
      vertex -18.5 -44.5 -1
      vertex -17.5 -44.5 -1
    endloop
  endfacet
  facet normal 0 -1 -0
    outer loop
      vertex -8.5 -44.5 1
      vertex -17.5 -44.5 0.5
      vertex -8.5 -44.5 0.5
    endloop
  endfacet
  facet normal 0 0 -1
    outer loop
      vertex -11.5 22.5 0.5
      vertex -8.5 48.5 0.5
      vertex -8.5 22.5 0.5
    endloop
  endfacet
  facet normal 0 0 -1
    outer loop
      vertex -11.5 50.5 0.5
      vertex -8.5 48.5 0.5
      vertex -11.5 22.5 0.5
    endloop
  endfacet
  facet normal 0 0 -1
    outer loop
      vertex -8.5 48.5 0.5
      vertex -11.5 50.5 0.5
      vertex -10.5 50.5 0.5
    endloop
  endfacet
  facet normal 1 0 0
    outer loop
      vertex -11.5 50.5 0.5
      vertex -11.5 39 0
      vertex -11.5 50.5 -1
    endloop
  endfacet
  facet normal 1 0 0
    outer loop
      vertex -11.5 50.5 0.5
      vertex -11.5 34 0
      vertex -11.5 39 0
    endloop
  endfacet
  facet normal 1 -0 0
    outer loop
      vertex -11.5 22.5 0.5
      vertex -11.5 34 0
      vertex -11.5 50.5 0.5
    endloop
  endfacet
  facet normal 1 0 0
    outer loop
      vertex -11.5 22.5 -1
      vertex -11.5 34 0
      vertex -11.5 22.5 0.5
    endloop
  endfacet
  facet normal 1 0 0
    outer loop
      vertex -11.5 34 0
      vertex -11.5 22.5 -1
      vertex -11.5 34 -1
    endloop
  endfacet
  facet normal 1 0 0
    outer loop
      vertex -11.5 50.5 -1
      vertex -11.5 39 0
      vertex -11.5 39 -1
    endloop
  endfacet
  facet normal 0 1 -0
    outer loop
      vertex -8.5 22.5 -1
      vertex -11.5 22.5 0.5
      vertex -8.5 22.5 0.5
    endloop
  endfacet
  facet normal 0 1 0
    outer loop
      vertex -11.5 22.5 0.5
      vertex -8.5 22.5 -1
      vertex -11.5 22.5 -1
    endloop
  endfacet
  facet normal 0 0 -1
    outer loop
      vertex -18.5 37.5 0
      vertex -11.5 34 0
      vertex -18.5 34 0
    endloop
  endfacet
  facet normal 0 0 -1
    outer loop
      vertex -11.5 34 0
      vertex -18.5 37.5 0
      vertex -11.5 39 0
    endloop
  endfacet
  facet normal 0 0 -1
    outer loop
      vertex -19.5 39 0
      vertex -18.5 37.5 0
      vertex -19.5 38.3889 0
    endloop
  endfacet
  facet normal 0 0 -1
    outer loop
      vertex -18.5 37.5 0
      vertex -19.5 39 0
      vertex -11.5 39 0
    endloop
  endfacet
  facet normal 0 -1 0
    outer loop
      vertex -20.1875 39 -0.599999
      vertex -20.1875 39 -1
      vertex -20.1 39 -0.599999
    endloop
  endfacet
  facet normal 0 -1 0
    outer loop
      vertex -20.1875 39 -1
      vertex -19.5 39 0
      vertex -20.1 39 -0.599999
    endloop
  endfacet
  facet normal 0 -1 -0
    outer loop
      vertex -19.5 39 0
      vertex -20.1875 39 -1
      vertex -11.5 39 -1
    endloop
  endfacet
  facet normal 0 -1 0
    outer loop
      vertex -19.5 39 0
      vertex -11.5 39 -1
      vertex -11.5 39 0
    endloop
  endfacet
  facet normal 0 1 -0
    outer loop
      vertex -11.5 34 -1
      vertex -18.5 34 0
      vertex -11.5 34 0
    endloop
  endfacet
  facet normal 0 1 0
    outer loop
      vertex -18.5 34 0
      vertex -11.5 34 -1
      vertex -18.5 34 -1
    endloop
  endfacet
  facet normal 0 0 -1
    outer loop
      vertex -17.5 -44.5 0.5
      vertex -8.5 -22.5 0.5
      vertex -8.5 -44.5 0.5
    endloop
  endfacet
  facet normal -0 0 -1
    outer loop
      vertex -8.5 -22.5 0.5
      vertex -17.5 -44.5 0.5
      vertex -17.5 -22.5 0.5
    endloop
  endfacet
  facet normal 1 -0 0
    outer loop
      vertex -17.5 -44.5 0.5
      vertex -17.5 -22.5 -1
      vertex -17.5 -22.5 0.5
    endloop
  endfacet
  facet normal 1 0 0
    outer loop
      vertex -17.5 -22.5 -1
      vertex -17.5 -44.5 0.5
      vertex -17.5 -44.5 -1
    endloop
  endfacet
  facet normal 0 -1 0
    outer loop
      vertex -17.5 -22.5 -1
      vertex -8.5 -22.5 0.5
      vertex -17.5 -22.5 0.5
    endloop
  endfacet
  facet normal 0 -1 -0
    outer loop
      vertex -8.5 -22.5 0.5
      vertex -17.5 -22.5 -1
      vertex -8.5 -22.5 -1
    endloop
  endfacet
  facet normal -0 0 1
    outer loop
      vertex -22.5228 -46.7395 -0.599999
      vertex -20.1 -50.5 -0.599999
      vertex -20.1 -38.9222 -0.599999
    endloop
  endfacet
  facet normal 0 0 1
    outer loop
      vertex -20.1 -50.5 -0.599999
      vertex -22.5228 -46.7395 -0.599999
      vertex -22.5 -47 -0.599999
    endloop
  endfacet
  facet normal 0 0 1
    outer loop
      vertex -20.1 -38.9222 -0.599999
      vertex -22.5905 -46.487 -0.599999
      vertex -22.5228 -46.7395 -0.599999
    endloop
  endfacet
  facet normal 0 0 1
    outer loop
      vertex -20.1 -38.9222 -0.599999
      vertex -22.701 -46.25 -0.599999
      vertex -22.5905 -46.487 -0.599999
    endloop
  endfacet
  facet normal 0 0 1
    outer loop
      vertex -20.1 -38.9222 -0.599999
      vertex -22.8509 -46.0358 -0.599999
      vertex -22.701 -46.25 -0.599999
    endloop
  endfacet
  facet normal 0 0 1
    outer loop
      vertex -20.1 -38.9222 -0.599999
      vertex -23.0358 -45.8509 -0.599999
      vertex -22.8509 -46.0358 -0.599999
    endloop
  endfacet
  facet normal 0 0 1
    outer loop
      vertex -20.1 -38.9222 -0.599999
      vertex -23.25 -45.701 -0.599999
      vertex -23.0358 -45.8509 -0.599999
    endloop
  endfacet
  facet normal 0 0 1
    outer loop
      vertex -20.1 -38.9222 -0.599999
      vertex -23.487 -45.5905 -0.599999
      vertex -23.25 -45.701 -0.599999
    endloop
  endfacet
  facet normal 0 0 1
    outer loop
      vertex -20.1 -38.9222 -0.599999
      vertex -23.7395 -45.5228 -0.599999
      vertex -23.487 -45.5905 -0.599999
    endloop
  endfacet
  facet normal 0 0 1
    outer loop
      vertex -20.1 -38.9222 -0.599999
      vertex -24 -45.5 -0.599999
      vertex -23.7395 -45.5228 -0.599999
    endloop
  endfacet
  facet normal 0 0 1
    outer loop
      vertex -20.1 -38.9222 -0.599999
      vertex -24.2605 -45.5228 -0.599999
      vertex -24 -45.5 -0.599999
    endloop
  endfacet
  facet normal -0 0 1
    outer loop
      vertex -27.5 -45.5 -0.599999
      vertex -24.2605 -45.5228 -0.599999
      vertex -20.1 -38.9222 -0.599999
    endloop
  endfacet
  facet normal 0 0 1
    outer loop
      vertex -24.2605 -45.5228 -0.599999
      vertex -27.5 -45.5 -0.599999
      vertex -24.513 -45.5905 -0.599999
    endloop
  endfacet
  facet normal 0 0 1
    outer loop
      vertex -24.513 -45.5905 -0.599999
      vertex -27.5 -45.5 -0.599999
      vertex -24.75 -45.701 -0.599999
    endloop
  endfacet
  facet normal 0 0 1
    outer loop
      vertex -24.75 -45.701 -0.599999
      vertex -27.5 -45.5 -0.599999
      vertex -24.9642 -45.8509 -0.599999
    endloop
  endfacet
  facet normal 0 0 1
    outer loop
      vertex -24.9642 -45.8509 -0.599999
      vertex -27.5 -45.5 -0.599999
      vertex -25.1491 -46.0358 -0.599999
    endloop
  endfacet
  facet normal 0 0 1
    outer loop
      vertex -27.5 -45.5 -0.599999
      vertex -25.299 -46.25 -0.599999
      vertex -25.1491 -46.0358 -0.599999
    endloop
  endfacet
  facet normal 0 0 1
    outer loop
      vertex -27.5 -45.5 -0.599999
      vertex -25.4095 -46.487 -0.599999
      vertex -25.299 -46.25 -0.599999
    endloop
  endfacet
  facet normal 0 0 1
    outer loop
      vertex -27.5 -45.5 -0.599999
      vertex -25.4772 -46.7395 -0.599999
      vertex -25.4095 -46.487 -0.599999
    endloop
  endfacet
  facet normal 0 0 1
    outer loop
      vertex -27.5 -45.5 -0.599999
      vertex -25.5 -47 -0.599999
      vertex -25.4772 -46.7395 -0.599999
    endloop
  endfacet
  facet normal 0 0 1
    outer loop
      vertex -25.4772 -47.2605 -0.599999
      vertex -27.5 -48.5 -0.599999
      vertex -25.4095 -47.513 -0.599999
    endloop
  endfacet
  facet normal 0 0 1
    outer loop
      vertex -25.4095 -47.513 -0.599999
      vertex -27.5 -48.5 -0.599999
      vertex -25.5 -50.5 -0.599999
    endloop
  endfacet
  facet normal -0 0 1
    outer loop
      vertex -22.5228 -47.2605 -0.599999
      vertex -20.1 -50.5 -0.599999
      vertex -22.5 -47 -0.599999
    endloop
  endfacet
  facet normal -0 0 1
    outer loop
      vertex -22.5905 -47.513 -0.599999
      vertex -20.1 -50.5 -0.599999
      vertex -22.5228 -47.2605 -0.599999
    endloop
  endfacet
  facet normal -0 0 1
    outer loop
      vertex -22.701 -47.75 -0.599999
      vertex -20.1 -50.5 -0.599999
      vertex -22.5905 -47.513 -0.599999
    endloop
  endfacet
  facet normal -0 0 1
    outer loop
      vertex -22.8509 -47.9642 -0.599999
      vertex -20.1 -50.5 -0.599999
      vertex -22.701 -47.75 -0.599999
    endloop
  endfacet
  facet normal -0 0 1
    outer loop
      vertex -23.0358 -48.1491 -0.599999
      vertex -20.1 -50.5 -0.599999
      vertex -22.8509 -47.9642 -0.599999
    endloop
  endfacet
  facet normal -0 0 1
    outer loop
      vertex -23.25 -48.299 -0.599999
      vertex -20.1 -50.5 -0.599999
      vertex -23.0358 -48.1491 -0.599999
    endloop
  endfacet
  facet normal -0 0 1
    outer loop
      vertex -23.487 -48.4095 -0.599999
      vertex -20.1 -50.5 -0.599999
      vertex -23.25 -48.299 -0.599999
    endloop
  endfacet
  facet normal 0 0 1
    outer loop
      vertex -25.5 -50.5 -0.599999
      vertex -23.487 -48.4095 -0.599999
      vertex -23.7395 -48.4772 -0.599999
    endloop
  endfacet
  facet normal 0 0 1
    outer loop
      vertex -25.5 -50.5 -0.599999
      vertex -23.7395 -48.4772 -0.599999
      vertex -24 -48.5 -0.599999
    endloop
  endfacet
  facet normal 0 0 1
    outer loop
      vertex -25.5 -50.5 -0.599999
      vertex -24 -48.5 -0.599999
      vertex -24.2605 -48.4772 -0.599999
    endloop
  endfacet
  facet normal 0 0 1
    outer loop
      vertex -25.5 -50.5 -0.599999
      vertex -24.2605 -48.4772 -0.599999
      vertex -24.513 -48.4095 -0.599999
    endloop
  endfacet
  facet normal 0 0 1
    outer loop
      vertex -25.5 -50.5 -0.599999
      vertex -24.513 -48.4095 -0.599999
      vertex -24.75 -48.299 -0.599999
    endloop
  endfacet
  facet normal 0 0 1
    outer loop
      vertex -23.487 -48.4095 -0.599999
      vertex -25.5 -50.5 -0.599999
      vertex -20.1 -50.5 -0.599999
    endloop
  endfacet
  facet normal 0 0 1
    outer loop
      vertex -24.9642 -48.1491 -0.599999
      vertex -25.5 -50.5 -0.599999
      vertex -24.75 -48.299 -0.599999
    endloop
  endfacet
  facet normal 0 0 1
    outer loop
      vertex -25.1491 -47.9642 -0.599999
      vertex -25.5 -50.5 -0.599999
      vertex -24.9642 -48.1491 -0.599999
    endloop
  endfacet
  facet normal 0 0 1
    outer loop
      vertex -25.299 -47.75 -0.599999
      vertex -25.5 -50.5 -0.599999
      vertex -25.1491 -47.9642 -0.599999
    endloop
  endfacet
  facet normal 0 0 1
    outer loop
      vertex -25.4095 -47.513 -0.599999
      vertex -25.5 -50.5 -0.599999
      vertex -25.299 -47.75 -0.599999
    endloop
  endfacet
  facet normal 0 0 1
    outer loop
      vertex -25.5 -47 -0.599999
      vertex -27.5 -48.5 -0.599999
      vertex -25.4772 -47.2605 -0.599999
    endloop
  endfacet
  facet normal 0 0 1
    outer loop
      vertex -27.5 -48.5 -0.599999
      vertex -25.5 -47 -0.599999
      vertex -27.5 -45.5 -0.599999
    endloop
  endfacet
  facet normal -0 0 1
    outer loop
      vertex -22.5228 46.7395 -0.599999
      vertex -20.1 39 -0.599999
      vertex -20.1 50.5 -0.599999
    endloop
  endfacet
  facet normal 0 0 1
    outer loop
      vertex -22.5228 46.7395 -0.599999
      vertex -20.1 50.5 -0.599999
      vertex -22.5 47 -0.599999
    endloop
  endfacet
  facet normal 0 0 1
    outer loop
      vertex -20.1 50.5 -0.599999
      vertex -22.5228 47.2605 -0.599999
      vertex -22.5 47 -0.599999
    endloop
  endfacet
  facet normal 0 0 1
    outer loop
      vertex -20.1 50.5 -0.599999
      vertex -22.5905 47.513 -0.599999
      vertex -22.5228 47.2605 -0.599999
    endloop
  endfacet
  facet normal 0 0 1
    outer loop
      vertex -20.1 50.5 -0.599999
      vertex -22.701 47.75 -0.599999
      vertex -22.5905 47.513 -0.599999
    endloop
  endfacet
  facet normal 0 0 1
    outer loop
      vertex -20.1 50.5 -0.599999
      vertex -22.8509 47.9642 -0.599999
      vertex -22.701 47.75 -0.599999
    endloop
  endfacet
  facet normal 0 0 1
    outer loop
      vertex -20.1 50.5 -0.599999
      vertex -23.0358 48.1491 -0.599999
      vertex -22.8509 47.9642 -0.599999
    endloop
  endfacet
  facet normal 0 0 1
    outer loop
      vertex -20.1 50.5 -0.599999
      vertex -23.25 48.299 -0.599999
      vertex -23.0358 48.1491 -0.599999
    endloop
  endfacet
  facet normal 0 0 1
    outer loop
      vertex -20.1 50.5 -0.599999
      vertex -23.487 48.4095 -0.599999
      vertex -23.25 48.299 -0.599999
    endloop
  endfacet
  facet normal -0 0 1
    outer loop
      vertex -25.5 50.5 -0.599999
      vertex -23.487 48.4095 -0.599999
      vertex -20.1 50.5 -0.599999
    endloop
  endfacet
  facet normal 0 0 1
    outer loop
      vertex -23.487 48.4095 -0.599999
      vertex -25.5 50.5 -0.599999
      vertex -23.7395 48.4772 -0.599999
    endloop
  endfacet
  facet normal 0 0 1
    outer loop
      vertex -23.7395 48.4772 -0.599999
      vertex -25.5 50.5 -0.599999
      vertex -24 48.5 -0.599999
    endloop
  endfacet
  facet normal 0 0 1
    outer loop
      vertex -24 48.5 -0.599999
      vertex -25.5 50.5 -0.599999
      vertex -24.2605 48.4772 -0.599999
    endloop
  endfacet
  facet normal 0 0 1
    outer loop
      vertex -24.2605 48.4772 -0.599999
      vertex -25.5 50.5 -0.599999
      vertex -24.513 48.4095 -0.599999
    endloop
  endfacet
  facet normal 0 0 1
    outer loop
      vertex -24.513 48.4095 -0.599999
      vertex -25.5 50.5 -0.599999
      vertex -24.75 48.299 -0.599999
    endloop
  endfacet
  facet normal 0 0 1
    outer loop
      vertex -25.5 50.5 -0.599999
      vertex -24.9642 48.1491 -0.599999
      vertex -24.75 48.299 -0.599999
    endloop
  endfacet
  facet normal 0 0 1
    outer loop
      vertex -25.5 50.5 -0.599999
      vertex -25.1491 47.9642 -0.599999
      vertex -24.9642 48.1491 -0.599999
    endloop
  endfacet
  facet normal -0 0 1
    outer loop
      vertex -27.5 48.5 -0.599999
      vertex -25.1491 47.9642 -0.599999
      vertex -25.5 50.5 -0.599999
    endloop
  endfacet
  facet normal 0 0 1
    outer loop
      vertex -25.1491 47.9642 -0.599999
      vertex -27.5 48.5 -0.599999
      vertex -25.299 47.75 -0.599999
    endloop
  endfacet
  facet normal 0 0 1
    outer loop
      vertex -25.299 47.75 -0.599999
      vertex -27.5 48.5 -0.599999
      vertex -25.4095 47.513 -0.599999
    endloop
  endfacet
  facet normal 0 0 1
    outer loop
      vertex -25.4095 47.513 -0.599999
      vertex -27.5 48.5 -0.599999
      vertex -25.4772 47.2605 -0.599999
    endloop
  endfacet
  facet normal 0 0 1
    outer loop
      vertex -25.4772 47.2605 -0.599999
      vertex -27.5 48.5 -0.599999
      vertex -25.5 47 -0.599999
    endloop
  endfacet
  facet normal -0 0 1
    outer loop
      vertex -22.5905 46.487 -0.599999
      vertex -20.1 39 -0.599999
      vertex -22.5228 46.7395 -0.599999
    endloop
  endfacet
  facet normal -0 0 1
    outer loop
      vertex -22.701 46.25 -0.599999
      vertex -20.1 39 -0.599999
      vertex -22.5905 46.487 -0.599999
    endloop
  endfacet
  facet normal -0 0 1
    outer loop
      vertex -22.8509 46.0358 -0.599999
      vertex -20.1 39 -0.599999
      vertex -22.701 46.25 -0.599999
    endloop
  endfacet
  facet normal -0 0 1
    outer loop
      vertex -23.0358 45.8509 -0.599999
      vertex -20.1 39 -0.599999
      vertex -22.8509 46.0358 -0.599999
    endloop
  endfacet
  facet normal 0 0 1
    outer loop
      vertex -20.1 39 -0.599999
      vertex -23.0358 45.8509 -0.599999
      vertex -20.1875 39 -0.599999
    endloop
  endfacet
  facet normal -0 0 1
    outer loop
      vertex -23.25 45.701 -0.599999
      vertex -20.1875 39 -0.599999
      vertex -23.0358 45.8509 -0.599999
    endloop
  endfacet
  facet normal -0 0 1
    outer loop
      vertex -23.487 45.5905 -0.599999
      vertex -20.1875 39 -0.599999
      vertex -23.25 45.701 -0.599999
    endloop
  endfacet
  facet normal -0 0 1
    outer loop
      vertex -23.7395 45.5228 -0.599999
      vertex -20.1875 39 -0.599999
      vertex -23.487 45.5905 -0.599999
    endloop
  endfacet
  facet normal -0 0 1
    outer loop
      vertex -24 45.5 -0.599999
      vertex -20.1875 39 -0.599999
      vertex -23.7395 45.5228 -0.599999
    endloop
  endfacet
  facet normal 0 0 1
    outer loop
      vertex -24.2605 45.5228 -0.599999
      vertex -20.1875 39 -0.599999
      vertex -24 45.5 -0.599999
    endloop
  endfacet
  facet normal 0 0 1
    outer loop
      vertex -24.513 45.5905 -0.599999
      vertex -20.1875 39 -0.599999
      vertex -24.2605 45.5228 -0.599999
    endloop
  endfacet
  facet normal 0 0 1
    outer loop
      vertex -27.5 45.5 -0.599999
      vertex -24.513 45.5905 -0.599999
      vertex -24.75 45.701 -0.599999
    endloop
  endfacet
  facet normal 0 0 1
    outer loop
      vertex -27.5 45.5 -0.599999
      vertex -24.75 45.701 -0.599999
      vertex -24.9642 45.8509 -0.599999
    endloop
  endfacet
  facet normal 0 0 1
    outer loop
      vertex -27.5 45.5 -0.599999
      vertex -24.9642 45.8509 -0.599999
      vertex -25.1491 46.0358 -0.599999
    endloop
  endfacet
  facet normal 0 0 1
    outer loop
      vertex -27.5 45.5 -0.599999
      vertex -25.5 47 -0.599999
      vertex -27.5 48.5 -0.599999
    endloop
  endfacet
  facet normal 0 0 1
    outer loop
      vertex -25.5 47 -0.599999
      vertex -27.5 45.5 -0.599999
      vertex -25.4772 46.7395 -0.599999
    endloop
  endfacet
  facet normal 0 0 1
    outer loop
      vertex -25.4772 46.7395 -0.599999
      vertex -27.5 45.5 -0.599999
      vertex -25.4095 46.487 -0.599999
    endloop
  endfacet
  facet normal 0 0 1
    outer loop
      vertex -25.4095 46.487 -0.599999
      vertex -27.5 45.5 -0.599999
      vertex -25.299 46.25 -0.599999
    endloop
  endfacet
  facet normal 0 0 1
    outer loop
      vertex -25.299 46.25 -0.599999
      vertex -27.5 45.5 -0.599999
      vertex -25.1491 46.0358 -0.599999
    endloop
  endfacet
  facet normal 0 0 1
    outer loop
      vertex -24.513 45.5905 -0.599999
      vertex -27.5 45.5 -0.599999
      vertex -20.1875 39 -0.599999
    endloop
  endfacet
  facet normal -0.707107 0 0.707107
    outer loop
      vertex -20.1 -38.9222 -0.599999
      vertex -18.5 -44.5 1
      vertex -18.5 -37.5 1
    endloop
  endfacet
  facet normal -0.707107 0 0.707107
    outer loop
      vertex -20.1 -50.5 -0.599999
      vertex -18.5 -44.5 1
      vertex -20.1 -38.9222 -0.599999
    endloop
  endfacet
  facet normal -0.707107 0 0.707107
    outer loop
      vertex -18.5 -44.5 1
      vertex -20.1 -50.5 -0.599999
      vertex -18.5 -50.5 1
    endloop
  endfacet
  facet normal -0.707106 0 0.707107
    outer loop
      vertex -19.5 39 0
      vertex -20.1 50.5 -0.599999
      vertex -20.1 39 -0.599999
    endloop
  endfacet
  facet normal -0.707107 -3.84297e-08 0.707107
    outer loop
      vertex -20.1 50.5 -0.599999
      vertex -19.5 39 0
      vertex -18.5 50.5 1
    endloop
  endfacet
  facet normal -0.707107 0 0.707107
    outer loop
      vertex -18.5 37.5 1
      vertex -19.5 39 0
      vertex -19.5 38.3889 0
    endloop
  endfacet
  facet normal -0.707107 0 0.707107
    outer loop
      vertex -19.5 39 0
      vertex -18.5 37.5 1
      vertex -18.5 50.5 1
    endloop
  endfacet
  facet normal -0.664364 -0.747409 0
    outer loop
      vertex -27.5 45.5 -1
      vertex -20.1875 39 -0.599999
      vertex -27.5 45.5 -0.599999
    endloop
  endfacet
  facet normal -0.664364 -0.747409 -0
    outer loop
      vertex -20.1875 39 -0.599999
      vertex -27.5 45.5 -1
      vertex -20.1875 39 -1
    endloop
  endfacet
  facet normal -0.664368 -0.747405 0
    outer loop
      vertex -18.5 37.5 0
      vertex -18.5 37.5 1
      vertex -19.5 38.3889 0
    endloop
  endfacet
  facet normal -1 0 0
    outer loop
      vertex -18.5 34 -1
      vertex -18.5 -37.5 -1
      vertex -18.5 34 0
    endloop
  endfacet
  facet normal -1 0 0
    outer loop
      vertex -18.5 34 0
      vertex -18.5 37.5 1
      vertex -18.5 37.5 0
    endloop
  endfacet
  facet normal -1 0 0
    outer loop
      vertex -18.5 -37.5 1
      vertex -18.5 34 0
      vertex -18.5 -37.5 -1
    endloop
  endfacet
  facet normal -1 0 0
    outer loop
      vertex -18.5 34 0
      vertex -18.5 -37.5 1
      vertex -18.5 37.5 1
    endloop
  endfacet
  facet normal -0.664358 0.747414 0
    outer loop
      vertex -18.5 -37.5 -1
      vertex -20.1 -38.9222 -0.599999
      vertex -18.5 -37.5 1
    endloop
  endfacet
  facet normal -0.664364 0.747409 -4.15226e-05
    outer loop
      vertex -27.5 -45.5 -1
      vertex -20.1 -38.9222 -0.599999
      vertex -18.5 -37.5 -1
    endloop
  endfacet
  facet normal -0.664365 0.747408 0
    outer loop
      vertex -20.1 -38.9222 -0.599999
      vertex -27.5 -45.5 -1
      vertex -27.5 -45.5 -0.599999
    endloop
  endfacet
endsolid OpenSCAD_Model
