solid OpenSCAD_Model
  facet normal 0.81924 -0.573451 0
    outer loop
      vertex -13.732 -8.5 5
      vertex -13.5321 -8.21442 0
      vertex -13.5321 -8.21442 5
    endloop
  endfacet
  facet normal 0.81924 -0.573451 0
    outer loop
      vertex -13.5321 -8.21442 0
      vertex -13.732 -8.5 5
      vertex -13.732 -8.5 0
    endloop
  endfacet
  facet normal -0.965947 -0.258741 0
    outer loop
      vertex -10.0304 -9.1527 0
      vertex -10.1206 -8.81596 5
      vertex -10.1206 -8.81596 0
    endloop
  endfacet
  facet normal -0.965947 -0.258741 0
    outer loop
      vertex -10.1206 -8.81596 5
      vertex -10.0304 -9.1527 0
      vertex -10.0304 -9.1527 5
    endloop
  endfacet
  facet normal -0.25877 0.965939 0
    outer loop
      vertex -11.316 -11.3794 0
      vertex -11.6527 -11.4696 5
      vertex -11.316 -11.3794 5
    endloop
  endfacet
  facet normal -0.25877 0.965939 0
    outer loop
      vertex -11.6527 -11.4696 5
      vertex -11.316 -11.3794 0
      vertex -11.6527 -11.4696 0
    endloop
  endfacet
  facet normal -0.573424 0.819259 0
    outer loop
      vertex -10.7144 -11.0321 0
      vertex -11 -11.232 5
      vertex -10.7144 -11.0321 5
    endloop
  endfacet
  facet normal -0.573424 0.819259 0
    outer loop
      vertex -11 -11.232 5
      vertex -10.7144 -11.0321 0
      vertex -11 -11.232 0
    endloop
  endfacet
  facet normal 0.573424 0.819259 -0
    outer loop
      vertex -13 -11.232 0
      vertex -13.2856 -11.0321 5
      vertex -13 -11.232 5
    endloop
  endfacet
  facet normal 0.573424 0.819259 0
    outer loop
      vertex -13.2856 -11.0321 5
      vertex -13 -11.232 0
      vertex -13.2856 -11.0321 0
    endloop
  endfacet
  facet normal 0.819259 0.573424 0
    outer loop
      vertex -13.5321 -10.7856 5
      vertex -13.732 -10.5 0
      vertex -13.732 -10.5 5
    endloop
  endfacet
  facet normal 0.819259 0.573424 0
    outer loop
      vertex -13.732 -10.5 0
      vertex -13.5321 -10.7856 5
      vertex -13.5321 -10.7856 0
    endloop
  endfacet
  facet normal -0.087199 0.996191 0
    outer loop
      vertex -11.6527 -11.4696 0
      vertex -12 -11.5 5
      vertex -11.6527 -11.4696 5
    endloop
  endfacet
  facet normal -0.087199 0.996191 0
    outer loop
      vertex -12 -11.5 5
      vertex -11.6527 -11.4696 0
      vertex -12 -11.5 0
    endloop
  endfacet
  facet normal 0.087199 0.996191 -0
    outer loop
      vertex -12 -11.5 0
      vertex -12.3473 -11.4696 5
      vertex -12 -11.5 5
    endloop
  endfacet
  facet normal 0.087199 0.996191 0
    outer loop
      vertex -12.3473 -11.4696 5
      vertex -12 -11.5 0
      vertex -12.3473 -11.4696 0
    endloop
  endfacet
  facet normal -0.087142 -0.996196 0
    outer loop
      vertex -12 -7.5 0
      vertex -11.6527 -7.53038 5
      vertex -12 -7.5 5
    endloop
  endfacet
  facet normal -0.087142 -0.996196 -0
    outer loop
      vertex -11.6527 -7.53038 5
      vertex -12 -7.5 0
      vertex -11.6527 -7.53038 0
    endloop
  endfacet
  facet normal -0.707121 -0.707092 0
    outer loop
      vertex -10.4679 -8.21442 0
      vertex -10.7144 -7.96791 5
      vertex -10.7144 -7.96791 0
    endloop
  endfacet
  facet normal -0.707121 -0.707092 0
    outer loop
      vertex -10.7144 -7.96791 5
      vertex -10.4679 -8.21442 0
      vertex -10.4679 -8.21442 5
    endloop
  endfacet
  facet normal -0.819124 0.573616 0
    outer loop
      vertex -10.4679 -10.7856 0
      vertex -10.2679 -10.5 5
      vertex -10.2679 -10.5 0
    endloop
  endfacet
  facet normal -0.819124 0.573616 0
    outer loop
      vertex -10.2679 -10.5 5
      vertex -10.4679 -10.7856 0
      vertex -10.4679 -10.7856 5
    endloop
  endfacet
  facet normal 0.906236 -0.422772 0
    outer loop
      vertex -13.8794 -8.81596 5
      vertex -13.732 -8.5 0
      vertex -13.732 -8.5 5
    endloop
  endfacet
  facet normal 0.906236 -0.422772 0
    outer loop
      vertex -13.732 -8.5 0
      vertex -13.8794 -8.81596 5
      vertex -13.8794 -8.81596 0
    endloop
  endfacet
  facet normal -0.906346 -0.422537 0
    outer loop
      vertex -10.1206 -8.81596 0
      vertex -10.2679 -8.5 5
      vertex -10.2679 -8.5 0
    endloop
  endfacet
  facet normal -0.906346 -0.422537 0
    outer loop
      vertex -10.2679 -8.5 5
      vertex -10.1206 -8.81596 0
      vertex -10.1206 -8.81596 5
    endloop
  endfacet
  facet normal 0.707121 -0.707092 0
    outer loop
      vertex -13.5321 -8.21442 5
      vertex -13.2856 -7.96791 0
      vertex -13.2856 -7.96791 5
    endloop
  endfacet
  facet normal 0.707121 -0.707092 0
    outer loop
      vertex -13.2856 -7.96791 0
      vertex -13.5321 -8.21442 5
      vertex -13.5321 -8.21442 0
    endloop
  endfacet
  facet normal -0.996191 -0.087199 0
    outer loop
      vertex -10 -9.5 0
      vertex -10.0304 -9.1527 5
      vertex -10.0304 -9.1527 0
    endloop
  endfacet
  facet normal -0.996191 -0.087199 0
    outer loop
      vertex -10.0304 -9.1527 5
      vertex -10 -9.5 0
      vertex -10 -9.5 5
    endloop
  endfacet
  facet normal 0.707107 0.707107 0
    outer loop
      vertex -13.2856 -11.0321 5
      vertex -13.5321 -10.7856 0
      vertex -13.5321 -10.7856 5
    endloop
  endfacet
  facet normal 0.707107 0.707107 0
    outer loop
      vertex -13.5321 -10.7856 0
      vertex -13.2856 -11.0321 5
      vertex -13.2856 -11.0321 0
    endloop
  endfacet
  facet normal 0.422728 0.906256 -0
    outer loop
      vertex -12.684 -11.3794 0
      vertex -13 -11.232 5
      vertex -12.684 -11.3794 5
    endloop
  endfacet
  facet normal 0.422728 0.906256 0
    outer loop
      vertex -13 -11.232 5
      vertex -12.684 -11.3794 0
      vertex -13 -11.232 0
    endloop
  endfacet
  facet normal -0.422587 -0.906322 0
    outer loop
      vertex -11.316 -7.62061 0
      vertex -11 -7.76795 5
      vertex -11.316 -7.62061 5
    endloop
  endfacet
  facet normal -0.422587 -0.906322 -0
    outer loop
      vertex -11 -7.76795 5
      vertex -11.316 -7.62061 0
      vertex -11 -7.76795 0
    endloop
  endfacet
  facet normal -0.25885 -0.965918 0
    outer loop
      vertex -11.6527 -7.53038 0
      vertex -11.316 -7.62061 5
      vertex -11.6527 -7.53038 5
    endloop
  endfacet
  facet normal -0.25885 -0.965918 -0
    outer loop
      vertex -11.316 -7.62061 5
      vertex -11.6527 -7.53038 0
      vertex -11.316 -7.62061 0
    endloop
  endfacet
  facet normal 0.996191 0.087199 0
    outer loop
      vertex -13.9696 -9.8473 5
      vertex -14 -9.5 0
      vertex -14 -9.5 5
    endloop
  endfacet
  facet normal 0.996191 0.087199 0
    outer loop
      vertex -14 -9.5 0
      vertex -13.9696 -9.8473 5
      vertex -13.9696 -9.8473 0
    endloop
  endfacet
  facet normal -0.422728 0.906256 0
    outer loop
      vertex -11 -11.232 0
      vertex -11.316 -11.3794 5
      vertex -11 -11.232 5
    endloop
  endfacet
  facet normal -0.422728 0.906256 0
    outer loop
      vertex -11.316 -11.3794 5
      vertex -11 -11.232 0
      vertex -11.316 -11.3794 0
    endloop
  endfacet
  facet normal -0.996191 0.087199 0
    outer loop
      vertex -10.0304 -9.8473 0
      vertex -10 -9.5 5
      vertex -10 -9.5 0
    endloop
  endfacet
  facet normal -0.996191 0.087199 0
    outer loop
      vertex -10 -9.5 5
      vertex -10.0304 -9.8473 0
      vertex -10.0304 -9.8473 5
    endloop
  endfacet
  facet normal -0.906366 0.422493 0
    outer loop
      vertex -10.2679 -10.5 0
      vertex -10.1206 -10.184 5
      vertex -10.1206 -10.184 0
    endloop
  endfacet
  facet normal -0.906366 0.422493 0
    outer loop
      vertex -10.1206 -10.184 5
      vertex -10.2679 -10.5 0
      vertex -10.2679 -10.5 5
    endloop
  endfacet
  facet normal 0.25885 -0.965918 0
    outer loop
      vertex -12.684 -7.62061 0
      vertex -12.3473 -7.53038 5
      vertex -12.684 -7.62061 5
    endloop
  endfacet
  facet normal 0.25885 -0.965918 0
    outer loop
      vertex -12.3473 -7.53038 5
      vertex -12.684 -7.62061 0
      vertex -12.3473 -7.53038 0
    endloop
  endfacet
  facet normal -0.819105 -0.573643 0
    outer loop
      vertex -10.2679 -8.5 0
      vertex -10.4679 -8.21442 5
      vertex -10.4679 -8.21442 0
    endloop
  endfacet
  facet normal -0.819105 -0.573643 0
    outer loop
      vertex -10.4679 -8.21442 5
      vertex -10.2679 -8.5 0
      vertex -10.2679 -8.5 5
    endloop
  endfacet
  facet normal 0.573539 -0.819178 0
    outer loop
      vertex -13.2856 -7.96791 0
      vertex -13 -7.76795 5
      vertex -13.2856 -7.96791 5
    endloop
  endfacet
  facet normal 0.573539 -0.819178 0
    outer loop
      vertex -13 -7.76795 5
      vertex -13.2856 -7.96791 0
      vertex -13 -7.76795 0
    endloop
  endfacet
  facet normal -0.965939 0.25877 0
    outer loop
      vertex -10.1206 -10.184 0
      vertex -10.0304 -9.8473 5
      vertex -10.0304 -9.8473 0
    endloop
  endfacet
  facet normal -0.965939 0.25877 0
    outer loop
      vertex -10.0304 -9.8473 5
      vertex -10.1206 -10.184 0
      vertex -10.1206 -10.184 5
    endloop
  endfacet
  facet normal -0.573539 -0.819178 0
    outer loop
      vertex -11 -7.76795 0
      vertex -10.7144 -7.96791 5
      vertex -11 -7.76795 5
    endloop
  endfacet
  facet normal -0.573539 -0.819178 -0
    outer loop
      vertex -10.7144 -7.96791 5
      vertex -11 -7.76795 0
      vertex -10.7144 -7.96791 0
    endloop
  endfacet
  facet normal 0.422587 -0.906322 0
    outer loop
      vertex -13 -7.76795 0
      vertex -12.684 -7.62061 5
      vertex -13 -7.76795 5
    endloop
  endfacet
  facet normal 0.422587 -0.906322 0
    outer loop
      vertex -12.684 -7.62061 5
      vertex -13 -7.76795 0
      vertex -12.684 -7.62061 0
    endloop
  endfacet
  facet normal 0.906256 0.422728 0
    outer loop
      vertex -13.732 -10.5 5
      vertex -13.8794 -10.184 0
      vertex -13.8794 -10.184 5
    endloop
  endfacet
  facet normal 0.906256 0.422728 0
    outer loop
      vertex -13.8794 -10.184 0
      vertex -13.732 -10.5 5
      vertex -13.732 -10.5 0
    endloop
  endfacet
  facet normal 0.965939 0.25877 0
    outer loop
      vertex -13.8794 -10.184 5
      vertex -13.9696 -9.8473 0
      vertex -13.9696 -9.8473 5
    endloop
  endfacet
  facet normal 0.965939 0.25877 0
    outer loop
      vertex -13.9696 -9.8473 0
      vertex -13.8794 -10.184 5
      vertex -13.8794 -10.184 0
    endloop
  endfacet
  facet normal 0.25877 0.965939 -0
    outer loop
      vertex -12.3473 -11.4696 0
      vertex -12.684 -11.3794 5
      vertex -12.3473 -11.4696 5
    endloop
  endfacet
  facet normal 0.25877 0.965939 0
    outer loop
      vertex -12.684 -11.3794 5
      vertex -12.3473 -11.4696 0
      vertex -12.684 -11.3794 0
    endloop
  endfacet
  facet normal -0.707107 0.707107 0
    outer loop
      vertex -10.7144 -11.0321 0
      vertex -10.4679 -10.7856 5
      vertex -10.4679 -10.7856 0
    endloop
  endfacet
  facet normal -0.707107 0.707107 0
    outer loop
      vertex -10.4679 -10.7856 5
      vertex -10.7144 -11.0321 0
      vertex -10.7144 -11.0321 5
    endloop
  endfacet
  facet normal 0.965947 -0.258741 0
    outer loop
      vertex -13.9696 -9.1527 5
      vertex -13.8794 -8.81596 0
      vertex -13.8794 -8.81596 5
    endloop
  endfacet
  facet normal 0.965947 -0.258741 0
    outer loop
      vertex -13.8794 -8.81596 0
      vertex -13.9696 -9.1527 5
      vertex -13.9696 -9.1527 0
    endloop
  endfacet
  facet normal 0.996191 -0.087199 0
    outer loop
      vertex -14 -9.5 5
      vertex -13.9696 -9.1527 0
      vertex -13.9696 -9.1527 5
    endloop
  endfacet
  facet normal 0.996191 -0.087199 0
    outer loop
      vertex -13.9696 -9.1527 0
      vertex -14 -9.5 5
      vertex -14 -9.5 0
    endloop
  endfacet
  facet normal 0.087142 -0.996196 0
    outer loop
      vertex -12.3473 -7.53038 0
      vertex -12 -7.5 5
      vertex -12.3473 -7.53038 5
    endloop
  endfacet
  facet normal 0.087142 -0.996196 0
    outer loop
      vertex -12 -7.5 5
      vertex -12.3473 -7.53038 0
      vertex -12 -7.5 0
    endloop
  endfacet
  facet normal 0.965939 -0.25877 0
    outer loop
      vertex 10.0304 9.8473 5
      vertex 10.1206 10.184 0
      vertex 10.1206 10.184 5
    endloop
  endfacet
  facet normal 0.965939 -0.25877 0
    outer loop
      vertex 10.1206 10.184 0
      vertex 10.0304 9.8473 5
      vertex 10.0304 9.8473 0
    endloop
  endfacet
  facet normal -0.965947 0.258741 0
    outer loop
      vertex 13.8794 8.81596 0
      vertex 13.9696 9.1527 5
      vertex 13.9696 9.1527 0
    endloop
  endfacet
  facet normal -0.965947 0.258741 0
    outer loop
      vertex 13.9696 9.1527 5
      vertex 13.8794 8.81596 0
      vertex 13.8794 8.81596 5
    endloop
  endfacet
  facet normal -0.965939 -0.25877 0
    outer loop
      vertex 13.9696 9.8473 0
      vertex 13.8794 10.184 5
      vertex 13.8794 10.184 0
    endloop
  endfacet
  facet normal -0.965939 -0.25877 0
    outer loop
      vertex 13.8794 10.184 5
      vertex 13.9696 9.8473 0
      vertex 13.9696 9.8473 5
    endloop
  endfacet
  facet normal -0.422587 0.906322 0
    outer loop
      vertex 13 7.76795 0
      vertex 12.684 7.62061 5
      vertex 13 7.76795 5
    endloop
  endfacet
  facet normal -0.422587 0.906322 0
    outer loop
      vertex 12.684 7.62061 5
      vertex 13 7.76795 0
      vertex 12.684 7.62061 0
    endloop
  endfacet
  facet normal -0.422728 -0.906256 0
    outer loop
      vertex 12.684 11.3794 0
      vertex 13 11.232 5
      vertex 12.684 11.3794 5
    endloop
  endfacet
  facet normal -0.422728 -0.906256 -0
    outer loop
      vertex 13 11.232 5
      vertex 12.684 11.3794 0
      vertex 13 11.232 0
    endloop
  endfacet
  facet normal -0.707107 -0.707107 0
    outer loop
      vertex 13.5321 10.7856 0
      vertex 13.2856 11.0321 5
      vertex 13.2856 11.0321 0
    endloop
  endfacet
  facet normal -0.707107 -0.707107 0
    outer loop
      vertex 13.2856 11.0321 5
      vertex 13.5321 10.7856 0
      vertex 13.5321 10.7856 5
    endloop
  endfacet
  facet normal 0.707121 0.707092 0
    outer loop
      vertex 10.7144 7.96791 5
      vertex 10.4679 8.21442 0
      vertex 10.4679 8.21442 5
    endloop
  endfacet
  facet normal 0.707121 0.707092 0
    outer loop
      vertex 10.4679 8.21442 0
      vertex 10.7144 7.96791 5
      vertex 10.7144 7.96791 0
    endloop
  endfacet
  facet normal -0.25885 0.965918 0
    outer loop
      vertex 12.684 7.62061 0
      vertex 12.3473 7.53038 5
      vertex 12.684 7.62061 5
    endloop
  endfacet
  facet normal -0.25885 0.965918 0
    outer loop
      vertex 12.3473 7.53038 5
      vertex 12.684 7.62061 0
      vertex 12.3473 7.53038 0
    endloop
  endfacet
  facet normal -0.573539 0.819178 0
    outer loop
      vertex 13.2856 7.96791 0
      vertex 13 7.76795 5
      vertex 13.2856 7.96791 5
    endloop
  endfacet
  facet normal -0.573539 0.819178 0
    outer loop
      vertex 13 7.76795 5
      vertex 13.2856 7.96791 0
      vertex 13 7.76795 0
    endloop
  endfacet
  facet normal -0.996191 -0.087199 0
    outer loop
      vertex 14 9.5 0
      vertex 13.9696 9.8473 5
      vertex 13.9696 9.8473 0
    endloop
  endfacet
  facet normal -0.996191 -0.087199 0
    outer loop
      vertex 13.9696 9.8473 5
      vertex 14 9.5 0
      vertex 14 9.5 5
    endloop
  endfacet
  facet normal 0.996191 -0.087199 0
    outer loop
      vertex 10 9.5 5
      vertex 10.0304 9.8473 0
      vertex 10.0304 9.8473 5
    endloop
  endfacet
  facet normal 0.996191 -0.087199 0
    outer loop
      vertex 10.0304 9.8473 0
      vertex 10 9.5 5
      vertex 10 9.5 0
    endloop
  endfacet
  facet normal 0.422587 0.906322 -0
    outer loop
      vertex 11.316 7.62061 0
      vertex 11 7.76795 5
      vertex 11.316 7.62061 5
    endloop
  endfacet
  facet normal 0.422587 0.906322 0
    outer loop
      vertex 11 7.76795 5
      vertex 11.316 7.62061 0
      vertex 11 7.76795 0
    endloop
  endfacet
  facet normal -0.996191 0.087199 0
    outer loop
      vertex 13.9696 9.1527 0
      vertex 14 9.5 5
      vertex 14 9.5 0
    endloop
  endfacet
  facet normal -0.996191 0.087199 0
    outer loop
      vertex 14 9.5 5
      vertex 13.9696 9.1527 0
      vertex 13.9696 9.1527 5
    endloop
  endfacet
  facet normal -0.906236 0.422772 0
    outer loop
      vertex 13.732 8.5 0
      vertex 13.8794 8.81596 5
      vertex 13.8794 8.81596 0
    endloop
  endfacet
  facet normal -0.906236 0.422772 0
    outer loop
      vertex 13.8794 8.81596 5
      vertex 13.732 8.5 0
      vertex 13.732 8.5 5
    endloop
  endfacet
  facet normal -0.906256 -0.422728 0
    outer loop
      vertex 13.8794 10.184 0
      vertex 13.732 10.5 5
      vertex 13.732 10.5 0
    endloop
  endfacet
  facet normal -0.906256 -0.422728 0
    outer loop
      vertex 13.732 10.5 5
      vertex 13.8794 10.184 0
      vertex 13.8794 10.184 5
    endloop
  endfacet
  facet normal 0.573424 -0.819259 0
    outer loop
      vertex 10.7144 11.0321 0
      vertex 11 11.232 5
      vertex 10.7144 11.0321 5
    endloop
  endfacet
  facet normal 0.573424 -0.819259 0
    outer loop
      vertex 11 11.232 5
      vertex 10.7144 11.0321 0
      vertex 11 11.232 0
    endloop
  endfacet
  facet normal -0.087142 0.996196 0
    outer loop
      vertex 12.3473 7.53038 0
      vertex 12 7.5 5
      vertex 12.3473 7.53038 5
    endloop
  endfacet
  facet normal -0.087142 0.996196 0
    outer loop
      vertex 12 7.5 5
      vertex 12.3473 7.53038 0
      vertex 12 7.5 0
    endloop
  endfacet
  facet normal 0.819105 0.573643 0
    outer loop
      vertex 10.4679 8.21442 5
      vertex 10.2679 8.5 0
      vertex 10.2679 8.5 5
    endloop
  endfacet
  facet normal 0.819105 0.573643 0
    outer loop
      vertex 10.2679 8.5 0
      vertex 10.4679 8.21442 5
      vertex 10.4679 8.21442 0
    endloop
  endfacet
  facet normal 0.996191 0.087199 0
    outer loop
      vertex 10.0304 9.1527 5
      vertex 10 9.5 0
      vertex 10 9.5 5
    endloop
  endfacet
  facet normal 0.996191 0.087199 0
    outer loop
      vertex 10 9.5 0
      vertex 10.0304 9.1527 5
      vertex 10.0304 9.1527 0
    endloop
  endfacet
  facet normal 0.965947 0.258741 0
    outer loop
      vertex 10.1206 8.81596 5
      vertex 10.0304 9.1527 0
      vertex 10.0304 9.1527 5
    endloop
  endfacet
  facet normal 0.965947 0.258741 0
    outer loop
      vertex 10.0304 9.1527 0
      vertex 10.1206 8.81596 5
      vertex 10.1206 8.81596 0
    endloop
  endfacet
  facet normal -0.819259 -0.573424 0
    outer loop
      vertex 13.732 10.5 0
      vertex 13.5321 10.7856 5
      vertex 13.5321 10.7856 0
    endloop
  endfacet
  facet normal -0.819259 -0.573424 0
    outer loop
      vertex 13.5321 10.7856 5
      vertex 13.732 10.5 0
      vertex 13.732 10.5 5
    endloop
  endfacet
  facet normal 0.707107 -0.707107 0
    outer loop
      vertex 10.4679 10.7856 5
      vertex 10.7144 11.0321 0
      vertex 10.7144 11.0321 5
    endloop
  endfacet
  facet normal 0.707107 -0.707107 0
    outer loop
      vertex 10.7144 11.0321 0
      vertex 10.4679 10.7856 5
      vertex 10.4679 10.7856 0
    endloop
  endfacet
  facet normal 0.25877 -0.965939 0
    outer loop
      vertex 11.316 11.3794 0
      vertex 11.6527 11.4696 5
      vertex 11.316 11.3794 5
    endloop
  endfacet
  facet normal 0.25877 -0.965939 0
    outer loop
      vertex 11.6527 11.4696 5
      vertex 11.316 11.3794 0
      vertex 11.6527 11.4696 0
    endloop
  endfacet
  facet normal 0.087199 -0.996191 0
    outer loop
      vertex 11.6527 11.4696 0
      vertex 12 11.5 5
      vertex 11.6527 11.4696 5
    endloop
  endfacet
  facet normal 0.087199 -0.996191 0
    outer loop
      vertex 12 11.5 5
      vertex 11.6527 11.4696 0
      vertex 12 11.5 0
    endloop
  endfacet
  facet normal -0.087199 -0.996191 0
    outer loop
      vertex 12 11.5 0
      vertex 12.3473 11.4696 5
      vertex 12 11.5 5
    endloop
  endfacet
  facet normal -0.087199 -0.996191 -0
    outer loop
      vertex 12.3473 11.4696 5
      vertex 12 11.5 0
      vertex 12.3473 11.4696 0
    endloop
  endfacet
  facet normal -0.25877 -0.965939 0
    outer loop
      vertex 12.3473 11.4696 0
      vertex 12.684 11.3794 5
      vertex 12.3473 11.4696 5
    endloop
  endfacet
  facet normal -0.25877 -0.965939 -0
    outer loop
      vertex 12.684 11.3794 5
      vertex 12.3473 11.4696 0
      vertex 12.684 11.3794 0
    endloop
  endfacet
  facet normal -0.573424 -0.819259 0
    outer loop
      vertex 13 11.232 0
      vertex 13.2856 11.0321 5
      vertex 13 11.232 5
    endloop
  endfacet
  facet normal -0.573424 -0.819259 -0
    outer loop
      vertex 13.2856 11.0321 5
      vertex 13 11.232 0
      vertex 13.2856 11.0321 0
    endloop
  endfacet
  facet normal 0.422728 -0.906256 0
    outer loop
      vertex 11 11.232 0
      vertex 11.316 11.3794 5
      vertex 11 11.232 5
    endloop
  endfacet
  facet normal 0.422728 -0.906256 0
    outer loop
      vertex 11.316 11.3794 5
      vertex 11 11.232 0
      vertex 11.316 11.3794 0
    endloop
  endfacet
  facet normal 0.25885 0.965918 -0
    outer loop
      vertex 11.6527 7.53038 0
      vertex 11.316 7.62061 5
      vertex 11.6527 7.53038 5
    endloop
  endfacet
  facet normal 0.25885 0.965918 0
    outer loop
      vertex 11.316 7.62061 5
      vertex 11.6527 7.53038 0
      vertex 11.316 7.62061 0
    endloop
  endfacet
  facet normal -0.81924 0.573451 0
    outer loop
      vertex 13.5321 8.21442 0
      vertex 13.732 8.5 5
      vertex 13.732 8.5 0
    endloop
  endfacet
  facet normal -0.81924 0.573451 0
    outer loop
      vertex 13.732 8.5 5
      vertex 13.5321 8.21442 0
      vertex 13.5321 8.21442 5
    endloop
  endfacet
  facet normal 0.906346 0.422537 0
    outer loop
      vertex 10.2679 8.5 5
      vertex 10.1206 8.81596 0
      vertex 10.1206 8.81596 5
    endloop
  endfacet
  facet normal 0.906346 0.422537 0
    outer loop
      vertex 10.1206 8.81596 0
      vertex 10.2679 8.5 5
      vertex 10.2679 8.5 0
    endloop
  endfacet
  facet normal 0.906366 -0.422493 0
    outer loop
      vertex 10.1206 10.184 5
      vertex 10.2679 10.5 0
      vertex 10.2679 10.5 5
    endloop
  endfacet
  facet normal 0.906366 -0.422493 0
    outer loop
      vertex 10.2679 10.5 0
      vertex 10.1206 10.184 5
      vertex 10.1206 10.184 0
    endloop
  endfacet
  facet normal 0.819124 -0.573616 0
    outer loop
      vertex 10.2679 10.5 5
      vertex 10.4679 10.7856 0
      vertex 10.4679 10.7856 5
    endloop
  endfacet
  facet normal 0.819124 -0.573616 0
    outer loop
      vertex 10.4679 10.7856 0
      vertex 10.2679 10.5 5
      vertex 10.2679 10.5 0
    endloop
  endfacet
  facet normal -0.707121 0.707092 0
    outer loop
      vertex 13.2856 7.96791 0
      vertex 13.5321 8.21442 5
      vertex 13.5321 8.21442 0
    endloop
  endfacet
  facet normal -0.707121 0.707092 0
    outer loop
      vertex 13.5321 8.21442 5
      vertex 13.2856 7.96791 0
      vertex 13.2856 7.96791 5
    endloop
  endfacet
  facet normal 0.573539 0.819178 -0
    outer loop
      vertex 11 7.76795 0
      vertex 10.7144 7.96791 5
      vertex 11 7.76795 5
    endloop
  endfacet
  facet normal 0.573539 0.819178 0
    outer loop
      vertex 10.7144 7.96791 5
      vertex 11 7.76795 0
      vertex 10.7144 7.96791 0
    endloop
  endfacet
  facet normal 0.087142 0.996196 -0
    outer loop
      vertex 12 7.5 0
      vertex 11.6527 7.53038 5
      vertex 12 7.5 5
    endloop
  endfacet
  facet normal 0.087142 0.996196 0
    outer loop
      vertex 11.6527 7.53038 5
      vertex 12 7.5 0
      vertex 11.6527 7.53038 0
    endloop
  endfacet
  facet normal 0 -1 0
    outer loop
      vertex -13.4341 -12.962 0
      vertex 13.4341 -12.962 5
      vertex -13.4341 -12.962 5
    endloop
  endfacet
  facet normal 0 -1 -0
    outer loop
      vertex 13.4341 -12.962 5
      vertex -13.4341 -12.962 0
      vertex 13.4341 -12.962 0
    endloop
  endfacet
  facet normal -0.341956 -0.939716 0
    outer loop
      vertex -14.25 -12.6651 0
      vertex -13.4341 -12.962 5
      vertex -14.25 -12.6651 5
    endloop
  endfacet
  facet normal -0.341956 -0.939716 -0
    outer loop
      vertex -13.4341 -12.962 5
      vertex -14.25 -12.6651 0
      vertex -13.4341 -12.962 0
    endloop
  endfacet
  facet normal 0.642798 -0.766036 0
    outer loop
      vertex 14.25 -12.6651 0
      vertex 14.9151 -12.107 5
      vertex 14.25 -12.6651 5
    endloop
  endfacet
  facet normal 0.642798 -0.766036 0
    outer loop
      vertex 14.9151 -12.107 5
      vertex 14.25 -12.6651 0
      vertex 14.9151 -12.107 0
    endloop
  endfacet
  facet normal 0 1 -0
    outer loop
      vertex 13.4341 12.962 0
      vertex -13.4341 12.962 5
      vertex 13.4341 12.962 5
    endloop
  endfacet
  facet normal 0 1 0
    outer loop
      vertex -13.4341 12.962 5
      vertex 13.4341 12.962 0
      vertex -13.4341 12.962 0
    endloop
  endfacet
  facet normal -1 0 0
    outer loop
      vertex -15.5 -10.5 0
      vertex -15.5 10.5 5
      vertex -15.5 10.5 0
    endloop
  endfacet
  facet normal -1 -0 0
    outer loop
      vertex -15.5 10.5 5
      vertex -15.5 -10.5 0
      vertex -15.5 -10.5 5
    endloop
  endfacet
  facet normal -0.642798 0.766036 0
    outer loop
      vertex -14.25 12.6651 0
      vertex -14.9151 12.107 5
      vertex -14.25 12.6651 5
    endloop
  endfacet
  facet normal -0.642798 0.766036 0
    outer loop
      vertex -14.9151 12.107 5
      vertex -14.25 12.6651 0
      vertex -14.9151 12.107 0
    endloop
  endfacet
  facet normal 0.642798 0.766036 -0
    outer loop
      vertex 14.9151 12.107 0
      vertex 14.25 12.6651 5
      vertex 14.9151 12.107 5
    endloop
  endfacet
  facet normal 0.642798 0.766036 0
    outer loop
      vertex 14.25 12.6651 5
      vertex 14.9151 12.107 0
      vertex 14.25 12.6651 0
    endloop
  endfacet
  facet normal 1 -0 0
    outer loop
      vertex 15.5 -10.5 5
      vertex 15.5 10.5 0
      vertex 15.5 10.5 5
    endloop
  endfacet
  facet normal 1 0 0
    outer loop
      vertex 15.5 10.5 0
      vertex 15.5 -10.5 5
      vertex 15.5 -10.5 0
    endloop
  endfacet
  facet normal -0.86603 -0.499992 0
    outer loop
      vertex -14.9151 -12.107 0
      vertex -15.3492 -11.3551 5
      vertex -15.3492 -11.3551 0
    endloop
  endfacet
  facet normal -0.86603 -0.499992 0
    outer loop
      vertex -15.3492 -11.3551 5
      vertex -14.9151 -12.107 0
      vertex -14.9151 -12.107 5
    endloop
  endfacet
  facet normal 0.341956 -0.939716 0
    outer loop
      vertex 13.4341 -12.962 0
      vertex 14.25 -12.6651 5
      vertex 13.4341 -12.962 5
    endloop
  endfacet
  facet normal 0.341956 -0.939716 0
    outer loop
      vertex 14.25 -12.6651 5
      vertex 13.4341 -12.962 0
      vertex 14.25 -12.6651 0
    endloop
  endfacet
  facet normal -0.642798 -0.766036 0
    outer loop
      vertex -14.9151 -12.107 0
      vertex -14.25 -12.6651 5
      vertex -14.9151 -12.107 5
    endloop
  endfacet
  facet normal -0.642798 -0.766036 -0
    outer loop
      vertex -14.25 -12.6651 5
      vertex -14.9151 -12.107 0
      vertex -14.25 -12.6651 0
    endloop
  endfacet
  facet normal 0.341956 0.939716 -0
    outer loop
      vertex 14.25 12.6651 0
      vertex 13.4341 12.962 5
      vertex 14.25 12.6651 5
    endloop
  endfacet
  facet normal 0.341956 0.939716 0
    outer loop
      vertex 13.4341 12.962 5
      vertex 14.25 12.6651 0
      vertex 13.4341 12.962 0
    endloop
  endfacet
  facet normal 0 0 -1
    outer loop
      vertex 13.4341 -12.962 0
      vertex 15.5 -10.5 0
      vertex 15.3492 -11.3551 0
    endloop
  endfacet
  facet normal 0 0 -1
    outer loop
      vertex 15.5 -10.5 0
      vertex 13.5321 8.21442 0
      vertex 15.5 10.5 0
    endloop
  endfacet
  facet normal 0 0 -1
    outer loop
      vertex 13.4341 -12.962 0
      vertex 15.3492 -11.3551 0
      vertex 14.9151 -12.107 0
    endloop
  endfacet
  facet normal 0 -0 -1
    outer loop
      vertex 13.8794 8.81596 0
      vertex 15.5 10.5 0
      vertex 13.732 8.5 0
    endloop
  endfacet
  facet normal 0 0 -1
    outer loop
      vertex 13.4341 -12.962 0
      vertex 14.9151 -12.107 0
      vertex 14.25 -12.6651 0
    endloop
  endfacet
  facet normal 0 0 -1
    outer loop
      vertex 13.9696 9.8473 0
      vertex 15.5 10.5 0
      vertex 14 9.5 0
    endloop
  endfacet
  facet normal 0 0 -1
    outer loop
      vertex 13.732 10.5 0
      vertex 15.5 10.5 0
      vertex 13.8794 10.184 0
    endloop
  endfacet
  facet normal 0 0 -1
    outer loop
      vertex 13.8794 10.184 0
      vertex 15.5 10.5 0
      vertex 13.9696 9.8473 0
    endloop
  endfacet
  facet normal 0 -0 -1
    outer loop
      vertex 14 9.5 0
      vertex 15.5 10.5 0
      vertex 13.9696 9.1527 0
    endloop
  endfacet
  facet normal 0 -0 -1
    outer loop
      vertex 13.9696 9.1527 0
      vertex 15.5 10.5 0
      vertex 13.8794 8.81596 0
    endloop
  endfacet
  facet normal 0 0 -1
    outer loop
      vertex 15.5 10.5 0
      vertex 13.5321 8.21442 0
      vertex 13.732 8.5 0
    endloop
  endfacet
  facet normal -0 0 -1
    outer loop
      vertex 15.5 -10.5 0
      vertex 13.4341 -12.962 0
      vertex 8.4 -7.2 0
    endloop
  endfacet
  facet normal 0 0 -1
    outer loop
      vertex 15.5 -10.5 0
      vertex 13.2856 7.96791 0
      vertex 13.5321 8.21442 0
    endloop
  endfacet
  facet normal 0 0 -1
    outer loop
      vertex 15.5 -10.5 0
      vertex 13 7.76795 0
      vertex 13.2856 7.96791 0
    endloop
  endfacet
  facet normal 0 0 -1
    outer loop
      vertex 15.5 -10.5 0
      vertex 8.4 -7.2 0
      vertex 12.684 7.62061 0
    endloop
  endfacet
  facet normal 0 0 -1
    outer loop
      vertex 15.5 -10.5 0
      vertex 12.684 7.62061 0
      vertex 13 7.76795 0
    endloop
  endfacet
  facet normal 0 0 -1
    outer loop
      vertex 12.684 7.62061 0
      vertex 8.4 -7.2 0
      vertex 12.3473 7.53038 0
    endloop
  endfacet
  facet normal 0 0 -1
    outer loop
      vertex 12.3473 7.53038 0
      vertex 8.4 -7.2 0
      vertex 12 7.5 0
    endloop
  endfacet
  facet normal -0 0 -1
    outer loop
      vertex 12 7.5 0
      vertex 8.4 -7.2 0
      vertex 11.6527 7.53038 0
    endloop
  endfacet
  facet normal 0 0 -1
    outer loop
      vertex 8.4 7.2 0
      vertex 11.6527 7.53038 0
      vertex 8.4 -7.2 0
    endloop
  endfacet
  facet normal -0 0 -1
    outer loop
      vertex 11.6527 7.53038 0
      vertex 8.4 7.2 0
      vertex 11.316 7.62061 0
    endloop
  endfacet
  facet normal -0 0 -1
    outer loop
      vertex 11.316 7.62061 0
      vertex 8.4 7.2 0
      vertex 11 7.76795 0
    endloop
  endfacet
  facet normal -0 0 -1
    outer loop
      vertex 11 7.76795 0
      vertex 8.4 7.2 0
      vertex 10.7144 7.96791 0
    endloop
  endfacet
  facet normal -0 0 -1
    outer loop
      vertex 10.7144 7.96791 0
      vertex 8.4 7.2 0
      vertex 10.4679 8.21442 0
    endloop
  endfacet
  facet normal -0 0 -1
    outer loop
      vertex 10.4679 8.21442 0
      vertex 8.4 7.2 0
      vertex 10.2679 8.5 0
    endloop
  endfacet
  facet normal -0 0 -1
    outer loop
      vertex 10.1206 8.81596 0
      vertex 8.4 7.2 0
      vertex 10.0304 9.1527 0
    endloop
  endfacet
  facet normal -0 0 -1
    outer loop
      vertex 10.2679 8.5 0
      vertex 8.4 7.2 0
      vertex 10.1206 8.81596 0
    endloop
  endfacet
  facet normal 0 0 -1
    outer loop
      vertex 13.4341 -12.962 0
      vertex 1.6 -7.2 0
      vertex 8.4 -7.2 0
    endloop
  endfacet
  facet normal 0 0 -1
    outer loop
      vertex 1.6 -7.2 0
      vertex -1.6 -7.2 0
      vertex 1.6 7.2 0
    endloop
  endfacet
  facet normal 0 0 -1
    outer loop
      vertex -10.7144 -11.0321 0
      vertex 1.6 -7.2 0
      vertex 13.4341 -12.962 0
    endloop
  endfacet
  facet normal -0 0 -1
    outer loop
      vertex 1.6 -7.2 0
      vertex -10.7144 -11.0321 0
      vertex -1.6 -7.2 0
    endloop
  endfacet
  facet normal 0 0 -1
    outer loop
      vertex -10.0304 -9.1527 0
      vertex -8.4 -7.2 0
      vertex -10 -9.5 0
    endloop
  endfacet
  facet normal 0 -0 -1
    outer loop
      vertex -10.0304 -9.8473 0
      vertex -1.6 -7.2 0
      vertex -10.1206 -10.184 0
    endloop
  endfacet
  facet normal 0 0 -1
    outer loop
      vertex -8.4 -7.2 0
      vertex -10.0304 -9.8473 0
      vertex -10 -9.5 0
    endloop
  endfacet
  facet normal -0 0 -1
    outer loop
      vertex -1.6 -7.2 0
      vertex -10.0304 -9.8473 0
      vertex -8.4 -7.2 0
    endloop
  endfacet
  facet normal 0 0 -1
    outer loop
      vertex -1.6 -7.2 0
      vertex -10.2679 -10.5 0
      vertex -10.1206 -10.184 0
    endloop
  endfacet
  facet normal 0 0 -1
    outer loop
      vertex -1.6 -7.2 0
      vertex -10.4679 -10.7856 0
      vertex -10.2679 -10.5 0
    endloop
  endfacet
  facet normal 0 0 -1
    outer loop
      vertex -1.6 -7.2 0
      vertex -10.7144 -11.0321 0
      vertex -10.4679 -10.7856 0
    endloop
  endfacet
  facet normal 0 0 -1
    outer loop
      vertex 13.4341 -12.962 0
      vertex -11 -11.232 0
      vertex -10.7144 -11.0321 0
    endloop
  endfacet
  facet normal 0 0 -1
    outer loop
      vertex -13.4341 -12.962 0
      vertex -11 -11.232 0
      vertex 13.4341 -12.962 0
    endloop
  endfacet
  facet normal 0 0 -1
    outer loop
      vertex -11 -11.232 0
      vertex -13.4341 -12.962 0
      vertex -11.316 -11.3794 0
    endloop
  endfacet
  facet normal 0 0 -1
    outer loop
      vertex -11.316 -11.3794 0
      vertex -13.4341 -12.962 0
      vertex -11.6527 -11.4696 0
    endloop
  endfacet
  facet normal 0 0 -1
    outer loop
      vertex -11.6527 -11.4696 0
      vertex -13.4341 -12.962 0
      vertex -12 -11.5 0
    endloop
  endfacet
  facet normal 0 0 -1
    outer loop
      vertex -13.4341 -12.962 0
      vertex -12.3473 -11.4696 0
      vertex -12 -11.5 0
    endloop
  endfacet
  facet normal 0 0 -1
    outer loop
      vertex -13.4341 -12.962 0
      vertex -12.684 -11.3794 0
      vertex -12.3473 -11.4696 0
    endloop
  endfacet
  facet normal 0 0 -1
    outer loop
      vertex -13.4341 -12.962 0
      vertex -13 -11.232 0
      vertex -12.684 -11.3794 0
    endloop
  endfacet
  facet normal 0 0 -1
    outer loop
      vertex -14.25 -12.6651 0
      vertex -13 -11.232 0
      vertex -13.4341 -12.962 0
    endloop
  endfacet
  facet normal -0 0 -1
    outer loop
      vertex -13 -11.232 0
      vertex -14.25 -12.6651 0
      vertex -13.2856 -11.0321 0
    endloop
  endfacet
  facet normal 0 0 -1
    outer loop
      vertex -14.9151 -12.107 0
      vertex -13.2856 -11.0321 0
      vertex -14.25 -12.6651 0
    endloop
  endfacet
  facet normal -0 0 -1
    outer loop
      vertex -13.2856 -11.0321 0
      vertex -14.9151 -12.107 0
      vertex -13.5321 -10.7856 0
    endloop
  endfacet
  facet normal 0 0 -1
    outer loop
      vertex -15.3492 -11.3551 0
      vertex -13.5321 -10.7856 0
      vertex -14.9151 -12.107 0
    endloop
  endfacet
  facet normal 0 0 -1
    outer loop
      vertex -15.5 -10.5 0
      vertex -13.732 -10.5 0
      vertex -15.3492 -11.3551 0
    endloop
  endfacet
  facet normal -0 0 -1
    outer loop
      vertex -13.5321 -10.7856 0
      vertex -15.3492 -11.3551 0
      vertex -13.732 -10.5 0
    endloop
  endfacet
  facet normal 0 0 -1
    outer loop
      vertex 15.5 10.5 0
      vertex 13.732 10.5 0
      vertex 15.3492 11.3551 0
    endloop
  endfacet
  facet normal 0 0 -1
    outer loop
      vertex 13.5321 10.7856 0
      vertex 15.3492 11.3551 0
      vertex 13.732 10.5 0
    endloop
  endfacet
  facet normal -0 0 -1
    outer loop
      vertex 15.3492 11.3551 0
      vertex 13.5321 10.7856 0
      vertex 14.9151 12.107 0
    endloop
  endfacet
  facet normal 0 0 -1
    outer loop
      vertex 13.2856 11.0321 0
      vertex 14.9151 12.107 0
      vertex 13.5321 10.7856 0
    endloop
  endfacet
  facet normal -0 0 -1
    outer loop
      vertex 14.9151 12.107 0
      vertex 13.2856 11.0321 0
      vertex 14.25 12.6651 0
    endloop
  endfacet
  facet normal 0 0 -1
    outer loop
      vertex 13 11.232 0
      vertex 14.25 12.6651 0
      vertex 13.2856 11.0321 0
    endloop
  endfacet
  facet normal -0 0 -1
    outer loop
      vertex 14.25 12.6651 0
      vertex 13 11.232 0
      vertex 13.4341 12.962 0
    endloop
  endfacet
  facet normal 0 0 -1
    outer loop
      vertex 12.684 11.3794 0
      vertex 13.4341 12.962 0
      vertex 13 11.232 0
    endloop
  endfacet
  facet normal 0 0 -1
    outer loop
      vertex 12.3473 11.4696 0
      vertex 13.4341 12.962 0
      vertex 12.684 11.3794 0
    endloop
  endfacet
  facet normal 0 0 -1
    outer loop
      vertex 12 11.5 0
      vertex 13.4341 12.962 0
      vertex 12.3473 11.4696 0
    endloop
  endfacet
  facet normal 0 0 -1
    outer loop
      vertex 11.6527 11.4696 0
      vertex 13.4341 12.962 0
      vertex 12 11.5 0
    endloop
  endfacet
  facet normal 0 0 -1
    outer loop
      vertex 11.316 11.3794 0
      vertex 13.4341 12.962 0
      vertex 11.6527 11.4696 0
    endloop
  endfacet
  facet normal 0 0 -1
    outer loop
      vertex 11 11.232 0
      vertex 13.4341 12.962 0
      vertex 11.316 11.3794 0
    endloop
  endfacet
  facet normal 0 0 -1
    outer loop
      vertex -13.4341 12.962 0
      vertex 11 11.232 0
      vertex 10.7144 11.0321 0
    endloop
  endfacet
  facet normal -0 0 -1
    outer loop
      vertex 10.0304 9.1527 0
      vertex 8.4 7.2 0
      vertex 10 9.5 0
    endloop
  endfacet
  facet normal -0 0 -1
    outer loop
      vertex 10 9.5 0
      vertex 8.4 7.2 0
      vertex 10.0304 9.8473 0
    endloop
  endfacet
  facet normal 0 0 -1
    outer loop
      vertex 1.6 7.2 0
      vertex 10.0304 9.8473 0
      vertex 8.4 7.2 0
    endloop
  endfacet
  facet normal -0 0 -1
    outer loop
      vertex 10.0304 9.8473 0
      vertex 1.6 7.2 0
      vertex 10.1206 10.184 0
    endloop
  endfacet
  facet normal -0 0 -1
    outer loop
      vertex 10.1206 10.184 0
      vertex 1.6 7.2 0
      vertex 10.2679 10.5 0
    endloop
  endfacet
  facet normal 0 0 -1
    outer loop
      vertex 1.6 7.2 0
      vertex 10.4679 10.7856 0
      vertex 10.2679 10.5 0
    endloop
  endfacet
  facet normal 0 0 -1
    outer loop
      vertex 1.6 7.2 0
      vertex 10.7144 11.0321 0
      vertex 10.4679 10.7856 0
    endloop
  endfacet
  facet normal 0 0 -1
    outer loop
      vertex -1.6 7.2 0
      vertex 10.7144 11.0321 0
      vertex 1.6 7.2 0
    endloop
  endfacet
  facet normal 0 0 -1
    outer loop
      vertex -1.6 7.2 0
      vertex 1.6 7.2 0
      vertex -1.6 -7.2 0
    endloop
  endfacet
  facet normal 0 0 -1
    outer loop
      vertex -13.4341 12.962 0
      vertex 10.7144 11.0321 0
      vertex -1.6 7.2 0
    endloop
  endfacet
  facet normal 0 0 -1
    outer loop
      vertex -13.4341 12.962 0
      vertex -1.6 7.2 0
      vertex -8.4 7.2 0
    endloop
  endfacet
  facet normal 0 0 -1
    outer loop
      vertex -10.1206 -8.81596 0
      vertex -8.4 -7.2 0
      vertex -10.0304 -9.1527 0
    endloop
  endfacet
  facet normal 0 0 -1
    outer loop
      vertex -10.2679 -8.5 0
      vertex -8.4 -7.2 0
      vertex -10.1206 -8.81596 0
    endloop
  endfacet
  facet normal 0 0 -1
    outer loop
      vertex -10.4679 -8.21442 0
      vertex -8.4 -7.2 0
      vertex -10.2679 -8.5 0
    endloop
  endfacet
  facet normal 0 0 -1
    outer loop
      vertex -10.7144 -7.96791 0
      vertex -8.4 -7.2 0
      vertex -10.4679 -8.21442 0
    endloop
  endfacet
  facet normal 0 0 -1
    outer loop
      vertex -11 -7.76795 0
      vertex -8.4 -7.2 0
      vertex -10.7144 -7.96791 0
    endloop
  endfacet
  facet normal 0 0 -1
    outer loop
      vertex -11.316 -7.62061 0
      vertex -8.4 -7.2 0
      vertex -11 -7.76795 0
    endloop
  endfacet
  facet normal 0 0 -1
    outer loop
      vertex -11.6527 -7.53038 0
      vertex -8.4 -7.2 0
      vertex -11.316 -7.62061 0
    endloop
  endfacet
  facet normal -0 0 -1
    outer loop
      vertex -8.4 -7.2 0
      vertex -11.6527 -7.53038 0
      vertex -8.4 7.2 0
    endloop
  endfacet
  facet normal 0 0 -1
    outer loop
      vertex -12 -7.5 0
      vertex -8.4 7.2 0
      vertex -11.6527 -7.53038 0
    endloop
  endfacet
  facet normal 0 0 -1
    outer loop
      vertex -12.3473 -7.53038 0
      vertex -8.4 7.2 0
      vertex -12 -7.5 0
    endloop
  endfacet
  facet normal 0 0 -1
    outer loop
      vertex -12.684 -7.62061 0
      vertex -8.4 7.2 0
      vertex -12.3473 -7.53038 0
    endloop
  endfacet
  facet normal 0 0 -1
    outer loop
      vertex -15.5 10.5 0
      vertex -12.684 -7.62061 0
      vertex -13 -7.76795 0
    endloop
  endfacet
  facet normal 0 0 -1
    outer loop
      vertex -15.5 10.5 0
      vertex -13 -7.76795 0
      vertex -13.2856 -7.96791 0
    endloop
  endfacet
  facet normal 0 0 -1
    outer loop
      vertex 11 11.232 0
      vertex -13.4341 12.962 0
      vertex 13.4341 12.962 0
    endloop
  endfacet
  facet normal 0 0 -1
    outer loop
      vertex -12.684 -7.62061 0
      vertex -15.5 10.5 0
      vertex -8.4 7.2 0
    endloop
  endfacet
  facet normal 0 0 -1
    outer loop
      vertex -15.5 10.5 0
      vertex -13.2856 -7.96791 0
      vertex -13.5321 -8.21442 0
    endloop
  endfacet
  facet normal 0 0 -1
    outer loop
      vertex -15.5 10.5 0
      vertex -13.5321 -8.21442 0
      vertex -13.732 -8.5 0
    endloop
  endfacet
  facet normal 0 0 -1
    outer loop
      vertex -15.5 -10.5 0
      vertex -13.732 -8.5 0
      vertex -13.8794 -8.81596 0
    endloop
  endfacet
  facet normal 0 0 -1
    outer loop
      vertex -15.5 -10.5 0
      vertex -13.8794 -8.81596 0
      vertex -13.9696 -9.1527 0
    endloop
  endfacet
  facet normal 0 0 -1
    outer loop
      vertex -15.5 -10.5 0
      vertex -13.9696 -9.1527 0
      vertex -14 -9.5 0
    endloop
  endfacet
  facet normal 0 0 -1
    outer loop
      vertex -13.732 -10.5 0
      vertex -15.5 -10.5 0
      vertex -13.8794 -10.184 0
    endloop
  endfacet
  facet normal -0 0 -1
    outer loop
      vertex -13.732 -8.5 0
      vertex -15.5 -10.5 0
      vertex -15.5 10.5 0
    endloop
  endfacet
  facet normal -0 0 -1
    outer loop
      vertex -13.8794 -10.184 0
      vertex -15.5 -10.5 0
      vertex -13.9696 -9.8473 0
    endloop
  endfacet
  facet normal 0 0 -1
    outer loop
      vertex -8.4 7.2 0
      vertex -15.5 10.5 0
      vertex -13.4341 12.962 0
    endloop
  endfacet
  facet normal -0 0 -1
    outer loop
      vertex -13.9696 -9.8473 0
      vertex -15.5 -10.5 0
      vertex -14 -9.5 0
    endloop
  endfacet
  facet normal 0 0 -1
    outer loop
      vertex -13.4341 12.962 0
      vertex -15.5 10.5 0
      vertex -14.25 12.6651 0
    endloop
  endfacet
  facet normal 0 0 -1
    outer loop
      vertex -14.25 12.6651 0
      vertex -15.5 10.5 0
      vertex -14.9151 12.107 0
    endloop
  endfacet
  facet normal 0 0 -1
    outer loop
      vertex -14.9151 12.107 0
      vertex -15.5 10.5 0
      vertex -15.3492 11.3551 0
    endloop
  endfacet
  facet normal 0 0 1
    outer loop
      vertex -7.86228 -8.73195 5
      vertex -10.0304 -9.1527 5
      vertex -10 -9.5 5
    endloop
  endfacet
  facet normal 0 0 1
    outer loop
      vertex -7.86228 -8.73195 5
      vertex -10.1206 -8.81596 5
      vertex -10.0304 -9.1527 5
    endloop
  endfacet
  facet normal 0 0 1
    outer loop
      vertex -9.50595 -6.90648 5
      vertex -10.2679 -8.5 5
      vertex -10.1206 -8.81596 5
    endloop
  endfacet
  facet normal 0 0 1
    outer loop
      vertex -9.50595 -6.90648 5
      vertex -10.4679 -8.21442 5
      vertex -10.2679 -8.5 5
    endloop
  endfacet
  facet normal 0 0 1
    outer loop
      vertex -9.50595 -6.90648 5
      vertex -10.7144 -7.96791 5
      vertex -10.4679 -8.21442 5
    endloop
  endfacet
  facet normal 0 0 1
    outer loop
      vertex -11.316 -7.62061 5
      vertex -9.50595 -6.90648 5
      vertex -10.7342 -4.77915 5
    endloop
  endfacet
  facet normal 0 0 1
    outer loop
      vertex -9.50595 -6.90648 5
      vertex -11 -7.76795 5
      vertex -10.7144 -7.96791 5
    endloop
  endfacet
  facet normal 0 0 1
    outer loop
      vertex -9.50595 -6.90648 5
      vertex -11.316 -7.62061 5
      vertex -11 -7.76795 5
    endloop
  endfacet
  facet normal 0 0 1
    outer loop
      vertex -12.684 -7.62061 5
      vertex -10.7342 -4.77915 5
      vertex -11.4932 -2.44296 5
    endloop
  endfacet
  facet normal 0 0 1
    outer loop
      vertex -10.7342 -4.77915 5
      vertex -11.6527 -7.53038 5
      vertex -11.316 -7.62061 5
    endloop
  endfacet
  facet normal 0 0 1
    outer loop
      vertex -13.5321 -8.21442 5
      vertex -11.4932 -2.44296 5
      vertex -11.75 0 5
    endloop
  endfacet
  facet normal 0 0 1
    outer loop
      vertex -10.7342 -4.77915 5
      vertex -12 -7.5 5
      vertex -11.6527 -7.53038 5
    endloop
  endfacet
  facet normal 0 0 1
    outer loop
      vertex 10.7342 4.77915 5
      vertex 12 7.5 5
      vertex 11.6527 7.53038 5
    endloop
  endfacet
  facet normal 0 0 1
    outer loop
      vertex 12 7.5 5
      vertex 11.4932 2.44296 5
      vertex 11.75 0 5
    endloop
  endfacet
  facet normal 0 0 1
    outer loop
      vertex 10.7342 4.77915 5
      vertex 11.6527 7.53038 5
      vertex 11.316 7.62061 5
    endloop
  endfacet
  facet normal 0 0 1
    outer loop
      vertex 9.50595 6.90648 5
      vertex 11.316 7.62061 5
      vertex 11 7.76795 5
    endloop
  endfacet
  facet normal 0 0 1
    outer loop
      vertex 12 7.5 5
      vertex 10.7342 4.77915 5
      vertex 11.4932 2.44296 5
    endloop
  endfacet
  facet normal 0 0 1
    outer loop
      vertex 9.50595 6.90648 5
      vertex 11 7.76795 5
      vertex 10.7144 7.96791 5
    endloop
  endfacet
  facet normal 0 0 1
    outer loop
      vertex 9.50595 6.90648 5
      vertex 10.7144 7.96791 5
      vertex 10.4679 8.21442 5
    endloop
  endfacet
  facet normal 0 0 1
    outer loop
      vertex 9.50595 6.90648 5
      vertex 10.4679 8.21442 5
      vertex 10.2679 8.5 5
    endloop
  endfacet
  facet normal 0 0 1
    outer loop
      vertex 9.50595 6.90648 5
      vertex 10.2679 8.5 5
      vertex 10.1206 8.81596 5
    endloop
  endfacet
  facet normal 0 0 1
    outer loop
      vertex 7.86228 8.73195 5
      vertex 10.1206 8.81596 5
      vertex 10.0304 9.1527 5
    endloop
  endfacet
  facet normal 0 0 1
    outer loop
      vertex 11.316 7.62061 5
      vertex 9.50595 6.90648 5
      vertex 10.7342 4.77915 5
    endloop
  endfacet
  facet normal 0 0 1
    outer loop
      vertex 7.86228 8.73195 5
      vertex 10.0304 9.1527 5
      vertex 10 9.5 5
    endloop
  endfacet
  facet normal 0 0 1
    outer loop
      vertex 13.732 10.5 5
      vertex 15.5 10.5 5
      vertex 15.3492 11.3551 5
    endloop
  endfacet
  facet normal 0 0 1
    outer loop
      vertex 13.732 8.5 5
      vertex 15.5 10.5 5
      vertex 13.8794 8.81596 5
    endloop
  endfacet
  facet normal 0 0 1
    outer loop
      vertex 13.5321 10.7856 5
      vertex 15.3492 11.3551 5
      vertex 14.9151 12.107 5
    endloop
  endfacet
  facet normal 0 0 1
    outer loop
      vertex 15.5 10.5 5
      vertex 13.9696 9.1527 5
      vertex 13.8794 8.81596 5
    endloop
  endfacet
  facet normal 0 0 1
    outer loop
      vertex 13.2856 11.0321 5
      vertex 14.9151 12.107 5
      vertex 14.25 12.6651 5
    endloop
  endfacet
  facet normal 0 0 1
    outer loop
      vertex 15.5 10.5 5
      vertex 14 9.5 5
      vertex 13.9696 9.1527 5
    endloop
  endfacet
  facet normal 0 0 1
    outer loop
      vertex 11.75 0 5
      vertex 15.5 10.5 5
      vertex 13.732 8.5 5
    endloop
  endfacet
  facet normal 0 0 1
    outer loop
      vertex 15.5 10.5 5
      vertex 13.9696 9.8473 5
      vertex 14 9.5 5
    endloop
  endfacet
  facet normal 0 0 1
    outer loop
      vertex 15.5 10.5 5
      vertex 13.8794 10.184 5
      vertex 13.9696 9.8473 5
    endloop
  endfacet
  facet normal 0 0 1
    outer loop
      vertex 15.5 10.5 5
      vertex 13.732 10.5 5
      vertex 13.8794 10.184 5
    endloop
  endfacet
  facet normal 0 0 1
    outer loop
      vertex 15.3492 11.3551 5
      vertex 13.5321 10.7856 5
      vertex 13.732 10.5 5
    endloop
  endfacet
  facet normal 0 0 1
    outer loop
      vertex 13 11.232 5
      vertex 14.25 12.6651 5
      vertex 13.4341 12.962 5
    endloop
  endfacet
  facet normal 0 0 1
    outer loop
      vertex 14.9151 12.107 5
      vertex 13.2856 11.0321 5
      vertex 13.5321 10.7856 5
    endloop
  endfacet
  facet normal 0 0 1
    outer loop
      vertex 14.25 12.6651 5
      vertex 13 11.232 5
      vertex 13.2856 11.0321 5
    endloop
  endfacet
  facet normal 0 0 1
    outer loop
      vertex 13.4341 12.962 5
      vertex 12.684 11.3794 5
      vertex 13 11.232 5
    endloop
  endfacet
  facet normal 0 0 1
    outer loop
      vertex 13.4341 12.962 5
      vertex 12.3473 11.4696 5
      vertex 12.684 11.3794 5
    endloop
  endfacet
  facet normal 0 0 1
    outer loop
      vertex 13.4341 12.962 5
      vertex 12 11.5 5
      vertex 12.3473 11.4696 5
    endloop
  endfacet
  facet normal 0 0 1
    outer loop
      vertex 13.4341 12.962 5
      vertex 11.6527 11.4696 5
      vertex 12 11.5 5
    endloop
  endfacet
  facet normal 0 0 1
    outer loop
      vertex 13.4341 12.962 5
      vertex 11.316 11.3794 5
      vertex 11.6527 11.4696 5
    endloop
  endfacet
  facet normal 0 0 1
    outer loop
      vertex 13.4341 12.962 5
      vertex 11 11.232 5
      vertex 11.316 11.3794 5
    endloop
  endfacet
  facet normal 0 0 1
    outer loop
      vertex 3.63095 11.1749 5
      vertex 11 11.232 5
      vertex 13.4341 12.962 5
    endloop
  endfacet
  facet normal 0 0 1
    outer loop
      vertex 7.86228 8.73195 5
      vertex 10 9.5 5
      vertex 10.0304 9.8473 5
    endloop
  endfacet
  facet normal 0 0 1
    outer loop
      vertex 10.1206 8.81596 5
      vertex 7.86228 8.73195 5
      vertex 9.50595 6.90648 5
    endloop
  endfacet
  facet normal 0 0 1
    outer loop
      vertex 10.1206 10.184 5
      vertex 7.86228 8.73195 5
      vertex 10.0304 9.8473 5
    endloop
  endfacet
  facet normal 0 0 1
    outer loop
      vertex 5.875 10.1758 5
      vertex 10.1206 10.184 5
      vertex 10.2679 10.5 5
    endloop
  endfacet
  facet normal 0 0 1
    outer loop
      vertex 5.875 10.1758 5
      vertex 10.2679 10.5 5
      vertex 10.4679 10.7856 5
    endloop
  endfacet
  facet normal 0 0 1
    outer loop
      vertex 5.875 10.1758 5
      vertex 10.4679 10.7856 5
      vertex 10.7144 11.0321 5
    endloop
  endfacet
  facet normal 0 0 1
    outer loop
      vertex 10.1206 10.184 5
      vertex 5.875 10.1758 5
      vertex 7.86228 8.73195 5
    endloop
  endfacet
  facet normal 0 0 1
    outer loop
      vertex 11 11.232 5
      vertex 3.63095 11.1749 5
      vertex 10.7144 11.0321 5
    endloop
  endfacet
  facet normal 0 0 1
    outer loop
      vertex 10.7144 11.0321 5
      vertex 3.63095 11.1749 5
      vertex 5.875 10.1758 5
    endloop
  endfacet
  facet normal 0 0 1
    outer loop
      vertex 13.4341 12.962 5
      vertex 1.22821 11.6856 5
      vertex 3.63095 11.1749 5
    endloop
  endfacet
  facet normal 0 0 1
    outer loop
      vertex 13.4341 12.962 5
      vertex -1.22821 11.6856 5
      vertex 1.22821 11.6856 5
    endloop
  endfacet
  facet normal 0 0 1
    outer loop
      vertex -10.7342 -4.77915 5
      vertex -12.3473 -7.53038 5
      vertex -12 -7.5 5
    endloop
  endfacet
  facet normal 0 0 1
    outer loop
      vertex -10.7342 -4.77915 5
      vertex -12.684 -7.62061 5
      vertex -12.3473 -7.53038 5
    endloop
  endfacet
  facet normal 0 0 1
    outer loop
      vertex -15.5 10.5 5
      vertex -11.75 0 5
      vertex -11.4932 2.44296 5
    endloop
  endfacet
  facet normal 0 0 1
    outer loop
      vertex -11.4932 -2.44296 5
      vertex -13 -7.76795 5
      vertex -12.684 -7.62061 5
    endloop
  endfacet
  facet normal 0 0 1
    outer loop
      vertex -11.4932 -2.44296 5
      vertex -13.2856 -7.96791 5
      vertex -13 -7.76795 5
    endloop
  endfacet
  facet normal -0 0 1
    outer loop
      vertex -13.4341 12.962 5
      vertex -1.22821 11.6856 5
      vertex 13.4341 12.962 5
    endloop
  endfacet
  facet normal 0 0 1
    outer loop
      vertex -13.4341 12.962 5
      vertex -3.63095 11.1749 5
      vertex -1.22821 11.6856 5
    endloop
  endfacet
  facet normal 0 0 1
    outer loop
      vertex -13.4341 12.962 5
      vertex -5.875 10.1758 5
      vertex -3.63095 11.1749 5
    endloop
  endfacet
  facet normal 0 0 1
    outer loop
      vertex -13.4341 12.962 5
      vertex -7.86228 8.73195 5
      vertex -5.875 10.1758 5
    endloop
  endfacet
  facet normal 0 0 1
    outer loop
      vertex -13.4341 12.962 5
      vertex -9.50595 6.90648 5
      vertex -7.86228 8.73195 5
    endloop
  endfacet
  facet normal -0 0 1
    outer loop
      vertex -15.5 10.5 5
      vertex -9.50595 6.90648 5
      vertex -13.4341 12.962 5
    endloop
  endfacet
  facet normal 0 0 1
    outer loop
      vertex -9.50595 6.90648 5
      vertex -15.5 10.5 5
      vertex -10.7342 4.77915 5
    endloop
  endfacet
  facet normal 0 0 1
    outer loop
      vertex -10.7342 4.77915 5
      vertex -15.5 10.5 5
      vertex -11.4932 2.44296 5
    endloop
  endfacet
  facet normal 0 0 1
    outer loop
      vertex -11.75 0 5
      vertex -15.5 10.5 5
      vertex -15.5 -10.5 5
    endloop
  endfacet
  facet normal 0 0 1
    outer loop
      vertex -11.4932 -2.44296 5
      vertex -13.5321 -8.21442 5
      vertex -13.2856 -7.96791 5
    endloop
  endfacet
  facet normal 0 0 1
    outer loop
      vertex -11.75 0 5
      vertex -13.732 -8.5 5
      vertex -13.5321 -8.21442 5
    endloop
  endfacet
  facet normal 0 0 1
    outer loop
      vertex -11.75 0 5
      vertex -15.5 -10.5 5
      vertex -13.732 -8.5 5
    endloop
  endfacet
  facet normal 0 0 1
    outer loop
      vertex -13.732 -8.5 5
      vertex -15.5 -10.5 5
      vertex -13.8794 -8.81596 5
    endloop
  endfacet
  facet normal 0 0 1
    outer loop
      vertex -15.5 10.5 5
      vertex -13.4341 12.962 5
      vertex -14.25 12.6651 5
    endloop
  endfacet
  facet normal 0 0 1
    outer loop
      vertex 15.5 10.5 5
      vertex 11.75 0 5
      vertex 15.5 -10.5 5
    endloop
  endfacet
  facet normal -0 0 1
    outer loop
      vertex 10.7342 -4.77915 5
      vertex 15.5 -10.5 5
      vertex 11.4932 -2.44296 5
    endloop
  endfacet
  facet normal -0 0 1
    outer loop
      vertex 11.4932 -2.44296 5
      vertex 15.5 -10.5 5
      vertex 11.75 0 5
    endloop
  endfacet
  facet normal 0 0 1
    outer loop
      vertex 11.75 0 5
      vertex 13.732 8.5 5
      vertex 13.5321 8.21442 5
    endloop
  endfacet
  facet normal -0 0 1
    outer loop
      vertex 9.50595 -6.90648 5
      vertex 15.5 -10.5 5
      vertex 10.7342 -4.77915 5
    endloop
  endfacet
  facet normal 0 0 1
    outer loop
      vertex 11.75 0 5
      vertex 13.5321 8.21442 5
      vertex 13.2856 7.96791 5
    endloop
  endfacet
  facet normal 0 0 1
    outer loop
      vertex 11.75 0 5
      vertex 13.2856 7.96791 5
      vertex 13 7.76795 5
    endloop
  endfacet
  facet normal 0 0 1
    outer loop
      vertex 11.75 0 5
      vertex 13 7.76795 5
      vertex 12.684 7.62061 5
    endloop
  endfacet
  facet normal 0 0 1
    outer loop
      vertex 11.75 0 5
      vertex 12.684 7.62061 5
      vertex 12.3473 7.53038 5
    endloop
  endfacet
  facet normal 0 0 1
    outer loop
      vertex 11.75 0 5
      vertex 12.3473 7.53038 5
      vertex 12 7.5 5
    endloop
  endfacet
  facet normal 0 -0 1
    outer loop
      vertex 13.4341 -12.962 5
      vertex 15.5 -10.5 5
      vertex 9.50595 -6.90648 5
    endloop
  endfacet
  facet normal 0 0 1
    outer loop
      vertex 15.5 -10.5 5
      vertex 13.4341 -12.962 5
      vertex 15.3492 -11.3551 5
    endloop
  endfacet
  facet normal 0 0 1
    outer loop
      vertex 15.3492 -11.3551 5
      vertex 13.4341 -12.962 5
      vertex 14.9151 -12.107 5
    endloop
  endfacet
  facet normal 0 0 1
    outer loop
      vertex 14.9151 -12.107 5
      vertex 13.4341 -12.962 5
      vertex 14.25 -12.6651 5
    endloop
  endfacet
  facet normal -0 0 1
    outer loop
      vertex 7.86228 -8.73195 5
      vertex 13.4341 -12.962 5
      vertex 9.50595 -6.90648 5
    endloop
  endfacet
  facet normal -0 0 1
    outer loop
      vertex 5.875 -10.1758 5
      vertex 13.4341 -12.962 5
      vertex 7.86228 -8.73195 5
    endloop
  endfacet
  facet normal -0 0 1
    outer loop
      vertex 3.63095 -11.1749 5
      vertex 13.4341 -12.962 5
      vertex 5.875 -10.1758 5
    endloop
  endfacet
  facet normal -0 0 1
    outer loop
      vertex 1.22821 -11.6856 5
      vertex 13.4341 -12.962 5
      vertex 3.63095 -11.1749 5
    endloop
  endfacet
  facet normal -0 0 1
    outer loop
      vertex -1.22821 -11.6856 5
      vertex 13.4341 -12.962 5
      vertex 1.22821 -11.6856 5
    endloop
  endfacet
  facet normal 0 0 1
    outer loop
      vertex -10.1206 -8.81596 5
      vertex -7.86228 -8.73195 5
      vertex -9.50595 -6.90648 5
    endloop
  endfacet
  facet normal 0 0 1
    outer loop
      vertex -10.0304 -9.8473 5
      vertex -7.86228 -8.73195 5
      vertex -10 -9.5 5
    endloop
  endfacet
  facet normal 0 0 1
    outer loop
      vertex -10.1206 -10.184 5
      vertex -7.86228 -8.73195 5
      vertex -10.0304 -9.8473 5
    endloop
  endfacet
  facet normal 0 0 1
    outer loop
      vertex -7.86228 -8.73195 5
      vertex -10.1206 -10.184 5
      vertex -5.875 -10.1758 5
    endloop
  endfacet
  facet normal 0 0 1
    outer loop
      vertex -10.2679 -10.5 5
      vertex -5.875 -10.1758 5
      vertex -10.1206 -10.184 5
    endloop
  endfacet
  facet normal 0 0 1
    outer loop
      vertex -10.4679 -10.7856 5
      vertex -5.875 -10.1758 5
      vertex -10.2679 -10.5 5
    endloop
  endfacet
  facet normal 0 0 1
    outer loop
      vertex -10.7144 -11.0321 5
      vertex -5.875 -10.1758 5
      vertex -10.4679 -10.7856 5
    endloop
  endfacet
  facet normal 0 0 1
    outer loop
      vertex -5.875 -10.1758 5
      vertex -10.7144 -11.0321 5
      vertex -3.63095 -11.1749 5
    endloop
  endfacet
  facet normal 0 0 1
    outer loop
      vertex -11 -11.232 5
      vertex -3.63095 -11.1749 5
      vertex -10.7144 -11.0321 5
    endloop
  endfacet
  facet normal 0 0 1
    outer loop
      vertex -13.4341 -12.962 5
      vertex -3.63095 -11.1749 5
      vertex -11 -11.232 5
    endloop
  endfacet
  facet normal 0 0 1
    outer loop
      vertex -3.63095 -11.1749 5
      vertex -13.4341 -12.962 5
      vertex -1.22821 -11.6856 5
    endloop
  endfacet
  facet normal 0 0 1
    outer loop
      vertex -13.4341 -12.962 5
      vertex -11 -11.232 5
      vertex -11.316 -11.3794 5
    endloop
  endfacet
  facet normal 0 0 1
    outer loop
      vertex -13.4341 -12.962 5
      vertex -11.316 -11.3794 5
      vertex -11.6527 -11.4696 5
    endloop
  endfacet
  facet normal 0 0 1
    outer loop
      vertex -13.4341 -12.962 5
      vertex -11.6527 -11.4696 5
      vertex -12 -11.5 5
    endloop
  endfacet
  facet normal 0 0 1
    outer loop
      vertex -1.22821 -11.6856 5
      vertex -13.4341 -12.962 5
      vertex 13.4341 -12.962 5
    endloop
  endfacet
  facet normal 0 0 1
    outer loop
      vertex -12.3473 -11.4696 5
      vertex -13.4341 -12.962 5
      vertex -12 -11.5 5
    endloop
  endfacet
  facet normal 0 0 1
    outer loop
      vertex -12.684 -11.3794 5
      vertex -13.4341 -12.962 5
      vertex -12.3473 -11.4696 5
    endloop
  endfacet
  facet normal 0 0 1
    outer loop
      vertex -13 -11.232 5
      vertex -13.4341 -12.962 5
      vertex -12.684 -11.3794 5
    endloop
  endfacet
  facet normal 0 0 1
    outer loop
      vertex -14.25 -12.6651 5
      vertex -13 -11.232 5
      vertex -13.2856 -11.0321 5
    endloop
  endfacet
  facet normal 0 0 1
    outer loop
      vertex -14.9151 -12.107 5
      vertex -13.2856 -11.0321 5
      vertex -13.5321 -10.7856 5
    endloop
  endfacet
  facet normal 0 0 1
    outer loop
      vertex -15.3492 -11.3551 5
      vertex -13.5321 -10.7856 5
      vertex -13.732 -10.5 5
    endloop
  endfacet
  facet normal 0 0 1
    outer loop
      vertex -15.5 -10.5 5
      vertex -13.732 -10.5 5
      vertex -13.8794 -10.184 5
    endloop
  endfacet
  facet normal 0 0 1
    outer loop
      vertex -15.5 -10.5 5
      vertex -13.8794 -10.184 5
      vertex -13.9696 -9.8473 5
    endloop
  endfacet
  facet normal 0 0 1
    outer loop
      vertex -13 -11.232 5
      vertex -14.25 -12.6651 5
      vertex -13.4341 -12.962 5
    endloop
  endfacet
  facet normal 0 0 1
    outer loop
      vertex -15.5 -10.5 5
      vertex -13.9696 -9.8473 5
      vertex -14 -9.5 5
    endloop
  endfacet
  facet normal 0 0 1
    outer loop
      vertex -13.8794 -8.81596 5
      vertex -15.5 -10.5 5
      vertex -13.9696 -9.1527 5
    endloop
  endfacet
  facet normal 0 0 1
    outer loop
      vertex -15.5 10.5 5
      vertex -14.25 12.6651 5
      vertex -14.9151 12.107 5
    endloop
  endfacet
  facet normal 0 0 1
    outer loop
      vertex -13.9696 -9.1527 5
      vertex -15.5 -10.5 5
      vertex -14 -9.5 5
    endloop
  endfacet
  facet normal 0 0 1
    outer loop
      vertex -15.5 10.5 5
      vertex -14.9151 12.107 5
      vertex -15.3492 11.3551 5
    endloop
  endfacet
  facet normal 0 0 1
    outer loop
      vertex -13.732 -10.5 5
      vertex -15.5 -10.5 5
      vertex -15.3492 -11.3551 5
    endloop
  endfacet
  facet normal 0 0 1
    outer loop
      vertex -13.2856 -11.0321 5
      vertex -14.9151 -12.107 5
      vertex -14.25 -12.6651 5
    endloop
  endfacet
  facet normal 0 0 1
    outer loop
      vertex -13.5321 -10.7856 5
      vertex -15.3492 -11.3551 5
      vertex -14.9151 -12.107 5
    endloop
  endfacet
  facet normal 0.86603 0.499992 0
    outer loop
      vertex 15.3492 11.3551 5
      vertex 14.9151 12.107 0
      vertex 14.9151 12.107 5
    endloop
  endfacet
  facet normal 0.86603 0.499992 0
    outer loop
      vertex 14.9151 12.107 0
      vertex 15.3492 11.3551 5
      vertex 15.3492 11.3551 0
    endloop
  endfacet
  facet normal 0.984803 0.173674 0
    outer loop
      vertex 15.5 10.5 5
      vertex 15.3492 11.3551 0
      vertex 15.3492 11.3551 5
    endloop
  endfacet
  facet normal 0.984803 0.173674 0
    outer loop
      vertex 15.3492 11.3551 0
      vertex 15.5 10.5 5
      vertex 15.5 10.5 0
    endloop
  endfacet
  facet normal -0.984803 0.173674 0
    outer loop
      vertex -15.5 10.5 0
      vertex -15.3492 11.3551 5
      vertex -15.3492 11.3551 0
    endloop
  endfacet
  facet normal -0.984803 0.173674 0
    outer loop
      vertex -15.3492 11.3551 5
      vertex -15.5 10.5 0
      vertex -15.5 10.5 5
    endloop
  endfacet
  facet normal -0.86603 0.499992 0
    outer loop
      vertex -15.3492 11.3551 0
      vertex -14.9151 12.107 5
      vertex -14.9151 12.107 0
    endloop
  endfacet
  facet normal -0.86603 0.499992 0
    outer loop
      vertex -14.9151 12.107 5
      vertex -15.3492 11.3551 0
      vertex -15.3492 11.3551 5
    endloop
  endfacet
  facet normal -0.341956 0.939716 0
    outer loop
      vertex -13.4341 12.962 0
      vertex -14.25 12.6651 5
      vertex -13.4341 12.962 5
    endloop
  endfacet
  facet normal -0.341956 0.939716 0
    outer loop
      vertex -14.25 12.6651 5
      vertex -13.4341 12.962 0
      vertex -14.25 12.6651 0
    endloop
  endfacet
  facet normal 0.86603 -0.499992 0
    outer loop
      vertex 14.9151 -12.107 5
      vertex 15.3492 -11.3551 0
      vertex 15.3492 -11.3551 5
    endloop
  endfacet
  facet normal 0.86603 -0.499992 0
    outer loop
      vertex 15.3492 -11.3551 0
      vertex 14.9151 -12.107 5
      vertex 14.9151 -12.107 0
    endloop
  endfacet
  facet normal 0.984803 -0.173674 0
    outer loop
      vertex 15.3492 -11.3551 5
      vertex 15.5 -10.5 0
      vertex 15.5 -10.5 5
    endloop
  endfacet
  facet normal 0.984803 -0.173674 0
    outer loop
      vertex 15.5 -10.5 0
      vertex 15.3492 -11.3551 5
      vertex 15.3492 -11.3551 0
    endloop
  endfacet
  facet normal -0.984803 -0.173674 0
    outer loop
      vertex -15.3492 -11.3551 0
      vertex -15.5 -10.5 5
      vertex -15.5 -10.5 0
    endloop
  endfacet
  facet normal -0.984803 -0.173674 0
    outer loop
      vertex -15.5 -10.5 5
      vertex -15.3492 -11.3551 0
      vertex -15.3492 -11.3551 5
    endloop
  endfacet
  facet normal 0.951065 0.30899 0
    outer loop
      vertex 11.4932 2.44296 9
      vertex 10.7342 4.77915 5
      vertex 10.7342 4.77915 9
    endloop
  endfacet
  facet normal 0.951065 0.30899 0
    outer loop
      vertex 10.7342 4.77915 5
      vertex 11.4932 2.44296 9
      vertex 11.4932 2.44296 5
    endloop
  endfacet
  facet normal 0.99452 0.104542 0
    outer loop
      vertex 11.75 0 9
      vertex 11.4932 2.44296 5
      vertex 11.4932 2.44296 9
    endloop
  endfacet
  facet normal 0.99452 0.104542 0
    outer loop
      vertex 11.4932 2.44296 5
      vertex 11.75 0 9
      vertex 11.75 0 5
    endloop
  endfacet
  facet normal 0.866019 0.500011 0
    outer loop
      vertex 10.7342 4.77915 9
      vertex 9.50595 6.90648 5
      vertex 9.50595 6.90648 9
    endloop
  endfacet
  facet normal 0.866019 0.500011 0
    outer loop
      vertex 9.50595 6.90648 5
      vertex 10.7342 4.77915 9
      vertex 10.7342 4.77915 5
    endloop
  endfacet
  facet normal 0.406731 -0.913548 0
    outer loop
      vertex 3.63095 -11.1749 5
      vertex 5.875 -10.1758 9
      vertex 3.63095 -11.1749 9
    endloop
  endfacet
  facet normal 0.406731 -0.913548 0
    outer loop
      vertex 5.875 -10.1758 9
      vertex 3.63095 -11.1749 5
      vertex 5.875 -10.1758 5
    endloop
  endfacet
  facet normal -0.207905 0.978149 0
    outer loop
      vertex -1.22821 11.6856 5
      vertex -3.63095 11.1749 9
      vertex -1.22821 11.6856 9
    endloop
  endfacet
  facet normal -0.207905 0.978149 0
    outer loop
      vertex -3.63095 11.1749 9
      vertex -1.22821 11.6856 5
      vertex -3.63095 11.1749 5
    endloop
  endfacet
  facet normal 0.406731 0.913548 -0
    outer loop
      vertex 5.875 10.1758 5
      vertex 3.63095 11.1749 9
      vertex 5.875 10.1758 9
    endloop
  endfacet
  facet normal 0.406731 0.913548 0
    outer loop
      vertex 3.63095 11.1749 9
      vertex 5.875 10.1758 5
      vertex 3.63095 11.1749 5
    endloop
  endfacet
  facet normal 0.99452 -0.104542 0
    outer loop
      vertex 11.4932 -2.44296 9
      vertex 11.75 0 5
      vertex 11.75 0 9
    endloop
  endfacet
  facet normal 0.99452 -0.104542 0
    outer loop
      vertex 11.75 0 5
      vertex 11.4932 -2.44296 9
      vertex 11.4932 -2.44296 5
    endloop
  endfacet
  facet normal -0.866019 -0.500011 0
    outer loop
      vertex -9.50595 -6.90648 5
      vertex -10.7342 -4.77915 9
      vertex -10.7342 -4.77915 5
    endloop
  endfacet
  facet normal -0.866019 -0.500011 0
    outer loop
      vertex -10.7342 -4.77915 9
      vertex -9.50595 -6.90648 5
      vertex -9.50595 -6.90648 9
    endloop
  endfacet
  facet normal 0.743143 0.669133 0
    outer loop
      vertex 9.50595 6.90648 9
      vertex 7.86228 8.73195 5
      vertex 7.86228 8.73195 9
    endloop
  endfacet
  facet normal 0.743143 0.669133 0
    outer loop
      vertex 7.86228 8.73195 5
      vertex 9.50595 6.90648 9
      vertex 9.50595 6.90648 5
    endloop
  endfacet
  facet normal -0.866019 0.500011 0
    outer loop
      vertex -10.7342 4.77915 5
      vertex -9.50595 6.90648 9
      vertex -9.50595 6.90648 5
    endloop
  endfacet
  facet normal -0.866019 0.500011 0
    outer loop
      vertex -9.50595 6.90648 9
      vertex -10.7342 4.77915 5
      vertex -10.7342 4.77915 9
    endloop
  endfacet
  facet normal -0.743143 0.669133 0
    outer loop
      vertex -9.50595 6.90648 5
      vertex -7.86228 8.73195 9
      vertex -7.86228 8.73195 5
    endloop
  endfacet
  facet normal -0.743143 0.669133 0
    outer loop
      vertex -7.86228 8.73195 9
      vertex -9.50595 6.90648 5
      vertex -9.50595 6.90648 9
    endloop
  endfacet
  facet normal -0.99452 0.104542 0
    outer loop
      vertex -11.75 0 5
      vertex -11.4932 2.44296 9
      vertex -11.4932 2.44296 5
    endloop
  endfacet
  facet normal -0.99452 0.104542 0
    outer loop
      vertex -11.4932 2.44296 9
      vertex -11.75 0 5
      vertex -11.75 0 9
    endloop
  endfacet
  facet normal 0.587787 -0.809016 0
    outer loop
      vertex 5.875 -10.1758 5
      vertex 7.86228 -8.73195 9
      vertex 5.875 -10.1758 9
    endloop
  endfacet
  facet normal 0.587787 -0.809016 0
    outer loop
      vertex 7.86228 -8.73195 9
      vertex 5.875 -10.1758 5
      vertex 7.86228 -8.73195 5
    endloop
  endfacet
  facet normal -0.587787 0.809016 0
    outer loop
      vertex -5.875 10.1758 5
      vertex -7.86228 8.73195 9
      vertex -5.875 10.1758 9
    endloop
  endfacet
  facet normal -0.587787 0.809016 0
    outer loop
      vertex -7.86228 8.73195 9
      vertex -5.875 10.1758 5
      vertex -7.86228 8.73195 5
    endloop
  endfacet
  facet normal 0 1 -0
    outer loop
      vertex 1.22821 11.6856 5
      vertex -1.22821 11.6856 9
      vertex 1.22821 11.6856 9
    endloop
  endfacet
  facet normal 0 1 0
    outer loop
      vertex -1.22821 11.6856 9
      vertex 1.22821 11.6856 5
      vertex -1.22821 11.6856 5
    endloop
  endfacet
  facet normal -0.406731 -0.913548 0
    outer loop
      vertex -5.875 -10.1758 5
      vertex -3.63095 -11.1749 9
      vertex -5.875 -10.1758 9
    endloop
  endfacet
  facet normal -0.406731 -0.913548 -0
    outer loop
      vertex -3.63095 -11.1749 9
      vertex -5.875 -10.1758 5
      vertex -3.63095 -11.1749 5
    endloop
  endfacet
  facet normal 0 0 1
    outer loop
      vertex 1.6 -7.2 9
      vertex -1.6 -7.2 9
      vertex -1.22821 -11.6856 9
    endloop
  endfacet
  facet normal 0 0 1
    outer loop
      vertex -1.6 -7.2 9
      vertex -3.63095 -11.1749 9
      vertex -1.22821 -11.6856 9
    endloop
  endfacet
  facet normal 0 0 1
    outer loop
      vertex -1.6 -7.2 9
      vertex -5.875 -10.1758 9
      vertex -3.63095 -11.1749 9
    endloop
  endfacet
  facet normal 0 0 1
    outer loop
      vertex -1.6 -7.2 9
      vertex -7.86228 -8.73195 9
      vertex -5.875 -10.1758 9
    endloop
  endfacet
  facet normal -0 0 1
    outer loop
      vertex -8.4 -7.2 9
      vertex -7.86228 -8.73195 9
      vertex -1.6 -7.2 9
    endloop
  endfacet
  facet normal 0 0 1
    outer loop
      vertex -8.4 -7.2 9
      vertex -9.50595 -6.90648 9
      vertex -7.86228 -8.73195 9
    endloop
  endfacet
  facet normal 0 0 1
    outer loop
      vertex -11.4932 2.44296 9
      vertex -8.4 7.2 9
      vertex -10.7342 4.77915 9
    endloop
  endfacet
  facet normal 0 0 1
    outer loop
      vertex -11.75 0 9
      vertex -8.4 7.2 9
      vertex -11.4932 2.44296 9
    endloop
  endfacet
  facet normal 0 0 1
    outer loop
      vertex -8.4 -7.2 9
      vertex -10.7342 -4.77915 9
      vertex -9.50595 -6.90648 9
    endloop
  endfacet
  facet normal 0 0 1
    outer loop
      vertex -8.4 7.2 9
      vertex -11.75 0 9
      vertex -8.4 -7.2 9
    endloop
  endfacet
  facet normal 0 0 1
    outer loop
      vertex -8.4 -7.2 9
      vertex -11.4932 -2.44296 9
      vertex -10.7342 -4.77915 9
    endloop
  endfacet
  facet normal 0 0 1
    outer loop
      vertex -8.4 -7.2 9
      vertex -11.75 0 9
      vertex -11.4932 -2.44296 9
    endloop
  endfacet
  facet normal 0 0 1
    outer loop
      vertex 8.4 7.2 9
      vertex 11.75 0 9
      vertex 11.4932 2.44296 9
    endloop
  endfacet
  facet normal 0 0 1
    outer loop
      vertex 8.4 7.2 9
      vertex 11.4932 2.44296 9
      vertex 10.7342 4.77915 9
    endloop
  endfacet
  facet normal 0 0 1
    outer loop
      vertex 8.4 -7.2 9
      vertex 11.75 0 9
      vertex 8.4 7.2 9
    endloop
  endfacet
  facet normal 0 0 1
    outer loop
      vertex 8.4 7.2 9
      vertex 10.7342 4.77915 9
      vertex 9.50595 6.90648 9
    endloop
  endfacet
  facet normal 0 0 1
    outer loop
      vertex 11.75 0 9
      vertex 8.4 -7.2 9
      vertex 11.4932 -2.44296 9
    endloop
  endfacet
  facet normal 0 0 1
    outer loop
      vertex 11.4932 -2.44296 9
      vertex 8.4 -7.2 9
      vertex 10.7342 -4.77915 9
    endloop
  endfacet
  facet normal 0 0 1
    outer loop
      vertex 7.86228 8.73195 9
      vertex 8.4 7.2 9
      vertex 9.50595 6.90648 9
    endloop
  endfacet
  facet normal 0 0 1
    outer loop
      vertex 5.875 10.1758 9
      vertex 8.4 7.2 9
      vertex 7.86228 8.73195 9
    endloop
  endfacet
  facet normal 0 0 1
    outer loop
      vertex 1.6 7.2 9
      vertex 5.875 10.1758 9
      vertex 3.63095 11.1749 9
    endloop
  endfacet
  facet normal 0 0 1
    outer loop
      vertex 5.875 10.1758 9
      vertex 1.6 7.2 9
      vertex 8.4 7.2 9
    endloop
  endfacet
  facet normal 0 0 1
    outer loop
      vertex -1.6 7.2 9
      vertex 1.6 7.2 9
      vertex 1.22821 11.6856 9
    endloop
  endfacet
  facet normal 0 0 1
    outer loop
      vertex 1.22821 11.6856 9
      vertex 1.6 7.2 9
      vertex 3.63095 11.1749 9
    endloop
  endfacet
  facet normal 0 0 1
    outer loop
      vertex 10.7342 -4.77915 9
      vertex 8.4 -7.2 9
      vertex 9.50595 -6.90648 9
    endloop
  endfacet
  facet normal -0 0 1
    outer loop
      vertex 8.4 -7.2 9
      vertex 7.86228 -8.73195 9
      vertex 9.50595 -6.90648 9
    endloop
  endfacet
  facet normal 0 0 1
    outer loop
      vertex 8.4 -7.2 9
      vertex 5.875 -10.1758 9
      vertex 7.86228 -8.73195 9
    endloop
  endfacet
  facet normal -0 0 1
    outer loop
      vertex 1.6 -7.2 9
      vertex 5.875 -10.1758 9
      vertex 8.4 -7.2 9
    endloop
  endfacet
  facet normal 0 0 1
    outer loop
      vertex 5.875 -10.1758 9
      vertex 1.6 -7.2 9
      vertex 3.63095 -11.1749 9
    endloop
  endfacet
  facet normal 0 0 1
    outer loop
      vertex 1.6 -7.2 9
      vertex 1.22821 -11.6856 9
      vertex 3.63095 -11.1749 9
    endloop
  endfacet
  facet normal 0 0 1
    outer loop
      vertex 1.6 7.2 9
      vertex -1.6 7.2 9
      vertex 1.6 -7.2 9
    endloop
  endfacet
  facet normal 0 0 1
    outer loop
      vertex -1.6 7.2 9
      vertex 1.22821 11.6856 9
      vertex -1.22821 11.6856 9
    endloop
  endfacet
  facet normal 0 0 1
    outer loop
      vertex -1.6 -7.2 9
      vertex 1.6 -7.2 9
      vertex -1.6 7.2 9
    endloop
  endfacet
  facet normal 0 0 1
    outer loop
      vertex 1.6 -7.2 9
      vertex -1.22821 -11.6856 9
      vertex 1.22821 -11.6856 9
    endloop
  endfacet
  facet normal -0 0 1
    outer loop
      vertex -3.63095 11.1749 9
      vertex -1.6 7.2 9
      vertex -1.22821 11.6856 9
    endloop
  endfacet
  facet normal -0 0 1
    outer loop
      vertex -5.875 10.1758 9
      vertex -1.6 7.2 9
      vertex -3.63095 11.1749 9
    endloop
  endfacet
  facet normal -0 0 1
    outer loop
      vertex -7.86228 8.73195 9
      vertex -1.6 7.2 9
      vertex -5.875 10.1758 9
    endloop
  endfacet
  facet normal 0 0 1
    outer loop
      vertex -7.86228 8.73195 9
      vertex -8.4 7.2 9
      vertex -1.6 7.2 9
    endloop
  endfacet
  facet normal 0 0 1
    outer loop
      vertex -10.7342 4.77915 9
      vertex -8.4 7.2 9
      vertex -9.50595 6.90648 9
    endloop
  endfacet
  facet normal 0 0 1
    outer loop
      vertex -9.50595 6.90648 9
      vertex -8.4 7.2 9
      vertex -7.86228 8.73195 9
    endloop
  endfacet
  facet normal 0.743143 -0.669133 0
    outer loop
      vertex 7.86228 -8.73195 9
      vertex 9.50595 -6.90648 5
      vertex 9.50595 -6.90648 9
    endloop
  endfacet
  facet normal 0.743143 -0.669133 0
    outer loop
      vertex 9.50595 -6.90648 5
      vertex 7.86228 -8.73195 9
      vertex 7.86228 -8.73195 5
    endloop
  endfacet
  facet normal -0.951065 0.30899 0
    outer loop
      vertex -11.4932 2.44296 5
      vertex -10.7342 4.77915 9
      vertex -10.7342 4.77915 5
    endloop
  endfacet
  facet normal -0.951065 0.30899 0
    outer loop
      vertex -10.7342 4.77915 9
      vertex -11.4932 2.44296 5
      vertex -11.4932 2.44296 9
    endloop
  endfacet
  facet normal -0.743143 -0.669133 0
    outer loop
      vertex -7.86228 -8.73195 5
      vertex -9.50595 -6.90648 9
      vertex -9.50595 -6.90648 5
    endloop
  endfacet
  facet normal -0.743143 -0.669133 0
    outer loop
      vertex -9.50595 -6.90648 9
      vertex -7.86228 -8.73195 5
      vertex -7.86228 -8.73195 9
    endloop
  endfacet
  facet normal 0.866019 -0.500011 0
    outer loop
      vertex 9.50595 -6.90648 9
      vertex 10.7342 -4.77915 5
      vertex 10.7342 -4.77915 9
    endloop
  endfacet
  facet normal 0.866019 -0.500011 0
    outer loop
      vertex 10.7342 -4.77915 5
      vertex 9.50595 -6.90648 9
      vertex 9.50595 -6.90648 5
    endloop
  endfacet
  facet normal 0.207905 0.978149 -0
    outer loop
      vertex 3.63095 11.1749 5
      vertex 1.22821 11.6856 9
      vertex 3.63095 11.1749 9
    endloop
  endfacet
  facet normal 0.207905 0.978149 0
    outer loop
      vertex 1.22821 11.6856 9
      vertex 3.63095 11.1749 5
      vertex 1.22821 11.6856 5
    endloop
  endfacet
  facet normal 0.587787 0.809016 -0
    outer loop
      vertex 7.86228 8.73195 5
      vertex 5.875 10.1758 9
      vertex 7.86228 8.73195 9
    endloop
  endfacet
  facet normal 0.587787 0.809016 0
    outer loop
      vertex 5.875 10.1758 9
      vertex 7.86228 8.73195 5
      vertex 5.875 10.1758 5
    endloop
  endfacet
  facet normal -0.99452 -0.104542 0
    outer loop
      vertex -11.4932 -2.44296 5
      vertex -11.75 0 9
      vertex -11.75 0 5
    endloop
  endfacet
  facet normal -0.99452 -0.104542 0
    outer loop
      vertex -11.75 0 9
      vertex -11.4932 -2.44296 5
      vertex -11.4932 -2.44296 9
    endloop
  endfacet
  facet normal -0.406731 0.913548 0
    outer loop
      vertex -3.63095 11.1749 5
      vertex -5.875 10.1758 9
      vertex -3.63095 11.1749 9
    endloop
  endfacet
  facet normal -0.406731 0.913548 0
    outer loop
      vertex -5.875 10.1758 9
      vertex -3.63095 11.1749 5
      vertex -5.875 10.1758 5
    endloop
  endfacet
  facet normal 0 -1 0
    outer loop
      vertex -1.22821 -11.6856 5
      vertex 1.22821 -11.6856 9
      vertex -1.22821 -11.6856 9
    endloop
  endfacet
  facet normal 0 -1 -0
    outer loop
      vertex 1.22821 -11.6856 9
      vertex -1.22821 -11.6856 5
      vertex 1.22821 -11.6856 5
    endloop
  endfacet
  facet normal -0.951065 -0.30899 0
    outer loop
      vertex -10.7342 -4.77915 5
      vertex -11.4932 -2.44296 9
      vertex -11.4932 -2.44296 5
    endloop
  endfacet
  facet normal -0.951065 -0.30899 0
    outer loop
      vertex -11.4932 -2.44296 9
      vertex -10.7342 -4.77915 5
      vertex -10.7342 -4.77915 9
    endloop
  endfacet
  facet normal 0.951065 -0.30899 0
    outer loop
      vertex 10.7342 -4.77915 9
      vertex 11.4932 -2.44296 5
      vertex 11.4932 -2.44296 9
    endloop
  endfacet
  facet normal 0.951065 -0.30899 0
    outer loop
      vertex 11.4932 -2.44296 5
      vertex 10.7342 -4.77915 9
      vertex 10.7342 -4.77915 5
    endloop
  endfacet
  facet normal -0.587787 -0.809016 0
    outer loop
      vertex -7.86228 -8.73195 5
      vertex -5.875 -10.1758 9
      vertex -7.86228 -8.73195 9
    endloop
  endfacet
  facet normal -0.587787 -0.809016 -0
    outer loop
      vertex -5.875 -10.1758 9
      vertex -7.86228 -8.73195 5
      vertex -5.875 -10.1758 5
    endloop
  endfacet
  facet normal 0.207905 -0.978149 0
    outer loop
      vertex 1.22821 -11.6856 5
      vertex 3.63095 -11.1749 9
      vertex 1.22821 -11.6856 9
    endloop
  endfacet
  facet normal 0.207905 -0.978149 0
    outer loop
      vertex 3.63095 -11.1749 9
      vertex 1.22821 -11.6856 5
      vertex 3.63095 -11.1749 5
    endloop
  endfacet
  facet normal -0.207905 -0.978149 0
    outer loop
      vertex -3.63095 -11.1749 5
      vertex -1.22821 -11.6856 9
      vertex -3.63095 -11.1749 9
    endloop
  endfacet
  facet normal -0.207905 -0.978149 -0
    outer loop
      vertex -1.22821 -11.6856 9
      vertex -3.63095 -11.1749 5
      vertex -1.22821 -11.6856 5
    endloop
  endfacet
  facet normal -1 0 0
    outer loop
      vertex -1.6 -7.2 0
      vertex -1.6 7.2 9
      vertex -1.6 7.2 0
    endloop
  endfacet
  facet normal -1 -0 0
    outer loop
      vertex -1.6 7.2 9
      vertex -1.6 -7.2 0
      vertex -1.6 -7.2 9
    endloop
  endfacet
  facet normal 1 -0 0
    outer loop
      vertex -8.4 -7.2 9
      vertex -8.4 7.2 0
      vertex -8.4 7.2 9
    endloop
  endfacet
  facet normal 1 0 0
    outer loop
      vertex -8.4 7.2 0
      vertex -8.4 -7.2 9
      vertex -8.4 -7.2 0
    endloop
  endfacet
  facet normal 0 -1 0
    outer loop
      vertex -8.4 7.2 0
      vertex -1.6 7.2 9
      vertex -8.4 7.2 9
    endloop
  endfacet
  facet normal 0 -1 -0
    outer loop
      vertex -1.6 7.2 9
      vertex -8.4 7.2 0
      vertex -1.6 7.2 0
    endloop
  endfacet
  facet normal 0 1 -0
    outer loop
      vertex -1.6 -7.2 0
      vertex -8.4 -7.2 9
      vertex -1.6 -7.2 9
    endloop
  endfacet
  facet normal 0 1 0
    outer loop
      vertex -8.4 -7.2 9
      vertex -1.6 -7.2 0
      vertex -8.4 -7.2 0
    endloop
  endfacet
  facet normal -1 0 0
    outer loop
      vertex 8.4 -7.2 0
      vertex 8.4 7.2 9
      vertex 8.4 7.2 0
    endloop
  endfacet
  facet normal -1 -0 0
    outer loop
      vertex 8.4 7.2 9
      vertex 8.4 -7.2 0
      vertex 8.4 -7.2 9
    endloop
  endfacet
  facet normal 1 -0 0
    outer loop
      vertex 1.6 -7.2 9
      vertex 1.6 7.2 0
      vertex 1.6 7.2 9
    endloop
  endfacet
  facet normal 1 0 0
    outer loop
      vertex 1.6 7.2 0
      vertex 1.6 -7.2 9
      vertex 1.6 -7.2 0
    endloop
  endfacet
  facet normal 0 -1 0
    outer loop
      vertex 1.6 7.2 0
      vertex 8.4 7.2 9
      vertex 1.6 7.2 9
    endloop
  endfacet
  facet normal 0 -1 -0
    outer loop
      vertex 8.4 7.2 9
      vertex 1.6 7.2 0
      vertex 8.4 7.2 0
    endloop
  endfacet
  facet normal 0 1 -0
    outer loop
      vertex 8.4 -7.2 0
      vertex 1.6 -7.2 9
      vertex 8.4 -7.2 9
    endloop
  endfacet
  facet normal 0 1 0
    outer loop
      vertex 1.6 -7.2 9
      vertex 8.4 -7.2 0
      vertex 1.6 -7.2 0
    endloop
  endfacet
endsolid OpenSCAD_Model
